%TF.GenerationSoftware,KiCad,Pcbnew,8.0.1*%
%TF.CreationDate,2024-05-23T19:57:17+02:00*%
%TF.ProjectId,Lab1,4c616231-2e6b-4696-9361-645f70636258,V0.1*%
%TF.SameCoordinates,Original*%
%TF.FileFunction,Legend,Bot*%
%TF.FilePolarity,Positive*%
%FSLAX46Y46*%
G04 Gerber Fmt 4.6, Leading zero omitted, Abs format (unit mm)*
G04 Created by KiCad (PCBNEW 8.0.1) date 2024-05-23 19:57:17*
%MOMM*%
%LPD*%
G01*
G04 APERTURE LIST*
%ADD10C,0.150000*%
%ADD11C,0.120000*%
G04 APERTURE END LIST*
D10*
X125064819Y-97126666D02*
X125779104Y-97126666D01*
X125779104Y-97126666D02*
X125921961Y-97079047D01*
X125921961Y-97079047D02*
X126017200Y-96983809D01*
X126017200Y-96983809D02*
X126064819Y-96840952D01*
X126064819Y-96840952D02*
X126064819Y-96745714D01*
X125160057Y-97555238D02*
X125112438Y-97602857D01*
X125112438Y-97602857D02*
X125064819Y-97698095D01*
X125064819Y-97698095D02*
X125064819Y-97936190D01*
X125064819Y-97936190D02*
X125112438Y-98031428D01*
X125112438Y-98031428D02*
X125160057Y-98079047D01*
X125160057Y-98079047D02*
X125255295Y-98126666D01*
X125255295Y-98126666D02*
X125350533Y-98126666D01*
X125350533Y-98126666D02*
X125493390Y-98079047D01*
X125493390Y-98079047D02*
X126064819Y-97507619D01*
X126064819Y-97507619D02*
X126064819Y-98126666D01*
X147924819Y-97126666D02*
X148639104Y-97126666D01*
X148639104Y-97126666D02*
X148781961Y-97079047D01*
X148781961Y-97079047D02*
X148877200Y-96983809D01*
X148877200Y-96983809D02*
X148924819Y-96840952D01*
X148924819Y-96840952D02*
X148924819Y-96745714D01*
X147924819Y-97507619D02*
X147924819Y-98126666D01*
X147924819Y-98126666D02*
X148305771Y-97793333D01*
X148305771Y-97793333D02*
X148305771Y-97936190D01*
X148305771Y-97936190D02*
X148353390Y-98031428D01*
X148353390Y-98031428D02*
X148401009Y-98079047D01*
X148401009Y-98079047D02*
X148496247Y-98126666D01*
X148496247Y-98126666D02*
X148734342Y-98126666D01*
X148734342Y-98126666D02*
X148829580Y-98079047D01*
X148829580Y-98079047D02*
X148877200Y-98031428D01*
X148877200Y-98031428D02*
X148924819Y-97936190D01*
X148924819Y-97936190D02*
X148924819Y-97650476D01*
X148924819Y-97650476D02*
X148877200Y-97555238D01*
X148877200Y-97555238D02*
X148829580Y-97507619D01*
X115254819Y-48916666D02*
X115969104Y-48916666D01*
X115969104Y-48916666D02*
X116111961Y-48869047D01*
X116111961Y-48869047D02*
X116207200Y-48773809D01*
X116207200Y-48773809D02*
X116254819Y-48630952D01*
X116254819Y-48630952D02*
X116254819Y-48535714D01*
X115588152Y-49821428D02*
X116254819Y-49821428D01*
X115207200Y-49583333D02*
X115921485Y-49345238D01*
X115921485Y-49345238D02*
X115921485Y-49964285D01*
X145154819Y-51416666D02*
X145869104Y-51416666D01*
X145869104Y-51416666D02*
X146011961Y-51369047D01*
X146011961Y-51369047D02*
X146107200Y-51273809D01*
X146107200Y-51273809D02*
X146154819Y-51130952D01*
X146154819Y-51130952D02*
X146154819Y-51035714D01*
X145154819Y-52369047D02*
X145154819Y-51892857D01*
X145154819Y-51892857D02*
X145631009Y-51845238D01*
X145631009Y-51845238D02*
X145583390Y-51892857D01*
X145583390Y-51892857D02*
X145535771Y-51988095D01*
X145535771Y-51988095D02*
X145535771Y-52226190D01*
X145535771Y-52226190D02*
X145583390Y-52321428D01*
X145583390Y-52321428D02*
X145631009Y-52369047D01*
X145631009Y-52369047D02*
X145726247Y-52416666D01*
X145726247Y-52416666D02*
X145964342Y-52416666D01*
X145964342Y-52416666D02*
X146059580Y-52369047D01*
X146059580Y-52369047D02*
X146107200Y-52321428D01*
X146107200Y-52321428D02*
X146154819Y-52226190D01*
X146154819Y-52226190D02*
X146154819Y-51988095D01*
X146154819Y-51988095D02*
X146107200Y-51892857D01*
X146107200Y-51892857D02*
X146059580Y-51845238D01*
D11*
%TO.C,J2*%
X126610000Y-96130000D02*
X127940000Y-96130000D01*
X126610000Y-97460000D02*
X126610000Y-96130000D01*
X129210000Y-98790000D02*
X129210000Y-96130000D01*
X147050000Y-96130000D02*
X129210000Y-96130000D01*
X147050000Y-98790000D02*
X129210000Y-98790000D01*
X147050000Y-98790000D02*
X147050000Y-96130000D01*
%TO.C,J3*%
X149470000Y-96130000D02*
X150800000Y-96130000D01*
X149470000Y-97460000D02*
X149470000Y-96130000D01*
X152070000Y-98790000D02*
X152070000Y-96130000D01*
X164830000Y-96130000D02*
X152070000Y-96130000D01*
X164830000Y-98790000D02*
X152070000Y-98790000D01*
X164830000Y-98790000D02*
X164830000Y-96130000D01*
%TO.C,J4*%
X117466000Y-47870000D02*
X118796000Y-47870000D01*
X117466000Y-49200000D02*
X117466000Y-47870000D01*
X120066000Y-50530000D02*
X120066000Y-47870000D01*
X142986000Y-47870000D02*
X120066000Y-47870000D01*
X142986000Y-50530000D02*
X120066000Y-50530000D01*
X142986000Y-50530000D02*
X142986000Y-47870000D01*
%TO.C,J5*%
X144390000Y-47870000D02*
X145720000Y-47870000D01*
X144390000Y-49200000D02*
X144390000Y-47870000D01*
X146990000Y-50530000D02*
X146990000Y-47870000D01*
X164830000Y-47870000D02*
X146990000Y-47870000D01*
X164830000Y-50530000D02*
X146990000Y-50530000D01*
X164830000Y-50530000D02*
X164830000Y-47870000D01*
%TD*%
M02*
