%TF.GenerationSoftware,KiCad,Pcbnew,8.0.1*%
%TF.CreationDate,2024-05-23T19:57:17+02:00*%
%TF.ProjectId,Lab1,4c616231-2e6b-4696-9361-645f70636258,V0.1*%
%TF.SameCoordinates,Original*%
%TF.FileFunction,Copper,L4,Bot*%
%TF.FilePolarity,Positive*%
%FSLAX46Y46*%
G04 Gerber Fmt 4.6, Leading zero omitted, Abs format (unit mm)*
G04 Created by KiCad (PCBNEW 8.0.1) date 2024-05-23 19:57:17*
%MOMM*%
%LPD*%
G01*
G04 APERTURE LIST*
%TA.AperFunction,ComponentPad*%
%ADD10C,1.600000*%
%TD*%
%TA.AperFunction,ComponentPad*%
%ADD11O,1.600000X1.600000*%
%TD*%
%TA.AperFunction,ComponentPad*%
%ADD12R,1.700000X1.700000*%
%TD*%
%TA.AperFunction,ComponentPad*%
%ADD13R,1.800000X1.800000*%
%TD*%
%TA.AperFunction,ComponentPad*%
%ADD14C,1.800000*%
%TD*%
%TA.AperFunction,ComponentPad*%
%ADD15R,1.600000X1.600000*%
%TD*%
%TA.AperFunction,ComponentPad*%
%ADD16C,2.000000*%
%TD*%
%TA.AperFunction,ComponentPad*%
%ADD17O,1.700000X1.700000*%
%TD*%
%TA.AperFunction,Conductor*%
%ADD18C,0.300000*%
%TD*%
G04 APERTURE END LIST*
D10*
%TO.P,R3,1*%
%TO.N,Net-(C1-Pad1)*%
X141330000Y-91000000D03*
D11*
%TO.P,R3,2*%
%TO.N,Net-(OP1--)*%
X131170000Y-91000000D03*
%TD*%
D12*
%TO.P,TP2,1,1*%
%TO.N,Net-(OP1-+)*%
X107200000Y-92300000D03*
%TD*%
D10*
%TO.P,R5,1*%
%TO.N,Net-(C5-Pad2)*%
X155000000Y-60420000D03*
D11*
%TO.P,R5,2*%
%TO.N,Net-(OP2--)*%
X155000000Y-70580000D03*
%TD*%
D12*
%TO.P,TP6,1,1*%
%TO.N,Net-(C6-Pad2)*%
X135250000Y-55500000D03*
%TD*%
%TO.P,TP3,1,1*%
%TO.N,Net-(C3-Pad2)*%
X162500000Y-72000000D03*
%TD*%
D10*
%TO.P,R6,1*%
%TO.N,Net-(OP2--)*%
X146500000Y-70580000D03*
D11*
%TO.P,R6,2*%
%TO.N,Net-(C6-Pad2)*%
X146500000Y-60420000D03*
%TD*%
D13*
%TO.P,D3,1,K*%
%TO.N,Net-(D3-K)*%
X110960000Y-68500000D03*
D14*
%TO.P,D3,2,A*%
%TO.N,LED_Green*%
X113500000Y-68500000D03*
%TD*%
D10*
%TO.P,C3,1*%
%TO.N,Net-(OP1--)*%
X146500000Y-79250000D03*
%TO.P,C3,2*%
%TO.N,Net-(C3-Pad2)*%
X146500000Y-74250000D03*
%TD*%
D15*
%TO.P,C1,1*%
%TO.N,Net-(C1-Pad1)*%
X147800000Y-88000000D03*
D10*
%TO.P,C1,2*%
%TO.N,Net-(J1-Pin_2)*%
X150300000Y-88000000D03*
%TD*%
D15*
%TO.P,OP2,1,NC*%
%TO.N,unconnected-(OP2-NC-Pad1)*%
X132450000Y-69050000D03*
D11*
%TO.P,OP2,2,-*%
%TO.N,Net-(OP2--)*%
X134990000Y-69050000D03*
%TO.P,OP2,3,+*%
%TO.N,Net-(OP1-+)*%
X137530000Y-69050000D03*
%TO.P,OP2,4,V-*%
%TO.N,GND*%
X140070000Y-69050000D03*
%TO.P,OP2,5,NC*%
%TO.N,unconnected-(OP2-NC-Pad5)*%
X140070000Y-61430000D03*
%TO.P,OP2,6*%
%TO.N,Net-(C6-Pad2)*%
X137530000Y-61430000D03*
%TO.P,OP2,7,V+*%
%TO.N,VCC*%
X134990000Y-61430000D03*
%TO.P,OP2,8,NC*%
%TO.N,unconnected-(OP2-NC-Pad8)*%
X132450000Y-61430000D03*
%TD*%
D15*
%TO.P,C5,1*%
%TO.N,Net-(C3-Pad2)*%
X163617677Y-64000000D03*
D10*
%TO.P,C5,2*%
%TO.N,Net-(C5-Pad2)*%
X161117677Y-64000000D03*
%TD*%
D15*
%TO.P,OP1,1,NC*%
%TO.N,unconnected-(OP1-NC-Pad1)*%
X132450000Y-80550000D03*
D11*
%TO.P,OP1,2,-*%
%TO.N,Net-(OP1--)*%
X134990000Y-80550000D03*
%TO.P,OP1,3,+*%
%TO.N,Net-(OP1-+)*%
X137530000Y-80550000D03*
%TO.P,OP1,4,V-*%
%TO.N,GND*%
X140070000Y-80550000D03*
%TO.P,OP1,5,NC*%
%TO.N,unconnected-(OP1-NC-Pad5)*%
X140070000Y-72930000D03*
%TO.P,OP1,6*%
%TO.N,Net-(C3-Pad2)*%
X137530000Y-72930000D03*
%TO.P,OP1,7,V+*%
%TO.N,VCC*%
X134990000Y-72930000D03*
%TO.P,OP1,8,NC*%
%TO.N,unconnected-(OP1-NC-Pad8)*%
X132450000Y-72930000D03*
%TD*%
D10*
%TO.P,R4,1*%
%TO.N,Net-(OP1--)*%
X141580000Y-86000000D03*
D11*
%TO.P,R4,2*%
%TO.N,Net-(C3-Pad2)*%
X131420000Y-86000000D03*
%TD*%
D10*
%TO.P,C4,1*%
%TO.N,Net-(OP1-+)*%
X127000000Y-74750000D03*
%TO.P,C4,2*%
%TO.N,GND*%
X127000000Y-79750000D03*
%TD*%
D12*
%TO.P,TP1,1,1*%
%TO.N,Net-(J1-Pin_2)*%
X163400000Y-89900000D03*
%TD*%
D10*
%TO.P,R11,1*%
%TO.N,Net-(D4-K)*%
X119100000Y-64980000D03*
D11*
%TO.P,R11,2*%
%TO.N,GND*%
X119100000Y-54820000D03*
%TD*%
D13*
%TO.P,D2,1,K*%
%TO.N,Net-(D2-K)*%
X101960000Y-68250000D03*
D14*
%TO.P,D2,2,A*%
%TO.N,LED_Orange*%
X104500000Y-68250000D03*
%TD*%
D12*
%TO.P,TP5,1,1*%
%TO.N,GND*%
X120500000Y-92000000D03*
%TD*%
D10*
%TO.P,R2,1*%
%TO.N,Net-(OP1-+)*%
X126830000Y-85750000D03*
D11*
%TO.P,R2,2*%
%TO.N,GND*%
X116670000Y-85750000D03*
%TD*%
D15*
%TO.P,C2,1*%
%TO.N,Net-(OP1-+)*%
X119000000Y-74382323D03*
D10*
%TO.P,C2,2*%
%TO.N,GND*%
X119000000Y-76382323D03*
%TD*%
%TO.P,R9,1*%
%TO.N,Net-(D2-K)*%
X102700000Y-75520000D03*
D11*
%TO.P,R9,2*%
%TO.N,GND*%
X102700000Y-85680000D03*
%TD*%
D12*
%TO.P,TP7,1,1*%
%TO.N,GND*%
X125250000Y-92000000D03*
%TD*%
D13*
%TO.P,D4,1,K*%
%TO.N,Net-(D4-K)*%
X111000000Y-59750000D03*
D14*
%TO.P,D4,2,A*%
%TO.N,VCC*%
X113540000Y-59750000D03*
%TD*%
D16*
%TO.P,SW1,1,1*%
%TO.N,Push_Button*%
X109000000Y-53500000D03*
X102500000Y-53500000D03*
%TO.P,SW1,2,2*%
%TO.N,GND*%
X109000000Y-49000000D03*
X102500000Y-49000000D03*
%TD*%
D13*
%TO.P,D1,1,K*%
%TO.N,Net-(D1-K)*%
X102250000Y-59500000D03*
D14*
%TO.P,D1,2,A*%
%TO.N,LED_Red*%
X104790000Y-59500000D03*
%TD*%
D10*
%TO.P,R10,1*%
%TO.N,Net-(D3-K)*%
X111300000Y-75520000D03*
D11*
%TO.P,R10,2*%
%TO.N,GND*%
X111300000Y-85680000D03*
%TD*%
D10*
%TO.P,R8,1*%
%TO.N,Net-(D1-K)*%
X107200000Y-75620000D03*
D11*
%TO.P,R8,2*%
%TO.N,GND*%
X107200000Y-85780000D03*
%TD*%
D10*
%TO.P,R1,1*%
%TO.N,VCC*%
X127000000Y-60920000D03*
D11*
%TO.P,R1,2*%
%TO.N,Net-(OP1-+)*%
X127000000Y-71080000D03*
%TD*%
D10*
%TO.P,R7,1*%
%TO.N,Net-(C6-Pad2)*%
X141420000Y-55250000D03*
D11*
%TO.P,R7,2*%
%TO.N,/Vout*%
X151580000Y-55250000D03*
%TD*%
D10*
%TO.P,C6,1*%
%TO.N,Net-(OP2--)*%
X123250000Y-55500000D03*
%TO.P,C6,2*%
%TO.N,Net-(C6-Pad2)*%
X128250000Y-55500000D03*
%TD*%
D12*
%TO.P,J1,1,Pin_1*%
%TO.N,GND*%
X157100000Y-83775000D03*
D17*
%TO.P,J1,2,Pin_2*%
%TO.N,Net-(J1-Pin_2)*%
X157100000Y-81235000D03*
%TO.P,J1,3,Pin_3*%
%TO.N,VCC*%
X157100000Y-78695000D03*
%TD*%
D12*
%TO.P,TP4,1,1*%
%TO.N,GND*%
X111500000Y-92250000D03*
%TD*%
%TO.P,J2,1,Pin_1*%
%TO.N,unconnected-(J2-Pin_1-Pad1)*%
X127940000Y-97460000D03*
D17*
%TO.P,J2,2,Pin_2*%
%TO.N,unconnected-(J2-Pin_2-Pad2)*%
X130480000Y-97460000D03*
%TO.P,J2,3,Pin_3*%
%TO.N,unconnected-(J2-Pin_3-Pad3)*%
X133020000Y-97460000D03*
%TO.P,J2,4,Pin_4*%
%TO.N,unconnected-(J2-Pin_4-Pad4)*%
X135560000Y-97460000D03*
%TO.P,J2,5,Pin_5*%
%TO.N,VCC*%
X138100000Y-97460000D03*
%TO.P,J2,6,Pin_6*%
%TO.N,GND*%
X140640000Y-97460000D03*
%TO.P,J2,7,Pin_7*%
X143180000Y-97460000D03*
%TO.P,J2,8,Pin_8*%
%TO.N,unconnected-(J2-Pin_8-Pad8)*%
X145720000Y-97460000D03*
%TD*%
D12*
%TO.P,J3,1,Pin_1*%
%TO.N,/Vout*%
X150800000Y-97460000D03*
D17*
%TO.P,J3,2,Pin_2*%
%TO.N,unconnected-(J3-Pin_2-Pad2)*%
X153340000Y-97460000D03*
%TO.P,J3,3,Pin_3*%
%TO.N,unconnected-(J3-Pin_3-Pad3)*%
X155880000Y-97460000D03*
%TO.P,J3,4,Pin_4*%
%TO.N,unconnected-(J3-Pin_4-Pad4)*%
X158420000Y-97460000D03*
%TO.P,J3,5,Pin_5*%
%TO.N,unconnected-(J3-Pin_5-Pad5)*%
X160960000Y-97460000D03*
%TO.P,J3,6,Pin_6*%
%TO.N,unconnected-(J3-Pin_6-Pad6)*%
X163500000Y-97460000D03*
%TD*%
D12*
%TO.P,J4,1,Pin_1*%
%TO.N,unconnected-(J4-Pin_1-Pad1)*%
X118796000Y-49200000D03*
D17*
%TO.P,J4,2,Pin_2*%
%TO.N,unconnected-(J4-Pin_2-Pad2)*%
X121336000Y-49200000D03*
%TO.P,J4,3,Pin_3*%
%TO.N,unconnected-(J4-Pin_3-Pad3)*%
X123876000Y-49200000D03*
%TO.P,J4,4,Pin_4*%
%TO.N,GND*%
X126416000Y-49200000D03*
%TO.P,J4,5,Pin_5*%
%TO.N,unconnected-(J4-Pin_5-Pad5)*%
X128956000Y-49200000D03*
%TO.P,J4,6,Pin_6*%
%TO.N,unconnected-(J4-Pin_6-Pad6)*%
X131496000Y-49200000D03*
%TO.P,J4,7,Pin_7*%
%TO.N,unconnected-(J4-Pin_7-Pad7)*%
X134036000Y-49200000D03*
%TO.P,J4,8,Pin_8*%
%TO.N,unconnected-(J4-Pin_8-Pad8)*%
X136576000Y-49200000D03*
%TO.P,J4,9,Pin_9*%
%TO.N,unconnected-(J4-Pin_9-Pad9)*%
X139116000Y-49200000D03*
%TO.P,J4,10,Pin_10*%
%TO.N,unconnected-(J4-Pin_10-Pad10)*%
X141656000Y-49200000D03*
%TD*%
D12*
%TO.P,J5,1,Pin_1*%
%TO.N,Push_Button*%
X145720000Y-49200000D03*
D17*
%TO.P,J5,2,Pin_2*%
%TO.N,LED_Red*%
X148260000Y-49200000D03*
%TO.P,J5,3,Pin_3*%
%TO.N,LED_Orange*%
X150800000Y-49200000D03*
%TO.P,J5,4,Pin_4*%
%TO.N,LED_Green*%
X153340000Y-49200000D03*
%TO.P,J5,5,Pin_5*%
%TO.N,unconnected-(J5-Pin_5-Pad5)*%
X155880000Y-49200000D03*
%TO.P,J5,6,Pin_6*%
%TO.N,unconnected-(J5-Pin_6-Pad6)*%
X158420000Y-49200000D03*
%TO.P,J5,7,Pin_7*%
%TO.N,unconnected-(J5-Pin_7-Pad7)*%
X160960000Y-49200000D03*
%TO.P,J5,8,Pin_8*%
%TO.N,unconnected-(J5-Pin_8-Pad8)*%
X163500000Y-49200000D03*
%TD*%
D18*
%TO.N,Net-(C1-Pad1)*%
X147800000Y-89200000D02*
X145950000Y-91050000D01*
X145950000Y-91050000D02*
X145900000Y-91000000D01*
X147800000Y-88000000D02*
X147800000Y-89200000D01*
X145900000Y-91000000D02*
X141330000Y-91000000D01*
%TO.N,Net-(J1-Pin_2)*%
X161535000Y-81235000D02*
X163400000Y-83100000D01*
X157100000Y-81235000D02*
X151665000Y-81235000D01*
X157100000Y-81235000D02*
X161535000Y-81235000D01*
X150300000Y-82600000D02*
X150300000Y-88000000D01*
X151665000Y-81235000D02*
X150300000Y-82600000D01*
X163400000Y-83100000D02*
X163400000Y-89900000D01*
%TO.N,Net-(OP1-+)*%
X127700000Y-65750000D02*
X127000000Y-66450000D01*
X122900000Y-78200000D02*
X119082323Y-74382323D01*
X122900000Y-81820000D02*
X122900000Y-78200000D01*
X119082323Y-74382323D02*
X119000000Y-74382323D01*
X110600000Y-88900000D02*
X107200000Y-92300000D01*
X136300000Y-65750000D02*
X127700000Y-65750000D01*
X127000000Y-66450000D02*
X127000000Y-71080000D01*
X126632323Y-74382323D02*
X127000000Y-74750000D01*
X137530000Y-66980000D02*
X136300000Y-65750000D01*
X127000000Y-74750000D02*
X131730000Y-74750000D01*
X126830000Y-85750000D02*
X122900000Y-81820000D01*
X131730000Y-74750000D02*
X137530000Y-80550000D01*
X126830000Y-85750000D02*
X123680000Y-88900000D01*
X123680000Y-88900000D02*
X110600000Y-88900000D01*
X119000000Y-74382323D02*
X126632323Y-74382323D01*
X127000000Y-71080000D02*
X127000000Y-74750000D01*
X137530000Y-69050000D02*
X137530000Y-66980000D01*
%TO.N,Net-(C3-Pad2)*%
X158550000Y-74250000D02*
X146500000Y-74250000D01*
X158650000Y-74350000D02*
X158550000Y-74250000D01*
X163617677Y-64000000D02*
X163617677Y-70882323D01*
X141400000Y-75850000D02*
X138000000Y-75850000D01*
X142450000Y-82800000D02*
X142450000Y-76900000D01*
X137530000Y-75380000D02*
X137530000Y-72930000D01*
X139200000Y-82800000D02*
X142450000Y-82800000D01*
X142450000Y-76900000D02*
X141400000Y-75850000D01*
X146500000Y-74250000D02*
X146500000Y-75250000D01*
X131420000Y-86000000D02*
X136000000Y-86000000D01*
X136000000Y-86000000D02*
X139200000Y-82800000D01*
X158900000Y-74350000D02*
X158650000Y-74350000D01*
X161250000Y-72000000D02*
X158900000Y-74350000D01*
X138000000Y-75850000D02*
X137530000Y-75380000D01*
X162500000Y-72000000D02*
X161250000Y-72000000D01*
X163617677Y-70882323D02*
X162500000Y-72000000D01*
X146500000Y-75250000D02*
X145900000Y-75850000D01*
X145900000Y-75850000D02*
X141400000Y-75850000D01*
%TO.N,Net-(OP1--)*%
X129150000Y-84800000D02*
X129150000Y-89850000D01*
X129150000Y-89850000D02*
X130300000Y-91000000D01*
X130600000Y-83350000D02*
X129150000Y-84800000D01*
X136580000Y-91000000D02*
X141580000Y-86000000D01*
X132190000Y-83350000D02*
X130600000Y-83350000D01*
X146450000Y-84350000D02*
X146450000Y-84050000D01*
X131170000Y-91000000D02*
X136580000Y-91000000D01*
X141580000Y-86000000D02*
X144800000Y-86000000D01*
X146450000Y-84050000D02*
X146500000Y-84000000D01*
X144800000Y-86000000D02*
X146450000Y-84350000D01*
X130300000Y-91000000D02*
X131170000Y-91000000D01*
X134990000Y-80550000D02*
X132190000Y-83350000D01*
X146500000Y-84000000D02*
X146500000Y-79250000D01*
%TO.N,Net-(C5-Pad2)*%
X155000000Y-60420000D02*
X157537677Y-60420000D01*
X157537677Y-60420000D02*
X161117677Y-64000000D01*
%TO.N,Net-(OP2--)*%
X123250000Y-55500000D02*
X123250000Y-57250000D01*
X146070000Y-70580000D02*
X145650000Y-71000000D01*
X145650000Y-71000000D02*
X135450000Y-71000000D01*
X143700000Y-67780000D02*
X146500000Y-70580000D01*
X146500000Y-70580000D02*
X155000000Y-70580000D01*
X135450000Y-71000000D02*
X134990000Y-70540000D01*
X134990000Y-70540000D02*
X134990000Y-69050000D01*
X124550000Y-58550000D02*
X142450000Y-58550000D01*
X142450000Y-58550000D02*
X143700000Y-59800000D01*
X123250000Y-57250000D02*
X124550000Y-58550000D01*
X143700000Y-59800000D02*
X143700000Y-67780000D01*
X146500000Y-70580000D02*
X146070000Y-70580000D01*
%TO.N,Net-(C6-Pad2)*%
X128250000Y-54300000D02*
X128250000Y-55500000D01*
X122750000Y-53050000D02*
X127000000Y-53050000D01*
X141420000Y-55250000D02*
X135500000Y-55250000D01*
X137530000Y-61430000D02*
X137530000Y-63170000D01*
X135500000Y-55250000D02*
X135250000Y-55500000D01*
X123450000Y-64300000D02*
X121300000Y-62150000D01*
X127000000Y-53050000D02*
X128250000Y-54300000D01*
X141420000Y-55250000D02*
X146500000Y-60330000D01*
X135250000Y-55500000D02*
X128250000Y-55500000D01*
X121300000Y-54500000D02*
X122750000Y-53050000D01*
X136400000Y-64300000D02*
X123450000Y-64300000D01*
X146500000Y-60330000D02*
X146500000Y-60420000D01*
X121300000Y-62150000D02*
X121300000Y-54500000D01*
X137530000Y-63170000D02*
X136400000Y-64300000D01*
%TO.N,LED_Orange*%
X108350000Y-64400000D02*
X104500000Y-68250000D01*
X115650000Y-52250000D02*
X115550000Y-52350000D01*
X113950000Y-52350000D02*
X108350000Y-57950000D01*
X108350000Y-57950000D02*
X108350000Y-64400000D01*
X147750000Y-52250000D02*
X115650000Y-52250000D01*
X150800000Y-49200000D02*
X147750000Y-52250000D01*
X115550000Y-52350000D02*
X113950000Y-52350000D01*
%TO.N,Net-(D4-K)*%
X114530000Y-64980000D02*
X119100000Y-64980000D01*
X111000000Y-59750000D02*
X111000000Y-61450000D01*
X111000000Y-61450000D02*
X114530000Y-64980000D01*
%TO.N,/Vout*%
X152050000Y-93950000D02*
X150800000Y-95200000D01*
X166950000Y-63300000D02*
X166950000Y-91450000D01*
X158900000Y-55250000D02*
X166950000Y-63300000D01*
X150800000Y-95200000D02*
X150800000Y-97460000D01*
X151580000Y-55250000D02*
X158900000Y-55250000D01*
X166950000Y-91450000D02*
X164450000Y-93950000D01*
X164450000Y-93950000D02*
X152050000Y-93950000D01*
%TD*%
%TA.AperFunction,Conductor*%
%TO.N,GND*%
G36*
X142714075Y-97267007D02*
G01*
X142680000Y-97394174D01*
X142680000Y-97525826D01*
X142714075Y-97652993D01*
X142746988Y-97710000D01*
X141073012Y-97710000D01*
X141105925Y-97652993D01*
X141140000Y-97525826D01*
X141140000Y-97394174D01*
X141105925Y-97267007D01*
X141073012Y-97210000D01*
X142746988Y-97210000D01*
X142714075Y-97267007D01*
G37*
%TD.AperFunction*%
%TA.AperFunction,Conductor*%
G36*
X122163703Y-56236410D02*
G01*
X122184071Y-56258995D01*
X122243802Y-56344300D01*
X122243804Y-56344302D01*
X122405698Y-56506197D01*
X122447368Y-56535374D01*
X122534242Y-56596204D01*
X122538623Y-56599271D01*
X122582248Y-56653847D01*
X122591500Y-56700846D01*
X122591500Y-57185143D01*
X122591500Y-57314857D01*
X122591500Y-57314859D01*
X122591499Y-57314859D01*
X122616804Y-57442071D01*
X122616806Y-57442077D01*
X122666443Y-57561913D01*
X122666447Y-57561920D01*
X122738510Y-57669771D01*
X124130227Y-59061488D01*
X124130231Y-59061491D01*
X124238076Y-59133551D01*
X124238080Y-59133553D01*
X124238083Y-59133555D01*
X124357923Y-59183195D01*
X124464036Y-59204301D01*
X124485143Y-59208500D01*
X124485144Y-59208500D01*
X124614857Y-59208500D01*
X142125878Y-59208500D01*
X142192917Y-59228185D01*
X142213559Y-59244819D01*
X143005181Y-60036441D01*
X143038666Y-60097764D01*
X143041500Y-60124122D01*
X143041500Y-67715143D01*
X143041500Y-67844857D01*
X143041500Y-67844859D01*
X143041499Y-67844859D01*
X143066804Y-67972071D01*
X143066806Y-67972077D01*
X143116443Y-68091913D01*
X143116447Y-68091920D01*
X143188510Y-68199771D01*
X143188511Y-68199772D01*
X145118559Y-70129819D01*
X145152044Y-70191142D01*
X145147060Y-70260834D01*
X145105188Y-70316767D01*
X145039724Y-70341184D01*
X145030878Y-70341500D01*
X140885306Y-70341500D01*
X140818267Y-70321815D01*
X140772512Y-70269011D01*
X140762568Y-70199853D01*
X140791593Y-70136297D01*
X140814182Y-70115926D01*
X140908816Y-70049661D01*
X141069657Y-69888820D01*
X141200134Y-69702482D01*
X141296265Y-69496326D01*
X141296269Y-69496317D01*
X141348872Y-69300000D01*
X140385686Y-69300000D01*
X140390080Y-69295606D01*
X140442741Y-69204394D01*
X140470000Y-69102661D01*
X140470000Y-68997339D01*
X140442741Y-68895606D01*
X140390080Y-68804394D01*
X140385686Y-68800000D01*
X141348872Y-68800000D01*
X141348872Y-68799999D01*
X141296269Y-68603682D01*
X141296265Y-68603673D01*
X141200134Y-68397517D01*
X141069657Y-68211179D01*
X140908820Y-68050342D01*
X140722482Y-67919865D01*
X140516328Y-67823734D01*
X140320000Y-67771127D01*
X140320000Y-68734314D01*
X140315606Y-68729920D01*
X140224394Y-68677259D01*
X140122661Y-68650000D01*
X140017339Y-68650000D01*
X139915606Y-68677259D01*
X139824394Y-68729920D01*
X139820000Y-68734314D01*
X139820000Y-67771127D01*
X139623671Y-67823734D01*
X139417517Y-67919865D01*
X139231179Y-68050342D01*
X139070342Y-68211179D01*
X138939865Y-68397517D01*
X138917071Y-68446401D01*
X138870898Y-68498840D01*
X138803705Y-68517992D01*
X138736824Y-68497776D01*
X138692307Y-68446401D01*
X138667523Y-68393251D01*
X138536198Y-68205700D01*
X138374300Y-68043802D01*
X138370430Y-68041092D01*
X138241376Y-67950726D01*
X138197751Y-67896149D01*
X138188500Y-67849152D01*
X138188500Y-66915142D01*
X138181494Y-66879918D01*
X138181494Y-66879917D01*
X138163196Y-66787930D01*
X138163195Y-66787923D01*
X138113555Y-66668083D01*
X138113553Y-66668080D01*
X138113551Y-66668076D01*
X138041491Y-66560231D01*
X138041488Y-66560227D01*
X136719771Y-65238510D01*
X136611920Y-65166447D01*
X136611919Y-65166446D01*
X136611917Y-65166445D01*
X136611913Y-65166443D01*
X136611907Y-65166440D01*
X136597011Y-65160270D01*
X136542608Y-65116428D01*
X136520544Y-65050134D01*
X136537824Y-64982435D01*
X136588962Y-64934825D01*
X136597002Y-64931153D01*
X136711917Y-64883555D01*
X136819769Y-64811491D01*
X138041490Y-63589769D01*
X138067557Y-63550757D01*
X138113555Y-63481917D01*
X138163194Y-63362077D01*
X138171475Y-63320444D01*
X138188500Y-63234859D01*
X138188500Y-62630846D01*
X138208185Y-62563807D01*
X138241377Y-62529271D01*
X138374301Y-62436197D01*
X138374305Y-62436193D01*
X138536198Y-62274300D01*
X138667523Y-62086749D01*
X138687618Y-62043655D01*
X138733790Y-61991215D01*
X138800983Y-61972063D01*
X138867864Y-61992278D01*
X138912382Y-62043655D01*
X138932477Y-62086749D01*
X139063802Y-62274300D01*
X139225700Y-62436198D01*
X139413251Y-62567523D01*
X139538091Y-62625736D01*
X139620750Y-62664281D01*
X139620752Y-62664281D01*
X139620757Y-62664284D01*
X139841913Y-62723543D01*
X140004832Y-62737796D01*
X140069998Y-62743498D01*
X140070000Y-62743498D01*
X140070002Y-62743498D01*
X140127021Y-62738509D01*
X140298087Y-62723543D01*
X140519243Y-62664284D01*
X140726749Y-62567523D01*
X140914300Y-62436198D01*
X141076198Y-62274300D01*
X141207523Y-62086749D01*
X141304284Y-61879243D01*
X141363543Y-61658087D01*
X141383498Y-61430000D01*
X141383165Y-61426198D01*
X141366802Y-61239166D01*
X141363543Y-61201913D01*
X141304284Y-60980757D01*
X141207523Y-60773251D01*
X141076198Y-60585700D01*
X140914300Y-60423802D01*
X140726749Y-60292477D01*
X140664080Y-60263254D01*
X140519249Y-60195718D01*
X140519238Y-60195714D01*
X140298089Y-60136457D01*
X140298081Y-60136456D01*
X140070002Y-60116502D01*
X140069998Y-60116502D01*
X139841918Y-60136456D01*
X139841910Y-60136457D01*
X139620761Y-60195714D01*
X139620750Y-60195718D01*
X139413254Y-60292475D01*
X139413252Y-60292476D01*
X139413251Y-60292477D01*
X139225700Y-60423802D01*
X139225698Y-60423803D01*
X139225695Y-60423806D01*
X139063806Y-60585695D01*
X139063803Y-60585698D01*
X139063802Y-60585700D01*
X139021437Y-60646204D01*
X138932476Y-60773251D01*
X138912382Y-60816345D01*
X138866209Y-60868784D01*
X138799016Y-60887936D01*
X138732135Y-60867720D01*
X138687618Y-60816345D01*
X138667523Y-60773251D01*
X138615278Y-60698638D01*
X138536198Y-60585700D01*
X138374300Y-60423802D01*
X138186749Y-60292477D01*
X138124080Y-60263254D01*
X137979249Y-60195718D01*
X137979238Y-60195714D01*
X137758089Y-60136457D01*
X137758081Y-60136456D01*
X137530002Y-60116502D01*
X137529998Y-60116502D01*
X137301918Y-60136456D01*
X137301910Y-60136457D01*
X137080761Y-60195714D01*
X137080750Y-60195718D01*
X136873254Y-60292475D01*
X136873252Y-60292476D01*
X136873251Y-60292477D01*
X136685700Y-60423802D01*
X136685698Y-60423803D01*
X136685695Y-60423806D01*
X136523806Y-60585695D01*
X136523803Y-60585698D01*
X136523802Y-60585700D01*
X136481437Y-60646204D01*
X136392476Y-60773251D01*
X136372382Y-60816345D01*
X136326209Y-60868784D01*
X136259016Y-60887936D01*
X136192135Y-60867720D01*
X136147618Y-60816345D01*
X136127523Y-60773251D01*
X136075278Y-60698638D01*
X135996198Y-60585700D01*
X135834300Y-60423802D01*
X135646749Y-60292477D01*
X135584080Y-60263254D01*
X135439249Y-60195718D01*
X135439238Y-60195714D01*
X135218089Y-60136457D01*
X135218081Y-60136456D01*
X134990002Y-60116502D01*
X134989998Y-60116502D01*
X134761918Y-60136456D01*
X134761910Y-60136457D01*
X134540761Y-60195714D01*
X134540750Y-60195718D01*
X134333254Y-60292475D01*
X134333252Y-60292476D01*
X134333251Y-60292477D01*
X134145700Y-60423802D01*
X134145698Y-60423803D01*
X134145695Y-60423806D01*
X133983806Y-60585695D01*
X133983803Y-60585698D01*
X133983802Y-60585700D01*
X133941437Y-60646204D01*
X133852476Y-60773251D01*
X133832382Y-60816345D01*
X133786209Y-60868784D01*
X133719016Y-60887936D01*
X133652135Y-60867720D01*
X133607618Y-60816345D01*
X133587523Y-60773251D01*
X133535278Y-60698638D01*
X133456198Y-60585700D01*
X133294300Y-60423802D01*
X133106749Y-60292477D01*
X133044080Y-60263254D01*
X132899249Y-60195718D01*
X132899238Y-60195714D01*
X132678089Y-60136457D01*
X132678081Y-60136456D01*
X132450002Y-60116502D01*
X132449998Y-60116502D01*
X132221918Y-60136456D01*
X132221910Y-60136457D01*
X132000761Y-60195714D01*
X132000750Y-60195718D01*
X131793254Y-60292475D01*
X131793252Y-60292476D01*
X131793251Y-60292477D01*
X131605700Y-60423802D01*
X131605698Y-60423803D01*
X131605695Y-60423806D01*
X131443806Y-60585695D01*
X131443803Y-60585698D01*
X131443802Y-60585700D01*
X131369433Y-60691910D01*
X131312476Y-60773252D01*
X131312475Y-60773254D01*
X131215718Y-60980750D01*
X131215714Y-60980761D01*
X131156457Y-61201910D01*
X131156456Y-61201918D01*
X131136502Y-61429998D01*
X131136502Y-61430001D01*
X131156456Y-61658081D01*
X131156457Y-61658089D01*
X131215714Y-61879238D01*
X131215718Y-61879249D01*
X131292382Y-62043655D01*
X131312477Y-62086749D01*
X131443802Y-62274300D01*
X131605700Y-62436198D01*
X131793251Y-62567523D01*
X131918091Y-62625736D01*
X132000750Y-62664281D01*
X132000752Y-62664281D01*
X132000757Y-62664284D01*
X132221913Y-62723543D01*
X132384832Y-62737796D01*
X132449998Y-62743498D01*
X132450000Y-62743498D01*
X132450002Y-62743498D01*
X132507021Y-62738509D01*
X132678087Y-62723543D01*
X132899243Y-62664284D01*
X133106749Y-62567523D01*
X133294300Y-62436198D01*
X133456198Y-62274300D01*
X133587523Y-62086749D01*
X133607618Y-62043655D01*
X133653790Y-61991215D01*
X133720983Y-61972063D01*
X133787864Y-61992278D01*
X133832382Y-62043655D01*
X133852477Y-62086749D01*
X133983802Y-62274300D01*
X134145700Y-62436198D01*
X134333251Y-62567523D01*
X134458091Y-62625736D01*
X134540750Y-62664281D01*
X134540752Y-62664281D01*
X134540757Y-62664284D01*
X134761913Y-62723543D01*
X134924832Y-62737796D01*
X134989998Y-62743498D01*
X134990000Y-62743498D01*
X134990002Y-62743498D01*
X135047021Y-62738509D01*
X135218087Y-62723543D01*
X135439243Y-62664284D01*
X135646749Y-62567523D01*
X135834300Y-62436198D01*
X135996198Y-62274300D01*
X136127523Y-62086749D01*
X136147618Y-62043655D01*
X136193790Y-61991215D01*
X136260983Y-61972063D01*
X136327864Y-61992278D01*
X136372382Y-62043655D01*
X136392477Y-62086749D01*
X136523802Y-62274300D01*
X136523806Y-62274304D01*
X136685698Y-62436197D01*
X136818623Y-62529271D01*
X136862248Y-62583847D01*
X136871500Y-62630846D01*
X136871500Y-62845878D01*
X136851815Y-62912917D01*
X136835181Y-62933559D01*
X136163559Y-63605181D01*
X136102236Y-63638666D01*
X136075878Y-63641500D01*
X123774122Y-63641500D01*
X123707083Y-63621815D01*
X123686441Y-63605181D01*
X121994819Y-61913559D01*
X121961334Y-61852236D01*
X121958500Y-61825878D01*
X121958500Y-60920001D01*
X125686502Y-60920001D01*
X125706456Y-61148081D01*
X125706457Y-61148089D01*
X125765714Y-61369238D01*
X125765718Y-61369249D01*
X125833616Y-61514857D01*
X125862477Y-61576749D01*
X125993802Y-61764300D01*
X126155700Y-61926198D01*
X126343251Y-62057523D01*
X126405927Y-62086749D01*
X126550750Y-62154281D01*
X126550752Y-62154281D01*
X126550757Y-62154284D01*
X126771913Y-62213543D01*
X126934832Y-62227796D01*
X126999998Y-62233498D01*
X127000000Y-62233498D01*
X127000002Y-62233498D01*
X127057021Y-62228509D01*
X127228087Y-62213543D01*
X127449243Y-62154284D01*
X127656749Y-62057523D01*
X127844300Y-61926198D01*
X128006198Y-61764300D01*
X128137523Y-61576749D01*
X128234284Y-61369243D01*
X128293543Y-61148087D01*
X128313498Y-60920000D01*
X128309130Y-60870079D01*
X128307451Y-60850888D01*
X128293543Y-60691913D01*
X128234284Y-60470757D01*
X128137523Y-60263251D01*
X128006198Y-60075700D01*
X127844300Y-59913802D01*
X127656749Y-59782477D01*
X127615521Y-59763252D01*
X127449249Y-59685718D01*
X127449238Y-59685714D01*
X127228089Y-59626457D01*
X127228081Y-59626456D01*
X127000002Y-59606502D01*
X126999998Y-59606502D01*
X126771918Y-59626456D01*
X126771910Y-59626457D01*
X126550761Y-59685714D01*
X126550750Y-59685718D01*
X126343254Y-59782475D01*
X126343252Y-59782476D01*
X126272856Y-59831767D01*
X126155700Y-59913802D01*
X126155698Y-59913803D01*
X126155695Y-59913806D01*
X125993806Y-60075695D01*
X125993803Y-60075698D01*
X125993802Y-60075700D01*
X125925904Y-60172668D01*
X125862476Y-60263252D01*
X125862475Y-60263254D01*
X125765718Y-60470750D01*
X125765714Y-60470761D01*
X125706457Y-60691910D01*
X125706456Y-60691918D01*
X125686502Y-60919998D01*
X125686502Y-60920001D01*
X121958500Y-60920001D01*
X121958500Y-56330123D01*
X121978185Y-56263084D01*
X122030989Y-56217329D01*
X122100147Y-56207385D01*
X122163703Y-56236410D01*
G37*
%TD.AperFunction*%
%TA.AperFunction,Conductor*%
G36*
X163484404Y-46755185D02*
G01*
X163505046Y-46771819D01*
X165928181Y-49194954D01*
X165961666Y-49256277D01*
X165964500Y-49282635D01*
X165964500Y-59344982D01*
X165964500Y-59375018D01*
X165975994Y-59402767D01*
X165975995Y-59402768D01*
X168468181Y-61894954D01*
X168501666Y-61956277D01*
X168504500Y-61982635D01*
X168504500Y-96107364D01*
X168484815Y-96174403D01*
X168468181Y-96195045D01*
X165997233Y-98665994D01*
X165975995Y-98687231D01*
X165964500Y-98714982D01*
X165964500Y-99231907D01*
X165963903Y-99244062D01*
X165952505Y-99359778D01*
X165947763Y-99383618D01*
X165917832Y-99482290D01*
X165915789Y-99489024D01*
X165906486Y-99511482D01*
X165854561Y-99608627D01*
X165841056Y-99628839D01*
X165771176Y-99713988D01*
X165753988Y-99731176D01*
X165668839Y-99801056D01*
X165648627Y-99814561D01*
X165551482Y-99866486D01*
X165529028Y-99875787D01*
X165487028Y-99888528D01*
X165423618Y-99907763D01*
X165399778Y-99912505D01*
X165291162Y-99923203D01*
X165284060Y-99923903D01*
X165271907Y-99924500D01*
X100768093Y-99924500D01*
X100755939Y-99923903D01*
X100747995Y-99923120D01*
X100640221Y-99912505D01*
X100616381Y-99907763D01*
X100599445Y-99902625D01*
X100510968Y-99875786D01*
X100488517Y-99866486D01*
X100391372Y-99814561D01*
X100371160Y-99801056D01*
X100286011Y-99731176D01*
X100268823Y-99713988D01*
X100198943Y-99628839D01*
X100185438Y-99608627D01*
X100133510Y-99511476D01*
X100124215Y-99489037D01*
X100092234Y-99383612D01*
X100087494Y-99359777D01*
X100076097Y-99244061D01*
X100075500Y-99231907D01*
X100075500Y-98358654D01*
X126581500Y-98358654D01*
X126588011Y-98419202D01*
X126588011Y-98419204D01*
X126639111Y-98556204D01*
X126726739Y-98673261D01*
X126843796Y-98760889D01*
X126980799Y-98811989D01*
X127008050Y-98814918D01*
X127041345Y-98818499D01*
X127041362Y-98818500D01*
X128838638Y-98818500D01*
X128838654Y-98818499D01*
X128865692Y-98815591D01*
X128899201Y-98811989D01*
X129036204Y-98760889D01*
X129153261Y-98673261D01*
X129240889Y-98556204D01*
X129286138Y-98434887D01*
X129328009Y-98378956D01*
X129393474Y-98354539D01*
X129461746Y-98369391D01*
X129493545Y-98394236D01*
X129556760Y-98462906D01*
X129734424Y-98601189D01*
X129734425Y-98601189D01*
X129734427Y-98601191D01*
X129861135Y-98669761D01*
X129932426Y-98708342D01*
X130145365Y-98781444D01*
X130367431Y-98818500D01*
X130592569Y-98818500D01*
X130814635Y-98781444D01*
X131027574Y-98708342D01*
X131225576Y-98601189D01*
X131403240Y-98462906D01*
X131524594Y-98331082D01*
X131555715Y-98297276D01*
X131555715Y-98297275D01*
X131555722Y-98297268D01*
X131646193Y-98158790D01*
X131699338Y-98113437D01*
X131768569Y-98104013D01*
X131831905Y-98133515D01*
X131853804Y-98158787D01*
X131944278Y-98297268D01*
X131944283Y-98297273D01*
X131944284Y-98297276D01*
X132070968Y-98434889D01*
X132096760Y-98462906D01*
X132274424Y-98601189D01*
X132274425Y-98601189D01*
X132274427Y-98601191D01*
X132401135Y-98669761D01*
X132472426Y-98708342D01*
X132685365Y-98781444D01*
X132907431Y-98818500D01*
X133132569Y-98818500D01*
X133354635Y-98781444D01*
X133567574Y-98708342D01*
X133765576Y-98601189D01*
X133943240Y-98462906D01*
X134064594Y-98331082D01*
X134095715Y-98297276D01*
X134095715Y-98297275D01*
X134095722Y-98297268D01*
X134186193Y-98158790D01*
X134239338Y-98113437D01*
X134308569Y-98104013D01*
X134371905Y-98133515D01*
X134393804Y-98158787D01*
X134484278Y-98297268D01*
X134484283Y-98297273D01*
X134484284Y-98297276D01*
X134610968Y-98434889D01*
X134636760Y-98462906D01*
X134814424Y-98601189D01*
X134814425Y-98601189D01*
X134814427Y-98601191D01*
X134941135Y-98669761D01*
X135012426Y-98708342D01*
X135225365Y-98781444D01*
X135447431Y-98818500D01*
X135672569Y-98818500D01*
X135894635Y-98781444D01*
X136107574Y-98708342D01*
X136305576Y-98601189D01*
X136483240Y-98462906D01*
X136604594Y-98331082D01*
X136635715Y-98297276D01*
X136635715Y-98297275D01*
X136635722Y-98297268D01*
X136726193Y-98158790D01*
X136779338Y-98113437D01*
X136848569Y-98104013D01*
X136911905Y-98133515D01*
X136933804Y-98158787D01*
X137024278Y-98297268D01*
X137024283Y-98297273D01*
X137024284Y-98297276D01*
X137150968Y-98434889D01*
X137176760Y-98462906D01*
X137354424Y-98601189D01*
X137354425Y-98601189D01*
X137354427Y-98601191D01*
X137481135Y-98669761D01*
X137552426Y-98708342D01*
X137765365Y-98781444D01*
X137987431Y-98818500D01*
X138212569Y-98818500D01*
X138434635Y-98781444D01*
X138647574Y-98708342D01*
X138845576Y-98601189D01*
X139023240Y-98462906D01*
X139144594Y-98331082D01*
X139175715Y-98297276D01*
X139175715Y-98297275D01*
X139175722Y-98297268D01*
X139269749Y-98153347D01*
X139322894Y-98107994D01*
X139392125Y-98098570D01*
X139455461Y-98128072D01*
X139475130Y-98150048D01*
X139601890Y-98331078D01*
X139768917Y-98498105D01*
X139962421Y-98633600D01*
X140176507Y-98733429D01*
X140176516Y-98733433D01*
X140390000Y-98790634D01*
X140390000Y-97893012D01*
X140447007Y-97925925D01*
X140574174Y-97960000D01*
X140705826Y-97960000D01*
X140832993Y-97925925D01*
X140890000Y-97893012D01*
X140890000Y-98790633D01*
X141103483Y-98733433D01*
X141103492Y-98733429D01*
X141317578Y-98633600D01*
X141511082Y-98498105D01*
X141678105Y-98331082D01*
X141808425Y-98144968D01*
X141863002Y-98101344D01*
X141932501Y-98094151D01*
X141994855Y-98125673D01*
X142011575Y-98144968D01*
X142141894Y-98331082D01*
X142308917Y-98498105D01*
X142502421Y-98633600D01*
X142716507Y-98733429D01*
X142716516Y-98733433D01*
X142930000Y-98790634D01*
X142930000Y-97893012D01*
X142987007Y-97925925D01*
X143114174Y-97960000D01*
X143245826Y-97960000D01*
X143372993Y-97925925D01*
X143430000Y-97893012D01*
X143430000Y-98790633D01*
X143643483Y-98733433D01*
X143643492Y-98733429D01*
X143857578Y-98633600D01*
X144051082Y-98498105D01*
X144218105Y-98331082D01*
X144344868Y-98150048D01*
X144399445Y-98106423D01*
X144468944Y-98099231D01*
X144531298Y-98130753D01*
X144550251Y-98153350D01*
X144644276Y-98297265D01*
X144644284Y-98297276D01*
X144770968Y-98434889D01*
X144796760Y-98462906D01*
X144974424Y-98601189D01*
X144974425Y-98601189D01*
X144974427Y-98601191D01*
X145101135Y-98669761D01*
X145172426Y-98708342D01*
X145385365Y-98781444D01*
X145607431Y-98818500D01*
X145832569Y-98818500D01*
X146054635Y-98781444D01*
X146267574Y-98708342D01*
X146465576Y-98601189D01*
X146643240Y-98462906D01*
X146739212Y-98358654D01*
X149441500Y-98358654D01*
X149448011Y-98419202D01*
X149448011Y-98419204D01*
X149499111Y-98556204D01*
X149586739Y-98673261D01*
X149703796Y-98760889D01*
X149840799Y-98811989D01*
X149868050Y-98814918D01*
X149901345Y-98818499D01*
X149901362Y-98818500D01*
X151698638Y-98818500D01*
X151698654Y-98818499D01*
X151725692Y-98815591D01*
X151759201Y-98811989D01*
X151896204Y-98760889D01*
X152013261Y-98673261D01*
X152100889Y-98556204D01*
X152146138Y-98434887D01*
X152188009Y-98378956D01*
X152253474Y-98354539D01*
X152321746Y-98369391D01*
X152353545Y-98394236D01*
X152416760Y-98462906D01*
X152594424Y-98601189D01*
X152594425Y-98601189D01*
X152594427Y-98601191D01*
X152721135Y-98669761D01*
X152792426Y-98708342D01*
X153005365Y-98781444D01*
X153227431Y-98818500D01*
X153452569Y-98818500D01*
X153674635Y-98781444D01*
X153887574Y-98708342D01*
X154085576Y-98601189D01*
X154263240Y-98462906D01*
X154384594Y-98331082D01*
X154415715Y-98297276D01*
X154415715Y-98297275D01*
X154415722Y-98297268D01*
X154506193Y-98158790D01*
X154559338Y-98113437D01*
X154628569Y-98104013D01*
X154691905Y-98133515D01*
X154713804Y-98158787D01*
X154804278Y-98297268D01*
X154804283Y-98297273D01*
X154804284Y-98297276D01*
X154930968Y-98434889D01*
X154956760Y-98462906D01*
X155134424Y-98601189D01*
X155134425Y-98601189D01*
X155134427Y-98601191D01*
X155261135Y-98669761D01*
X155332426Y-98708342D01*
X155545365Y-98781444D01*
X155767431Y-98818500D01*
X155992569Y-98818500D01*
X156214635Y-98781444D01*
X156427574Y-98708342D01*
X156625576Y-98601189D01*
X156803240Y-98462906D01*
X156924594Y-98331082D01*
X156955715Y-98297276D01*
X156955715Y-98297275D01*
X156955722Y-98297268D01*
X157046193Y-98158790D01*
X157099338Y-98113437D01*
X157168569Y-98104013D01*
X157231905Y-98133515D01*
X157253804Y-98158787D01*
X157344278Y-98297268D01*
X157344283Y-98297273D01*
X157344284Y-98297276D01*
X157470968Y-98434889D01*
X157496760Y-98462906D01*
X157674424Y-98601189D01*
X157674425Y-98601189D01*
X157674427Y-98601191D01*
X157801135Y-98669761D01*
X157872426Y-98708342D01*
X158085365Y-98781444D01*
X158307431Y-98818500D01*
X158532569Y-98818500D01*
X158754635Y-98781444D01*
X158967574Y-98708342D01*
X159165576Y-98601189D01*
X159343240Y-98462906D01*
X159464594Y-98331082D01*
X159495715Y-98297276D01*
X159495715Y-98297275D01*
X159495722Y-98297268D01*
X159586193Y-98158790D01*
X159639338Y-98113437D01*
X159708569Y-98104013D01*
X159771905Y-98133515D01*
X159793804Y-98158787D01*
X159884278Y-98297268D01*
X159884283Y-98297273D01*
X159884284Y-98297276D01*
X160010968Y-98434889D01*
X160036760Y-98462906D01*
X160214424Y-98601189D01*
X160214425Y-98601189D01*
X160214427Y-98601191D01*
X160341135Y-98669761D01*
X160412426Y-98708342D01*
X160625365Y-98781444D01*
X160847431Y-98818500D01*
X161072569Y-98818500D01*
X161294635Y-98781444D01*
X161507574Y-98708342D01*
X161705576Y-98601189D01*
X161883240Y-98462906D01*
X162004594Y-98331082D01*
X162035715Y-98297276D01*
X162035715Y-98297275D01*
X162035722Y-98297268D01*
X162126193Y-98158790D01*
X162179338Y-98113437D01*
X162248569Y-98104013D01*
X162311905Y-98133515D01*
X162333804Y-98158787D01*
X162424278Y-98297268D01*
X162424283Y-98297273D01*
X162424284Y-98297276D01*
X162550968Y-98434889D01*
X162576760Y-98462906D01*
X162754424Y-98601189D01*
X162754425Y-98601189D01*
X162754427Y-98601191D01*
X162881135Y-98669761D01*
X162952426Y-98708342D01*
X163165365Y-98781444D01*
X163387431Y-98818500D01*
X163612569Y-98818500D01*
X163834635Y-98781444D01*
X164047574Y-98708342D01*
X164245576Y-98601189D01*
X164423240Y-98462906D01*
X164544594Y-98331082D01*
X164575715Y-98297276D01*
X164575717Y-98297273D01*
X164575722Y-98297268D01*
X164698860Y-98108791D01*
X164789296Y-97902616D01*
X164844564Y-97684368D01*
X164847164Y-97652993D01*
X164863156Y-97460005D01*
X164863156Y-97459994D01*
X164844565Y-97235640D01*
X164844563Y-97235628D01*
X164789296Y-97017385D01*
X164779071Y-96994075D01*
X164698860Y-96811209D01*
X164682706Y-96786484D01*
X164575723Y-96622734D01*
X164575715Y-96622723D01*
X164423243Y-96457097D01*
X164423238Y-96457092D01*
X164245577Y-96318812D01*
X164245572Y-96318808D01*
X164047580Y-96211661D01*
X164047577Y-96211659D01*
X164047574Y-96211658D01*
X164047571Y-96211657D01*
X164047569Y-96211656D01*
X163834637Y-96138556D01*
X163612569Y-96101500D01*
X163387431Y-96101500D01*
X163165362Y-96138556D01*
X162952430Y-96211656D01*
X162952419Y-96211661D01*
X162754427Y-96318808D01*
X162754422Y-96318812D01*
X162576761Y-96457092D01*
X162576756Y-96457097D01*
X162424284Y-96622723D01*
X162424276Y-96622734D01*
X162333808Y-96761206D01*
X162280662Y-96806562D01*
X162211431Y-96815986D01*
X162148095Y-96786484D01*
X162126192Y-96761206D01*
X162035723Y-96622734D01*
X162035715Y-96622723D01*
X161883243Y-96457097D01*
X161883238Y-96457092D01*
X161705577Y-96318812D01*
X161705572Y-96318808D01*
X161507580Y-96211661D01*
X161507577Y-96211659D01*
X161507574Y-96211658D01*
X161507571Y-96211657D01*
X161507569Y-96211656D01*
X161294637Y-96138556D01*
X161072569Y-96101500D01*
X160847431Y-96101500D01*
X160625362Y-96138556D01*
X160412430Y-96211656D01*
X160412419Y-96211661D01*
X160214427Y-96318808D01*
X160214422Y-96318812D01*
X160036761Y-96457092D01*
X160036756Y-96457097D01*
X159884284Y-96622723D01*
X159884276Y-96622734D01*
X159793808Y-96761206D01*
X159740662Y-96806562D01*
X159671431Y-96815986D01*
X159608095Y-96786484D01*
X159586192Y-96761206D01*
X159495723Y-96622734D01*
X159495715Y-96622723D01*
X159343243Y-96457097D01*
X159343238Y-96457092D01*
X159165577Y-96318812D01*
X159165572Y-96318808D01*
X158967580Y-96211661D01*
X158967577Y-96211659D01*
X158967574Y-96211658D01*
X158967571Y-96211657D01*
X158967569Y-96211656D01*
X158754637Y-96138556D01*
X158532569Y-96101500D01*
X158307431Y-96101500D01*
X158085362Y-96138556D01*
X157872430Y-96211656D01*
X157872419Y-96211661D01*
X157674427Y-96318808D01*
X157674422Y-96318812D01*
X157496761Y-96457092D01*
X157496756Y-96457097D01*
X157344284Y-96622723D01*
X157344276Y-96622734D01*
X157253808Y-96761206D01*
X157200662Y-96806562D01*
X157131431Y-96815986D01*
X157068095Y-96786484D01*
X157046192Y-96761206D01*
X156955723Y-96622734D01*
X156955715Y-96622723D01*
X156803243Y-96457097D01*
X156803238Y-96457092D01*
X156625577Y-96318812D01*
X156625572Y-96318808D01*
X156427580Y-96211661D01*
X156427577Y-96211659D01*
X156427574Y-96211658D01*
X156427571Y-96211657D01*
X156427569Y-96211656D01*
X156214637Y-96138556D01*
X155992569Y-96101500D01*
X155767431Y-96101500D01*
X155545362Y-96138556D01*
X155332430Y-96211656D01*
X155332419Y-96211661D01*
X155134427Y-96318808D01*
X155134422Y-96318812D01*
X154956761Y-96457092D01*
X154956756Y-96457097D01*
X154804284Y-96622723D01*
X154804276Y-96622734D01*
X154713808Y-96761206D01*
X154660662Y-96806562D01*
X154591431Y-96815986D01*
X154528095Y-96786484D01*
X154506192Y-96761206D01*
X154415723Y-96622734D01*
X154415715Y-96622723D01*
X154263243Y-96457097D01*
X154263238Y-96457092D01*
X154085577Y-96318812D01*
X154085572Y-96318808D01*
X153887580Y-96211661D01*
X153887577Y-96211659D01*
X153887574Y-96211658D01*
X153887571Y-96211657D01*
X153887569Y-96211656D01*
X153674637Y-96138556D01*
X153452569Y-96101500D01*
X153227431Y-96101500D01*
X153005362Y-96138556D01*
X152792430Y-96211656D01*
X152792419Y-96211661D01*
X152594427Y-96318808D01*
X152594422Y-96318812D01*
X152416761Y-96457092D01*
X152353548Y-96525760D01*
X152293661Y-96561750D01*
X152223823Y-96559649D01*
X152166207Y-96520124D01*
X152146138Y-96485110D01*
X152100889Y-96363796D01*
X152067214Y-96318812D01*
X152013261Y-96246739D01*
X151896204Y-96159111D01*
X151895172Y-96158726D01*
X151759203Y-96108011D01*
X151698654Y-96101500D01*
X151698638Y-96101500D01*
X151582500Y-96101500D01*
X151515461Y-96081815D01*
X151469706Y-96029011D01*
X151458500Y-95977500D01*
X151458500Y-95524122D01*
X151478185Y-95457083D01*
X151494819Y-95436441D01*
X152286441Y-94644819D01*
X152347764Y-94611334D01*
X152374122Y-94608500D01*
X164514859Y-94608500D01*
X164600444Y-94591475D01*
X164642077Y-94583194D01*
X164761917Y-94533555D01*
X164869769Y-94461491D01*
X167461491Y-91869769D01*
X167533555Y-91761917D01*
X167583194Y-91642077D01*
X167594835Y-91583555D01*
X167608500Y-91514858D01*
X167608500Y-63235140D01*
X167583195Y-63107928D01*
X167583194Y-63107927D01*
X167583194Y-63107923D01*
X167576100Y-63090797D01*
X167533558Y-62988089D01*
X167533550Y-62988075D01*
X167510646Y-62953797D01*
X167510645Y-62953796D01*
X167461489Y-62880228D01*
X159319771Y-54738510D01*
X159211920Y-54666447D01*
X159211919Y-54666446D01*
X159211917Y-54666445D01*
X159211915Y-54666444D01*
X159211913Y-54666443D01*
X159092077Y-54616806D01*
X159092071Y-54616804D01*
X158964859Y-54591500D01*
X158964857Y-54591500D01*
X152780847Y-54591500D01*
X152713808Y-54571815D01*
X152679274Y-54538626D01*
X152586198Y-54405700D01*
X152424300Y-54243802D01*
X152236749Y-54112477D01*
X152221697Y-54105458D01*
X152029249Y-54015718D01*
X152029238Y-54015714D01*
X151808089Y-53956457D01*
X151808081Y-53956456D01*
X151580002Y-53936502D01*
X151579998Y-53936502D01*
X151351918Y-53956456D01*
X151351910Y-53956457D01*
X151130761Y-54015714D01*
X151130750Y-54015718D01*
X150923254Y-54112475D01*
X150923252Y-54112476D01*
X150923251Y-54112477D01*
X150735700Y-54243802D01*
X150735698Y-54243803D01*
X150735695Y-54243806D01*
X150573806Y-54405695D01*
X150573803Y-54405698D01*
X150573802Y-54405700D01*
X150563789Y-54420000D01*
X150442476Y-54593252D01*
X150442475Y-54593254D01*
X150345718Y-54800750D01*
X150345714Y-54800761D01*
X150286457Y-55021910D01*
X150286456Y-55021918D01*
X150266502Y-55249998D01*
X150266502Y-55250001D01*
X150286456Y-55478081D01*
X150286457Y-55478089D01*
X150345714Y-55699238D01*
X150345718Y-55699249D01*
X150442475Y-55906745D01*
X150442477Y-55906749D01*
X150573802Y-56094300D01*
X150735700Y-56256198D01*
X150923251Y-56387523D01*
X150947122Y-56398654D01*
X151130750Y-56484281D01*
X151130752Y-56484281D01*
X151130757Y-56484284D01*
X151351913Y-56543543D01*
X151514832Y-56557796D01*
X151579998Y-56563498D01*
X151580000Y-56563498D01*
X151580002Y-56563498D01*
X151637021Y-56558509D01*
X151808087Y-56543543D01*
X152029243Y-56484284D01*
X152236749Y-56387523D01*
X152424300Y-56256198D01*
X152586198Y-56094300D01*
X152679273Y-55961374D01*
X152733850Y-55917751D01*
X152780847Y-55908500D01*
X158575878Y-55908500D01*
X158642917Y-55928185D01*
X158663559Y-55944819D01*
X166255181Y-63536441D01*
X166288666Y-63597764D01*
X166291500Y-63624122D01*
X166291500Y-91125878D01*
X166271815Y-91192917D01*
X166255181Y-91213559D01*
X164213559Y-93255181D01*
X164152236Y-93288666D01*
X164125878Y-93291500D01*
X151985141Y-93291500D01*
X151857928Y-93316804D01*
X151857922Y-93316806D01*
X151738086Y-93366443D01*
X151738079Y-93366447D01*
X151630228Y-93438510D01*
X150288510Y-94780228D01*
X150216447Y-94888079D01*
X150216443Y-94888086D01*
X150166806Y-95007922D01*
X150166804Y-95007928D01*
X150141500Y-95135140D01*
X150141500Y-95977500D01*
X150121815Y-96044539D01*
X150069011Y-96090294D01*
X150017500Y-96101500D01*
X149901345Y-96101500D01*
X149840797Y-96108011D01*
X149840795Y-96108011D01*
X149703795Y-96159111D01*
X149586739Y-96246739D01*
X149499111Y-96363795D01*
X149448011Y-96500795D01*
X149448011Y-96500797D01*
X149441500Y-96561345D01*
X149441500Y-98358654D01*
X146739212Y-98358654D01*
X146764594Y-98331082D01*
X146795715Y-98297276D01*
X146795717Y-98297273D01*
X146795722Y-98297268D01*
X146918860Y-98108791D01*
X147009296Y-97902616D01*
X147064564Y-97684368D01*
X147067164Y-97652993D01*
X147083156Y-97460005D01*
X147083156Y-97459994D01*
X147064565Y-97235640D01*
X147064563Y-97235628D01*
X147009296Y-97017385D01*
X146999071Y-96994075D01*
X146918860Y-96811209D01*
X146902706Y-96786484D01*
X146795723Y-96622734D01*
X146795715Y-96622723D01*
X146643243Y-96457097D01*
X146643238Y-96457092D01*
X146465577Y-96318812D01*
X146465572Y-96318808D01*
X146267580Y-96211661D01*
X146267577Y-96211659D01*
X146267574Y-96211658D01*
X146267571Y-96211657D01*
X146267569Y-96211656D01*
X146054637Y-96138556D01*
X145832569Y-96101500D01*
X145607431Y-96101500D01*
X145385362Y-96138556D01*
X145172430Y-96211656D01*
X145172419Y-96211661D01*
X144974427Y-96318808D01*
X144974422Y-96318812D01*
X144796761Y-96457092D01*
X144796756Y-96457097D01*
X144644284Y-96622723D01*
X144644276Y-96622734D01*
X144550251Y-96766650D01*
X144497105Y-96812007D01*
X144427873Y-96821430D01*
X144364538Y-96791928D01*
X144344868Y-96769951D01*
X144218113Y-96588926D01*
X144218108Y-96588920D01*
X144051082Y-96421894D01*
X143857578Y-96286399D01*
X143643492Y-96186570D01*
X143643486Y-96186567D01*
X143430000Y-96129364D01*
X143430000Y-97026988D01*
X143372993Y-96994075D01*
X143245826Y-96960000D01*
X143114174Y-96960000D01*
X142987007Y-96994075D01*
X142930000Y-97026988D01*
X142930000Y-96129364D01*
X142929999Y-96129364D01*
X142716513Y-96186567D01*
X142716507Y-96186570D01*
X142502422Y-96286399D01*
X142502420Y-96286400D01*
X142308926Y-96421886D01*
X142308920Y-96421891D01*
X142141891Y-96588920D01*
X142141890Y-96588922D01*
X142011575Y-96775031D01*
X141956998Y-96818655D01*
X141887499Y-96825848D01*
X141825145Y-96794326D01*
X141808425Y-96775031D01*
X141678109Y-96588922D01*
X141678108Y-96588920D01*
X141511082Y-96421894D01*
X141317578Y-96286399D01*
X141103492Y-96186570D01*
X141103486Y-96186567D01*
X140890000Y-96129364D01*
X140890000Y-97026988D01*
X140832993Y-96994075D01*
X140705826Y-96960000D01*
X140574174Y-96960000D01*
X140447007Y-96994075D01*
X140390000Y-97026988D01*
X140390000Y-96129364D01*
X140389999Y-96129364D01*
X140176513Y-96186567D01*
X140176507Y-96186570D01*
X139962422Y-96286399D01*
X139962420Y-96286400D01*
X139768926Y-96421886D01*
X139768920Y-96421891D01*
X139601891Y-96588920D01*
X139601890Y-96588922D01*
X139475131Y-96769952D01*
X139420554Y-96813577D01*
X139351055Y-96820769D01*
X139288701Y-96789247D01*
X139269752Y-96766656D01*
X139175722Y-96622732D01*
X139175715Y-96622725D01*
X139175715Y-96622723D01*
X139023243Y-96457097D01*
X139023238Y-96457092D01*
X138845577Y-96318812D01*
X138845572Y-96318808D01*
X138647580Y-96211661D01*
X138647577Y-96211659D01*
X138647574Y-96211658D01*
X138647571Y-96211657D01*
X138647569Y-96211656D01*
X138434637Y-96138556D01*
X138212569Y-96101500D01*
X137987431Y-96101500D01*
X137765362Y-96138556D01*
X137552430Y-96211656D01*
X137552419Y-96211661D01*
X137354427Y-96318808D01*
X137354422Y-96318812D01*
X137176761Y-96457092D01*
X137176756Y-96457097D01*
X137024284Y-96622723D01*
X137024276Y-96622734D01*
X136933808Y-96761206D01*
X136880662Y-96806562D01*
X136811431Y-96815986D01*
X136748095Y-96786484D01*
X136726192Y-96761206D01*
X136635723Y-96622734D01*
X136635715Y-96622723D01*
X136483243Y-96457097D01*
X136483238Y-96457092D01*
X136305577Y-96318812D01*
X136305572Y-96318808D01*
X136107580Y-96211661D01*
X136107577Y-96211659D01*
X136107574Y-96211658D01*
X136107571Y-96211657D01*
X136107569Y-96211656D01*
X135894637Y-96138556D01*
X135672569Y-96101500D01*
X135447431Y-96101500D01*
X135225362Y-96138556D01*
X135012430Y-96211656D01*
X135012419Y-96211661D01*
X134814427Y-96318808D01*
X134814422Y-96318812D01*
X134636761Y-96457092D01*
X134636756Y-96457097D01*
X134484284Y-96622723D01*
X134484276Y-96622734D01*
X134393808Y-96761206D01*
X134340662Y-96806562D01*
X134271431Y-96815986D01*
X134208095Y-96786484D01*
X134186192Y-96761206D01*
X134095723Y-96622734D01*
X134095715Y-96622723D01*
X133943243Y-96457097D01*
X133943238Y-96457092D01*
X133765577Y-96318812D01*
X133765572Y-96318808D01*
X133567580Y-96211661D01*
X133567577Y-96211659D01*
X133567574Y-96211658D01*
X133567571Y-96211657D01*
X133567569Y-96211656D01*
X133354637Y-96138556D01*
X133132569Y-96101500D01*
X132907431Y-96101500D01*
X132685362Y-96138556D01*
X132472430Y-96211656D01*
X132472419Y-96211661D01*
X132274427Y-96318808D01*
X132274422Y-96318812D01*
X132096761Y-96457092D01*
X132096756Y-96457097D01*
X131944284Y-96622723D01*
X131944276Y-96622734D01*
X131853808Y-96761206D01*
X131800662Y-96806562D01*
X131731431Y-96815986D01*
X131668095Y-96786484D01*
X131646192Y-96761206D01*
X131555723Y-96622734D01*
X131555715Y-96622723D01*
X131403243Y-96457097D01*
X131403238Y-96457092D01*
X131225577Y-96318812D01*
X131225572Y-96318808D01*
X131027580Y-96211661D01*
X131027577Y-96211659D01*
X131027574Y-96211658D01*
X131027571Y-96211657D01*
X131027569Y-96211656D01*
X130814637Y-96138556D01*
X130592569Y-96101500D01*
X130367431Y-96101500D01*
X130145362Y-96138556D01*
X129932430Y-96211656D01*
X129932419Y-96211661D01*
X129734427Y-96318808D01*
X129734422Y-96318812D01*
X129556761Y-96457092D01*
X129493548Y-96525760D01*
X129433661Y-96561750D01*
X129363823Y-96559649D01*
X129306207Y-96520124D01*
X129286138Y-96485110D01*
X129240889Y-96363796D01*
X129207214Y-96318812D01*
X129153261Y-96246739D01*
X129036204Y-96159111D01*
X129035172Y-96158726D01*
X128899203Y-96108011D01*
X128838654Y-96101500D01*
X128838638Y-96101500D01*
X127041362Y-96101500D01*
X127041345Y-96101500D01*
X126980797Y-96108011D01*
X126980795Y-96108011D01*
X126843795Y-96159111D01*
X126726739Y-96246739D01*
X126639111Y-96363795D01*
X126588011Y-96500795D01*
X126588011Y-96500797D01*
X126581500Y-96561345D01*
X126581500Y-98358654D01*
X100075500Y-98358654D01*
X100075500Y-85429999D01*
X101421127Y-85429999D01*
X101421128Y-85430000D01*
X102384314Y-85430000D01*
X102379920Y-85434394D01*
X102327259Y-85525606D01*
X102300000Y-85627339D01*
X102300000Y-85732661D01*
X102327259Y-85834394D01*
X102379920Y-85925606D01*
X102384314Y-85930000D01*
X101421128Y-85930000D01*
X101473730Y-86126317D01*
X101473734Y-86126326D01*
X101569865Y-86332482D01*
X101700342Y-86518820D01*
X101861179Y-86679657D01*
X102047517Y-86810134D01*
X102253673Y-86906265D01*
X102253682Y-86906269D01*
X102449999Y-86958872D01*
X102450000Y-86958871D01*
X102450000Y-85995686D01*
X102454394Y-86000080D01*
X102545606Y-86052741D01*
X102647339Y-86080000D01*
X102752661Y-86080000D01*
X102854394Y-86052741D01*
X102945606Y-86000080D01*
X102950000Y-85995686D01*
X102950000Y-86958872D01*
X103146317Y-86906269D01*
X103146326Y-86906265D01*
X103352482Y-86810134D01*
X103538820Y-86679657D01*
X103699657Y-86518820D01*
X103830134Y-86332482D01*
X103926265Y-86126326D01*
X103926269Y-86126317D01*
X103978872Y-85930000D01*
X103015686Y-85930000D01*
X103020080Y-85925606D01*
X103072741Y-85834394D01*
X103100000Y-85732661D01*
X103100000Y-85627339D01*
X103073918Y-85529999D01*
X105921127Y-85529999D01*
X105921128Y-85530000D01*
X106884314Y-85530000D01*
X106879920Y-85534394D01*
X106827259Y-85625606D01*
X106800000Y-85727339D01*
X106800000Y-85832661D01*
X106827259Y-85934394D01*
X106879920Y-86025606D01*
X106884314Y-86030000D01*
X105921128Y-86030000D01*
X105973730Y-86226317D01*
X105973734Y-86226326D01*
X106069865Y-86432482D01*
X106200342Y-86618820D01*
X106361179Y-86779657D01*
X106547517Y-86910134D01*
X106753673Y-87006265D01*
X106753682Y-87006269D01*
X106949999Y-87058872D01*
X106950000Y-87058871D01*
X106950000Y-86095686D01*
X106954394Y-86100080D01*
X107045606Y-86152741D01*
X107147339Y-86180000D01*
X107252661Y-86180000D01*
X107354394Y-86152741D01*
X107445606Y-86100080D01*
X107450000Y-86095686D01*
X107450000Y-87058872D01*
X107646317Y-87006269D01*
X107646326Y-87006265D01*
X107852482Y-86910134D01*
X108038820Y-86779657D01*
X108199657Y-86618820D01*
X108330134Y-86432482D01*
X108426265Y-86226326D01*
X108426269Y-86226317D01*
X108478872Y-86030000D01*
X107515686Y-86030000D01*
X107520080Y-86025606D01*
X107572741Y-85934394D01*
X107600000Y-85832661D01*
X107600000Y-85727339D01*
X107572741Y-85625606D01*
X107520080Y-85534394D01*
X107515686Y-85530000D01*
X108478872Y-85530000D01*
X108478872Y-85529999D01*
X108452077Y-85429999D01*
X110021127Y-85429999D01*
X110021128Y-85430000D01*
X110984314Y-85430000D01*
X110979920Y-85434394D01*
X110927259Y-85525606D01*
X110900000Y-85627339D01*
X110900000Y-85732661D01*
X110927259Y-85834394D01*
X110979920Y-85925606D01*
X110984314Y-85930000D01*
X110021128Y-85930000D01*
X110073730Y-86126317D01*
X110073734Y-86126326D01*
X110169865Y-86332482D01*
X110300342Y-86518820D01*
X110461179Y-86679657D01*
X110647517Y-86810134D01*
X110853673Y-86906265D01*
X110853682Y-86906269D01*
X111049999Y-86958872D01*
X111050000Y-86958871D01*
X111050000Y-85995686D01*
X111054394Y-86000080D01*
X111145606Y-86052741D01*
X111247339Y-86080000D01*
X111352661Y-86080000D01*
X111454394Y-86052741D01*
X111545606Y-86000080D01*
X111550000Y-85995686D01*
X111550000Y-86958872D01*
X111746317Y-86906269D01*
X111746326Y-86906265D01*
X111952482Y-86810134D01*
X112138820Y-86679657D01*
X112299657Y-86518820D01*
X112430134Y-86332482D01*
X112526265Y-86126326D01*
X112526269Y-86126317D01*
X112578872Y-85930000D01*
X111615686Y-85930000D01*
X111620080Y-85925606D01*
X111672741Y-85834394D01*
X111700000Y-85732661D01*
X111700000Y-85627339D01*
X111672741Y-85525606D01*
X111657957Y-85499999D01*
X115391127Y-85499999D01*
X115391128Y-85500000D01*
X116354314Y-85500000D01*
X116349920Y-85504394D01*
X116297259Y-85595606D01*
X116270000Y-85697339D01*
X116270000Y-85802661D01*
X116297259Y-85904394D01*
X116349920Y-85995606D01*
X116354314Y-86000000D01*
X115391128Y-86000000D01*
X115443730Y-86196317D01*
X115443734Y-86196326D01*
X115539865Y-86402482D01*
X115670342Y-86588820D01*
X115831179Y-86749657D01*
X116017517Y-86880134D01*
X116223673Y-86976265D01*
X116223682Y-86976269D01*
X116419999Y-87028872D01*
X116420000Y-87028871D01*
X116420000Y-86065686D01*
X116424394Y-86070080D01*
X116515606Y-86122741D01*
X116617339Y-86150000D01*
X116722661Y-86150000D01*
X116824394Y-86122741D01*
X116915606Y-86070080D01*
X116920000Y-86065686D01*
X116920000Y-87028872D01*
X117116317Y-86976269D01*
X117116326Y-86976265D01*
X117322482Y-86880134D01*
X117508820Y-86749657D01*
X117669657Y-86588820D01*
X117800134Y-86402482D01*
X117896265Y-86196326D01*
X117896269Y-86196317D01*
X117948872Y-86000000D01*
X116985686Y-86000000D01*
X116990080Y-85995606D01*
X117042741Y-85904394D01*
X117070000Y-85802661D01*
X117070000Y-85697339D01*
X117042741Y-85595606D01*
X116990080Y-85504394D01*
X116985686Y-85500000D01*
X117948872Y-85500000D01*
X117948872Y-85499999D01*
X117896269Y-85303682D01*
X117896265Y-85303673D01*
X117800134Y-85097517D01*
X117669657Y-84911179D01*
X117508820Y-84750342D01*
X117322482Y-84619865D01*
X117116328Y-84523734D01*
X116920000Y-84471127D01*
X116920000Y-85434314D01*
X116915606Y-85429920D01*
X116824394Y-85377259D01*
X116722661Y-85350000D01*
X116617339Y-85350000D01*
X116515606Y-85377259D01*
X116424394Y-85429920D01*
X116420000Y-85434314D01*
X116420000Y-84471127D01*
X116223671Y-84523734D01*
X116017517Y-84619865D01*
X115831179Y-84750342D01*
X115670342Y-84911179D01*
X115539865Y-85097517D01*
X115443734Y-85303673D01*
X115443730Y-85303682D01*
X115391127Y-85499999D01*
X111657957Y-85499999D01*
X111620080Y-85434394D01*
X111615686Y-85430000D01*
X112578872Y-85430000D01*
X112578872Y-85429999D01*
X112526269Y-85233682D01*
X112526265Y-85233673D01*
X112430134Y-85027517D01*
X112299657Y-84841179D01*
X112138820Y-84680342D01*
X111952482Y-84549865D01*
X111746328Y-84453734D01*
X111550000Y-84401127D01*
X111550000Y-85364314D01*
X111545606Y-85359920D01*
X111454394Y-85307259D01*
X111352661Y-85280000D01*
X111247339Y-85280000D01*
X111145606Y-85307259D01*
X111054394Y-85359920D01*
X111050000Y-85364314D01*
X111050000Y-84401127D01*
X110853671Y-84453734D01*
X110647517Y-84549865D01*
X110461179Y-84680342D01*
X110300342Y-84841179D01*
X110169865Y-85027517D01*
X110073734Y-85233673D01*
X110073730Y-85233682D01*
X110021127Y-85429999D01*
X108452077Y-85429999D01*
X108426269Y-85333682D01*
X108426265Y-85333673D01*
X108330134Y-85127517D01*
X108199657Y-84941179D01*
X108038820Y-84780342D01*
X107852482Y-84649865D01*
X107646328Y-84553734D01*
X107450000Y-84501127D01*
X107450000Y-85464314D01*
X107445606Y-85459920D01*
X107354394Y-85407259D01*
X107252661Y-85380000D01*
X107147339Y-85380000D01*
X107045606Y-85407259D01*
X106954394Y-85459920D01*
X106950000Y-85464314D01*
X106950000Y-84501127D01*
X106753671Y-84553734D01*
X106547517Y-84649865D01*
X106361179Y-84780342D01*
X106200342Y-84941179D01*
X106069865Y-85127517D01*
X105973734Y-85333673D01*
X105973730Y-85333682D01*
X105921127Y-85529999D01*
X103073918Y-85529999D01*
X103072741Y-85525606D01*
X103020080Y-85434394D01*
X103015686Y-85430000D01*
X103978872Y-85430000D01*
X103978872Y-85429999D01*
X103926269Y-85233682D01*
X103926265Y-85233673D01*
X103830134Y-85027517D01*
X103699657Y-84841179D01*
X103538820Y-84680342D01*
X103352482Y-84549865D01*
X103146328Y-84453734D01*
X102950000Y-84401127D01*
X102950000Y-85364314D01*
X102945606Y-85359920D01*
X102854394Y-85307259D01*
X102752661Y-85280000D01*
X102647339Y-85280000D01*
X102545606Y-85307259D01*
X102454394Y-85359920D01*
X102450000Y-85364314D01*
X102450000Y-84401127D01*
X102253671Y-84453734D01*
X102047517Y-84549865D01*
X101861179Y-84680342D01*
X101700342Y-84841179D01*
X101569865Y-85027517D01*
X101473734Y-85233673D01*
X101473730Y-85233682D01*
X101421127Y-85429999D01*
X100075500Y-85429999D01*
X100075500Y-75520001D01*
X101386502Y-75520001D01*
X101406456Y-75748081D01*
X101406457Y-75748089D01*
X101465714Y-75969238D01*
X101465718Y-75969249D01*
X101543810Y-76136717D01*
X101562477Y-76176749D01*
X101693802Y-76364300D01*
X101855700Y-76526198D01*
X102043251Y-76657523D01*
X102108228Y-76687822D01*
X102250750Y-76754281D01*
X102250752Y-76754281D01*
X102250757Y-76754284D01*
X102471913Y-76813543D01*
X102634832Y-76827796D01*
X102699998Y-76833498D01*
X102700000Y-76833498D01*
X102700002Y-76833498D01*
X102757021Y-76828509D01*
X102928087Y-76813543D01*
X103149243Y-76754284D01*
X103356749Y-76657523D01*
X103544300Y-76526198D01*
X103706198Y-76364300D01*
X103837523Y-76176749D01*
X103934284Y-75969243D01*
X103993543Y-75748087D01*
X104004749Y-75620001D01*
X105886502Y-75620001D01*
X105906456Y-75848081D01*
X105906457Y-75848089D01*
X105965714Y-76069238D01*
X105965718Y-76069249D01*
X106039712Y-76227929D01*
X106062477Y-76276749D01*
X106193802Y-76464300D01*
X106355700Y-76626198D01*
X106543251Y-76757523D01*
X106663385Y-76813542D01*
X106750750Y-76854281D01*
X106750752Y-76854281D01*
X106750757Y-76854284D01*
X106971913Y-76913543D01*
X107134832Y-76927796D01*
X107199998Y-76933498D01*
X107200000Y-76933498D01*
X107200002Y-76933498D01*
X107257021Y-76928509D01*
X107428087Y-76913543D01*
X107649243Y-76854284D01*
X107856749Y-76757523D01*
X108044300Y-76626198D01*
X108206198Y-76464300D01*
X108337523Y-76276749D01*
X108434284Y-76069243D01*
X108493543Y-75848087D01*
X108513498Y-75620000D01*
X108504749Y-75520001D01*
X109986502Y-75520001D01*
X110006456Y-75748081D01*
X110006457Y-75748089D01*
X110065714Y-75969238D01*
X110065718Y-75969249D01*
X110143810Y-76136717D01*
X110162477Y-76176749D01*
X110293802Y-76364300D01*
X110455700Y-76526198D01*
X110643251Y-76657523D01*
X110708228Y-76687822D01*
X110850750Y-76754281D01*
X110850752Y-76754281D01*
X110850757Y-76754284D01*
X111071913Y-76813543D01*
X111234832Y-76827796D01*
X111299998Y-76833498D01*
X111300000Y-76833498D01*
X111300002Y-76833498D01*
X111357021Y-76828509D01*
X111528087Y-76813543D01*
X111749243Y-76754284D01*
X111956749Y-76657523D01*
X112144300Y-76526198D01*
X112306198Y-76364300D01*
X112437523Y-76176749D01*
X112534284Y-75969243D01*
X112593543Y-75748087D01*
X112613498Y-75520000D01*
X112593543Y-75291913D01*
X112534284Y-75070757D01*
X112527345Y-75055877D01*
X112493453Y-74983194D01*
X112437523Y-74863251D01*
X112306198Y-74675700D01*
X112144300Y-74513802D01*
X111956749Y-74382477D01*
X111956745Y-74382475D01*
X111749249Y-74285718D01*
X111749238Y-74285714D01*
X111528089Y-74226457D01*
X111528081Y-74226456D01*
X111300002Y-74206502D01*
X111299998Y-74206502D01*
X111071918Y-74226456D01*
X111071910Y-74226457D01*
X110850761Y-74285714D01*
X110850750Y-74285718D01*
X110643254Y-74382475D01*
X110643252Y-74382476D01*
X110643251Y-74382477D01*
X110455700Y-74513802D01*
X110455698Y-74513803D01*
X110455695Y-74513806D01*
X110293806Y-74675695D01*
X110293803Y-74675698D01*
X110293802Y-74675700D01*
X110277317Y-74699243D01*
X110162476Y-74863252D01*
X110162475Y-74863254D01*
X110065718Y-75070750D01*
X110065714Y-75070761D01*
X110006457Y-75291910D01*
X110006456Y-75291918D01*
X109986502Y-75519998D01*
X109986502Y-75520001D01*
X108504749Y-75520001D01*
X108493543Y-75391913D01*
X108434284Y-75170757D01*
X108416551Y-75132729D01*
X108387655Y-75070761D01*
X108337523Y-74963251D01*
X108206198Y-74775700D01*
X108044300Y-74613802D01*
X107856749Y-74482477D01*
X107847322Y-74478081D01*
X107649249Y-74385718D01*
X107649238Y-74385714D01*
X107428089Y-74326457D01*
X107428081Y-74326456D01*
X107200002Y-74306502D01*
X107199998Y-74306502D01*
X106971918Y-74326456D01*
X106971910Y-74326457D01*
X106750761Y-74385714D01*
X106750750Y-74385718D01*
X106543254Y-74482475D01*
X106543252Y-74482476D01*
X106543251Y-74482477D01*
X106355700Y-74613802D01*
X106355698Y-74613803D01*
X106355695Y-74613806D01*
X106193806Y-74775695D01*
X106193803Y-74775698D01*
X106193802Y-74775700D01*
X106133732Y-74861489D01*
X106062476Y-74963252D01*
X106062475Y-74963254D01*
X105965718Y-75170750D01*
X105965714Y-75170761D01*
X105906457Y-75391910D01*
X105906456Y-75391918D01*
X105886502Y-75619998D01*
X105886502Y-75620001D01*
X104004749Y-75620001D01*
X104013498Y-75520000D01*
X103993543Y-75291913D01*
X103934284Y-75070757D01*
X103927345Y-75055877D01*
X103893453Y-74983194D01*
X103837523Y-74863251D01*
X103706198Y-74675700D01*
X103544300Y-74513802D01*
X103356749Y-74382477D01*
X103356745Y-74382475D01*
X103149249Y-74285718D01*
X103149238Y-74285714D01*
X102928089Y-74226457D01*
X102928081Y-74226456D01*
X102700002Y-74206502D01*
X102699998Y-74206502D01*
X102471918Y-74226456D01*
X102471910Y-74226457D01*
X102250761Y-74285714D01*
X102250750Y-74285718D01*
X102043254Y-74382475D01*
X102043252Y-74382476D01*
X102043251Y-74382477D01*
X101855700Y-74513802D01*
X101855698Y-74513803D01*
X101855695Y-74513806D01*
X101693806Y-74675695D01*
X101693803Y-74675698D01*
X101693802Y-74675700D01*
X101677317Y-74699243D01*
X101562476Y-74863252D01*
X101562475Y-74863254D01*
X101465718Y-75070750D01*
X101465714Y-75070761D01*
X101406457Y-75291910D01*
X101406456Y-75291918D01*
X101386502Y-75519998D01*
X101386502Y-75520001D01*
X100075500Y-75520001D01*
X100075500Y-69198654D01*
X100551500Y-69198654D01*
X100558011Y-69259202D01*
X100558011Y-69259204D01*
X100599367Y-69370080D01*
X100609111Y-69396204D01*
X100696739Y-69513261D01*
X100813796Y-69600889D01*
X100950799Y-69651989D01*
X100978050Y-69654918D01*
X101011345Y-69658499D01*
X101011362Y-69658500D01*
X102908638Y-69658500D01*
X102908654Y-69658499D01*
X102935692Y-69655591D01*
X102969201Y-69651989D01*
X103106204Y-69600889D01*
X103223261Y-69513261D01*
X103310889Y-69396204D01*
X103335397Y-69330495D01*
X103377268Y-69274563D01*
X103442733Y-69250147D01*
X103511005Y-69264999D01*
X103538724Y-69286656D01*
X103539010Y-69286347D01*
X103542774Y-69289811D01*
X103542780Y-69289818D01*
X103726983Y-69433190D01*
X103726985Y-69433191D01*
X103726988Y-69433193D01*
X103755558Y-69448654D01*
X103932273Y-69544287D01*
X104042147Y-69582007D01*
X104153045Y-69620079D01*
X104153047Y-69620079D01*
X104153049Y-69620080D01*
X104383288Y-69658500D01*
X104383289Y-69658500D01*
X104616711Y-69658500D01*
X104616712Y-69658500D01*
X104846951Y-69620080D01*
X105067727Y-69544287D01*
X105244442Y-69448654D01*
X109551500Y-69448654D01*
X109558011Y-69509202D01*
X109558011Y-69509204D01*
X109596457Y-69612278D01*
X109609111Y-69646204D01*
X109696739Y-69763261D01*
X109813796Y-69850889D01*
X109909618Y-69886629D01*
X109941857Y-69898654D01*
X109950799Y-69901989D01*
X109978050Y-69904918D01*
X110011345Y-69908499D01*
X110011362Y-69908500D01*
X111908638Y-69908500D01*
X111908654Y-69908499D01*
X111935692Y-69905591D01*
X111969201Y-69901989D01*
X111978143Y-69898654D01*
X112010382Y-69886629D01*
X112106204Y-69850889D01*
X112223261Y-69763261D01*
X112310889Y-69646204D01*
X112335397Y-69580495D01*
X112377268Y-69524563D01*
X112442733Y-69500147D01*
X112511005Y-69514999D01*
X112538724Y-69536656D01*
X112539010Y-69536347D01*
X112542774Y-69539811D01*
X112542780Y-69539818D01*
X112726983Y-69683190D01*
X112726985Y-69683191D01*
X112726988Y-69683193D01*
X112770516Y-69706749D01*
X112932273Y-69794287D01*
X113046914Y-69833643D01*
X113153045Y-69870079D01*
X113153047Y-69870079D01*
X113153049Y-69870080D01*
X113383288Y-69908500D01*
X113383289Y-69908500D01*
X113616711Y-69908500D01*
X113616712Y-69908500D01*
X113846951Y-69870080D01*
X114067727Y-69794287D01*
X114273017Y-69683190D01*
X114457220Y-69539818D01*
X114615314Y-69368083D01*
X114742984Y-69172669D01*
X114836749Y-68958907D01*
X114894051Y-68732626D01*
X114911836Y-68517992D01*
X114913327Y-68500005D01*
X114913327Y-68499994D01*
X114894051Y-68267377D01*
X114894051Y-68267374D01*
X114836749Y-68041093D01*
X114742984Y-67827331D01*
X114615314Y-67631917D01*
X114615313Y-67631915D01*
X114457223Y-67460185D01*
X114457222Y-67460184D01*
X114457220Y-67460182D01*
X114273017Y-67316810D01*
X114273015Y-67316809D01*
X114273014Y-67316808D01*
X114273011Y-67316806D01*
X114067733Y-67205716D01*
X114067730Y-67205715D01*
X114067727Y-67205713D01*
X114067721Y-67205711D01*
X114067719Y-67205710D01*
X113846954Y-67129920D01*
X113655730Y-67098011D01*
X113616712Y-67091500D01*
X113383288Y-67091500D01*
X113344270Y-67098011D01*
X113153045Y-67129920D01*
X112932280Y-67205710D01*
X112932266Y-67205716D01*
X112726988Y-67316806D01*
X112726985Y-67316808D01*
X112542781Y-67460181D01*
X112539010Y-67463653D01*
X112538290Y-67462871D01*
X112482899Y-67496147D01*
X112413061Y-67494034D01*
X112355452Y-67454500D01*
X112335397Y-67419503D01*
X112327371Y-67397987D01*
X112310889Y-67353796D01*
X112223261Y-67236739D01*
X112106204Y-67149111D01*
X111969203Y-67098011D01*
X111908654Y-67091500D01*
X111908638Y-67091500D01*
X110011362Y-67091500D01*
X110011345Y-67091500D01*
X109950797Y-67098011D01*
X109950795Y-67098011D01*
X109813795Y-67149111D01*
X109696739Y-67236739D01*
X109609111Y-67353795D01*
X109558011Y-67490795D01*
X109558011Y-67490797D01*
X109551500Y-67551345D01*
X109551500Y-69448654D01*
X105244442Y-69448654D01*
X105273017Y-69433190D01*
X105457220Y-69289818D01*
X105615314Y-69118083D01*
X105742984Y-68922669D01*
X105836749Y-68708907D01*
X105894051Y-68482626D01*
X105911887Y-68267377D01*
X105913327Y-68250005D01*
X105913327Y-68249994D01*
X105894052Y-68017382D01*
X105894050Y-68017370D01*
X105864838Y-67902015D01*
X105867463Y-67832195D01*
X105897361Y-67783896D01*
X108861490Y-64819769D01*
X108933555Y-64711917D01*
X108983194Y-64592077D01*
X108985767Y-64579138D01*
X108985768Y-64579138D01*
X108985768Y-64579135D01*
X109008500Y-64464857D01*
X109008500Y-60698654D01*
X109591500Y-60698654D01*
X109598011Y-60759202D01*
X109598011Y-60759204D01*
X109632209Y-60850889D01*
X109649111Y-60896204D01*
X109736739Y-61013261D01*
X109853796Y-61100889D01*
X109990799Y-61151989D01*
X110018050Y-61154918D01*
X110051345Y-61158499D01*
X110051362Y-61158500D01*
X110217500Y-61158500D01*
X110284539Y-61178185D01*
X110330294Y-61230989D01*
X110341500Y-61282500D01*
X110341500Y-61385143D01*
X110341500Y-61514857D01*
X110341500Y-61514859D01*
X110341499Y-61514859D01*
X110366804Y-61642071D01*
X110366806Y-61642077D01*
X110416443Y-61761913D01*
X110416447Y-61761920D01*
X110488510Y-61869771D01*
X114110227Y-65491488D01*
X114110235Y-65491494D01*
X114209652Y-65557922D01*
X114209653Y-65557922D01*
X114209654Y-65557923D01*
X114218083Y-65563555D01*
X114337923Y-65613194D01*
X114337927Y-65613194D01*
X114337928Y-65613195D01*
X114465140Y-65638500D01*
X114465143Y-65638500D01*
X114465144Y-65638500D01*
X114594857Y-65638500D01*
X117899153Y-65638500D01*
X117966192Y-65658185D01*
X118000725Y-65691373D01*
X118093802Y-65824300D01*
X118255700Y-65986198D01*
X118443251Y-66117523D01*
X118568091Y-66175736D01*
X118650750Y-66214281D01*
X118650752Y-66214281D01*
X118650757Y-66214284D01*
X118871913Y-66273543D01*
X119034832Y-66287796D01*
X119099998Y-66293498D01*
X119100000Y-66293498D01*
X119100002Y-66293498D01*
X119157021Y-66288509D01*
X119328087Y-66273543D01*
X119549243Y-66214284D01*
X119756749Y-66117523D01*
X119944300Y-65986198D01*
X120106198Y-65824300D01*
X120237523Y-65636749D01*
X120334284Y-65429243D01*
X120393543Y-65208087D01*
X120413498Y-64980000D01*
X120393543Y-64751913D01*
X120334284Y-64530757D01*
X120237523Y-64323251D01*
X120106198Y-64135700D01*
X119944300Y-63973802D01*
X119756749Y-63842477D01*
X119756745Y-63842475D01*
X119549249Y-63745718D01*
X119549238Y-63745714D01*
X119328089Y-63686457D01*
X119328081Y-63686456D01*
X119100002Y-63666502D01*
X119099998Y-63666502D01*
X118871918Y-63686456D01*
X118871910Y-63686457D01*
X118650761Y-63745714D01*
X118650750Y-63745718D01*
X118443254Y-63842475D01*
X118443252Y-63842476D01*
X118443251Y-63842477D01*
X118255700Y-63973802D01*
X118255698Y-63973803D01*
X118255695Y-63973806D01*
X118093806Y-64135695D01*
X118093803Y-64135698D01*
X118093802Y-64135700D01*
X118000726Y-64268625D01*
X117946150Y-64312249D01*
X117899153Y-64321500D01*
X114854122Y-64321500D01*
X114787083Y-64301815D01*
X114766441Y-64285181D01*
X111851441Y-61370181D01*
X111817956Y-61308858D01*
X111822940Y-61239166D01*
X111864812Y-61183233D01*
X111930276Y-61158816D01*
X111939122Y-61158500D01*
X111948638Y-61158500D01*
X111948654Y-61158499D01*
X111975692Y-61155591D01*
X112009201Y-61151989D01*
X112146204Y-61100889D01*
X112263261Y-61013261D01*
X112350889Y-60896204D01*
X112375397Y-60830495D01*
X112417268Y-60774563D01*
X112482733Y-60750147D01*
X112551005Y-60764999D01*
X112578724Y-60786656D01*
X112579010Y-60786347D01*
X112582774Y-60789811D01*
X112582780Y-60789818D01*
X112766983Y-60933190D01*
X112766985Y-60933191D01*
X112766988Y-60933193D01*
X112854866Y-60980750D01*
X112972273Y-61044287D01*
X113086914Y-61083643D01*
X113193045Y-61120079D01*
X113193047Y-61120079D01*
X113193049Y-61120080D01*
X113423288Y-61158500D01*
X113423289Y-61158500D01*
X113656711Y-61158500D01*
X113656712Y-61158500D01*
X113886951Y-61120080D01*
X114107727Y-61044287D01*
X114313017Y-60933190D01*
X114497220Y-60789818D01*
X114655314Y-60618083D01*
X114782984Y-60422669D01*
X114876749Y-60208907D01*
X114934051Y-59982626D01*
X114950277Y-59786806D01*
X114953327Y-59750005D01*
X114953327Y-59749994D01*
X114934051Y-59517377D01*
X114934051Y-59517374D01*
X114876749Y-59291093D01*
X114782984Y-59077331D01*
X114655314Y-58881917D01*
X114655313Y-58881915D01*
X114497223Y-58710185D01*
X114497222Y-58710184D01*
X114497220Y-58710182D01*
X114313017Y-58566810D01*
X114313015Y-58566809D01*
X114313014Y-58566808D01*
X114313011Y-58566806D01*
X114107733Y-58455716D01*
X114107730Y-58455715D01*
X114107727Y-58455713D01*
X114107721Y-58455711D01*
X114107719Y-58455710D01*
X113886954Y-58379920D01*
X113695730Y-58348011D01*
X113656712Y-58341500D01*
X113423288Y-58341500D01*
X113384270Y-58348011D01*
X113193045Y-58379920D01*
X112972280Y-58455710D01*
X112972266Y-58455716D01*
X112766988Y-58566806D01*
X112766985Y-58566808D01*
X112582781Y-58710181D01*
X112579010Y-58713653D01*
X112578290Y-58712871D01*
X112522899Y-58746147D01*
X112453061Y-58744034D01*
X112395452Y-58704500D01*
X112375397Y-58669503D01*
X112367371Y-58647987D01*
X112350889Y-58603796D01*
X112263261Y-58486739D01*
X112146204Y-58399111D01*
X112009203Y-58348011D01*
X111948654Y-58341500D01*
X111948638Y-58341500D01*
X110051362Y-58341500D01*
X110051345Y-58341500D01*
X109990797Y-58348011D01*
X109990795Y-58348011D01*
X109853795Y-58399111D01*
X109736739Y-58486739D01*
X109649111Y-58603795D01*
X109598011Y-58740795D01*
X109598011Y-58740797D01*
X109591500Y-58801345D01*
X109591500Y-60698654D01*
X109008500Y-60698654D01*
X109008500Y-58274122D01*
X109028185Y-58207083D01*
X109044819Y-58186441D01*
X114186441Y-53044819D01*
X114247764Y-53011334D01*
X114274122Y-53008500D01*
X115614859Y-53008500D01*
X115712049Y-52989167D01*
X115742077Y-52983194D01*
X115861917Y-52933555D01*
X115866512Y-52930484D01*
X115868142Y-52929396D01*
X115934820Y-52908520D01*
X115937030Y-52908500D01*
X121660878Y-52908500D01*
X121727917Y-52928185D01*
X121773672Y-52980989D01*
X121783616Y-53050147D01*
X121754591Y-53113703D01*
X121748559Y-53120181D01*
X120788511Y-54080227D01*
X120788505Y-54080235D01*
X120717502Y-54186498D01*
X120717503Y-54186499D01*
X120716445Y-54188082D01*
X120716443Y-54188086D01*
X120666807Y-54307918D01*
X120666804Y-54307928D01*
X120641500Y-54435140D01*
X120641500Y-54683528D01*
X120621815Y-54750567D01*
X120569011Y-54796322D01*
X120499853Y-54806266D01*
X120436297Y-54777241D01*
X120398523Y-54718463D01*
X120393972Y-54694335D01*
X120385141Y-54593400D01*
X120385139Y-54593389D01*
X120326269Y-54373682D01*
X120326265Y-54373673D01*
X120230134Y-54167517D01*
X120099657Y-53981179D01*
X119938820Y-53820342D01*
X119752482Y-53689865D01*
X119546328Y-53593734D01*
X119350000Y-53541127D01*
X119350000Y-54504314D01*
X119345606Y-54499920D01*
X119254394Y-54447259D01*
X119152661Y-54420000D01*
X119047339Y-54420000D01*
X118945606Y-54447259D01*
X118854394Y-54499920D01*
X118850000Y-54504314D01*
X118850000Y-53541127D01*
X118653671Y-53593734D01*
X118447517Y-53689865D01*
X118261179Y-53820342D01*
X118100342Y-53981179D01*
X117969865Y-54167517D01*
X117873734Y-54373673D01*
X117873730Y-54373682D01*
X117821127Y-54569999D01*
X117821128Y-54570000D01*
X118784314Y-54570000D01*
X118779920Y-54574394D01*
X118727259Y-54665606D01*
X118700000Y-54767339D01*
X118700000Y-54872661D01*
X118727259Y-54974394D01*
X118779920Y-55065606D01*
X118784314Y-55070000D01*
X117821128Y-55070000D01*
X117873730Y-55266317D01*
X117873734Y-55266326D01*
X117969865Y-55472482D01*
X118100342Y-55658820D01*
X118261179Y-55819657D01*
X118447517Y-55950134D01*
X118653673Y-56046265D01*
X118653682Y-56046269D01*
X118849999Y-56098872D01*
X118850000Y-56098871D01*
X118850000Y-55135686D01*
X118854394Y-55140080D01*
X118945606Y-55192741D01*
X119047339Y-55220000D01*
X119152661Y-55220000D01*
X119254394Y-55192741D01*
X119345606Y-55140080D01*
X119350000Y-55135686D01*
X119350000Y-56098872D01*
X119546317Y-56046269D01*
X119546326Y-56046265D01*
X119752482Y-55950134D01*
X119938820Y-55819657D01*
X120099657Y-55658820D01*
X120230134Y-55472482D01*
X120326265Y-55266326D01*
X120326269Y-55266317D01*
X120385139Y-55046610D01*
X120385141Y-55046599D01*
X120393972Y-54945664D01*
X120419424Y-54880595D01*
X120476015Y-54839616D01*
X120545777Y-54835738D01*
X120606561Y-54870192D01*
X120639069Y-54932039D01*
X120641500Y-54956471D01*
X120641500Y-62085143D01*
X120641500Y-62214857D01*
X120641500Y-62214859D01*
X120641499Y-62214859D01*
X120666804Y-62342071D01*
X120666806Y-62342077D01*
X120716443Y-62461913D01*
X120716447Y-62461920D01*
X120788510Y-62569771D01*
X123030228Y-64811489D01*
X123085827Y-64848639D01*
X123138076Y-64883551D01*
X123138089Y-64883558D01*
X123252986Y-64931149D01*
X123257923Y-64933194D01*
X123257927Y-64933194D01*
X123257928Y-64933195D01*
X123385140Y-64958500D01*
X127290522Y-64958500D01*
X127357561Y-64978185D01*
X127403316Y-65030989D01*
X127413260Y-65100147D01*
X127384235Y-65163703D01*
X127359413Y-65185602D01*
X127325762Y-65208087D01*
X127325761Y-65208087D01*
X127280235Y-65238506D01*
X127280227Y-65238512D01*
X126488513Y-66030225D01*
X126488510Y-66030228D01*
X126430184Y-66117519D01*
X126430185Y-66117520D01*
X126416442Y-66138088D01*
X126366807Y-66257918D01*
X126366804Y-66257928D01*
X126341500Y-66385140D01*
X126341500Y-69879152D01*
X126321815Y-69946191D01*
X126288624Y-69980726D01*
X126155699Y-70073802D01*
X125993806Y-70235695D01*
X125993803Y-70235698D01*
X125993802Y-70235700D01*
X125922332Y-70337769D01*
X125862476Y-70423252D01*
X125862475Y-70423254D01*
X125765718Y-70630750D01*
X125765714Y-70630761D01*
X125706457Y-70851910D01*
X125706456Y-70851918D01*
X125686502Y-71079998D01*
X125686502Y-71080001D01*
X125706456Y-71308081D01*
X125706457Y-71308089D01*
X125765714Y-71529238D01*
X125765718Y-71529249D01*
X125815710Y-71636457D01*
X125862477Y-71736749D01*
X125993802Y-71924300D01*
X125993806Y-71924304D01*
X126155698Y-72086197D01*
X126288623Y-72179271D01*
X126332248Y-72233847D01*
X126341500Y-72280846D01*
X126341500Y-73549152D01*
X126321815Y-73616191D01*
X126288624Y-73650727D01*
X126216259Y-73701398D01*
X126150053Y-73723725D01*
X126145135Y-73723823D01*
X120432500Y-73723823D01*
X120365461Y-73704138D01*
X120319706Y-73651334D01*
X120308500Y-73599823D01*
X120308500Y-73533685D01*
X120308499Y-73533668D01*
X120303934Y-73491215D01*
X120301989Y-73473122D01*
X120250889Y-73336119D01*
X120163261Y-73219062D01*
X120046204Y-73131434D01*
X119909203Y-73080334D01*
X119848654Y-73073823D01*
X119848638Y-73073823D01*
X118151362Y-73073823D01*
X118151345Y-73073823D01*
X118090797Y-73080334D01*
X118090795Y-73080334D01*
X117953795Y-73131434D01*
X117836739Y-73219062D01*
X117749111Y-73336118D01*
X117698011Y-73473118D01*
X117698011Y-73473120D01*
X117691500Y-73533668D01*
X117691500Y-75230977D01*
X117698011Y-75291525D01*
X117698011Y-75291527D01*
X117740987Y-75406747D01*
X117749111Y-75428527D01*
X117836739Y-75545584D01*
X117836742Y-75545586D01*
X117846955Y-75553232D01*
X117888826Y-75609166D01*
X117893810Y-75678858D01*
X117874225Y-75723614D01*
X117869867Y-75729838D01*
X117869865Y-75729841D01*
X117773734Y-75935996D01*
X117773730Y-75936005D01*
X117714860Y-76155712D01*
X117714858Y-76155723D01*
X117695034Y-76382320D01*
X117695034Y-76382325D01*
X117714858Y-76608922D01*
X117714860Y-76608933D01*
X117773730Y-76828640D01*
X117773735Y-76828654D01*
X117869863Y-77034801D01*
X117920974Y-77107795D01*
X118600000Y-76428769D01*
X118600000Y-76434984D01*
X118627259Y-76536717D01*
X118679920Y-76627929D01*
X118754394Y-76702403D01*
X118845606Y-76755064D01*
X118947339Y-76782323D01*
X118953553Y-76782323D01*
X118274526Y-77461348D01*
X118347513Y-77512455D01*
X118347521Y-77512459D01*
X118553668Y-77608587D01*
X118553682Y-77608592D01*
X118773389Y-77667462D01*
X118773400Y-77667464D01*
X118999998Y-77687289D01*
X119000002Y-77687289D01*
X119226599Y-77667464D01*
X119226610Y-77667462D01*
X119446317Y-77608592D01*
X119446331Y-77608587D01*
X119652478Y-77512459D01*
X119725471Y-77461347D01*
X119046447Y-76782323D01*
X119052661Y-76782323D01*
X119154394Y-76755064D01*
X119245606Y-76702403D01*
X119320080Y-76627929D01*
X119372741Y-76536717D01*
X119400000Y-76434984D01*
X119400000Y-76428770D01*
X120079024Y-77107794D01*
X120130136Y-77034801D01*
X120226264Y-76828654D01*
X120226269Y-76828640D01*
X120249106Y-76743410D01*
X120285470Y-76683750D01*
X120348317Y-76653220D01*
X120417693Y-76661514D01*
X120456562Y-76687822D01*
X122205181Y-78436441D01*
X122238666Y-78497764D01*
X122241500Y-78524122D01*
X122241500Y-81755143D01*
X122241500Y-81884857D01*
X122241500Y-81884859D01*
X122241499Y-81884859D01*
X122266804Y-82012071D01*
X122266806Y-82012077D01*
X122316443Y-82131913D01*
X122316447Y-82131920D01*
X122388510Y-82239771D01*
X122388511Y-82239772D01*
X125514193Y-85365452D01*
X125547678Y-85426775D01*
X125546287Y-85485226D01*
X125536458Y-85521907D01*
X125536456Y-85521918D01*
X125516502Y-85749998D01*
X125516502Y-85750001D01*
X125536456Y-85978081D01*
X125536459Y-85978098D01*
X125546286Y-86014774D01*
X125544622Y-86084623D01*
X125514192Y-86134546D01*
X123443559Y-88205181D01*
X123382236Y-88238666D01*
X123355878Y-88241500D01*
X110535141Y-88241500D01*
X110407928Y-88266804D01*
X110407922Y-88266806D01*
X110288086Y-88316443D01*
X110288079Y-88316447D01*
X110180228Y-88388510D01*
X110180227Y-88388511D01*
X107663559Y-90905181D01*
X107602236Y-90938666D01*
X107575878Y-90941500D01*
X106301345Y-90941500D01*
X106240797Y-90948011D01*
X106240795Y-90948011D01*
X106103795Y-90999111D01*
X105986739Y-91086739D01*
X105899111Y-91203795D01*
X105848011Y-91340795D01*
X105848011Y-91340797D01*
X105841500Y-91401345D01*
X105841500Y-93198654D01*
X105848011Y-93259202D01*
X105848011Y-93259204D01*
X105888011Y-93366445D01*
X105899111Y-93396204D01*
X105986739Y-93513261D01*
X106103796Y-93600889D01*
X106240799Y-93651989D01*
X106268050Y-93654918D01*
X106301345Y-93658499D01*
X106301362Y-93658500D01*
X108098638Y-93658500D01*
X108098654Y-93658499D01*
X108125692Y-93655591D01*
X108159201Y-93651989D01*
X108296204Y-93600889D01*
X108413261Y-93513261D01*
X108500889Y-93396204D01*
X108551989Y-93259201D01*
X108555591Y-93225692D01*
X108558499Y-93198654D01*
X108558500Y-93198637D01*
X108558500Y-93147844D01*
X110150000Y-93147844D01*
X110156401Y-93207372D01*
X110156403Y-93207379D01*
X110206645Y-93342086D01*
X110206649Y-93342093D01*
X110292809Y-93457187D01*
X110292812Y-93457190D01*
X110407906Y-93543350D01*
X110407913Y-93543354D01*
X110542620Y-93593596D01*
X110542627Y-93593598D01*
X110602155Y-93599999D01*
X110602172Y-93600000D01*
X111250000Y-93600000D01*
X111250000Y-92683012D01*
X111307007Y-92715925D01*
X111434174Y-92750000D01*
X111565826Y-92750000D01*
X111692993Y-92715925D01*
X111750000Y-92683012D01*
X111750000Y-93600000D01*
X112397828Y-93600000D01*
X112397844Y-93599999D01*
X112457372Y-93593598D01*
X112457379Y-93593596D01*
X112592086Y-93543354D01*
X112592093Y-93543350D01*
X112707187Y-93457190D01*
X112707190Y-93457187D01*
X112793350Y-93342093D01*
X112793354Y-93342086D01*
X112843596Y-93207379D01*
X112843598Y-93207372D01*
X112849999Y-93147844D01*
X112850000Y-93147827D01*
X112850000Y-92897844D01*
X119150000Y-92897844D01*
X119156401Y-92957372D01*
X119156403Y-92957379D01*
X119206645Y-93092086D01*
X119206649Y-93092093D01*
X119292809Y-93207187D01*
X119292812Y-93207190D01*
X119407906Y-93293350D01*
X119407913Y-93293354D01*
X119542620Y-93343596D01*
X119542627Y-93343598D01*
X119602155Y-93349999D01*
X119602172Y-93350000D01*
X120250000Y-93350000D01*
X120250000Y-92433012D01*
X120307007Y-92465925D01*
X120434174Y-92500000D01*
X120565826Y-92500000D01*
X120692993Y-92465925D01*
X120750000Y-92433012D01*
X120750000Y-93350000D01*
X121397828Y-93350000D01*
X121397844Y-93349999D01*
X121457372Y-93343598D01*
X121457379Y-93343596D01*
X121592086Y-93293354D01*
X121592093Y-93293350D01*
X121707187Y-93207190D01*
X121707190Y-93207187D01*
X121793350Y-93092093D01*
X121793354Y-93092086D01*
X121843596Y-92957379D01*
X121843598Y-92957372D01*
X121849999Y-92897844D01*
X123900000Y-92897844D01*
X123906401Y-92957372D01*
X123906403Y-92957379D01*
X123956645Y-93092086D01*
X123956649Y-93092093D01*
X124042809Y-93207187D01*
X124042812Y-93207190D01*
X124157906Y-93293350D01*
X124157913Y-93293354D01*
X124292620Y-93343596D01*
X124292627Y-93343598D01*
X124352155Y-93349999D01*
X124352172Y-93350000D01*
X125000000Y-93350000D01*
X125000000Y-92433012D01*
X125057007Y-92465925D01*
X125184174Y-92500000D01*
X125315826Y-92500000D01*
X125442993Y-92465925D01*
X125500000Y-92433012D01*
X125500000Y-93350000D01*
X126147828Y-93350000D01*
X126147844Y-93349999D01*
X126207372Y-93343598D01*
X126207379Y-93343596D01*
X126342086Y-93293354D01*
X126342093Y-93293350D01*
X126457187Y-93207190D01*
X126457190Y-93207187D01*
X126543350Y-93092093D01*
X126543354Y-93092086D01*
X126593596Y-92957379D01*
X126593598Y-92957372D01*
X126599999Y-92897844D01*
X126600000Y-92897827D01*
X126600000Y-92250000D01*
X125683012Y-92250000D01*
X125715925Y-92192993D01*
X125750000Y-92065826D01*
X125750000Y-91934174D01*
X125715925Y-91807007D01*
X125683012Y-91750000D01*
X126600000Y-91750000D01*
X126600000Y-91102172D01*
X126599999Y-91102155D01*
X126593598Y-91042627D01*
X126593596Y-91042620D01*
X126543354Y-90907913D01*
X126543350Y-90907906D01*
X126457190Y-90792812D01*
X126457187Y-90792809D01*
X126342093Y-90706649D01*
X126342086Y-90706645D01*
X126207379Y-90656403D01*
X126207372Y-90656401D01*
X126147844Y-90650000D01*
X125500000Y-90650000D01*
X125500000Y-91566988D01*
X125442993Y-91534075D01*
X125315826Y-91500000D01*
X125184174Y-91500000D01*
X125057007Y-91534075D01*
X125000000Y-91566988D01*
X125000000Y-90650000D01*
X124352155Y-90650000D01*
X124292627Y-90656401D01*
X124292620Y-90656403D01*
X124157913Y-90706645D01*
X124157906Y-90706649D01*
X124042812Y-90792809D01*
X124042809Y-90792812D01*
X123956649Y-90907906D01*
X123956645Y-90907913D01*
X123906403Y-91042620D01*
X123906401Y-91042627D01*
X123900000Y-91102155D01*
X123900000Y-91750000D01*
X124816988Y-91750000D01*
X124784075Y-91807007D01*
X124750000Y-91934174D01*
X124750000Y-92065826D01*
X124784075Y-92192993D01*
X124816988Y-92250000D01*
X123900000Y-92250000D01*
X123900000Y-92897844D01*
X121849999Y-92897844D01*
X121850000Y-92897827D01*
X121850000Y-92250000D01*
X120933012Y-92250000D01*
X120965925Y-92192993D01*
X121000000Y-92065826D01*
X121000000Y-91934174D01*
X120965925Y-91807007D01*
X120933012Y-91750000D01*
X121850000Y-91750000D01*
X121850000Y-91102172D01*
X121849999Y-91102155D01*
X121843598Y-91042627D01*
X121843596Y-91042620D01*
X121793354Y-90907913D01*
X121793350Y-90907906D01*
X121707190Y-90792812D01*
X121707187Y-90792809D01*
X121592093Y-90706649D01*
X121592086Y-90706645D01*
X121457379Y-90656403D01*
X121457372Y-90656401D01*
X121397844Y-90650000D01*
X120750000Y-90650000D01*
X120750000Y-91566988D01*
X120692993Y-91534075D01*
X120565826Y-91500000D01*
X120434174Y-91500000D01*
X120307007Y-91534075D01*
X120250000Y-91566988D01*
X120250000Y-90650000D01*
X119602155Y-90650000D01*
X119542627Y-90656401D01*
X119542620Y-90656403D01*
X119407913Y-90706645D01*
X119407906Y-90706649D01*
X119292812Y-90792809D01*
X119292809Y-90792812D01*
X119206649Y-90907906D01*
X119206645Y-90907913D01*
X119156403Y-91042620D01*
X119156401Y-91042627D01*
X119150000Y-91102155D01*
X119150000Y-91750000D01*
X120066988Y-91750000D01*
X120034075Y-91807007D01*
X120000000Y-91934174D01*
X120000000Y-92065826D01*
X120034075Y-92192993D01*
X120066988Y-92250000D01*
X119150000Y-92250000D01*
X119150000Y-92897844D01*
X112850000Y-92897844D01*
X112850000Y-92500000D01*
X111933012Y-92500000D01*
X111965925Y-92442993D01*
X112000000Y-92315826D01*
X112000000Y-92184174D01*
X111965925Y-92057007D01*
X111933012Y-92000000D01*
X112850000Y-92000000D01*
X112850000Y-91352172D01*
X112849999Y-91352155D01*
X112843598Y-91292627D01*
X112843596Y-91292620D01*
X112793354Y-91157913D01*
X112793350Y-91157906D01*
X112707190Y-91042812D01*
X112707187Y-91042809D01*
X112592093Y-90956649D01*
X112592086Y-90956645D01*
X112457379Y-90906403D01*
X112457372Y-90906401D01*
X112397844Y-90900000D01*
X111750000Y-90900000D01*
X111750000Y-91816988D01*
X111692993Y-91784075D01*
X111565826Y-91750000D01*
X111434174Y-91750000D01*
X111307007Y-91784075D01*
X111250000Y-91816988D01*
X111250000Y-90900000D01*
X110602155Y-90900000D01*
X110542627Y-90906401D01*
X110542620Y-90906403D01*
X110407913Y-90956645D01*
X110407906Y-90956649D01*
X110292812Y-91042809D01*
X110292809Y-91042812D01*
X110206649Y-91157906D01*
X110206645Y-91157913D01*
X110156403Y-91292620D01*
X110156401Y-91292627D01*
X110150000Y-91352155D01*
X110150000Y-92000000D01*
X111066988Y-92000000D01*
X111034075Y-92057007D01*
X111000000Y-92184174D01*
X111000000Y-92315826D01*
X111034075Y-92442993D01*
X111066988Y-92500000D01*
X110150000Y-92500000D01*
X110150000Y-93147844D01*
X108558500Y-93147844D01*
X108558500Y-91924122D01*
X108578185Y-91857083D01*
X108594819Y-91836441D01*
X110836441Y-89594819D01*
X110897764Y-89561334D01*
X110924122Y-89558500D01*
X123744859Y-89558500D01*
X123830444Y-89541475D01*
X123872077Y-89533194D01*
X123991917Y-89483555D01*
X124099769Y-89411491D01*
X126445454Y-87065804D01*
X126506775Y-87032321D01*
X126565228Y-87033712D01*
X126601913Y-87043543D01*
X126777125Y-87058872D01*
X126829998Y-87063498D01*
X126830000Y-87063498D01*
X126830002Y-87063498D01*
X126887021Y-87058509D01*
X127058087Y-87043543D01*
X127279243Y-86984284D01*
X127486749Y-86887523D01*
X127674300Y-86756198D01*
X127836198Y-86594300D01*
X127967523Y-86406749D01*
X128064284Y-86199243D01*
X128123543Y-85978087D01*
X128143498Y-85750000D01*
X128141515Y-85727339D01*
X128137796Y-85684832D01*
X128123543Y-85521913D01*
X128064284Y-85300757D01*
X128058626Y-85288624D01*
X127983501Y-85127517D01*
X127967523Y-85093251D01*
X127836198Y-84905700D01*
X127674300Y-84743802D01*
X127486749Y-84612477D01*
X127476972Y-84607918D01*
X127279249Y-84515718D01*
X127279238Y-84515714D01*
X127058089Y-84456457D01*
X127058081Y-84456456D01*
X126830002Y-84436502D01*
X126829998Y-84436502D01*
X126601918Y-84456456D01*
X126601907Y-84456458D01*
X126565226Y-84466287D01*
X126495376Y-84464624D01*
X126445452Y-84434193D01*
X123594819Y-81583559D01*
X123561334Y-81522236D01*
X123558500Y-81495878D01*
X123558500Y-79750002D01*
X125695034Y-79750002D01*
X125714858Y-79976599D01*
X125714860Y-79976610D01*
X125773730Y-80196317D01*
X125773735Y-80196331D01*
X125869863Y-80402478D01*
X125920974Y-80475472D01*
X126600000Y-79796446D01*
X126600000Y-79802661D01*
X126627259Y-79904394D01*
X126679920Y-79995606D01*
X126754394Y-80070080D01*
X126845606Y-80122741D01*
X126947339Y-80150000D01*
X126953553Y-80150000D01*
X126274526Y-80829025D01*
X126347513Y-80880132D01*
X126347521Y-80880136D01*
X126553668Y-80976264D01*
X126553682Y-80976269D01*
X126773389Y-81035139D01*
X126773400Y-81035141D01*
X126999998Y-81054966D01*
X127000002Y-81054966D01*
X127226599Y-81035141D01*
X127226610Y-81035139D01*
X127446317Y-80976269D01*
X127446331Y-80976264D01*
X127652478Y-80880136D01*
X127725471Y-80829024D01*
X127046447Y-80150000D01*
X127052661Y-80150000D01*
X127154394Y-80122741D01*
X127245606Y-80070080D01*
X127320080Y-79995606D01*
X127372741Y-79904394D01*
X127400000Y-79802661D01*
X127400000Y-79796447D01*
X128079024Y-80475471D01*
X128130136Y-80402478D01*
X128226264Y-80196331D01*
X128226269Y-80196317D01*
X128285139Y-79976610D01*
X128285141Y-79976599D01*
X128304966Y-79750002D01*
X128304966Y-79749997D01*
X128285141Y-79523400D01*
X128285139Y-79523389D01*
X128226269Y-79303682D01*
X128226264Y-79303668D01*
X128130136Y-79097521D01*
X128130132Y-79097513D01*
X128079025Y-79024526D01*
X127400000Y-79703551D01*
X127400000Y-79697339D01*
X127372741Y-79595606D01*
X127320080Y-79504394D01*
X127245606Y-79429920D01*
X127154394Y-79377259D01*
X127052661Y-79350000D01*
X127046448Y-79350000D01*
X127725472Y-78670974D01*
X127652478Y-78619863D01*
X127446331Y-78523735D01*
X127446317Y-78523730D01*
X127226610Y-78464860D01*
X127226599Y-78464858D01*
X127000002Y-78445034D01*
X126999998Y-78445034D01*
X126773400Y-78464858D01*
X126773389Y-78464860D01*
X126553682Y-78523730D01*
X126553673Y-78523734D01*
X126347516Y-78619866D01*
X126347512Y-78619868D01*
X126274526Y-78670973D01*
X126274526Y-78670974D01*
X126953553Y-79350000D01*
X126947339Y-79350000D01*
X126845606Y-79377259D01*
X126754394Y-79429920D01*
X126679920Y-79504394D01*
X126627259Y-79595606D01*
X126600000Y-79697339D01*
X126600000Y-79703552D01*
X125920974Y-79024526D01*
X125920973Y-79024526D01*
X125869868Y-79097512D01*
X125869866Y-79097516D01*
X125773734Y-79303673D01*
X125773730Y-79303682D01*
X125714860Y-79523389D01*
X125714858Y-79523400D01*
X125695034Y-79749997D01*
X125695034Y-79750002D01*
X123558500Y-79750002D01*
X123558500Y-78135142D01*
X123553991Y-78112477D01*
X123553990Y-78112473D01*
X123540810Y-78046209D01*
X123533195Y-78007923D01*
X123483555Y-77888083D01*
X123483553Y-77888080D01*
X123483551Y-77888076D01*
X123411491Y-77780231D01*
X123411488Y-77780227D01*
X120883764Y-75252504D01*
X120850279Y-75191181D01*
X120855263Y-75121489D01*
X120897135Y-75065556D01*
X120962599Y-75041139D01*
X120971445Y-75040823D01*
X125628118Y-75040823D01*
X125695157Y-75060508D01*
X125740912Y-75113312D01*
X125747893Y-75132729D01*
X125765714Y-75199237D01*
X125765718Y-75199249D01*
X125855559Y-75391913D01*
X125862477Y-75406749D01*
X125993802Y-75594300D01*
X126155700Y-75756198D01*
X126343251Y-75887523D01*
X126447222Y-75936005D01*
X126550750Y-75984281D01*
X126550752Y-75984281D01*
X126550757Y-75984284D01*
X126771913Y-76043543D01*
X126934832Y-76057796D01*
X126999998Y-76063498D01*
X127000000Y-76063498D01*
X127000002Y-76063498D01*
X127057021Y-76058509D01*
X127228087Y-76043543D01*
X127449243Y-75984284D01*
X127656749Y-75887523D01*
X127844300Y-75756198D01*
X128006198Y-75594300D01*
X128099273Y-75461374D01*
X128153850Y-75417751D01*
X128200847Y-75408500D01*
X131405878Y-75408500D01*
X131472917Y-75428185D01*
X131493559Y-75444819D01*
X135073561Y-79024821D01*
X135107046Y-79086144D01*
X135102062Y-79155836D01*
X135060190Y-79211769D01*
X134995385Y-79235940D01*
X134995393Y-79236030D01*
X134995068Y-79236058D01*
X134994726Y-79236186D01*
X134992839Y-79236253D01*
X134761918Y-79256456D01*
X134761910Y-79256457D01*
X134540761Y-79315714D01*
X134540750Y-79315718D01*
X134333254Y-79412475D01*
X134333252Y-79412476D01*
X134333251Y-79412477D01*
X134145700Y-79543802D01*
X134145698Y-79543803D01*
X134145695Y-79543806D01*
X133983805Y-79705696D01*
X133978429Y-79713374D01*
X133923849Y-79756995D01*
X133854350Y-79764184D01*
X133791997Y-79732658D01*
X133756587Y-79672426D01*
X133753570Y-79655510D01*
X133751989Y-79640799D01*
X133700889Y-79503796D01*
X133613261Y-79386739D01*
X133496204Y-79299111D01*
X133467329Y-79288341D01*
X133359203Y-79248011D01*
X133298654Y-79241500D01*
X133298638Y-79241500D01*
X131601362Y-79241500D01*
X131601345Y-79241500D01*
X131540797Y-79248011D01*
X131540795Y-79248011D01*
X131403795Y-79299111D01*
X131286739Y-79386739D01*
X131199111Y-79503795D01*
X131148011Y-79640795D01*
X131148011Y-79640797D01*
X131141500Y-79701345D01*
X131141500Y-81398654D01*
X131148011Y-81459202D01*
X131148011Y-81459204D01*
X131184189Y-81556198D01*
X131199111Y-81596204D01*
X131286739Y-81713261D01*
X131403796Y-81800889D01*
X131540799Y-81851989D01*
X131568050Y-81854918D01*
X131601345Y-81858499D01*
X131601362Y-81858500D01*
X132450878Y-81858500D01*
X132517917Y-81878185D01*
X132563672Y-81930989D01*
X132573616Y-82000147D01*
X132544591Y-82063703D01*
X132538559Y-82070181D01*
X131953559Y-82655181D01*
X131892236Y-82688666D01*
X131865878Y-82691500D01*
X130535139Y-82691500D01*
X130514033Y-82695698D01*
X130514032Y-82695697D01*
X130407930Y-82716803D01*
X130407922Y-82716805D01*
X130288086Y-82766443D01*
X130288076Y-82766448D01*
X130180231Y-82838508D01*
X130180227Y-82838511D01*
X128638513Y-84380225D01*
X128638507Y-84380232D01*
X128587577Y-84456456D01*
X128566446Y-84488080D01*
X128566442Y-84488087D01*
X128516807Y-84607918D01*
X128516804Y-84607928D01*
X128491500Y-84735140D01*
X128491500Y-84735143D01*
X128491500Y-89785143D01*
X128491500Y-89914857D01*
X128491500Y-89914859D01*
X128491499Y-89914859D01*
X128516804Y-90042071D01*
X128516806Y-90042077D01*
X128566443Y-90161913D01*
X128566447Y-90161920D01*
X128638510Y-90269771D01*
X129880228Y-91511489D01*
X129880231Y-91511491D01*
X129955063Y-91561492D01*
X129974156Y-91574249D01*
X130017648Y-91624948D01*
X130025635Y-91642077D01*
X130032477Y-91656749D01*
X130163802Y-91844300D01*
X130325700Y-92006198D01*
X130513251Y-92137523D01*
X130613295Y-92184174D01*
X130720750Y-92234281D01*
X130720752Y-92234281D01*
X130720757Y-92234284D01*
X130941913Y-92293543D01*
X131104832Y-92307796D01*
X131169998Y-92313498D01*
X131170000Y-92313498D01*
X131170002Y-92313498D01*
X131227021Y-92308509D01*
X131398087Y-92293543D01*
X131619243Y-92234284D01*
X131826749Y-92137523D01*
X132014300Y-92006198D01*
X132176198Y-91844300D01*
X132269273Y-91711374D01*
X132323850Y-91667751D01*
X132370847Y-91658500D01*
X136644859Y-91658500D01*
X136730444Y-91641475D01*
X136772077Y-91633194D01*
X136891917Y-91583555D01*
X136999769Y-91511491D01*
X137511259Y-91000001D01*
X140016502Y-91000001D01*
X140036456Y-91228081D01*
X140036457Y-91228089D01*
X140095714Y-91449238D01*
X140095718Y-91449249D01*
X140185635Y-91642077D01*
X140192477Y-91656749D01*
X140323802Y-91844300D01*
X140485700Y-92006198D01*
X140673251Y-92137523D01*
X140773295Y-92184174D01*
X140880750Y-92234281D01*
X140880752Y-92234281D01*
X140880757Y-92234284D01*
X141101913Y-92293543D01*
X141264832Y-92307796D01*
X141329998Y-92313498D01*
X141330000Y-92313498D01*
X141330002Y-92313498D01*
X141387021Y-92308509D01*
X141558087Y-92293543D01*
X141779243Y-92234284D01*
X141986749Y-92137523D01*
X142174300Y-92006198D01*
X142336198Y-91844300D01*
X142429273Y-91711374D01*
X142483850Y-91667751D01*
X142530847Y-91658500D01*
X145673640Y-91658500D01*
X145721091Y-91667938D01*
X145757923Y-91683195D01*
X145864036Y-91704301D01*
X145885143Y-91708500D01*
X146014858Y-91708500D01*
X146014859Y-91708499D01*
X146142077Y-91683195D01*
X146261917Y-91633555D01*
X146369769Y-91561491D01*
X146461491Y-91469769D01*
X148311491Y-89619769D01*
X148383555Y-89511917D01*
X148433194Y-89392077D01*
X148433194Y-89392076D01*
X148435525Y-89386449D01*
X148437822Y-89387400D01*
X148470130Y-89338081D01*
X148533937Y-89309613D01*
X148550511Y-89308500D01*
X148648638Y-89308500D01*
X148648654Y-89308499D01*
X148675692Y-89305591D01*
X148709201Y-89301989D01*
X148846204Y-89250889D01*
X148963261Y-89163261D01*
X149050889Y-89046204D01*
X149068888Y-88997946D01*
X149104300Y-88903007D01*
X149146171Y-88847073D01*
X149211636Y-88822657D01*
X149279909Y-88837509D01*
X149308162Y-88858660D01*
X149455700Y-89006198D01*
X149643251Y-89137523D01*
X149698445Y-89163260D01*
X149850750Y-89234281D01*
X149850752Y-89234281D01*
X149850757Y-89234284D01*
X150071913Y-89293543D01*
X150234832Y-89307796D01*
X150299998Y-89313498D01*
X150300000Y-89313498D01*
X150300002Y-89313498D01*
X150357139Y-89308499D01*
X150528087Y-89293543D01*
X150749243Y-89234284D01*
X150956749Y-89137523D01*
X151144300Y-89006198D01*
X151306198Y-88844300D01*
X151437523Y-88656749D01*
X151534284Y-88449243D01*
X151593543Y-88228087D01*
X151613498Y-88000000D01*
X151593543Y-87771913D01*
X151534284Y-87550757D01*
X151437523Y-87343251D01*
X151306198Y-87155700D01*
X151144300Y-86993802D01*
X151144297Y-86993800D01*
X151011376Y-86900726D01*
X150967751Y-86846149D01*
X150958500Y-86799152D01*
X150958500Y-82924122D01*
X150978185Y-82857083D01*
X150994819Y-82836441D01*
X151901441Y-81929819D01*
X151962764Y-81896334D01*
X151989122Y-81893500D01*
X155840377Y-81893500D01*
X155907416Y-81913185D01*
X155944185Y-81949678D01*
X155984949Y-82012071D01*
X156024278Y-82072268D01*
X156175707Y-82236762D01*
X156206629Y-82299415D01*
X156198769Y-82368841D01*
X156154622Y-82422997D01*
X156127811Y-82436926D01*
X156007912Y-82481646D01*
X156007906Y-82481649D01*
X155892812Y-82567809D01*
X155892809Y-82567812D01*
X155806649Y-82682906D01*
X155806645Y-82682913D01*
X155756403Y-82817620D01*
X155756401Y-82817627D01*
X155750000Y-82877155D01*
X155750000Y-83525000D01*
X156666988Y-83525000D01*
X156634075Y-83582007D01*
X156600000Y-83709174D01*
X156600000Y-83840826D01*
X156634075Y-83967993D01*
X156666988Y-84025000D01*
X155750000Y-84025000D01*
X155750000Y-84672844D01*
X155756401Y-84732372D01*
X155756403Y-84732379D01*
X155806645Y-84867086D01*
X155806649Y-84867093D01*
X155892809Y-84982187D01*
X155892812Y-84982190D01*
X156007906Y-85068350D01*
X156007913Y-85068354D01*
X156142620Y-85118596D01*
X156142627Y-85118598D01*
X156202155Y-85124999D01*
X156202172Y-85125000D01*
X156850000Y-85125000D01*
X156850000Y-84208012D01*
X156907007Y-84240925D01*
X157034174Y-84275000D01*
X157165826Y-84275000D01*
X157292993Y-84240925D01*
X157350000Y-84208012D01*
X157350000Y-85125000D01*
X157997828Y-85125000D01*
X157997844Y-85124999D01*
X158057372Y-85118598D01*
X158057379Y-85118596D01*
X158192086Y-85068354D01*
X158192093Y-85068350D01*
X158307187Y-84982190D01*
X158307190Y-84982187D01*
X158393350Y-84867093D01*
X158393354Y-84867086D01*
X158443596Y-84732379D01*
X158443598Y-84732372D01*
X158449999Y-84672844D01*
X158450000Y-84672827D01*
X158450000Y-84025000D01*
X157533012Y-84025000D01*
X157565925Y-83967993D01*
X157600000Y-83840826D01*
X157600000Y-83709174D01*
X157565925Y-83582007D01*
X157533012Y-83525000D01*
X158450000Y-83525000D01*
X158450000Y-82877172D01*
X158449999Y-82877155D01*
X158443598Y-82817627D01*
X158443596Y-82817620D01*
X158393354Y-82682913D01*
X158393350Y-82682906D01*
X158307190Y-82567812D01*
X158307187Y-82567809D01*
X158192093Y-82481649D01*
X158192088Y-82481646D01*
X158072188Y-82436926D01*
X158016255Y-82395054D01*
X157991838Y-82329590D01*
X158006690Y-82261317D01*
X158024286Y-82236769D01*
X158175722Y-82072268D01*
X158222841Y-82000147D01*
X158255815Y-81949678D01*
X158308961Y-81904321D01*
X158359623Y-81893500D01*
X161210878Y-81893500D01*
X161277917Y-81913185D01*
X161298559Y-81929819D01*
X162705181Y-83336440D01*
X162738666Y-83397763D01*
X162741500Y-83424121D01*
X162741500Y-88417500D01*
X162721815Y-88484539D01*
X162669011Y-88530294D01*
X162617500Y-88541500D01*
X162501345Y-88541500D01*
X162440797Y-88548011D01*
X162440795Y-88548011D01*
X162303795Y-88599111D01*
X162186739Y-88686739D01*
X162099111Y-88803795D01*
X162048011Y-88940795D01*
X162048011Y-88940797D01*
X162041500Y-89001345D01*
X162041500Y-90798654D01*
X162048011Y-90859202D01*
X162048011Y-90859204D01*
X162099111Y-90996204D01*
X162186739Y-91113261D01*
X162303796Y-91200889D01*
X162440799Y-91251989D01*
X162468050Y-91254918D01*
X162501345Y-91258499D01*
X162501362Y-91258500D01*
X164298638Y-91258500D01*
X164298654Y-91258499D01*
X164325692Y-91255591D01*
X164359201Y-91251989D01*
X164496204Y-91200889D01*
X164613261Y-91113261D01*
X164700889Y-90996204D01*
X164751989Y-90859201D01*
X164755591Y-90825692D01*
X164758499Y-90798654D01*
X164758500Y-90798637D01*
X164758500Y-89001362D01*
X164758499Y-89001345D01*
X164755157Y-88970270D01*
X164751989Y-88940799D01*
X164740203Y-88909201D01*
X164717614Y-88848638D01*
X164700889Y-88803796D01*
X164613261Y-88686739D01*
X164496204Y-88599111D01*
X164359203Y-88548011D01*
X164298654Y-88541500D01*
X164298638Y-88541500D01*
X164182500Y-88541500D01*
X164115461Y-88521815D01*
X164069706Y-88469011D01*
X164058500Y-88417500D01*
X164058500Y-83035140D01*
X164033195Y-82907928D01*
X164033194Y-82907927D01*
X164033194Y-82907923D01*
X164018629Y-82872760D01*
X163983557Y-82788087D01*
X163983556Y-82788085D01*
X163911491Y-82680232D01*
X163886440Y-82655181D01*
X163819769Y-82588510D01*
X163361553Y-82130294D01*
X161954772Y-80723511D01*
X161954771Y-80723510D01*
X161846920Y-80651447D01*
X161846919Y-80651446D01*
X161846917Y-80651445D01*
X161846915Y-80651444D01*
X161846913Y-80651443D01*
X161727077Y-80601806D01*
X161727071Y-80601804D01*
X161599859Y-80576500D01*
X161599857Y-80576500D01*
X158359623Y-80576500D01*
X158292584Y-80556815D01*
X158255815Y-80520322D01*
X158179717Y-80403847D01*
X158175722Y-80397732D01*
X158175719Y-80397729D01*
X158175715Y-80397723D01*
X158023243Y-80232097D01*
X158023238Y-80232092D01*
X157858258Y-80103682D01*
X157845576Y-80093811D01*
X157809070Y-80074055D01*
X157759479Y-80024836D01*
X157744371Y-79956619D01*
X157768541Y-79891064D01*
X157809070Y-79855945D01*
X157809084Y-79855936D01*
X157845576Y-79836189D01*
X158023240Y-79697906D01*
X158159084Y-79550342D01*
X158175715Y-79532276D01*
X158175716Y-79532274D01*
X158175722Y-79532268D01*
X158298860Y-79343791D01*
X158389296Y-79137616D01*
X158444564Y-78919368D01*
X158444565Y-78919359D01*
X158463156Y-78695005D01*
X158463156Y-78694994D01*
X158444565Y-78470640D01*
X158444563Y-78470628D01*
X158389296Y-78252385D01*
X158385531Y-78243802D01*
X158298860Y-78046209D01*
X158175722Y-77857732D01*
X158175719Y-77857729D01*
X158175715Y-77857723D01*
X158023243Y-77692097D01*
X158023238Y-77692092D01*
X157845577Y-77553812D01*
X157845572Y-77553808D01*
X157647580Y-77446661D01*
X157647577Y-77446659D01*
X157647574Y-77446658D01*
X157647571Y-77446657D01*
X157647569Y-77446656D01*
X157434637Y-77373556D01*
X157212569Y-77336500D01*
X156987431Y-77336500D01*
X156765362Y-77373556D01*
X156552430Y-77446656D01*
X156552419Y-77446661D01*
X156354427Y-77553808D01*
X156354422Y-77553812D01*
X156176761Y-77692092D01*
X156176756Y-77692097D01*
X156024284Y-77857723D01*
X156024276Y-77857734D01*
X155901140Y-78046207D01*
X155810703Y-78252385D01*
X155755436Y-78470628D01*
X155755434Y-78470640D01*
X155736844Y-78694994D01*
X155736844Y-78695005D01*
X155755434Y-78919359D01*
X155755436Y-78919371D01*
X155810703Y-79137614D01*
X155901140Y-79343792D01*
X156024276Y-79532265D01*
X156024284Y-79532276D01*
X156176756Y-79697902D01*
X156176761Y-79697907D01*
X156193813Y-79711179D01*
X156354424Y-79836189D01*
X156354429Y-79836191D01*
X156354431Y-79836193D01*
X156390930Y-79855946D01*
X156440520Y-79905165D01*
X156455628Y-79973382D01*
X156431457Y-80038937D01*
X156390930Y-80074054D01*
X156354431Y-80093806D01*
X156354422Y-80093812D01*
X156176761Y-80232092D01*
X156176756Y-80232097D01*
X156024284Y-80397723D01*
X156024276Y-80397734D01*
X155944185Y-80520322D01*
X155891039Y-80565679D01*
X155840377Y-80576500D01*
X151600139Y-80576500D01*
X151579033Y-80580698D01*
X151579032Y-80580697D01*
X151472930Y-80601802D01*
X151472926Y-80601804D01*
X151472924Y-80601804D01*
X151472923Y-80601805D01*
X151430553Y-80619355D01*
X151388180Y-80636906D01*
X151388179Y-80636905D01*
X151353083Y-80651444D01*
X151309881Y-80680310D01*
X151245233Y-80723506D01*
X151245225Y-80723513D01*
X149788510Y-82180228D01*
X149716447Y-82288079D01*
X149716445Y-82288081D01*
X149716445Y-82288083D01*
X149699252Y-82329590D01*
X149666806Y-82407922D01*
X149666804Y-82407928D01*
X149641500Y-82535140D01*
X149641500Y-86799152D01*
X149621815Y-86866191D01*
X149588624Y-86900726D01*
X149455702Y-86993800D01*
X149308162Y-87141340D01*
X149246839Y-87174824D01*
X149177147Y-87169840D01*
X149121214Y-87127968D01*
X149104300Y-87096993D01*
X149073785Y-87015183D01*
X149050889Y-86953796D01*
X148963261Y-86836739D01*
X148846204Y-86749111D01*
X148709203Y-86698011D01*
X148648654Y-86691500D01*
X148648638Y-86691500D01*
X146951362Y-86691500D01*
X146951345Y-86691500D01*
X146890797Y-86698011D01*
X146890795Y-86698011D01*
X146753795Y-86749111D01*
X146636739Y-86836739D01*
X146549111Y-86953795D01*
X146498011Y-87090795D01*
X146498011Y-87090797D01*
X146491500Y-87151345D01*
X146491500Y-88848654D01*
X146498011Y-88909202D01*
X146498011Y-88909204D01*
X146534189Y-89006198D01*
X146549111Y-89046204D01*
X146636739Y-89163261D01*
X146675869Y-89192553D01*
X146717739Y-89248486D01*
X146722723Y-89318177D01*
X146689238Y-89379500D01*
X145763559Y-90305181D01*
X145702236Y-90338666D01*
X145675878Y-90341500D01*
X142530847Y-90341500D01*
X142463808Y-90321815D01*
X142429274Y-90288626D01*
X142336198Y-90155700D01*
X142174300Y-89993802D01*
X141986749Y-89862477D01*
X141986745Y-89862475D01*
X141779249Y-89765718D01*
X141779238Y-89765714D01*
X141558089Y-89706457D01*
X141558081Y-89706456D01*
X141330002Y-89686502D01*
X141329998Y-89686502D01*
X141101918Y-89706456D01*
X141101910Y-89706457D01*
X140880761Y-89765714D01*
X140880750Y-89765718D01*
X140673254Y-89862475D01*
X140673252Y-89862476D01*
X140673251Y-89862477D01*
X140485700Y-89993802D01*
X140485698Y-89993803D01*
X140485695Y-89993806D01*
X140323806Y-90155695D01*
X140192476Y-90343252D01*
X140192475Y-90343254D01*
X140095718Y-90550750D01*
X140095714Y-90550761D01*
X140036457Y-90771910D01*
X140036456Y-90771918D01*
X140016502Y-90999998D01*
X140016502Y-91000001D01*
X137511259Y-91000001D01*
X141195454Y-87315804D01*
X141256775Y-87282321D01*
X141315228Y-87283712D01*
X141351913Y-87293543D01*
X141540088Y-87310006D01*
X141579998Y-87313498D01*
X141580000Y-87313498D01*
X141580002Y-87313498D01*
X141637021Y-87308509D01*
X141808087Y-87293543D01*
X142029243Y-87234284D01*
X142236749Y-87137523D01*
X142424300Y-87006198D01*
X142586198Y-86844300D01*
X142679273Y-86711374D01*
X142733850Y-86667751D01*
X142780847Y-86658500D01*
X144864859Y-86658500D01*
X144950444Y-86641475D01*
X144992077Y-86633194D01*
X145111917Y-86583555D01*
X145219769Y-86511491D01*
X146961490Y-84769769D01*
X146964198Y-84765716D01*
X147033555Y-84661917D01*
X147083194Y-84542077D01*
X147100225Y-84456457D01*
X147108500Y-84414859D01*
X147108500Y-84276360D01*
X147117939Y-84228907D01*
X147133195Y-84192077D01*
X147158500Y-84064856D01*
X147158500Y-83935143D01*
X147158500Y-80450846D01*
X147178185Y-80383807D01*
X147211377Y-80349271D01*
X147344300Y-80256198D01*
X147506198Y-80094300D01*
X147637523Y-79906749D01*
X147734284Y-79699243D01*
X147793543Y-79478087D01*
X147813498Y-79250000D01*
X147812289Y-79236186D01*
X147803666Y-79137616D01*
X147793543Y-79021913D01*
X147734284Y-78800757D01*
X147637523Y-78593251D01*
X147506198Y-78405700D01*
X147344300Y-78243802D01*
X147156749Y-78112477D01*
X147156745Y-78112475D01*
X146949249Y-78015718D01*
X146949238Y-78015714D01*
X146728089Y-77956457D01*
X146728081Y-77956456D01*
X146500002Y-77936502D01*
X146499998Y-77936502D01*
X146271918Y-77956456D01*
X146271910Y-77956457D01*
X146050761Y-78015714D01*
X146050750Y-78015718D01*
X145843254Y-78112475D01*
X145843252Y-78112476D01*
X145772856Y-78161767D01*
X145655700Y-78243802D01*
X145655698Y-78243803D01*
X145655695Y-78243806D01*
X145493806Y-78405695D01*
X145493803Y-78405698D01*
X145493802Y-78405700D01*
X145446846Y-78472760D01*
X145362476Y-78593252D01*
X145362475Y-78593254D01*
X145265718Y-78800750D01*
X145265714Y-78800761D01*
X145206457Y-79021910D01*
X145206456Y-79021918D01*
X145186502Y-79249998D01*
X145186502Y-79250001D01*
X145206456Y-79478081D01*
X145206457Y-79478089D01*
X145265714Y-79699238D01*
X145265718Y-79699249D01*
X145329575Y-79836190D01*
X145362477Y-79906749D01*
X145493802Y-80094300D01*
X145493806Y-80094304D01*
X145655698Y-80256197D01*
X145788623Y-80349271D01*
X145832248Y-80403847D01*
X145841500Y-80450846D01*
X145841500Y-83773641D01*
X145832062Y-83821092D01*
X145816805Y-83857926D01*
X145816804Y-83857929D01*
X145791500Y-83985140D01*
X145791500Y-84025878D01*
X145771815Y-84092917D01*
X145755181Y-84113559D01*
X144563559Y-85305181D01*
X144502236Y-85338666D01*
X144475878Y-85341500D01*
X142780847Y-85341500D01*
X142713808Y-85321815D01*
X142679274Y-85288626D01*
X142586198Y-85155700D01*
X142424300Y-84993802D01*
X142236749Y-84862477D01*
X142236745Y-84862475D01*
X142029249Y-84765718D01*
X142029238Y-84765714D01*
X141808089Y-84706457D01*
X141808081Y-84706456D01*
X141580002Y-84686502D01*
X141579998Y-84686502D01*
X141351918Y-84706456D01*
X141351910Y-84706457D01*
X141130761Y-84765714D01*
X141130750Y-84765718D01*
X140923254Y-84862475D01*
X140923252Y-84862476D01*
X140861529Y-84905695D01*
X140735700Y-84993802D01*
X140735698Y-84993803D01*
X140735695Y-84993806D01*
X140573806Y-85155695D01*
X140442476Y-85343252D01*
X140442475Y-85343254D01*
X140345718Y-85550750D01*
X140345714Y-85550761D01*
X140286457Y-85771910D01*
X140286456Y-85771918D01*
X140266502Y-85999998D01*
X140266502Y-86000000D01*
X140286456Y-86228081D01*
X140286459Y-86228098D01*
X140296286Y-86264774D01*
X140294622Y-86334623D01*
X140264192Y-86384546D01*
X136343559Y-90305181D01*
X136282236Y-90338666D01*
X136255878Y-90341500D01*
X132370847Y-90341500D01*
X132303808Y-90321815D01*
X132269274Y-90288626D01*
X132176198Y-90155700D01*
X132014300Y-89993802D01*
X131826749Y-89862477D01*
X131826745Y-89862475D01*
X131619249Y-89765718D01*
X131619238Y-89765714D01*
X131398089Y-89706457D01*
X131398081Y-89706456D01*
X131170002Y-89686502D01*
X131169998Y-89686502D01*
X130941918Y-89706456D01*
X130941910Y-89706457D01*
X130720761Y-89765714D01*
X130720750Y-89765718D01*
X130513254Y-89862475D01*
X130513252Y-89862476D01*
X130513251Y-89862477D01*
X130351738Y-89975569D01*
X130285534Y-89997896D01*
X130217766Y-89980886D01*
X130192935Y-89961675D01*
X129844819Y-89613559D01*
X129811334Y-89552236D01*
X129808500Y-89525878D01*
X129808500Y-85124122D01*
X129828185Y-85057083D01*
X129844819Y-85036441D01*
X130836441Y-84044819D01*
X130897764Y-84011334D01*
X130924122Y-84008500D01*
X132254859Y-84008500D01*
X132340444Y-83991475D01*
X132382077Y-83983194D01*
X132501917Y-83933555D01*
X132609769Y-83861491D01*
X134605454Y-81865804D01*
X134666775Y-81832321D01*
X134725228Y-81833712D01*
X134761913Y-81843543D01*
X134932873Y-81858500D01*
X134989998Y-81863498D01*
X134990000Y-81863498D01*
X134990002Y-81863498D01*
X135047139Y-81858499D01*
X135218087Y-81843543D01*
X135439243Y-81784284D01*
X135646749Y-81687523D01*
X135834300Y-81556198D01*
X135996198Y-81394300D01*
X136127523Y-81206749D01*
X136147618Y-81163655D01*
X136193790Y-81111215D01*
X136260983Y-81092063D01*
X136327864Y-81112278D01*
X136372382Y-81163655D01*
X136392477Y-81206749D01*
X136523802Y-81394300D01*
X136685700Y-81556198D01*
X136873251Y-81687523D01*
X136928445Y-81713260D01*
X137080750Y-81784281D01*
X137080752Y-81784281D01*
X137080757Y-81784284D01*
X137301913Y-81843543D01*
X137464832Y-81857796D01*
X137529998Y-81863498D01*
X137530000Y-81863498D01*
X137530002Y-81863498D01*
X137587139Y-81858499D01*
X137758087Y-81843543D01*
X137979243Y-81784284D01*
X138186749Y-81687523D01*
X138374300Y-81556198D01*
X138536198Y-81394300D01*
X138667523Y-81206749D01*
X138692307Y-81153598D01*
X138738479Y-81101159D01*
X138805672Y-81082007D01*
X138872553Y-81102222D01*
X138917071Y-81153599D01*
X138939864Y-81202479D01*
X138939865Y-81202481D01*
X139070342Y-81388820D01*
X139231179Y-81549657D01*
X139417517Y-81680134D01*
X139623673Y-81776265D01*
X139623682Y-81776269D01*
X139819999Y-81828872D01*
X139820000Y-81828871D01*
X139820000Y-80865686D01*
X139824394Y-80870080D01*
X139915606Y-80922741D01*
X140017339Y-80950000D01*
X140122661Y-80950000D01*
X140224394Y-80922741D01*
X140315606Y-80870080D01*
X140320000Y-80865686D01*
X140320000Y-81828872D01*
X140516317Y-81776269D01*
X140516326Y-81776265D01*
X140722482Y-81680134D01*
X140908820Y-81549657D01*
X141069657Y-81388820D01*
X141200134Y-81202482D01*
X141296265Y-80996326D01*
X141296269Y-80996317D01*
X141348872Y-80800000D01*
X140385686Y-80800000D01*
X140390080Y-80795606D01*
X140442741Y-80704394D01*
X140470000Y-80602661D01*
X140470000Y-80497339D01*
X140442741Y-80395606D01*
X140390080Y-80304394D01*
X140385686Y-80300000D01*
X141348872Y-80300000D01*
X141348872Y-80299999D01*
X141296269Y-80103682D01*
X141296265Y-80103673D01*
X141200134Y-79897517D01*
X141069657Y-79711179D01*
X140908820Y-79550342D01*
X140722482Y-79419865D01*
X140516328Y-79323734D01*
X140320000Y-79271127D01*
X140320000Y-80234314D01*
X140315606Y-80229920D01*
X140224394Y-80177259D01*
X140122661Y-80150000D01*
X140017339Y-80150000D01*
X139915606Y-80177259D01*
X139824394Y-80229920D01*
X139820000Y-80234314D01*
X139820000Y-79271127D01*
X139623671Y-79323734D01*
X139417517Y-79419865D01*
X139231179Y-79550342D01*
X139070342Y-79711179D01*
X138939865Y-79897517D01*
X138917071Y-79946401D01*
X138870898Y-79998840D01*
X138803705Y-80017992D01*
X138736824Y-79997776D01*
X138692307Y-79946401D01*
X138667523Y-79893251D01*
X138665992Y-79891064D01*
X138536198Y-79705700D01*
X138374300Y-79543802D01*
X138186749Y-79412477D01*
X138186745Y-79412475D01*
X137979249Y-79315718D01*
X137979238Y-79315714D01*
X137758089Y-79256457D01*
X137758081Y-79256456D01*
X137530002Y-79236502D01*
X137529998Y-79236502D01*
X137301918Y-79256456D01*
X137301908Y-79256458D01*
X137265223Y-79266287D01*
X137195373Y-79264622D01*
X137145452Y-79234192D01*
X132366440Y-74455179D01*
X132332955Y-74393856D01*
X132337939Y-74324164D01*
X132379811Y-74268231D01*
X132444614Y-74244060D01*
X132444607Y-74243970D01*
X132444933Y-74243941D01*
X132445275Y-74243814D01*
X132447159Y-74243746D01*
X132449996Y-74243497D01*
X132450000Y-74243498D01*
X132678087Y-74223543D01*
X132899243Y-74164284D01*
X133106749Y-74067523D01*
X133294300Y-73936198D01*
X133456198Y-73774300D01*
X133587523Y-73586749D01*
X133607618Y-73543655D01*
X133653790Y-73491215D01*
X133720983Y-73472063D01*
X133787864Y-73492278D01*
X133832382Y-73543655D01*
X133852477Y-73586749D01*
X133983802Y-73774300D01*
X134145700Y-73936198D01*
X134333251Y-74067523D01*
X134458091Y-74125736D01*
X134540750Y-74164281D01*
X134540752Y-74164281D01*
X134540757Y-74164284D01*
X134761913Y-74223543D01*
X134924832Y-74237796D01*
X134989998Y-74243498D01*
X134990000Y-74243498D01*
X134990002Y-74243498D01*
X135047021Y-74238509D01*
X135218087Y-74223543D01*
X135439243Y-74164284D01*
X135646749Y-74067523D01*
X135834300Y-73936198D01*
X135996198Y-73774300D01*
X136127523Y-73586749D01*
X136147618Y-73543655D01*
X136193790Y-73491215D01*
X136260983Y-73472063D01*
X136327864Y-73492278D01*
X136372382Y-73543655D01*
X136392477Y-73586749D01*
X136523802Y-73774300D01*
X136523806Y-73774304D01*
X136685698Y-73936197D01*
X136763289Y-73990526D01*
X136808121Y-74021918D01*
X136818623Y-74029271D01*
X136862248Y-74083847D01*
X136871500Y-74130846D01*
X136871500Y-75315143D01*
X136871500Y-75444857D01*
X136871500Y-75444859D01*
X136871499Y-75444859D01*
X136896804Y-75572071D01*
X136896806Y-75572077D01*
X136946443Y-75691913D01*
X136946447Y-75691920D01*
X137018510Y-75799771D01*
X137018511Y-75799772D01*
X137488510Y-76269769D01*
X137548403Y-76329662D01*
X137580232Y-76361491D01*
X137633791Y-76397278D01*
X137688083Y-76433555D01*
X137688084Y-76433555D01*
X137688085Y-76433556D01*
X137688087Y-76433557D01*
X137762318Y-76464304D01*
X137807923Y-76483194D01*
X137807927Y-76483194D01*
X137807928Y-76483195D01*
X137935140Y-76508500D01*
X137935143Y-76508500D01*
X141075878Y-76508500D01*
X141142917Y-76528185D01*
X141163559Y-76544819D01*
X141755181Y-77136440D01*
X141788666Y-77197763D01*
X141791500Y-77224121D01*
X141791500Y-82017500D01*
X141771815Y-82084539D01*
X141719011Y-82130294D01*
X141667500Y-82141500D01*
X139135141Y-82141500D01*
X139007928Y-82166804D01*
X139007918Y-82166807D01*
X138888087Y-82216442D01*
X138888085Y-82216443D01*
X138780876Y-82288077D01*
X138780877Y-82288078D01*
X138780233Y-82288507D01*
X138780224Y-82288515D01*
X135763559Y-85305181D01*
X135702236Y-85338666D01*
X135675878Y-85341500D01*
X132620847Y-85341500D01*
X132553808Y-85321815D01*
X132519274Y-85288626D01*
X132426198Y-85155700D01*
X132264300Y-84993802D01*
X132076749Y-84862477D01*
X132076745Y-84862475D01*
X131869249Y-84765718D01*
X131869238Y-84765714D01*
X131648089Y-84706457D01*
X131648081Y-84706456D01*
X131420002Y-84686502D01*
X131419998Y-84686502D01*
X131191918Y-84706456D01*
X131191910Y-84706457D01*
X130970761Y-84765714D01*
X130970750Y-84765718D01*
X130763254Y-84862475D01*
X130763252Y-84862476D01*
X130701529Y-84905695D01*
X130575700Y-84993802D01*
X130575698Y-84993803D01*
X130575695Y-84993806D01*
X130413806Y-85155695D01*
X130282476Y-85343252D01*
X130282475Y-85343254D01*
X130185718Y-85550750D01*
X130185714Y-85550761D01*
X130126457Y-85771910D01*
X130126456Y-85771918D01*
X130106502Y-85999998D01*
X130106502Y-86000000D01*
X130126456Y-86228081D01*
X130126457Y-86228089D01*
X130185714Y-86449238D01*
X130185718Y-86449249D01*
X130282475Y-86656745D01*
X130282477Y-86656749D01*
X130413802Y-86844300D01*
X130575700Y-87006198D01*
X130763251Y-87137523D01*
X130843244Y-87174824D01*
X130970750Y-87234281D01*
X130970752Y-87234281D01*
X130970757Y-87234284D01*
X131191913Y-87293543D01*
X131354832Y-87307796D01*
X131419998Y-87313498D01*
X131420000Y-87313498D01*
X131420002Y-87313498D01*
X131477021Y-87308509D01*
X131648087Y-87293543D01*
X131869243Y-87234284D01*
X132076749Y-87137523D01*
X132264300Y-87006198D01*
X132426198Y-86844300D01*
X132519273Y-86711374D01*
X132573850Y-86667751D01*
X132620847Y-86658500D01*
X136064859Y-86658500D01*
X136150444Y-86641475D01*
X136192077Y-86633194D01*
X136311917Y-86583555D01*
X136419769Y-86511491D01*
X139436440Y-83494818D01*
X139497763Y-83461334D01*
X139524121Y-83458500D01*
X142514859Y-83458500D01*
X142600444Y-83441475D01*
X142642077Y-83433194D01*
X142761917Y-83383555D01*
X142869769Y-83311490D01*
X142961490Y-83219769D01*
X143033555Y-83111917D01*
X143083194Y-82992077D01*
X143099935Y-82907918D01*
X143108500Y-82864859D01*
X143108500Y-76835140D01*
X143083195Y-76707928D01*
X143083194Y-76707927D01*
X143083194Y-76707923D01*
X143071607Y-76679951D01*
X143064139Y-76610484D01*
X143095414Y-76548005D01*
X143155502Y-76512352D01*
X143186169Y-76508500D01*
X145964859Y-76508500D01*
X146050444Y-76491475D01*
X146092077Y-76483194D01*
X146211917Y-76433555D01*
X146319769Y-76361491D01*
X147011491Y-75669769D01*
X147083555Y-75561917D01*
X147133194Y-75442077D01*
X147133194Y-75442074D01*
X147134960Y-75436255D01*
X147137358Y-75436982D01*
X147164642Y-75384795D01*
X147182764Y-75369306D01*
X147344300Y-75256198D01*
X147506198Y-75094300D01*
X147599273Y-74961374D01*
X147653850Y-74917751D01*
X147700847Y-74908500D01*
X158262971Y-74908500D01*
X158330010Y-74928185D01*
X158331820Y-74929370D01*
X158338083Y-74933555D01*
X158338088Y-74933557D01*
X158338087Y-74933557D01*
X158405249Y-74961376D01*
X158457923Y-74983194D01*
X158457927Y-74983194D01*
X158457928Y-74983195D01*
X158585140Y-75008500D01*
X158585143Y-75008500D01*
X158964859Y-75008500D01*
X159050444Y-74991475D01*
X159092077Y-74983194D01*
X159211917Y-74933555D01*
X159319769Y-74861491D01*
X161049094Y-73132164D01*
X161110415Y-73098681D01*
X161180106Y-73103665D01*
X161236039Y-73145535D01*
X161286738Y-73213260D01*
X161286739Y-73213261D01*
X161403796Y-73300889D01*
X161540799Y-73351989D01*
X161568050Y-73354918D01*
X161601345Y-73358499D01*
X161601362Y-73358500D01*
X163398638Y-73358500D01*
X163398654Y-73358499D01*
X163425692Y-73355591D01*
X163459201Y-73351989D01*
X163596204Y-73300889D01*
X163713261Y-73213261D01*
X163800889Y-73096204D01*
X163851989Y-72959201D01*
X163855591Y-72925692D01*
X163858499Y-72898654D01*
X163858500Y-72898637D01*
X163858500Y-71624122D01*
X163878185Y-71557083D01*
X163894819Y-71536441D01*
X164129166Y-71302094D01*
X164129168Y-71302092D01*
X164201232Y-71194240D01*
X164250871Y-71074400D01*
X164259854Y-71029238D01*
X164276177Y-70947182D01*
X164276177Y-65432500D01*
X164295862Y-65365461D01*
X164348666Y-65319706D01*
X164400177Y-65308500D01*
X164466315Y-65308500D01*
X164466331Y-65308499D01*
X164493369Y-65305591D01*
X164526878Y-65301989D01*
X164663881Y-65250889D01*
X164780938Y-65163261D01*
X164868566Y-65046204D01*
X164919666Y-64909201D01*
X164925100Y-64858660D01*
X164926176Y-64848654D01*
X164926177Y-64848637D01*
X164926177Y-63151362D01*
X164926176Y-63151345D01*
X164922834Y-63120270D01*
X164919666Y-63090799D01*
X164868566Y-62953796D01*
X164780938Y-62836739D01*
X164663881Y-62749111D01*
X164648832Y-62743498D01*
X164526880Y-62698011D01*
X164466331Y-62691500D01*
X164466315Y-62691500D01*
X162769039Y-62691500D01*
X162769022Y-62691500D01*
X162708474Y-62698011D01*
X162708472Y-62698011D01*
X162571472Y-62749111D01*
X162454416Y-62836739D01*
X162366788Y-62953795D01*
X162313376Y-63096993D01*
X162271504Y-63152926D01*
X162206039Y-63177342D01*
X162137767Y-63162489D01*
X162109514Y-63141339D01*
X161961981Y-62993806D01*
X161961977Y-62993802D01*
X161774426Y-62862477D01*
X161774422Y-62862475D01*
X161566926Y-62765718D01*
X161566915Y-62765714D01*
X161345766Y-62706457D01*
X161345758Y-62706456D01*
X161117679Y-62686502D01*
X161117675Y-62686502D01*
X160889595Y-62706456D01*
X160889585Y-62706458D01*
X160852900Y-62716287D01*
X160783050Y-62714622D01*
X160733129Y-62684192D01*
X157957449Y-59908511D01*
X157957448Y-59908510D01*
X157849597Y-59836447D01*
X157849596Y-59836446D01*
X157849594Y-59836445D01*
X157849592Y-59836444D01*
X157849590Y-59836443D01*
X157729754Y-59786806D01*
X157729748Y-59786804D01*
X157602536Y-59761500D01*
X157602534Y-59761500D01*
X156200847Y-59761500D01*
X156133808Y-59741815D01*
X156099274Y-59708626D01*
X156006198Y-59575700D01*
X155844300Y-59413802D01*
X155656749Y-59282477D01*
X155624367Y-59267377D01*
X155449249Y-59185718D01*
X155449238Y-59185714D01*
X155228089Y-59126457D01*
X155228081Y-59126456D01*
X155000002Y-59106502D01*
X154999998Y-59106502D01*
X154771918Y-59126456D01*
X154771910Y-59126457D01*
X154550761Y-59185714D01*
X154550750Y-59185718D01*
X154343254Y-59282475D01*
X154343252Y-59282476D01*
X154330946Y-59291093D01*
X154155700Y-59413802D01*
X154155698Y-59413803D01*
X154155695Y-59413806D01*
X153993806Y-59575695D01*
X153993803Y-59575698D01*
X153993802Y-59575700D01*
X153916769Y-59685714D01*
X153862476Y-59763252D01*
X153862475Y-59763254D01*
X153765718Y-59970750D01*
X153765714Y-59970761D01*
X153706457Y-60191910D01*
X153706456Y-60191918D01*
X153686502Y-60419998D01*
X153686502Y-60420001D01*
X153706456Y-60648081D01*
X153706457Y-60648089D01*
X153765714Y-60869236D01*
X153765718Y-60869249D01*
X153832872Y-61013261D01*
X153862477Y-61076749D01*
X153993802Y-61264300D01*
X154155700Y-61426198D01*
X154343251Y-61557523D01*
X154384482Y-61576749D01*
X154550750Y-61654281D01*
X154550752Y-61654281D01*
X154550757Y-61654284D01*
X154771913Y-61713543D01*
X154934832Y-61727796D01*
X154999998Y-61733498D01*
X155000000Y-61733498D01*
X155000002Y-61733498D01*
X155057021Y-61728509D01*
X155228087Y-61713543D01*
X155449243Y-61654284D01*
X155656749Y-61557523D01*
X155844300Y-61426198D01*
X156006198Y-61264300D01*
X156099273Y-61131374D01*
X156153850Y-61087751D01*
X156200847Y-61078500D01*
X157213555Y-61078500D01*
X157280594Y-61098185D01*
X157301236Y-61114819D01*
X159801869Y-63615452D01*
X159835354Y-63676775D01*
X159833964Y-63735223D01*
X159824135Y-63771908D01*
X159824133Y-63771918D01*
X159804179Y-63999998D01*
X159804179Y-64000001D01*
X159824133Y-64228081D01*
X159824134Y-64228089D01*
X159883391Y-64449238D01*
X159883395Y-64449249D01*
X159980152Y-64656745D01*
X159980154Y-64656749D01*
X160111479Y-64844300D01*
X160273377Y-65006198D01*
X160460928Y-65137523D01*
X160585768Y-65195736D01*
X160668427Y-65234281D01*
X160668429Y-65234281D01*
X160668434Y-65234284D01*
X160889590Y-65293543D01*
X161052509Y-65307796D01*
X161117675Y-65313498D01*
X161117677Y-65313498D01*
X161117679Y-65313498D01*
X161174816Y-65308499D01*
X161345764Y-65293543D01*
X161566920Y-65234284D01*
X161774426Y-65137523D01*
X161961977Y-65006198D01*
X162109517Y-64858657D01*
X162170837Y-64825175D01*
X162240528Y-64830159D01*
X162296462Y-64872030D01*
X162313376Y-64903006D01*
X162351866Y-65006198D01*
X162366788Y-65046204D01*
X162454416Y-65163261D01*
X162571473Y-65250889D01*
X162708476Y-65301989D01*
X162735727Y-65304918D01*
X162769022Y-65308499D01*
X162769039Y-65308500D01*
X162835177Y-65308500D01*
X162902216Y-65328185D01*
X162947971Y-65380989D01*
X162959177Y-65432500D01*
X162959177Y-70517500D01*
X162939492Y-70584539D01*
X162886688Y-70630294D01*
X162835177Y-70641500D01*
X161601345Y-70641500D01*
X161540797Y-70648011D01*
X161540795Y-70648011D01*
X161403795Y-70699111D01*
X161286739Y-70786739D01*
X161199111Y-70903795D01*
X161148011Y-71040795D01*
X161148011Y-71040797D01*
X161141500Y-71101345D01*
X161141500Y-71249488D01*
X161121815Y-71316527D01*
X161069011Y-71362282D01*
X161063505Y-71364365D01*
X161063551Y-71364475D01*
X160938086Y-71416443D01*
X160938079Y-71416447D01*
X160830228Y-71488510D01*
X158755460Y-73563278D01*
X158694137Y-73596763D01*
X158643589Y-73597215D01*
X158614857Y-73591500D01*
X158614856Y-73591500D01*
X147700847Y-73591500D01*
X147633808Y-73571815D01*
X147599274Y-73538626D01*
X147506198Y-73405700D01*
X147344300Y-73243802D01*
X147156749Y-73112477D01*
X147156745Y-73112475D01*
X146949249Y-73015718D01*
X146949238Y-73015714D01*
X146728089Y-72956457D01*
X146728081Y-72956456D01*
X146500002Y-72936502D01*
X146499998Y-72936502D01*
X146271918Y-72956456D01*
X146271910Y-72956457D01*
X146050761Y-73015714D01*
X146050750Y-73015718D01*
X145843254Y-73112475D01*
X145843252Y-73112476D01*
X145815132Y-73132166D01*
X145655700Y-73243802D01*
X145655698Y-73243803D01*
X145655695Y-73243806D01*
X145493806Y-73405695D01*
X145493803Y-73405698D01*
X145493802Y-73405700D01*
X145433924Y-73491215D01*
X145362476Y-73593252D01*
X145362475Y-73593254D01*
X145265718Y-73800750D01*
X145265714Y-73800761D01*
X145206457Y-74021910D01*
X145206456Y-74021918D01*
X145186502Y-74249998D01*
X145186502Y-74250001D01*
X145206456Y-74478081D01*
X145206457Y-74478089D01*
X145265714Y-74699238D01*
X145265718Y-74699249D01*
X145362475Y-74906745D01*
X145362481Y-74906755D01*
X145425235Y-74996376D01*
X145447563Y-75062582D01*
X145430553Y-75130349D01*
X145379606Y-75178162D01*
X145323661Y-75191500D01*
X138324122Y-75191500D01*
X138257083Y-75171815D01*
X138236437Y-75155177D01*
X138224815Y-75143554D01*
X138191333Y-75082230D01*
X138188500Y-75055877D01*
X138188500Y-74130846D01*
X138208185Y-74063807D01*
X138241377Y-74029271D01*
X138374300Y-73936198D01*
X138536198Y-73774300D01*
X138667523Y-73586749D01*
X138687618Y-73543655D01*
X138733790Y-73491215D01*
X138800983Y-73472063D01*
X138867864Y-73492278D01*
X138912382Y-73543655D01*
X138932477Y-73586749D01*
X139063802Y-73774300D01*
X139225700Y-73936198D01*
X139413251Y-74067523D01*
X139538091Y-74125736D01*
X139620750Y-74164281D01*
X139620752Y-74164281D01*
X139620757Y-74164284D01*
X139841913Y-74223543D01*
X140004832Y-74237796D01*
X140069998Y-74243498D01*
X140070000Y-74243498D01*
X140070002Y-74243498D01*
X140127021Y-74238509D01*
X140298087Y-74223543D01*
X140519243Y-74164284D01*
X140726749Y-74067523D01*
X140914300Y-73936198D01*
X141076198Y-73774300D01*
X141207523Y-73586749D01*
X141304284Y-73379243D01*
X141363543Y-73158087D01*
X141383498Y-72930000D01*
X141363543Y-72701913D01*
X141304284Y-72480757D01*
X141207523Y-72273251D01*
X141076198Y-72085700D01*
X140914300Y-71923802D01*
X140857563Y-71884074D01*
X140813938Y-71829497D01*
X140806746Y-71759999D01*
X140838269Y-71697644D01*
X140898499Y-71662231D01*
X140928687Y-71658500D01*
X145719860Y-71658500D01*
X145786899Y-71678185D01*
X145790983Y-71680925D01*
X145843246Y-71717520D01*
X145843248Y-71717521D01*
X145843251Y-71717523D01*
X145884482Y-71736749D01*
X146050750Y-71814281D01*
X146050752Y-71814281D01*
X146050757Y-71814284D01*
X146271913Y-71873543D01*
X146434832Y-71887796D01*
X146499998Y-71893498D01*
X146500000Y-71893498D01*
X146500002Y-71893498D01*
X146557021Y-71888509D01*
X146728087Y-71873543D01*
X146949243Y-71814284D01*
X147156749Y-71717523D01*
X147344300Y-71586198D01*
X147506198Y-71424300D01*
X147599273Y-71291374D01*
X147653850Y-71247751D01*
X147700847Y-71238500D01*
X153799153Y-71238500D01*
X153866192Y-71258185D01*
X153900725Y-71291373D01*
X153993802Y-71424300D01*
X154155700Y-71586198D01*
X154343251Y-71717523D01*
X154384482Y-71736749D01*
X154550750Y-71814281D01*
X154550752Y-71814281D01*
X154550757Y-71814284D01*
X154771913Y-71873543D01*
X154934832Y-71887796D01*
X154999998Y-71893498D01*
X155000000Y-71893498D01*
X155000002Y-71893498D01*
X155057021Y-71888509D01*
X155228087Y-71873543D01*
X155449243Y-71814284D01*
X155656749Y-71717523D01*
X155844300Y-71586198D01*
X156006198Y-71424300D01*
X156137523Y-71236749D01*
X156234284Y-71029243D01*
X156293543Y-70808087D01*
X156313498Y-70580000D01*
X156293543Y-70351913D01*
X156234284Y-70130757D01*
X156137523Y-69923251D01*
X156006198Y-69735700D01*
X155844300Y-69573802D01*
X155656749Y-69442477D01*
X155656745Y-69442475D01*
X155449249Y-69345718D01*
X155449238Y-69345714D01*
X155228089Y-69286457D01*
X155228081Y-69286456D01*
X155000002Y-69266502D01*
X154999998Y-69266502D01*
X154771918Y-69286456D01*
X154771910Y-69286457D01*
X154550761Y-69345714D01*
X154550750Y-69345718D01*
X154343254Y-69442475D01*
X154343252Y-69442476D01*
X154343251Y-69442477D01*
X154155700Y-69573802D01*
X154155698Y-69573803D01*
X154155695Y-69573806D01*
X153993806Y-69735695D01*
X153993803Y-69735698D01*
X153993802Y-69735700D01*
X153900726Y-69868625D01*
X153846150Y-69912249D01*
X153799153Y-69921500D01*
X147700847Y-69921500D01*
X147633808Y-69901815D01*
X147599274Y-69868626D01*
X147506198Y-69735700D01*
X147344300Y-69573802D01*
X147156749Y-69442477D01*
X147156745Y-69442475D01*
X146949249Y-69345718D01*
X146949238Y-69345714D01*
X146728089Y-69286457D01*
X146728081Y-69286456D01*
X146500002Y-69266502D01*
X146499998Y-69266502D01*
X146271918Y-69286456D01*
X146271908Y-69286458D01*
X146235223Y-69296287D01*
X146165373Y-69294622D01*
X146115452Y-69264192D01*
X144394819Y-67543559D01*
X144361334Y-67482236D01*
X144358500Y-67455878D01*
X144358500Y-59735140D01*
X144333195Y-59607928D01*
X144333194Y-59607927D01*
X144333194Y-59607923D01*
X144295688Y-59517374D01*
X144283558Y-59488089D01*
X144283556Y-59488085D01*
X144283555Y-59488083D01*
X144233922Y-59413802D01*
X144211491Y-59380231D01*
X144211489Y-59380228D01*
X142869771Y-58038510D01*
X142761920Y-57966447D01*
X142761919Y-57966446D01*
X142761917Y-57966445D01*
X142761915Y-57966444D01*
X142761913Y-57966443D01*
X142642077Y-57916806D01*
X142642071Y-57916804D01*
X142514859Y-57891500D01*
X142514857Y-57891500D01*
X124874122Y-57891500D01*
X124807083Y-57871815D01*
X124786441Y-57855181D01*
X123944819Y-57013559D01*
X123911334Y-56952236D01*
X123908500Y-56925878D01*
X123908500Y-56700846D01*
X123928185Y-56633807D01*
X123961377Y-56599271D01*
X124094300Y-56506198D01*
X124256198Y-56344300D01*
X124387523Y-56156749D01*
X124484284Y-55949243D01*
X124543543Y-55728087D01*
X124563498Y-55500000D01*
X124561090Y-55472482D01*
X124543543Y-55271918D01*
X124543543Y-55271913D01*
X124484284Y-55050757D01*
X124458067Y-54994535D01*
X124428925Y-54932039D01*
X124387523Y-54843251D01*
X124256198Y-54655700D01*
X124094300Y-54493802D01*
X123906749Y-54362477D01*
X123885782Y-54352700D01*
X123699249Y-54265718D01*
X123699238Y-54265714D01*
X123478089Y-54206457D01*
X123478081Y-54206456D01*
X123250002Y-54186502D01*
X123249998Y-54186502D01*
X123021918Y-54206456D01*
X123021910Y-54206457D01*
X122800743Y-54265719D01*
X122799305Y-54266243D01*
X122798629Y-54266285D01*
X122795528Y-54267117D01*
X122795360Y-54266493D01*
X122729576Y-54270671D01*
X122668523Y-54236696D01*
X122635529Y-54175108D01*
X122641070Y-54105458D01*
X122669219Y-54062040D01*
X122986441Y-53744819D01*
X123047764Y-53711334D01*
X123074122Y-53708500D01*
X126675878Y-53708500D01*
X126742917Y-53728185D01*
X126763559Y-53744819D01*
X127371440Y-54352700D01*
X127404925Y-54414023D01*
X127399941Y-54483715D01*
X127371440Y-54528062D01*
X127243806Y-54655695D01*
X127243803Y-54655698D01*
X127243802Y-54655700D01*
X127185818Y-54738509D01*
X127112476Y-54843252D01*
X127112475Y-54843254D01*
X127015718Y-55050750D01*
X127015714Y-55050761D01*
X126956457Y-55271910D01*
X126956456Y-55271918D01*
X126936502Y-55499998D01*
X126936502Y-55500001D01*
X126956456Y-55728081D01*
X126956457Y-55728089D01*
X127015714Y-55949238D01*
X127015718Y-55949249D01*
X127112475Y-56156745D01*
X127112477Y-56156749D01*
X127243802Y-56344300D01*
X127405700Y-56506198D01*
X127593251Y-56637523D01*
X127718091Y-56695736D01*
X127800750Y-56734281D01*
X127800752Y-56734281D01*
X127800757Y-56734284D01*
X128021913Y-56793543D01*
X128184832Y-56807796D01*
X128249998Y-56813498D01*
X128250000Y-56813498D01*
X128250002Y-56813498D01*
X128307021Y-56808509D01*
X128478087Y-56793543D01*
X128699243Y-56734284D01*
X128906749Y-56637523D01*
X129094300Y-56506198D01*
X129256198Y-56344300D01*
X129349273Y-56211374D01*
X129403850Y-56167751D01*
X129450847Y-56158500D01*
X133767500Y-56158500D01*
X133834539Y-56178185D01*
X133880294Y-56230989D01*
X133891500Y-56282500D01*
X133891500Y-56398654D01*
X133898011Y-56459202D01*
X133898011Y-56459204D01*
X133929469Y-56543543D01*
X133949111Y-56596204D01*
X134036739Y-56713261D01*
X134153796Y-56800889D01*
X134290799Y-56851989D01*
X134318050Y-56854918D01*
X134351345Y-56858499D01*
X134351362Y-56858500D01*
X136148638Y-56858500D01*
X136148654Y-56858499D01*
X136175692Y-56855591D01*
X136209201Y-56851989D01*
X136346204Y-56800889D01*
X136463261Y-56713261D01*
X136550889Y-56596204D01*
X136601989Y-56459201D01*
X136605591Y-56425692D01*
X136608499Y-56398654D01*
X136608500Y-56398637D01*
X136608500Y-56032500D01*
X136628185Y-55965461D01*
X136680989Y-55919706D01*
X136732500Y-55908500D01*
X140219153Y-55908500D01*
X140286192Y-55928185D01*
X140320725Y-55961373D01*
X140413802Y-56094300D01*
X140575700Y-56256198D01*
X140763251Y-56387523D01*
X140787122Y-56398654D01*
X140970750Y-56484281D01*
X140970752Y-56484281D01*
X140970757Y-56484284D01*
X141191913Y-56543543D01*
X141354832Y-56557796D01*
X141419998Y-56563498D01*
X141420000Y-56563498D01*
X141420002Y-56563498D01*
X141451614Y-56560732D01*
X141648087Y-56543543D01*
X141684771Y-56533713D01*
X141754618Y-56535374D01*
X141804546Y-56565806D01*
X145203212Y-59964472D01*
X145236697Y-60025795D01*
X145235306Y-60084246D01*
X145206458Y-60191907D01*
X145206456Y-60191918D01*
X145186502Y-60419998D01*
X145186502Y-60420001D01*
X145206456Y-60648081D01*
X145206457Y-60648089D01*
X145265714Y-60869236D01*
X145265718Y-60869249D01*
X145332872Y-61013261D01*
X145362477Y-61076749D01*
X145493802Y-61264300D01*
X145655700Y-61426198D01*
X145843251Y-61557523D01*
X145884482Y-61576749D01*
X146050750Y-61654281D01*
X146050752Y-61654281D01*
X146050757Y-61654284D01*
X146271913Y-61713543D01*
X146434832Y-61727796D01*
X146499998Y-61733498D01*
X146500000Y-61733498D01*
X146500002Y-61733498D01*
X146557021Y-61728509D01*
X146728087Y-61713543D01*
X146949243Y-61654284D01*
X147156749Y-61557523D01*
X147344300Y-61426198D01*
X147506198Y-61264300D01*
X147637523Y-61076749D01*
X147734284Y-60869243D01*
X147793543Y-60648087D01*
X147813165Y-60423802D01*
X147813498Y-60420001D01*
X147813498Y-60419998D01*
X147802341Y-60292475D01*
X147793543Y-60191913D01*
X147734284Y-59970757D01*
X147731353Y-59964472D01*
X147695736Y-59888091D01*
X147637523Y-59763251D01*
X147506198Y-59575700D01*
X147344300Y-59413802D01*
X147156749Y-59282477D01*
X147124367Y-59267377D01*
X146949249Y-59185718D01*
X146949238Y-59185714D01*
X146728089Y-59126457D01*
X146728081Y-59126456D01*
X146500002Y-59106502D01*
X146499998Y-59106502D01*
X146288874Y-59124973D01*
X146220374Y-59111206D01*
X146190386Y-59089126D01*
X142735806Y-55634546D01*
X142702321Y-55573223D01*
X142703712Y-55514771D01*
X142713543Y-55478087D01*
X142733498Y-55250000D01*
X142728488Y-55192741D01*
X142717750Y-55070000D01*
X142713543Y-55021913D01*
X142654284Y-54800757D01*
X142648626Y-54788624D01*
X142604659Y-54694335D01*
X142557523Y-54593251D01*
X142426198Y-54405700D01*
X142264300Y-54243802D01*
X142076749Y-54112477D01*
X142061697Y-54105458D01*
X141869249Y-54015718D01*
X141869238Y-54015714D01*
X141648089Y-53956457D01*
X141648081Y-53956456D01*
X141420002Y-53936502D01*
X141419998Y-53936502D01*
X141191918Y-53956456D01*
X141191910Y-53956457D01*
X140970761Y-54015714D01*
X140970750Y-54015718D01*
X140763254Y-54112475D01*
X140763252Y-54112476D01*
X140763251Y-54112477D01*
X140575700Y-54243802D01*
X140575698Y-54243803D01*
X140575695Y-54243806D01*
X140413806Y-54405695D01*
X140413803Y-54405698D01*
X140413802Y-54405700D01*
X140320726Y-54538625D01*
X140266150Y-54582249D01*
X140219153Y-54591500D01*
X136706994Y-54591500D01*
X136639955Y-54571815D01*
X136594200Y-54519011D01*
X136590817Y-54510846D01*
X136550889Y-54403796D01*
X136463261Y-54286739D01*
X136346204Y-54199111D01*
X136209203Y-54148011D01*
X136148654Y-54141500D01*
X136148638Y-54141500D01*
X134351362Y-54141500D01*
X134351345Y-54141500D01*
X134290797Y-54148011D01*
X134290795Y-54148011D01*
X134153795Y-54199111D01*
X134036739Y-54286739D01*
X133949111Y-54403795D01*
X133898011Y-54540795D01*
X133898011Y-54540797D01*
X133891500Y-54601345D01*
X133891500Y-54717500D01*
X133871815Y-54784539D01*
X133819011Y-54830294D01*
X133767500Y-54841500D01*
X129450847Y-54841500D01*
X129383808Y-54821815D01*
X129349274Y-54788626D01*
X129256198Y-54655700D01*
X129094300Y-54493802D01*
X128961376Y-54400726D01*
X128917751Y-54346149D01*
X128908500Y-54299152D01*
X128908500Y-54235140D01*
X128883195Y-54107928D01*
X128883194Y-54107927D01*
X128883194Y-54107923D01*
X128833555Y-53988083D01*
X128819867Y-53967597D01*
X128812423Y-53956456D01*
X128761492Y-53880232D01*
X128761486Y-53880225D01*
X128001441Y-53120181D01*
X127967956Y-53058858D01*
X127972940Y-52989167D01*
X128014812Y-52933233D01*
X128080276Y-52908816D01*
X128089122Y-52908500D01*
X147814859Y-52908500D01*
X147900444Y-52891475D01*
X147942077Y-52883194D01*
X148061917Y-52833555D01*
X148169769Y-52761491D01*
X150372626Y-50558631D01*
X150433947Y-50525148D01*
X150480712Y-50524005D01*
X150687431Y-50558500D01*
X150687432Y-50558500D01*
X150912569Y-50558500D01*
X151134635Y-50521444D01*
X151347574Y-50448342D01*
X151545576Y-50341189D01*
X151723240Y-50202906D01*
X151844594Y-50071082D01*
X151875715Y-50037276D01*
X151875715Y-50037275D01*
X151875722Y-50037268D01*
X151966193Y-49898790D01*
X152019338Y-49853437D01*
X152088569Y-49844013D01*
X152151905Y-49873515D01*
X152173804Y-49898787D01*
X152264278Y-50037268D01*
X152264283Y-50037273D01*
X152264284Y-50037276D01*
X152390968Y-50174889D01*
X152416760Y-50202906D01*
X152594424Y-50341189D01*
X152594425Y-50341189D01*
X152594427Y-50341191D01*
X152663127Y-50378369D01*
X152792426Y-50448342D01*
X153005365Y-50521444D01*
X153227431Y-50558500D01*
X153452569Y-50558500D01*
X153674635Y-50521444D01*
X153887574Y-50448342D01*
X154085576Y-50341189D01*
X154263240Y-50202906D01*
X154384594Y-50071082D01*
X154415715Y-50037276D01*
X154415715Y-50037275D01*
X154415722Y-50037268D01*
X154506193Y-49898790D01*
X154559338Y-49853437D01*
X154628569Y-49844013D01*
X154691905Y-49873515D01*
X154713804Y-49898787D01*
X154804278Y-50037268D01*
X154804283Y-50037273D01*
X154804284Y-50037276D01*
X154930968Y-50174889D01*
X154956760Y-50202906D01*
X155134424Y-50341189D01*
X155134425Y-50341189D01*
X155134427Y-50341191D01*
X155203127Y-50378369D01*
X155332426Y-50448342D01*
X155545365Y-50521444D01*
X155767431Y-50558500D01*
X155992569Y-50558500D01*
X156214635Y-50521444D01*
X156427574Y-50448342D01*
X156625576Y-50341189D01*
X156803240Y-50202906D01*
X156924594Y-50071082D01*
X156955715Y-50037276D01*
X156955715Y-50037275D01*
X156955722Y-50037268D01*
X157046193Y-49898790D01*
X157099338Y-49853437D01*
X157168569Y-49844013D01*
X157231905Y-49873515D01*
X157253804Y-49898787D01*
X157344278Y-50037268D01*
X157344283Y-50037273D01*
X157344284Y-50037276D01*
X157470968Y-50174889D01*
X157496760Y-50202906D01*
X157674424Y-50341189D01*
X157674425Y-50341189D01*
X157674427Y-50341191D01*
X157743127Y-50378369D01*
X157872426Y-50448342D01*
X158085365Y-50521444D01*
X158307431Y-50558500D01*
X158532569Y-50558500D01*
X158754635Y-50521444D01*
X158967574Y-50448342D01*
X159165576Y-50341189D01*
X159343240Y-50202906D01*
X159464594Y-50071082D01*
X159495715Y-50037276D01*
X159495715Y-50037275D01*
X159495722Y-50037268D01*
X159586193Y-49898790D01*
X159639338Y-49853437D01*
X159708569Y-49844013D01*
X159771905Y-49873515D01*
X159793804Y-49898787D01*
X159884278Y-50037268D01*
X159884283Y-50037273D01*
X159884284Y-50037276D01*
X160010968Y-50174889D01*
X160036760Y-50202906D01*
X160214424Y-50341189D01*
X160214425Y-50341189D01*
X160214427Y-50341191D01*
X160283127Y-50378369D01*
X160412426Y-50448342D01*
X160625365Y-50521444D01*
X160847431Y-50558500D01*
X161072569Y-50558500D01*
X161294635Y-50521444D01*
X161507574Y-50448342D01*
X161705576Y-50341189D01*
X161883240Y-50202906D01*
X162004594Y-50071082D01*
X162035715Y-50037276D01*
X162035715Y-50037275D01*
X162035722Y-50037268D01*
X162126193Y-49898790D01*
X162179338Y-49853437D01*
X162248569Y-49844013D01*
X162311905Y-49873515D01*
X162333804Y-49898787D01*
X162424278Y-50037268D01*
X162424283Y-50037273D01*
X162424284Y-50037276D01*
X162550968Y-50174889D01*
X162576760Y-50202906D01*
X162754424Y-50341189D01*
X162754425Y-50341189D01*
X162754427Y-50341191D01*
X162823127Y-50378369D01*
X162952426Y-50448342D01*
X163165365Y-50521444D01*
X163387431Y-50558500D01*
X163612569Y-50558500D01*
X163834635Y-50521444D01*
X164047574Y-50448342D01*
X164245576Y-50341189D01*
X164423240Y-50202906D01*
X164544594Y-50071082D01*
X164575715Y-50037276D01*
X164575717Y-50037273D01*
X164575722Y-50037268D01*
X164698860Y-49848791D01*
X164789296Y-49642616D01*
X164844564Y-49424368D01*
X164856309Y-49282635D01*
X164863156Y-49200005D01*
X164863156Y-49199994D01*
X164844565Y-48975640D01*
X164844563Y-48975628D01*
X164789296Y-48757385D01*
X164787052Y-48752270D01*
X164698860Y-48551209D01*
X164682706Y-48526484D01*
X164575723Y-48362734D01*
X164575715Y-48362723D01*
X164423243Y-48197097D01*
X164423238Y-48197092D01*
X164245577Y-48058812D01*
X164245572Y-48058808D01*
X164047580Y-47951661D01*
X164047577Y-47951659D01*
X164047574Y-47951658D01*
X164047571Y-47951657D01*
X164047569Y-47951656D01*
X163834637Y-47878556D01*
X163612569Y-47841500D01*
X163387431Y-47841500D01*
X163165362Y-47878556D01*
X162952430Y-47951656D01*
X162952419Y-47951661D01*
X162754427Y-48058808D01*
X162754422Y-48058812D01*
X162576761Y-48197092D01*
X162576756Y-48197097D01*
X162424284Y-48362723D01*
X162424276Y-48362734D01*
X162333808Y-48501206D01*
X162280662Y-48546562D01*
X162211431Y-48555986D01*
X162148095Y-48526484D01*
X162126192Y-48501206D01*
X162035723Y-48362734D01*
X162035715Y-48362723D01*
X161883243Y-48197097D01*
X161883238Y-48197092D01*
X161705577Y-48058812D01*
X161705572Y-48058808D01*
X161507580Y-47951661D01*
X161507577Y-47951659D01*
X161507574Y-47951658D01*
X161507571Y-47951657D01*
X161507569Y-47951656D01*
X161294637Y-47878556D01*
X161072569Y-47841500D01*
X160847431Y-47841500D01*
X160625362Y-47878556D01*
X160412430Y-47951656D01*
X160412419Y-47951661D01*
X160214427Y-48058808D01*
X160214422Y-48058812D01*
X160036761Y-48197092D01*
X160036756Y-48197097D01*
X159884284Y-48362723D01*
X159884276Y-48362734D01*
X159793808Y-48501206D01*
X159740662Y-48546562D01*
X159671431Y-48555986D01*
X159608095Y-48526484D01*
X159586192Y-48501206D01*
X159495723Y-48362734D01*
X159495715Y-48362723D01*
X159343243Y-48197097D01*
X159343238Y-48197092D01*
X159165577Y-48058812D01*
X159165572Y-48058808D01*
X158967580Y-47951661D01*
X158967577Y-47951659D01*
X158967574Y-47951658D01*
X158967571Y-47951657D01*
X158967569Y-47951656D01*
X158754637Y-47878556D01*
X158532569Y-47841500D01*
X158307431Y-47841500D01*
X158085362Y-47878556D01*
X157872430Y-47951656D01*
X157872419Y-47951661D01*
X157674427Y-48058808D01*
X157674422Y-48058812D01*
X157496761Y-48197092D01*
X157496756Y-48197097D01*
X157344284Y-48362723D01*
X157344276Y-48362734D01*
X157253808Y-48501206D01*
X157200662Y-48546562D01*
X157131431Y-48555986D01*
X157068095Y-48526484D01*
X157046192Y-48501206D01*
X156955723Y-48362734D01*
X156955715Y-48362723D01*
X156803243Y-48197097D01*
X156803238Y-48197092D01*
X156625577Y-48058812D01*
X156625572Y-48058808D01*
X156427580Y-47951661D01*
X156427577Y-47951659D01*
X156427574Y-47951658D01*
X156427571Y-47951657D01*
X156427569Y-47951656D01*
X156214637Y-47878556D01*
X155992569Y-47841500D01*
X155767431Y-47841500D01*
X155545362Y-47878556D01*
X155332430Y-47951656D01*
X155332419Y-47951661D01*
X155134427Y-48058808D01*
X155134422Y-48058812D01*
X154956761Y-48197092D01*
X154956756Y-48197097D01*
X154804284Y-48362723D01*
X154804276Y-48362734D01*
X154713808Y-48501206D01*
X154660662Y-48546562D01*
X154591431Y-48555986D01*
X154528095Y-48526484D01*
X154506192Y-48501206D01*
X154415723Y-48362734D01*
X154415715Y-48362723D01*
X154263243Y-48197097D01*
X154263238Y-48197092D01*
X154085577Y-48058812D01*
X154085572Y-48058808D01*
X153887580Y-47951661D01*
X153887577Y-47951659D01*
X153887574Y-47951658D01*
X153887571Y-47951657D01*
X153887569Y-47951656D01*
X153674637Y-47878556D01*
X153452569Y-47841500D01*
X153227431Y-47841500D01*
X153005362Y-47878556D01*
X152792430Y-47951656D01*
X152792419Y-47951661D01*
X152594427Y-48058808D01*
X152594422Y-48058812D01*
X152416761Y-48197092D01*
X152416756Y-48197097D01*
X152264284Y-48362723D01*
X152264276Y-48362734D01*
X152173808Y-48501206D01*
X152120662Y-48546562D01*
X152051431Y-48555986D01*
X151988095Y-48526484D01*
X151966192Y-48501206D01*
X151875723Y-48362734D01*
X151875715Y-48362723D01*
X151723243Y-48197097D01*
X151723238Y-48197092D01*
X151545577Y-48058812D01*
X151545572Y-48058808D01*
X151347580Y-47951661D01*
X151347577Y-47951659D01*
X151347574Y-47951658D01*
X151347571Y-47951657D01*
X151347569Y-47951656D01*
X151134637Y-47878556D01*
X150912569Y-47841500D01*
X150687431Y-47841500D01*
X150465362Y-47878556D01*
X150252430Y-47951656D01*
X150252419Y-47951661D01*
X150054427Y-48058808D01*
X150054422Y-48058812D01*
X149876761Y-48197092D01*
X149876756Y-48197097D01*
X149724284Y-48362723D01*
X149724276Y-48362734D01*
X149633808Y-48501206D01*
X149580662Y-48546562D01*
X149511431Y-48555986D01*
X149448095Y-48526484D01*
X149426192Y-48501206D01*
X149335723Y-48362734D01*
X149335715Y-48362723D01*
X149183243Y-48197097D01*
X149183238Y-48197092D01*
X149005577Y-48058812D01*
X149005572Y-48058808D01*
X148807580Y-47951661D01*
X148807577Y-47951659D01*
X148807574Y-47951658D01*
X148807571Y-47951657D01*
X148807569Y-47951656D01*
X148594637Y-47878556D01*
X148372569Y-47841500D01*
X148147431Y-47841500D01*
X147925362Y-47878556D01*
X147712430Y-47951656D01*
X147712419Y-47951661D01*
X147514427Y-48058808D01*
X147514422Y-48058812D01*
X147336761Y-48197092D01*
X147273548Y-48265760D01*
X147213661Y-48301750D01*
X147143823Y-48299649D01*
X147086207Y-48260124D01*
X147066138Y-48225110D01*
X147020889Y-48103796D01*
X146987214Y-48058812D01*
X146933261Y-47986739D01*
X146816204Y-47899111D01*
X146679203Y-47848011D01*
X146618654Y-47841500D01*
X146618638Y-47841500D01*
X144821362Y-47841500D01*
X144821345Y-47841500D01*
X144760797Y-47848011D01*
X144760795Y-47848011D01*
X144623795Y-47899111D01*
X144506739Y-47986739D01*
X144419111Y-48103795D01*
X144368011Y-48240795D01*
X144368011Y-48240797D01*
X144361500Y-48301345D01*
X144361500Y-50098654D01*
X144368011Y-50159202D01*
X144368011Y-50159204D01*
X144419111Y-50296204D01*
X144506739Y-50413261D01*
X144623796Y-50500889D01*
X144760799Y-50551989D01*
X144788050Y-50554918D01*
X144821345Y-50558499D01*
X144821362Y-50558500D01*
X146618638Y-50558500D01*
X146618654Y-50558499D01*
X146645692Y-50555591D01*
X146679201Y-50551989D01*
X146816204Y-50500889D01*
X146933261Y-50413261D01*
X147020889Y-50296204D01*
X147066138Y-50174887D01*
X147108009Y-50118956D01*
X147173474Y-50094539D01*
X147241746Y-50109391D01*
X147273545Y-50134236D01*
X147336760Y-50202906D01*
X147514424Y-50341189D01*
X147514425Y-50341189D01*
X147514427Y-50341191D01*
X147583127Y-50378369D01*
X147712426Y-50448342D01*
X147925365Y-50521444D01*
X148147431Y-50558500D01*
X148210877Y-50558500D01*
X148277916Y-50578185D01*
X148323671Y-50630989D01*
X148333615Y-50700147D01*
X148304590Y-50763703D01*
X148298558Y-50770181D01*
X147513559Y-51555181D01*
X147452236Y-51588666D01*
X147425878Y-51591500D01*
X115585141Y-51591500D01*
X115457928Y-51616804D01*
X115457918Y-51616807D01*
X115338087Y-51666442D01*
X115338083Y-51666445D01*
X115331859Y-51670603D01*
X115265184Y-51691480D01*
X115262971Y-51691500D01*
X113885141Y-51691500D01*
X113757928Y-51716804D01*
X113757922Y-51716806D01*
X113638086Y-51766443D01*
X113638079Y-51766447D01*
X113530228Y-51838510D01*
X107838510Y-57530228D01*
X107766447Y-57638079D01*
X107766443Y-57638086D01*
X107716806Y-57757922D01*
X107716804Y-57757928D01*
X107691500Y-57885140D01*
X107691500Y-64075877D01*
X107671815Y-64142916D01*
X107655181Y-64163558D01*
X104970074Y-66848664D01*
X104908751Y-66882149D01*
X104852446Y-66879118D01*
X104851925Y-66881179D01*
X104846956Y-66879920D01*
X104655085Y-66847903D01*
X104616712Y-66841500D01*
X104383288Y-66841500D01*
X104344270Y-66848011D01*
X104153045Y-66879920D01*
X103932280Y-66955710D01*
X103932266Y-66955716D01*
X103726988Y-67066806D01*
X103726985Y-67066808D01*
X103542781Y-67210181D01*
X103539010Y-67213653D01*
X103538290Y-67212871D01*
X103482899Y-67246147D01*
X103413061Y-67244034D01*
X103355452Y-67204500D01*
X103335397Y-67169503D01*
X103320633Y-67129920D01*
X103310889Y-67103796D01*
X103223261Y-66986739D01*
X103106204Y-66899111D01*
X103060728Y-66882149D01*
X102969203Y-66848011D01*
X102908654Y-66841500D01*
X102908638Y-66841500D01*
X101011362Y-66841500D01*
X101011345Y-66841500D01*
X100950797Y-66848011D01*
X100950795Y-66848011D01*
X100813795Y-66899111D01*
X100696739Y-66986739D01*
X100609111Y-67103795D01*
X100558011Y-67240795D01*
X100558011Y-67240797D01*
X100551500Y-67301345D01*
X100551500Y-69198654D01*
X100075500Y-69198654D01*
X100075500Y-60448654D01*
X100841500Y-60448654D01*
X100848011Y-60509202D01*
X100848011Y-60509204D01*
X100899111Y-60646204D01*
X100986739Y-60763261D01*
X101103796Y-60850889D01*
X101240799Y-60901989D01*
X101268050Y-60904918D01*
X101301345Y-60908499D01*
X101301362Y-60908500D01*
X103198638Y-60908500D01*
X103198654Y-60908499D01*
X103225692Y-60905591D01*
X103259201Y-60901989D01*
X103396204Y-60850889D01*
X103513261Y-60763261D01*
X103600889Y-60646204D01*
X103625397Y-60580495D01*
X103667268Y-60524563D01*
X103732733Y-60500147D01*
X103801005Y-60514999D01*
X103828724Y-60536656D01*
X103829010Y-60536347D01*
X103832774Y-60539811D01*
X103832780Y-60539818D01*
X104016983Y-60683190D01*
X104016985Y-60683191D01*
X104016988Y-60683193D01*
X104045558Y-60698654D01*
X104222273Y-60794287D01*
X104336914Y-60833643D01*
X104443045Y-60870079D01*
X104443047Y-60870079D01*
X104443049Y-60870080D01*
X104673288Y-60908500D01*
X104673289Y-60908500D01*
X104906711Y-60908500D01*
X104906712Y-60908500D01*
X105136951Y-60870080D01*
X105139410Y-60869236D01*
X105192855Y-60850888D01*
X105357727Y-60794287D01*
X105563017Y-60683190D01*
X105747220Y-60539818D01*
X105905314Y-60368083D01*
X106032984Y-60172669D01*
X106126749Y-59958907D01*
X106184051Y-59732626D01*
X106201887Y-59517377D01*
X106203327Y-59500005D01*
X106203327Y-59499994D01*
X106184051Y-59267377D01*
X106184051Y-59267374D01*
X106126749Y-59041093D01*
X106032984Y-58827331D01*
X105979944Y-58746147D01*
X105905313Y-58631915D01*
X105747223Y-58460185D01*
X105747222Y-58460184D01*
X105747220Y-58460182D01*
X105563017Y-58316810D01*
X105563015Y-58316809D01*
X105563014Y-58316808D01*
X105563011Y-58316806D01*
X105357733Y-58205716D01*
X105357730Y-58205715D01*
X105357727Y-58205713D01*
X105357721Y-58205711D01*
X105357719Y-58205710D01*
X105136954Y-58129920D01*
X104945730Y-58098011D01*
X104906712Y-58091500D01*
X104673288Y-58091500D01*
X104634270Y-58098011D01*
X104443045Y-58129920D01*
X104222280Y-58205710D01*
X104222266Y-58205716D01*
X104016988Y-58316806D01*
X104016985Y-58316808D01*
X103832781Y-58460181D01*
X103829010Y-58463653D01*
X103828290Y-58462871D01*
X103772899Y-58496147D01*
X103703061Y-58494034D01*
X103645452Y-58454500D01*
X103625397Y-58419503D01*
X103610633Y-58379920D01*
X103600889Y-58353796D01*
X103513261Y-58236739D01*
X103396204Y-58149111D01*
X103259203Y-58098011D01*
X103198654Y-58091500D01*
X103198638Y-58091500D01*
X101301362Y-58091500D01*
X101301345Y-58091500D01*
X101240797Y-58098011D01*
X101240795Y-58098011D01*
X101103795Y-58149111D01*
X100986739Y-58236739D01*
X100899111Y-58353795D01*
X100848011Y-58490795D01*
X100848011Y-58490797D01*
X100841500Y-58551345D01*
X100841500Y-60448654D01*
X100075500Y-60448654D01*
X100075500Y-53500000D01*
X100986835Y-53500000D01*
X101005465Y-53736714D01*
X101060895Y-53967595D01*
X101060895Y-53967597D01*
X101151757Y-54186959D01*
X101151759Y-54186962D01*
X101275820Y-54389410D01*
X101275821Y-54389413D01*
X101325227Y-54447259D01*
X101430031Y-54569969D01*
X101542990Y-54666445D01*
X101610586Y-54724178D01*
X101610588Y-54724178D01*
X101697178Y-54777241D01*
X101813037Y-54848240D01*
X101813040Y-54848242D01*
X102032403Y-54939104D01*
X102032404Y-54939104D01*
X102032406Y-54939105D01*
X102263289Y-54994535D01*
X102500000Y-55013165D01*
X102736711Y-54994535D01*
X102967594Y-54939105D01*
X102967596Y-54939104D01*
X102967597Y-54939104D01*
X103186959Y-54848242D01*
X103186960Y-54848241D01*
X103186963Y-54848240D01*
X103389416Y-54724176D01*
X103569969Y-54569969D01*
X103724176Y-54389416D01*
X103848240Y-54186963D01*
X103848433Y-54186499D01*
X103939104Y-53967597D01*
X103939104Y-53967596D01*
X103939105Y-53967594D01*
X103994535Y-53736711D01*
X104013165Y-53500000D01*
X107486835Y-53500000D01*
X107505465Y-53736714D01*
X107560895Y-53967595D01*
X107560895Y-53967597D01*
X107651757Y-54186959D01*
X107651759Y-54186962D01*
X107775820Y-54389410D01*
X107775821Y-54389413D01*
X107825227Y-54447259D01*
X107930031Y-54569969D01*
X108042990Y-54666445D01*
X108110586Y-54724178D01*
X108110588Y-54724178D01*
X108197178Y-54777241D01*
X108313037Y-54848240D01*
X108313040Y-54848242D01*
X108532403Y-54939104D01*
X108532404Y-54939104D01*
X108532406Y-54939105D01*
X108763289Y-54994535D01*
X109000000Y-55013165D01*
X109236711Y-54994535D01*
X109467594Y-54939105D01*
X109467596Y-54939104D01*
X109467597Y-54939104D01*
X109686959Y-54848242D01*
X109686960Y-54848241D01*
X109686963Y-54848240D01*
X109889416Y-54724176D01*
X110069969Y-54569969D01*
X110224176Y-54389416D01*
X110348240Y-54186963D01*
X110348433Y-54186499D01*
X110439104Y-53967597D01*
X110439104Y-53967596D01*
X110439105Y-53967594D01*
X110494535Y-53736711D01*
X110513165Y-53500000D01*
X110494535Y-53263289D01*
X110439105Y-53032406D01*
X110439104Y-53032403D01*
X110439104Y-53032402D01*
X110348242Y-52813040D01*
X110348240Y-52813037D01*
X110224179Y-52610589D01*
X110224178Y-52610586D01*
X110189340Y-52569797D01*
X110069969Y-52430031D01*
X109950596Y-52328076D01*
X109889413Y-52275821D01*
X109889410Y-52275820D01*
X109686962Y-52151759D01*
X109686959Y-52151757D01*
X109467596Y-52060895D01*
X109236714Y-52005465D01*
X109000000Y-51986835D01*
X108763285Y-52005465D01*
X108532404Y-52060895D01*
X108532402Y-52060895D01*
X108313040Y-52151757D01*
X108313037Y-52151759D01*
X108110589Y-52275820D01*
X108110586Y-52275821D01*
X107930031Y-52430031D01*
X107775821Y-52610586D01*
X107775820Y-52610589D01*
X107651759Y-52813037D01*
X107651757Y-52813040D01*
X107560895Y-53032402D01*
X107560895Y-53032404D01*
X107505465Y-53263285D01*
X107486835Y-53500000D01*
X104013165Y-53500000D01*
X103994535Y-53263289D01*
X103939105Y-53032406D01*
X103939104Y-53032403D01*
X103939104Y-53032402D01*
X103848242Y-52813040D01*
X103848240Y-52813037D01*
X103724179Y-52610589D01*
X103724178Y-52610586D01*
X103689340Y-52569797D01*
X103569969Y-52430031D01*
X103450596Y-52328076D01*
X103389413Y-52275821D01*
X103389410Y-52275820D01*
X103186962Y-52151759D01*
X103186959Y-52151757D01*
X102967596Y-52060895D01*
X102736714Y-52005465D01*
X102500000Y-51986835D01*
X102263285Y-52005465D01*
X102032404Y-52060895D01*
X102032402Y-52060895D01*
X101813040Y-52151757D01*
X101813037Y-52151759D01*
X101610589Y-52275820D01*
X101610586Y-52275821D01*
X101430031Y-52430031D01*
X101275821Y-52610586D01*
X101275820Y-52610589D01*
X101151759Y-52813037D01*
X101151757Y-52813040D01*
X101060895Y-53032402D01*
X101060895Y-53032404D01*
X101005465Y-53263285D01*
X100986835Y-53500000D01*
X100075500Y-53500000D01*
X100075500Y-49000005D01*
X100994859Y-49000005D01*
X101015385Y-49247729D01*
X101015387Y-49247738D01*
X101076412Y-49488717D01*
X101176266Y-49716364D01*
X101276564Y-49869882D01*
X101976212Y-49170234D01*
X101987482Y-49212292D01*
X102059890Y-49337708D01*
X102162292Y-49440110D01*
X102287708Y-49512518D01*
X102329765Y-49523787D01*
X101629942Y-50223609D01*
X101676768Y-50260055D01*
X101676770Y-50260056D01*
X101895385Y-50378364D01*
X101895396Y-50378369D01*
X102130506Y-50459083D01*
X102375707Y-50500000D01*
X102624293Y-50500000D01*
X102869493Y-50459083D01*
X103104603Y-50378369D01*
X103104614Y-50378364D01*
X103323228Y-50260057D01*
X103323231Y-50260055D01*
X103370056Y-50223609D01*
X102670234Y-49523787D01*
X102712292Y-49512518D01*
X102837708Y-49440110D01*
X102940110Y-49337708D01*
X103012518Y-49212292D01*
X103023787Y-49170235D01*
X103723434Y-49869882D01*
X103823731Y-49716369D01*
X103923587Y-49488717D01*
X103984612Y-49247738D01*
X103984614Y-49247729D01*
X104005141Y-49000005D01*
X107494859Y-49000005D01*
X107515385Y-49247729D01*
X107515387Y-49247738D01*
X107576412Y-49488717D01*
X107676266Y-49716364D01*
X107776564Y-49869882D01*
X108476212Y-49170234D01*
X108487482Y-49212292D01*
X108559890Y-49337708D01*
X108662292Y-49440110D01*
X108787708Y-49512518D01*
X108829765Y-49523787D01*
X108129942Y-50223609D01*
X108176768Y-50260055D01*
X108176770Y-50260056D01*
X108395385Y-50378364D01*
X108395396Y-50378369D01*
X108630506Y-50459083D01*
X108875707Y-50500000D01*
X109124293Y-50500000D01*
X109369493Y-50459083D01*
X109604603Y-50378369D01*
X109604614Y-50378364D01*
X109823228Y-50260057D01*
X109823231Y-50260055D01*
X109870056Y-50223609D01*
X109745101Y-50098654D01*
X117437500Y-50098654D01*
X117444011Y-50159202D01*
X117444011Y-50159204D01*
X117495111Y-50296204D01*
X117582739Y-50413261D01*
X117699796Y-50500889D01*
X117836799Y-50551989D01*
X117864050Y-50554918D01*
X117897345Y-50558499D01*
X117897362Y-50558500D01*
X119694638Y-50558500D01*
X119694654Y-50558499D01*
X119721692Y-50555591D01*
X119755201Y-50551989D01*
X119892204Y-50500889D01*
X120009261Y-50413261D01*
X120096889Y-50296204D01*
X120142138Y-50174887D01*
X120184009Y-50118956D01*
X120249474Y-50094539D01*
X120317746Y-50109391D01*
X120349545Y-50134236D01*
X120412760Y-50202906D01*
X120590424Y-50341189D01*
X120590425Y-50341189D01*
X120590427Y-50341191D01*
X120659127Y-50378369D01*
X120788426Y-50448342D01*
X121001365Y-50521444D01*
X121223431Y-50558500D01*
X121448569Y-50558500D01*
X121670635Y-50521444D01*
X121883574Y-50448342D01*
X122081576Y-50341189D01*
X122259240Y-50202906D01*
X122380594Y-50071082D01*
X122411715Y-50037276D01*
X122411715Y-50037275D01*
X122411722Y-50037268D01*
X122502193Y-49898790D01*
X122555338Y-49853437D01*
X122624569Y-49844013D01*
X122687905Y-49873515D01*
X122709804Y-49898787D01*
X122800278Y-50037268D01*
X122800283Y-50037273D01*
X122800284Y-50037276D01*
X122926968Y-50174889D01*
X122952760Y-50202906D01*
X123130424Y-50341189D01*
X123130425Y-50341189D01*
X123130427Y-50341191D01*
X123199127Y-50378369D01*
X123328426Y-50448342D01*
X123541365Y-50521444D01*
X123763431Y-50558500D01*
X123988569Y-50558500D01*
X124210635Y-50521444D01*
X124423574Y-50448342D01*
X124621576Y-50341189D01*
X124799240Y-50202906D01*
X124920594Y-50071082D01*
X124951715Y-50037276D01*
X124951715Y-50037275D01*
X124951722Y-50037268D01*
X125045749Y-49893347D01*
X125098894Y-49847994D01*
X125168125Y-49838570D01*
X125231461Y-49868072D01*
X125251130Y-49890048D01*
X125377890Y-50071078D01*
X125544917Y-50238105D01*
X125738421Y-50373600D01*
X125952507Y-50473429D01*
X125952516Y-50473433D01*
X126166000Y-50530634D01*
X126166000Y-49633012D01*
X126223007Y-49665925D01*
X126350174Y-49700000D01*
X126481826Y-49700000D01*
X126608993Y-49665925D01*
X126666000Y-49633012D01*
X126666000Y-50530633D01*
X126879483Y-50473433D01*
X126879492Y-50473429D01*
X127093578Y-50373600D01*
X127287082Y-50238105D01*
X127454105Y-50071082D01*
X127580868Y-49890048D01*
X127635445Y-49846423D01*
X127704944Y-49839231D01*
X127767298Y-49870753D01*
X127786251Y-49893350D01*
X127880276Y-50037265D01*
X127880284Y-50037276D01*
X128006968Y-50174889D01*
X128032760Y-50202906D01*
X128210424Y-50341189D01*
X128210425Y-50341189D01*
X128210427Y-50341191D01*
X128279127Y-50378369D01*
X128408426Y-50448342D01*
X128621365Y-50521444D01*
X128843431Y-50558500D01*
X129068569Y-50558500D01*
X129290635Y-50521444D01*
X129503574Y-50448342D01*
X129701576Y-50341189D01*
X129879240Y-50202906D01*
X130000594Y-50071082D01*
X130031715Y-50037276D01*
X130031715Y-50037275D01*
X130031722Y-50037268D01*
X130122193Y-49898790D01*
X130175338Y-49853437D01*
X130244569Y-49844013D01*
X130307905Y-49873515D01*
X130329804Y-49898787D01*
X130420278Y-50037268D01*
X130420283Y-50037273D01*
X130420284Y-50037276D01*
X130546968Y-50174889D01*
X130572760Y-50202906D01*
X130750424Y-50341189D01*
X130750425Y-50341189D01*
X130750427Y-50341191D01*
X130819127Y-50378369D01*
X130948426Y-50448342D01*
X131161365Y-50521444D01*
X131383431Y-50558500D01*
X131608569Y-50558500D01*
X131830635Y-50521444D01*
X132043574Y-50448342D01*
X132241576Y-50341189D01*
X132419240Y-50202906D01*
X132540594Y-50071082D01*
X132571715Y-50037276D01*
X132571715Y-50037275D01*
X132571722Y-50037268D01*
X132662193Y-49898790D01*
X132715338Y-49853437D01*
X132784569Y-49844013D01*
X132847905Y-49873515D01*
X132869804Y-49898787D01*
X132960278Y-50037268D01*
X132960283Y-50037273D01*
X132960284Y-50037276D01*
X133086968Y-50174889D01*
X133112760Y-50202906D01*
X133290424Y-50341189D01*
X133290425Y-50341189D01*
X133290427Y-50341191D01*
X133359127Y-50378369D01*
X133488426Y-50448342D01*
X133701365Y-50521444D01*
X133923431Y-50558500D01*
X134148569Y-50558500D01*
X134370635Y-50521444D01*
X134583574Y-50448342D01*
X134781576Y-50341189D01*
X134959240Y-50202906D01*
X135080594Y-50071082D01*
X135111715Y-50037276D01*
X135111715Y-50037275D01*
X135111722Y-50037268D01*
X135202193Y-49898790D01*
X135255338Y-49853437D01*
X135324569Y-49844013D01*
X135387905Y-49873515D01*
X135409804Y-49898787D01*
X135500278Y-50037268D01*
X135500283Y-50037273D01*
X135500284Y-50037276D01*
X135626968Y-50174889D01*
X135652760Y-50202906D01*
X135830424Y-50341189D01*
X135830425Y-50341189D01*
X135830427Y-50341191D01*
X135899127Y-50378369D01*
X136028426Y-50448342D01*
X136241365Y-50521444D01*
X136463431Y-50558500D01*
X136688569Y-50558500D01*
X136910635Y-50521444D01*
X137123574Y-50448342D01*
X137321576Y-50341189D01*
X137499240Y-50202906D01*
X137620594Y-50071082D01*
X137651715Y-50037276D01*
X137651715Y-50037275D01*
X137651722Y-50037268D01*
X137742193Y-49898790D01*
X137795338Y-49853437D01*
X137864569Y-49844013D01*
X137927905Y-49873515D01*
X137949804Y-49898787D01*
X138040278Y-50037268D01*
X138040283Y-50037273D01*
X138040284Y-50037276D01*
X138166968Y-50174889D01*
X138192760Y-50202906D01*
X138370424Y-50341189D01*
X138370425Y-50341189D01*
X138370427Y-50341191D01*
X138439127Y-50378369D01*
X138568426Y-50448342D01*
X138781365Y-50521444D01*
X139003431Y-50558500D01*
X139228569Y-50558500D01*
X139450635Y-50521444D01*
X139663574Y-50448342D01*
X139861576Y-50341189D01*
X140039240Y-50202906D01*
X140160594Y-50071082D01*
X140191715Y-50037276D01*
X140191715Y-50037275D01*
X140191722Y-50037268D01*
X140282193Y-49898790D01*
X140335338Y-49853437D01*
X140404569Y-49844013D01*
X140467905Y-49873515D01*
X140489804Y-49898787D01*
X140580278Y-50037268D01*
X140580283Y-50037273D01*
X140580284Y-50037276D01*
X140706968Y-50174889D01*
X140732760Y-50202906D01*
X140910424Y-50341189D01*
X140910425Y-50341189D01*
X140910427Y-50341191D01*
X140979127Y-50378369D01*
X141108426Y-50448342D01*
X141321365Y-50521444D01*
X141543431Y-50558500D01*
X141768569Y-50558500D01*
X141990635Y-50521444D01*
X142203574Y-50448342D01*
X142401576Y-50341189D01*
X142579240Y-50202906D01*
X142700594Y-50071082D01*
X142731715Y-50037276D01*
X142731717Y-50037273D01*
X142731722Y-50037268D01*
X142854860Y-49848791D01*
X142945296Y-49642616D01*
X143000564Y-49424368D01*
X143012309Y-49282635D01*
X143019156Y-49200005D01*
X143019156Y-49199994D01*
X143000565Y-48975640D01*
X143000563Y-48975628D01*
X142945296Y-48757385D01*
X142943052Y-48752270D01*
X142854860Y-48551209D01*
X142838706Y-48526484D01*
X142731723Y-48362734D01*
X142731715Y-48362723D01*
X142579243Y-48197097D01*
X142579238Y-48197092D01*
X142401577Y-48058812D01*
X142401572Y-48058808D01*
X142203580Y-47951661D01*
X142203577Y-47951659D01*
X142203574Y-47951658D01*
X142203571Y-47951657D01*
X142203569Y-47951656D01*
X141990637Y-47878556D01*
X141768569Y-47841500D01*
X141543431Y-47841500D01*
X141321362Y-47878556D01*
X141108430Y-47951656D01*
X141108419Y-47951661D01*
X140910427Y-48058808D01*
X140910422Y-48058812D01*
X140732761Y-48197092D01*
X140732756Y-48197097D01*
X140580284Y-48362723D01*
X140580276Y-48362734D01*
X140489808Y-48501206D01*
X140436662Y-48546562D01*
X140367431Y-48555986D01*
X140304095Y-48526484D01*
X140282192Y-48501206D01*
X140191723Y-48362734D01*
X140191715Y-48362723D01*
X140039243Y-48197097D01*
X140039238Y-48197092D01*
X139861577Y-48058812D01*
X139861572Y-48058808D01*
X139663580Y-47951661D01*
X139663577Y-47951659D01*
X139663574Y-47951658D01*
X139663571Y-47951657D01*
X139663569Y-47951656D01*
X139450637Y-47878556D01*
X139228569Y-47841500D01*
X139003431Y-47841500D01*
X138781362Y-47878556D01*
X138568430Y-47951656D01*
X138568419Y-47951661D01*
X138370427Y-48058808D01*
X138370422Y-48058812D01*
X138192761Y-48197092D01*
X138192756Y-48197097D01*
X138040284Y-48362723D01*
X138040276Y-48362734D01*
X137949808Y-48501206D01*
X137896662Y-48546562D01*
X137827431Y-48555986D01*
X137764095Y-48526484D01*
X137742192Y-48501206D01*
X137651723Y-48362734D01*
X137651715Y-48362723D01*
X137499243Y-48197097D01*
X137499238Y-48197092D01*
X137321577Y-48058812D01*
X137321572Y-48058808D01*
X137123580Y-47951661D01*
X137123577Y-47951659D01*
X137123574Y-47951658D01*
X137123571Y-47951657D01*
X137123569Y-47951656D01*
X136910637Y-47878556D01*
X136688569Y-47841500D01*
X136463431Y-47841500D01*
X136241362Y-47878556D01*
X136028430Y-47951656D01*
X136028419Y-47951661D01*
X135830427Y-48058808D01*
X135830422Y-48058812D01*
X135652761Y-48197092D01*
X135652756Y-48197097D01*
X135500284Y-48362723D01*
X135500276Y-48362734D01*
X135409808Y-48501206D01*
X135356662Y-48546562D01*
X135287431Y-48555986D01*
X135224095Y-48526484D01*
X135202192Y-48501206D01*
X135111723Y-48362734D01*
X135111715Y-48362723D01*
X134959243Y-48197097D01*
X134959238Y-48197092D01*
X134781577Y-48058812D01*
X134781572Y-48058808D01*
X134583580Y-47951661D01*
X134583577Y-47951659D01*
X134583574Y-47951658D01*
X134583571Y-47951657D01*
X134583569Y-47951656D01*
X134370637Y-47878556D01*
X134148569Y-47841500D01*
X133923431Y-47841500D01*
X133701362Y-47878556D01*
X133488430Y-47951656D01*
X133488419Y-47951661D01*
X133290427Y-48058808D01*
X133290422Y-48058812D01*
X133112761Y-48197092D01*
X133112756Y-48197097D01*
X132960284Y-48362723D01*
X132960276Y-48362734D01*
X132869808Y-48501206D01*
X132816662Y-48546562D01*
X132747431Y-48555986D01*
X132684095Y-48526484D01*
X132662192Y-48501206D01*
X132571723Y-48362734D01*
X132571715Y-48362723D01*
X132419243Y-48197097D01*
X132419238Y-48197092D01*
X132241577Y-48058812D01*
X132241572Y-48058808D01*
X132043580Y-47951661D01*
X132043577Y-47951659D01*
X132043574Y-47951658D01*
X132043571Y-47951657D01*
X132043569Y-47951656D01*
X131830637Y-47878556D01*
X131608569Y-47841500D01*
X131383431Y-47841500D01*
X131161362Y-47878556D01*
X130948430Y-47951656D01*
X130948419Y-47951661D01*
X130750427Y-48058808D01*
X130750422Y-48058812D01*
X130572761Y-48197092D01*
X130572756Y-48197097D01*
X130420284Y-48362723D01*
X130420276Y-48362734D01*
X130329808Y-48501206D01*
X130276662Y-48546562D01*
X130207431Y-48555986D01*
X130144095Y-48526484D01*
X130122192Y-48501206D01*
X130031723Y-48362734D01*
X130031715Y-48362723D01*
X129879243Y-48197097D01*
X129879238Y-48197092D01*
X129701577Y-48058812D01*
X129701572Y-48058808D01*
X129503580Y-47951661D01*
X129503577Y-47951659D01*
X129503574Y-47951658D01*
X129503571Y-47951657D01*
X129503569Y-47951656D01*
X129290637Y-47878556D01*
X129068569Y-47841500D01*
X128843431Y-47841500D01*
X128621362Y-47878556D01*
X128408430Y-47951656D01*
X128408419Y-47951661D01*
X128210427Y-48058808D01*
X128210422Y-48058812D01*
X128032761Y-48197092D01*
X128032756Y-48197097D01*
X127880284Y-48362723D01*
X127880276Y-48362734D01*
X127786251Y-48506650D01*
X127733105Y-48552007D01*
X127663873Y-48561430D01*
X127600538Y-48531928D01*
X127580868Y-48509951D01*
X127454113Y-48328926D01*
X127454108Y-48328920D01*
X127287082Y-48161894D01*
X127093578Y-48026399D01*
X126879492Y-47926570D01*
X126879486Y-47926567D01*
X126666000Y-47869364D01*
X126666000Y-48766988D01*
X126608993Y-48734075D01*
X126481826Y-48700000D01*
X126350174Y-48700000D01*
X126223007Y-48734075D01*
X126166000Y-48766988D01*
X126166000Y-47869364D01*
X126165999Y-47869364D01*
X125952513Y-47926567D01*
X125952507Y-47926570D01*
X125738422Y-48026399D01*
X125738420Y-48026400D01*
X125544926Y-48161886D01*
X125544920Y-48161891D01*
X125377891Y-48328920D01*
X125377890Y-48328922D01*
X125251131Y-48509952D01*
X125196554Y-48553577D01*
X125127055Y-48560769D01*
X125064701Y-48529247D01*
X125045752Y-48506656D01*
X124951722Y-48362732D01*
X124951715Y-48362725D01*
X124951715Y-48362723D01*
X124799243Y-48197097D01*
X124799238Y-48197092D01*
X124621577Y-48058812D01*
X124621572Y-48058808D01*
X124423580Y-47951661D01*
X124423577Y-47951659D01*
X124423574Y-47951658D01*
X124423571Y-47951657D01*
X124423569Y-47951656D01*
X124210637Y-47878556D01*
X123988569Y-47841500D01*
X123763431Y-47841500D01*
X123541362Y-47878556D01*
X123328430Y-47951656D01*
X123328419Y-47951661D01*
X123130427Y-48058808D01*
X123130422Y-48058812D01*
X122952761Y-48197092D01*
X122952756Y-48197097D01*
X122800284Y-48362723D01*
X122800276Y-48362734D01*
X122709808Y-48501206D01*
X122656662Y-48546562D01*
X122587431Y-48555986D01*
X122524095Y-48526484D01*
X122502192Y-48501206D01*
X122411723Y-48362734D01*
X122411715Y-48362723D01*
X122259243Y-48197097D01*
X122259238Y-48197092D01*
X122081577Y-48058812D01*
X122081572Y-48058808D01*
X121883580Y-47951661D01*
X121883577Y-47951659D01*
X121883574Y-47951658D01*
X121883571Y-47951657D01*
X121883569Y-47951656D01*
X121670637Y-47878556D01*
X121448569Y-47841500D01*
X121223431Y-47841500D01*
X121001362Y-47878556D01*
X120788430Y-47951656D01*
X120788419Y-47951661D01*
X120590427Y-48058808D01*
X120590422Y-48058812D01*
X120412761Y-48197092D01*
X120349548Y-48265760D01*
X120289661Y-48301750D01*
X120219823Y-48299649D01*
X120162207Y-48260124D01*
X120142138Y-48225110D01*
X120096889Y-48103796D01*
X120063214Y-48058812D01*
X120009261Y-47986739D01*
X119892204Y-47899111D01*
X119755203Y-47848011D01*
X119694654Y-47841500D01*
X119694638Y-47841500D01*
X117897362Y-47841500D01*
X117897345Y-47841500D01*
X117836797Y-47848011D01*
X117836795Y-47848011D01*
X117699795Y-47899111D01*
X117582739Y-47986739D01*
X117495111Y-48103795D01*
X117444011Y-48240795D01*
X117444011Y-48240797D01*
X117437500Y-48301345D01*
X117437500Y-50098654D01*
X109745101Y-50098654D01*
X109170234Y-49523787D01*
X109212292Y-49512518D01*
X109337708Y-49440110D01*
X109440110Y-49337708D01*
X109512518Y-49212292D01*
X109523787Y-49170235D01*
X110223434Y-49869882D01*
X110323731Y-49716369D01*
X110423587Y-49488717D01*
X110484612Y-49247738D01*
X110484614Y-49247729D01*
X110505141Y-49000005D01*
X110505141Y-48999994D01*
X110484614Y-48752270D01*
X110484612Y-48752261D01*
X110423587Y-48511282D01*
X110323731Y-48283630D01*
X110223434Y-48130116D01*
X109523787Y-48829764D01*
X109512518Y-48787708D01*
X109440110Y-48662292D01*
X109337708Y-48559890D01*
X109212292Y-48487482D01*
X109170235Y-48476212D01*
X109870057Y-47776390D01*
X109870056Y-47776389D01*
X109823229Y-47739943D01*
X109604614Y-47621635D01*
X109604603Y-47621630D01*
X109369493Y-47540916D01*
X109124293Y-47500000D01*
X108875707Y-47500000D01*
X108630506Y-47540916D01*
X108395396Y-47621630D01*
X108395390Y-47621632D01*
X108176761Y-47739949D01*
X108129942Y-47776388D01*
X108129942Y-47776390D01*
X108829765Y-48476212D01*
X108787708Y-48487482D01*
X108662292Y-48559890D01*
X108559890Y-48662292D01*
X108487482Y-48787708D01*
X108476212Y-48829764D01*
X107776564Y-48130116D01*
X107676267Y-48283632D01*
X107576412Y-48511282D01*
X107515387Y-48752261D01*
X107515385Y-48752270D01*
X107494859Y-48999994D01*
X107494859Y-49000005D01*
X104005141Y-49000005D01*
X104005141Y-48999994D01*
X103984614Y-48752270D01*
X103984612Y-48752261D01*
X103923587Y-48511282D01*
X103823731Y-48283630D01*
X103723434Y-48130116D01*
X103023787Y-48829764D01*
X103012518Y-48787708D01*
X102940110Y-48662292D01*
X102837708Y-48559890D01*
X102712292Y-48487482D01*
X102670235Y-48476212D01*
X103370057Y-47776390D01*
X103370056Y-47776389D01*
X103323229Y-47739943D01*
X103104614Y-47621635D01*
X103104603Y-47621630D01*
X102869493Y-47540916D01*
X102624293Y-47500000D01*
X102375707Y-47500000D01*
X102130506Y-47540916D01*
X101895396Y-47621630D01*
X101895390Y-47621632D01*
X101676761Y-47739949D01*
X101629942Y-47776388D01*
X101629942Y-47776390D01*
X102329765Y-48476212D01*
X102287708Y-48487482D01*
X102162292Y-48559890D01*
X102059890Y-48662292D01*
X101987482Y-48787708D01*
X101976212Y-48829764D01*
X101276564Y-48130116D01*
X101176267Y-48283632D01*
X101076412Y-48511282D01*
X101015387Y-48752261D01*
X101015385Y-48752270D01*
X100994859Y-48999994D01*
X100994859Y-49000005D01*
X100075500Y-49000005D01*
X100075500Y-47428092D01*
X100076097Y-47415938D01*
X100087494Y-47300222D01*
X100092234Y-47276389D01*
X100124216Y-47170959D01*
X100133508Y-47148526D01*
X100185442Y-47051365D01*
X100198938Y-47031166D01*
X100268827Y-46946006D01*
X100286006Y-46928827D01*
X100371166Y-46858938D01*
X100391365Y-46845442D01*
X100488526Y-46793508D01*
X100510959Y-46784216D01*
X100616389Y-46752234D01*
X100640220Y-46747494D01*
X100755939Y-46736097D01*
X100768093Y-46735500D01*
X100786531Y-46735500D01*
X163417365Y-46735500D01*
X163484404Y-46755185D01*
G37*
%TD.AperFunction*%
%TD*%
M02*
