%TF.GenerationSoftware,KiCad,Pcbnew,8.0.1*%
%TF.CreationDate,2024-05-23T19:57:17+02:00*%
%TF.ProjectId,Lab1,4c616231-2e6b-4696-9361-645f70636258,V0.1*%
%TF.SameCoordinates,Original*%
%TF.FileFunction,Copper,L3,Inr*%
%TF.FilePolarity,Positive*%
%FSLAX46Y46*%
G04 Gerber Fmt 4.6, Leading zero omitted, Abs format (unit mm)*
G04 Created by KiCad (PCBNEW 8.0.1) date 2024-05-23 19:57:17*
%MOMM*%
%LPD*%
G01*
G04 APERTURE LIST*
%TA.AperFunction,ComponentPad*%
%ADD10C,1.600000*%
%TD*%
%TA.AperFunction,ComponentPad*%
%ADD11O,1.600000X1.600000*%
%TD*%
%TA.AperFunction,ComponentPad*%
%ADD12R,1.700000X1.700000*%
%TD*%
%TA.AperFunction,ComponentPad*%
%ADD13R,1.800000X1.800000*%
%TD*%
%TA.AperFunction,ComponentPad*%
%ADD14C,1.800000*%
%TD*%
%TA.AperFunction,ComponentPad*%
%ADD15R,1.600000X1.600000*%
%TD*%
%TA.AperFunction,ComponentPad*%
%ADD16C,2.000000*%
%TD*%
%TA.AperFunction,ComponentPad*%
%ADD17O,1.700000X1.700000*%
%TD*%
G04 APERTURE END LIST*
D10*
%TO.N,Net-(C1-Pad1)*%
%TO.C,R3*%
X141330000Y-91000000D03*
D11*
%TO.N,Net-(OP1--)*%
X131170000Y-91000000D03*
%TD*%
D12*
%TO.N,Net-(OP1-+)*%
%TO.C,TP2*%
X107200000Y-92300000D03*
%TD*%
D10*
%TO.N,Net-(C5-Pad2)*%
%TO.C,R5*%
X155000000Y-60420000D03*
D11*
%TO.N,Net-(OP2--)*%
X155000000Y-70580000D03*
%TD*%
D12*
%TO.N,Net-(C6-Pad2)*%
%TO.C,TP6*%
X135250000Y-55500000D03*
%TD*%
%TO.N,Net-(C3-Pad2)*%
%TO.C,TP3*%
X162500000Y-72000000D03*
%TD*%
D10*
%TO.N,Net-(OP2--)*%
%TO.C,R6*%
X146500000Y-70580000D03*
D11*
%TO.N,Net-(C6-Pad2)*%
X146500000Y-60420000D03*
%TD*%
D13*
%TO.N,Net-(D3-K)*%
%TO.C,D3*%
X110960000Y-68500000D03*
D14*
%TO.N,LED_Green*%
X113500000Y-68500000D03*
%TD*%
D10*
%TO.N,Net-(OP1--)*%
%TO.C,C3*%
X146500000Y-79250000D03*
%TO.N,Net-(C3-Pad2)*%
X146500000Y-74250000D03*
%TD*%
D15*
%TO.N,Net-(C1-Pad1)*%
%TO.C,C1*%
X147800000Y-88000000D03*
D10*
%TO.N,Net-(J1-Pin_2)*%
X150300000Y-88000000D03*
%TD*%
D15*
%TO.N,unconnected-(OP2-NC-Pad1)*%
%TO.C,OP2*%
X132450000Y-69050000D03*
D11*
%TO.N,Net-(OP2--)*%
X134990000Y-69050000D03*
%TO.N,Net-(OP1-+)*%
X137530000Y-69050000D03*
%TO.N,GND*%
X140070000Y-69050000D03*
%TO.N,unconnected-(OP2-NC-Pad5)*%
X140070000Y-61430000D03*
%TO.N,Net-(C6-Pad2)*%
X137530000Y-61430000D03*
%TO.N,VCC*%
X134990000Y-61430000D03*
%TO.N,unconnected-(OP2-NC-Pad8)*%
X132450000Y-61430000D03*
%TD*%
D15*
%TO.N,Net-(C3-Pad2)*%
%TO.C,C5*%
X163617677Y-64000000D03*
D10*
%TO.N,Net-(C5-Pad2)*%
X161117677Y-64000000D03*
%TD*%
D15*
%TO.N,unconnected-(OP1-NC-Pad1)*%
%TO.C,OP1*%
X132450000Y-80550000D03*
D11*
%TO.N,Net-(OP1--)*%
X134990000Y-80550000D03*
%TO.N,Net-(OP1-+)*%
X137530000Y-80550000D03*
%TO.N,GND*%
X140070000Y-80550000D03*
%TO.N,unconnected-(OP1-NC-Pad5)*%
X140070000Y-72930000D03*
%TO.N,Net-(C3-Pad2)*%
X137530000Y-72930000D03*
%TO.N,VCC*%
X134990000Y-72930000D03*
%TO.N,unconnected-(OP1-NC-Pad8)*%
X132450000Y-72930000D03*
%TD*%
D10*
%TO.N,Net-(OP1--)*%
%TO.C,R4*%
X141580000Y-86000000D03*
D11*
%TO.N,Net-(C3-Pad2)*%
X131420000Y-86000000D03*
%TD*%
D10*
%TO.N,Net-(OP1-+)*%
%TO.C,C4*%
X127000000Y-74750000D03*
%TO.N,GND*%
X127000000Y-79750000D03*
%TD*%
D12*
%TO.N,Net-(J1-Pin_2)*%
%TO.C,TP1*%
X163400000Y-89900000D03*
%TD*%
D10*
%TO.N,Net-(D4-K)*%
%TO.C,R11*%
X119100000Y-64980000D03*
D11*
%TO.N,GND*%
X119100000Y-54820000D03*
%TD*%
D13*
%TO.N,Net-(D2-K)*%
%TO.C,D2*%
X101960000Y-68250000D03*
D14*
%TO.N,LED_Orange*%
X104500000Y-68250000D03*
%TD*%
D12*
%TO.N,GND*%
%TO.C,TP5*%
X120500000Y-92000000D03*
%TD*%
D10*
%TO.N,Net-(OP1-+)*%
%TO.C,R2*%
X126830000Y-85750000D03*
D11*
%TO.N,GND*%
X116670000Y-85750000D03*
%TD*%
D15*
%TO.N,Net-(OP1-+)*%
%TO.C,C2*%
X119000000Y-74382323D03*
D10*
%TO.N,GND*%
X119000000Y-76382323D03*
%TD*%
%TO.N,Net-(D2-K)*%
%TO.C,R9*%
X102700000Y-75520000D03*
D11*
%TO.N,GND*%
X102700000Y-85680000D03*
%TD*%
D12*
%TO.N,GND*%
%TO.C,TP7*%
X125250000Y-92000000D03*
%TD*%
D13*
%TO.N,Net-(D4-K)*%
%TO.C,D4*%
X111000000Y-59750000D03*
D14*
%TO.N,VCC*%
X113540000Y-59750000D03*
%TD*%
D16*
%TO.N,Push_Button*%
%TO.C,SW1*%
X109000000Y-53500000D03*
X102500000Y-53500000D03*
%TO.N,GND*%
X109000000Y-49000000D03*
X102500000Y-49000000D03*
%TD*%
D13*
%TO.N,Net-(D1-K)*%
%TO.C,D1*%
X102250000Y-59500000D03*
D14*
%TO.N,LED_Red*%
X104790000Y-59500000D03*
%TD*%
D10*
%TO.N,Net-(D3-K)*%
%TO.C,R10*%
X111300000Y-75520000D03*
D11*
%TO.N,GND*%
X111300000Y-85680000D03*
%TD*%
D10*
%TO.N,Net-(D1-K)*%
%TO.C,R8*%
X107200000Y-75620000D03*
D11*
%TO.N,GND*%
X107200000Y-85780000D03*
%TD*%
D10*
%TO.N,VCC*%
%TO.C,R1*%
X127000000Y-60920000D03*
D11*
%TO.N,Net-(OP1-+)*%
X127000000Y-71080000D03*
%TD*%
D10*
%TO.N,Net-(C6-Pad2)*%
%TO.C,R7*%
X141420000Y-55250000D03*
D11*
%TO.N,/Vout*%
X151580000Y-55250000D03*
%TD*%
D10*
%TO.N,Net-(OP2--)*%
%TO.C,C6*%
X123250000Y-55500000D03*
%TO.N,Net-(C6-Pad2)*%
X128250000Y-55500000D03*
%TD*%
D12*
%TO.N,GND*%
%TO.C,J1*%
X157100000Y-83775000D03*
D17*
%TO.N,Net-(J1-Pin_2)*%
X157100000Y-81235000D03*
%TO.N,VCC*%
X157100000Y-78695000D03*
%TD*%
D12*
%TO.N,GND*%
%TO.C,TP4*%
X111500000Y-92250000D03*
%TD*%
%TO.N,unconnected-(J2-Pin_1-Pad1)*%
%TO.C,J2*%
X127940000Y-97460000D03*
D17*
%TO.N,unconnected-(J2-Pin_2-Pad2)*%
X130480000Y-97460000D03*
%TO.N,unconnected-(J2-Pin_3-Pad3)*%
X133020000Y-97460000D03*
%TO.N,unconnected-(J2-Pin_4-Pad4)*%
X135560000Y-97460000D03*
%TO.N,VCC*%
X138100000Y-97460000D03*
%TO.N,GND*%
X140640000Y-97460000D03*
X143180000Y-97460000D03*
%TO.N,unconnected-(J2-Pin_8-Pad8)*%
X145720000Y-97460000D03*
%TD*%
D12*
%TO.N,/Vout*%
%TO.C,J3*%
X150800000Y-97460000D03*
D17*
%TO.N,unconnected-(J3-Pin_2-Pad2)*%
X153340000Y-97460000D03*
%TO.N,unconnected-(J3-Pin_3-Pad3)*%
X155880000Y-97460000D03*
%TO.N,unconnected-(J3-Pin_4-Pad4)*%
X158420000Y-97460000D03*
%TO.N,unconnected-(J3-Pin_5-Pad5)*%
X160960000Y-97460000D03*
%TO.N,unconnected-(J3-Pin_6-Pad6)*%
X163500000Y-97460000D03*
%TD*%
D12*
%TO.N,unconnected-(J4-Pin_1-Pad1)*%
%TO.C,J4*%
X118796000Y-49200000D03*
D17*
%TO.N,unconnected-(J4-Pin_2-Pad2)*%
X121336000Y-49200000D03*
%TO.N,unconnected-(J4-Pin_3-Pad3)*%
X123876000Y-49200000D03*
%TO.N,GND*%
X126416000Y-49200000D03*
%TO.N,unconnected-(J4-Pin_5-Pad5)*%
X128956000Y-49200000D03*
%TO.N,unconnected-(J4-Pin_6-Pad6)*%
X131496000Y-49200000D03*
%TO.N,unconnected-(J4-Pin_7-Pad7)*%
X134036000Y-49200000D03*
%TO.N,unconnected-(J4-Pin_8-Pad8)*%
X136576000Y-49200000D03*
%TO.N,unconnected-(J4-Pin_9-Pad9)*%
X139116000Y-49200000D03*
%TO.N,unconnected-(J4-Pin_10-Pad10)*%
X141656000Y-49200000D03*
%TD*%
D12*
%TO.N,Push_Button*%
%TO.C,J5*%
X145720000Y-49200000D03*
D17*
%TO.N,LED_Red*%
X148260000Y-49200000D03*
%TO.N,LED_Orange*%
X150800000Y-49200000D03*
%TO.N,LED_Green*%
X153340000Y-49200000D03*
%TO.N,unconnected-(J5-Pin_5-Pad5)*%
X155880000Y-49200000D03*
%TO.N,unconnected-(J5-Pin_6-Pad6)*%
X158420000Y-49200000D03*
%TO.N,unconnected-(J5-Pin_7-Pad7)*%
X160960000Y-49200000D03*
%TO.N,unconnected-(J5-Pin_8-Pad8)*%
X163500000Y-49200000D03*
%TD*%
%TA.AperFunction,Conductor*%
%TO.N,VCC*%
G36*
X163484404Y-46755185D02*
G01*
X163505046Y-46771819D01*
X165928181Y-49194954D01*
X165961666Y-49256277D01*
X165964500Y-49282635D01*
X165964500Y-59344982D01*
X165964500Y-59375018D01*
X165975994Y-59402767D01*
X165975995Y-59402768D01*
X168468181Y-61894954D01*
X168501666Y-61956277D01*
X168504500Y-61982635D01*
X168504500Y-96107364D01*
X168484815Y-96174403D01*
X168468181Y-96195045D01*
X165997233Y-98665994D01*
X165975995Y-98687231D01*
X165964500Y-98714982D01*
X165964500Y-99231907D01*
X165963903Y-99244062D01*
X165952505Y-99359778D01*
X165947763Y-99383618D01*
X165917832Y-99482290D01*
X165915789Y-99489024D01*
X165906486Y-99511482D01*
X165854561Y-99608627D01*
X165841056Y-99628839D01*
X165771176Y-99713988D01*
X165753988Y-99731176D01*
X165668839Y-99801056D01*
X165648627Y-99814561D01*
X165551482Y-99866486D01*
X165529028Y-99875787D01*
X165487028Y-99888528D01*
X165423618Y-99907763D01*
X165399778Y-99912505D01*
X165291162Y-99923203D01*
X165284060Y-99923903D01*
X165271907Y-99924500D01*
X100768093Y-99924500D01*
X100755939Y-99923903D01*
X100747995Y-99923120D01*
X100640221Y-99912505D01*
X100616381Y-99907763D01*
X100599445Y-99902625D01*
X100510968Y-99875786D01*
X100488517Y-99866486D01*
X100391372Y-99814561D01*
X100371160Y-99801056D01*
X100286011Y-99731176D01*
X100268823Y-99713988D01*
X100198943Y-99628839D01*
X100185438Y-99608627D01*
X100133510Y-99511476D01*
X100124215Y-99489037D01*
X100092234Y-99383612D01*
X100087494Y-99359777D01*
X100076097Y-99244061D01*
X100075500Y-99231907D01*
X100075500Y-98358654D01*
X126581500Y-98358654D01*
X126588011Y-98419202D01*
X126588011Y-98419204D01*
X126639111Y-98556204D01*
X126726739Y-98673261D01*
X126843796Y-98760889D01*
X126980799Y-98811989D01*
X127008050Y-98814918D01*
X127041345Y-98818499D01*
X127041362Y-98818500D01*
X128838638Y-98818500D01*
X128838654Y-98818499D01*
X128865692Y-98815591D01*
X128899201Y-98811989D01*
X129036204Y-98760889D01*
X129153261Y-98673261D01*
X129240889Y-98556204D01*
X129286138Y-98434887D01*
X129328009Y-98378956D01*
X129393474Y-98354539D01*
X129461746Y-98369391D01*
X129493545Y-98394236D01*
X129556760Y-98462906D01*
X129734424Y-98601189D01*
X129734425Y-98601189D01*
X129734427Y-98601191D01*
X129861135Y-98669761D01*
X129932426Y-98708342D01*
X130145365Y-98781444D01*
X130367431Y-98818500D01*
X130592569Y-98818500D01*
X130814635Y-98781444D01*
X131027574Y-98708342D01*
X131225576Y-98601189D01*
X131403240Y-98462906D01*
X131524594Y-98331082D01*
X131555715Y-98297276D01*
X131555715Y-98297275D01*
X131555722Y-98297268D01*
X131646193Y-98158790D01*
X131699338Y-98113437D01*
X131768569Y-98104013D01*
X131831905Y-98133515D01*
X131853804Y-98158787D01*
X131944278Y-98297268D01*
X131944283Y-98297273D01*
X131944284Y-98297276D01*
X132070968Y-98434889D01*
X132096760Y-98462906D01*
X132274424Y-98601189D01*
X132274425Y-98601189D01*
X132274427Y-98601191D01*
X132401135Y-98669761D01*
X132472426Y-98708342D01*
X132685365Y-98781444D01*
X132907431Y-98818500D01*
X133132569Y-98818500D01*
X133354635Y-98781444D01*
X133567574Y-98708342D01*
X133765576Y-98601189D01*
X133943240Y-98462906D01*
X134064594Y-98331082D01*
X134095715Y-98297276D01*
X134095715Y-98297275D01*
X134095722Y-98297268D01*
X134186193Y-98158790D01*
X134239338Y-98113437D01*
X134308569Y-98104013D01*
X134371905Y-98133515D01*
X134393804Y-98158787D01*
X134484278Y-98297268D01*
X134484283Y-98297273D01*
X134484284Y-98297276D01*
X134610968Y-98434889D01*
X134636760Y-98462906D01*
X134814424Y-98601189D01*
X134814425Y-98601189D01*
X134814427Y-98601191D01*
X134941135Y-98669761D01*
X135012426Y-98708342D01*
X135225365Y-98781444D01*
X135447431Y-98818500D01*
X135672569Y-98818500D01*
X135894635Y-98781444D01*
X136107574Y-98708342D01*
X136305576Y-98601189D01*
X136483240Y-98462906D01*
X136604594Y-98331082D01*
X136635715Y-98297276D01*
X136635715Y-98297275D01*
X136635722Y-98297268D01*
X136729749Y-98153347D01*
X136782894Y-98107994D01*
X136852125Y-98098570D01*
X136915461Y-98128072D01*
X136935130Y-98150048D01*
X137061890Y-98331078D01*
X137228917Y-98498105D01*
X137422421Y-98633600D01*
X137636507Y-98733429D01*
X137636516Y-98733433D01*
X137850000Y-98790634D01*
X137850000Y-97893012D01*
X137907007Y-97925925D01*
X138034174Y-97960000D01*
X138165826Y-97960000D01*
X138292993Y-97925925D01*
X138350000Y-97893012D01*
X138350000Y-98790633D01*
X138563483Y-98733433D01*
X138563492Y-98733429D01*
X138777578Y-98633600D01*
X138971082Y-98498105D01*
X139138105Y-98331082D01*
X139264868Y-98150048D01*
X139319445Y-98106423D01*
X139388944Y-98099231D01*
X139451298Y-98130753D01*
X139470251Y-98153350D01*
X139564276Y-98297265D01*
X139564284Y-98297276D01*
X139690968Y-98434889D01*
X139716760Y-98462906D01*
X139894424Y-98601189D01*
X139894425Y-98601189D01*
X139894427Y-98601191D01*
X140021135Y-98669761D01*
X140092426Y-98708342D01*
X140305365Y-98781444D01*
X140527431Y-98818500D01*
X140752569Y-98818500D01*
X140974635Y-98781444D01*
X141187574Y-98708342D01*
X141385576Y-98601189D01*
X141563240Y-98462906D01*
X141684594Y-98331082D01*
X141715715Y-98297276D01*
X141715715Y-98297275D01*
X141715722Y-98297268D01*
X141806193Y-98158790D01*
X141859338Y-98113437D01*
X141928569Y-98104013D01*
X141991905Y-98133515D01*
X142013804Y-98158787D01*
X142104278Y-98297268D01*
X142104283Y-98297273D01*
X142104284Y-98297276D01*
X142230968Y-98434889D01*
X142256760Y-98462906D01*
X142434424Y-98601189D01*
X142434425Y-98601189D01*
X142434427Y-98601191D01*
X142561135Y-98669761D01*
X142632426Y-98708342D01*
X142845365Y-98781444D01*
X143067431Y-98818500D01*
X143292569Y-98818500D01*
X143514635Y-98781444D01*
X143727574Y-98708342D01*
X143925576Y-98601189D01*
X144103240Y-98462906D01*
X144224594Y-98331082D01*
X144255715Y-98297276D01*
X144255715Y-98297275D01*
X144255722Y-98297268D01*
X144346193Y-98158790D01*
X144399338Y-98113437D01*
X144468569Y-98104013D01*
X144531905Y-98133515D01*
X144553804Y-98158787D01*
X144644278Y-98297268D01*
X144644283Y-98297273D01*
X144644284Y-98297276D01*
X144770968Y-98434889D01*
X144796760Y-98462906D01*
X144974424Y-98601189D01*
X144974425Y-98601189D01*
X144974427Y-98601191D01*
X145101135Y-98669761D01*
X145172426Y-98708342D01*
X145385365Y-98781444D01*
X145607431Y-98818500D01*
X145832569Y-98818500D01*
X146054635Y-98781444D01*
X146267574Y-98708342D01*
X146465576Y-98601189D01*
X146643240Y-98462906D01*
X146739212Y-98358654D01*
X149441500Y-98358654D01*
X149448011Y-98419202D01*
X149448011Y-98419204D01*
X149499111Y-98556204D01*
X149586739Y-98673261D01*
X149703796Y-98760889D01*
X149840799Y-98811989D01*
X149868050Y-98814918D01*
X149901345Y-98818499D01*
X149901362Y-98818500D01*
X151698638Y-98818500D01*
X151698654Y-98818499D01*
X151725692Y-98815591D01*
X151759201Y-98811989D01*
X151896204Y-98760889D01*
X152013261Y-98673261D01*
X152100889Y-98556204D01*
X152146138Y-98434887D01*
X152188009Y-98378956D01*
X152253474Y-98354539D01*
X152321746Y-98369391D01*
X152353545Y-98394236D01*
X152416760Y-98462906D01*
X152594424Y-98601189D01*
X152594425Y-98601189D01*
X152594427Y-98601191D01*
X152721135Y-98669761D01*
X152792426Y-98708342D01*
X153005365Y-98781444D01*
X153227431Y-98818500D01*
X153452569Y-98818500D01*
X153674635Y-98781444D01*
X153887574Y-98708342D01*
X154085576Y-98601189D01*
X154263240Y-98462906D01*
X154384594Y-98331082D01*
X154415715Y-98297276D01*
X154415715Y-98297275D01*
X154415722Y-98297268D01*
X154506193Y-98158790D01*
X154559338Y-98113437D01*
X154628569Y-98104013D01*
X154691905Y-98133515D01*
X154713804Y-98158787D01*
X154804278Y-98297268D01*
X154804283Y-98297273D01*
X154804284Y-98297276D01*
X154930968Y-98434889D01*
X154956760Y-98462906D01*
X155134424Y-98601189D01*
X155134425Y-98601189D01*
X155134427Y-98601191D01*
X155261135Y-98669761D01*
X155332426Y-98708342D01*
X155545365Y-98781444D01*
X155767431Y-98818500D01*
X155992569Y-98818500D01*
X156214635Y-98781444D01*
X156427574Y-98708342D01*
X156625576Y-98601189D01*
X156803240Y-98462906D01*
X156924594Y-98331082D01*
X156955715Y-98297276D01*
X156955715Y-98297275D01*
X156955722Y-98297268D01*
X157046193Y-98158790D01*
X157099338Y-98113437D01*
X157168569Y-98104013D01*
X157231905Y-98133515D01*
X157253804Y-98158787D01*
X157344278Y-98297268D01*
X157344283Y-98297273D01*
X157344284Y-98297276D01*
X157470968Y-98434889D01*
X157496760Y-98462906D01*
X157674424Y-98601189D01*
X157674425Y-98601189D01*
X157674427Y-98601191D01*
X157801135Y-98669761D01*
X157872426Y-98708342D01*
X158085365Y-98781444D01*
X158307431Y-98818500D01*
X158532569Y-98818500D01*
X158754635Y-98781444D01*
X158967574Y-98708342D01*
X159165576Y-98601189D01*
X159343240Y-98462906D01*
X159464594Y-98331082D01*
X159495715Y-98297276D01*
X159495715Y-98297275D01*
X159495722Y-98297268D01*
X159586193Y-98158790D01*
X159639338Y-98113437D01*
X159708569Y-98104013D01*
X159771905Y-98133515D01*
X159793804Y-98158787D01*
X159884278Y-98297268D01*
X159884283Y-98297273D01*
X159884284Y-98297276D01*
X160010968Y-98434889D01*
X160036760Y-98462906D01*
X160214424Y-98601189D01*
X160214425Y-98601189D01*
X160214427Y-98601191D01*
X160341135Y-98669761D01*
X160412426Y-98708342D01*
X160625365Y-98781444D01*
X160847431Y-98818500D01*
X161072569Y-98818500D01*
X161294635Y-98781444D01*
X161507574Y-98708342D01*
X161705576Y-98601189D01*
X161883240Y-98462906D01*
X162004594Y-98331082D01*
X162035715Y-98297276D01*
X162035715Y-98297275D01*
X162035722Y-98297268D01*
X162126193Y-98158790D01*
X162179338Y-98113437D01*
X162248569Y-98104013D01*
X162311905Y-98133515D01*
X162333804Y-98158787D01*
X162424278Y-98297268D01*
X162424283Y-98297273D01*
X162424284Y-98297276D01*
X162550968Y-98434889D01*
X162576760Y-98462906D01*
X162754424Y-98601189D01*
X162754425Y-98601189D01*
X162754427Y-98601191D01*
X162881135Y-98669761D01*
X162952426Y-98708342D01*
X163165365Y-98781444D01*
X163387431Y-98818500D01*
X163612569Y-98818500D01*
X163834635Y-98781444D01*
X164047574Y-98708342D01*
X164245576Y-98601189D01*
X164423240Y-98462906D01*
X164544594Y-98331082D01*
X164575715Y-98297276D01*
X164575717Y-98297273D01*
X164575722Y-98297268D01*
X164698860Y-98108791D01*
X164789296Y-97902616D01*
X164844564Y-97684368D01*
X164847164Y-97652993D01*
X164863156Y-97460005D01*
X164863156Y-97459994D01*
X164844565Y-97235640D01*
X164844563Y-97235628D01*
X164789296Y-97017385D01*
X164779071Y-96994075D01*
X164698860Y-96811209D01*
X164682706Y-96786484D01*
X164575723Y-96622734D01*
X164575715Y-96622723D01*
X164423243Y-96457097D01*
X164423238Y-96457092D01*
X164245577Y-96318812D01*
X164245572Y-96318808D01*
X164047580Y-96211661D01*
X164047577Y-96211659D01*
X164047574Y-96211658D01*
X164047571Y-96211657D01*
X164047569Y-96211656D01*
X163834637Y-96138556D01*
X163612569Y-96101500D01*
X163387431Y-96101500D01*
X163165362Y-96138556D01*
X162952430Y-96211656D01*
X162952419Y-96211661D01*
X162754427Y-96318808D01*
X162754422Y-96318812D01*
X162576761Y-96457092D01*
X162576756Y-96457097D01*
X162424284Y-96622723D01*
X162424276Y-96622734D01*
X162333808Y-96761206D01*
X162280662Y-96806562D01*
X162211431Y-96815986D01*
X162148095Y-96786484D01*
X162126192Y-96761206D01*
X162035723Y-96622734D01*
X162035715Y-96622723D01*
X161883243Y-96457097D01*
X161883238Y-96457092D01*
X161705577Y-96318812D01*
X161705572Y-96318808D01*
X161507580Y-96211661D01*
X161507577Y-96211659D01*
X161507574Y-96211658D01*
X161507571Y-96211657D01*
X161507569Y-96211656D01*
X161294637Y-96138556D01*
X161072569Y-96101500D01*
X160847431Y-96101500D01*
X160625362Y-96138556D01*
X160412430Y-96211656D01*
X160412419Y-96211661D01*
X160214427Y-96318808D01*
X160214422Y-96318812D01*
X160036761Y-96457092D01*
X160036756Y-96457097D01*
X159884284Y-96622723D01*
X159884276Y-96622734D01*
X159793808Y-96761206D01*
X159740662Y-96806562D01*
X159671431Y-96815986D01*
X159608095Y-96786484D01*
X159586192Y-96761206D01*
X159495723Y-96622734D01*
X159495715Y-96622723D01*
X159343243Y-96457097D01*
X159343238Y-96457092D01*
X159165577Y-96318812D01*
X159165572Y-96318808D01*
X158967580Y-96211661D01*
X158967577Y-96211659D01*
X158967574Y-96211658D01*
X158967571Y-96211657D01*
X158967569Y-96211656D01*
X158754637Y-96138556D01*
X158532569Y-96101500D01*
X158307431Y-96101500D01*
X158085362Y-96138556D01*
X157872430Y-96211656D01*
X157872419Y-96211661D01*
X157674427Y-96318808D01*
X157674422Y-96318812D01*
X157496761Y-96457092D01*
X157496756Y-96457097D01*
X157344284Y-96622723D01*
X157344276Y-96622734D01*
X157253808Y-96761206D01*
X157200662Y-96806562D01*
X157131431Y-96815986D01*
X157068095Y-96786484D01*
X157046192Y-96761206D01*
X156955723Y-96622734D01*
X156955715Y-96622723D01*
X156803243Y-96457097D01*
X156803238Y-96457092D01*
X156625577Y-96318812D01*
X156625572Y-96318808D01*
X156427580Y-96211661D01*
X156427577Y-96211659D01*
X156427574Y-96211658D01*
X156427571Y-96211657D01*
X156427569Y-96211656D01*
X156214637Y-96138556D01*
X155992569Y-96101500D01*
X155767431Y-96101500D01*
X155545362Y-96138556D01*
X155332430Y-96211656D01*
X155332419Y-96211661D01*
X155134427Y-96318808D01*
X155134422Y-96318812D01*
X154956761Y-96457092D01*
X154956756Y-96457097D01*
X154804284Y-96622723D01*
X154804276Y-96622734D01*
X154713808Y-96761206D01*
X154660662Y-96806562D01*
X154591431Y-96815986D01*
X154528095Y-96786484D01*
X154506192Y-96761206D01*
X154415723Y-96622734D01*
X154415715Y-96622723D01*
X154263243Y-96457097D01*
X154263238Y-96457092D01*
X154085577Y-96318812D01*
X154085572Y-96318808D01*
X153887580Y-96211661D01*
X153887577Y-96211659D01*
X153887574Y-96211658D01*
X153887571Y-96211657D01*
X153887569Y-96211656D01*
X153674637Y-96138556D01*
X153452569Y-96101500D01*
X153227431Y-96101500D01*
X153005362Y-96138556D01*
X152792430Y-96211656D01*
X152792419Y-96211661D01*
X152594427Y-96318808D01*
X152594422Y-96318812D01*
X152416761Y-96457092D01*
X152353548Y-96525760D01*
X152293661Y-96561750D01*
X152223823Y-96559649D01*
X152166207Y-96520124D01*
X152146138Y-96485110D01*
X152100889Y-96363796D01*
X152067214Y-96318812D01*
X152013261Y-96246739D01*
X151896204Y-96159111D01*
X151895172Y-96158726D01*
X151759203Y-96108011D01*
X151698654Y-96101500D01*
X151698638Y-96101500D01*
X149901362Y-96101500D01*
X149901345Y-96101500D01*
X149840797Y-96108011D01*
X149840795Y-96108011D01*
X149703795Y-96159111D01*
X149586739Y-96246739D01*
X149499111Y-96363795D01*
X149448011Y-96500795D01*
X149448011Y-96500797D01*
X149441500Y-96561345D01*
X149441500Y-98358654D01*
X146739212Y-98358654D01*
X146764594Y-98331082D01*
X146795715Y-98297276D01*
X146795717Y-98297273D01*
X146795722Y-98297268D01*
X146918860Y-98108791D01*
X147009296Y-97902616D01*
X147064564Y-97684368D01*
X147067164Y-97652993D01*
X147083156Y-97460005D01*
X147083156Y-97459994D01*
X147064565Y-97235640D01*
X147064563Y-97235628D01*
X147009296Y-97017385D01*
X146999071Y-96994075D01*
X146918860Y-96811209D01*
X146902706Y-96786484D01*
X146795723Y-96622734D01*
X146795715Y-96622723D01*
X146643243Y-96457097D01*
X146643238Y-96457092D01*
X146465577Y-96318812D01*
X146465572Y-96318808D01*
X146267580Y-96211661D01*
X146267577Y-96211659D01*
X146267574Y-96211658D01*
X146267571Y-96211657D01*
X146267569Y-96211656D01*
X146054637Y-96138556D01*
X145832569Y-96101500D01*
X145607431Y-96101500D01*
X145385362Y-96138556D01*
X145172430Y-96211656D01*
X145172419Y-96211661D01*
X144974427Y-96318808D01*
X144974422Y-96318812D01*
X144796761Y-96457092D01*
X144796756Y-96457097D01*
X144644284Y-96622723D01*
X144644276Y-96622734D01*
X144553808Y-96761206D01*
X144500662Y-96806562D01*
X144431431Y-96815986D01*
X144368095Y-96786484D01*
X144346192Y-96761206D01*
X144255723Y-96622734D01*
X144255715Y-96622723D01*
X144103243Y-96457097D01*
X144103238Y-96457092D01*
X143925577Y-96318812D01*
X143925572Y-96318808D01*
X143727580Y-96211661D01*
X143727577Y-96211659D01*
X143727574Y-96211658D01*
X143727571Y-96211657D01*
X143727569Y-96211656D01*
X143514637Y-96138556D01*
X143292569Y-96101500D01*
X143067431Y-96101500D01*
X142845362Y-96138556D01*
X142632430Y-96211656D01*
X142632419Y-96211661D01*
X142434427Y-96318808D01*
X142434422Y-96318812D01*
X142256761Y-96457092D01*
X142256756Y-96457097D01*
X142104284Y-96622723D01*
X142104276Y-96622734D01*
X142013808Y-96761206D01*
X141960662Y-96806562D01*
X141891431Y-96815986D01*
X141828095Y-96786484D01*
X141806192Y-96761206D01*
X141715723Y-96622734D01*
X141715715Y-96622723D01*
X141563243Y-96457097D01*
X141563238Y-96457092D01*
X141385577Y-96318812D01*
X141385572Y-96318808D01*
X141187580Y-96211661D01*
X141187577Y-96211659D01*
X141187574Y-96211658D01*
X141187571Y-96211657D01*
X141187569Y-96211656D01*
X140974637Y-96138556D01*
X140752569Y-96101500D01*
X140527431Y-96101500D01*
X140305362Y-96138556D01*
X140092430Y-96211656D01*
X140092419Y-96211661D01*
X139894427Y-96318808D01*
X139894422Y-96318812D01*
X139716761Y-96457092D01*
X139716756Y-96457097D01*
X139564284Y-96622723D01*
X139564276Y-96622734D01*
X139470251Y-96766650D01*
X139417105Y-96812007D01*
X139347873Y-96821430D01*
X139284538Y-96791928D01*
X139264868Y-96769951D01*
X139138113Y-96588926D01*
X139138108Y-96588920D01*
X138971082Y-96421894D01*
X138777578Y-96286399D01*
X138563492Y-96186570D01*
X138563486Y-96186567D01*
X138350000Y-96129364D01*
X138350000Y-97026988D01*
X138292993Y-96994075D01*
X138165826Y-96960000D01*
X138034174Y-96960000D01*
X137907007Y-96994075D01*
X137850000Y-97026988D01*
X137850000Y-96129364D01*
X137849999Y-96129364D01*
X137636513Y-96186567D01*
X137636507Y-96186570D01*
X137422422Y-96286399D01*
X137422420Y-96286400D01*
X137228926Y-96421886D01*
X137228920Y-96421891D01*
X137061891Y-96588920D01*
X137061890Y-96588922D01*
X136935131Y-96769952D01*
X136880554Y-96813577D01*
X136811055Y-96820769D01*
X136748701Y-96789247D01*
X136729752Y-96766656D01*
X136635722Y-96622732D01*
X136635715Y-96622725D01*
X136635715Y-96622723D01*
X136483243Y-96457097D01*
X136483238Y-96457092D01*
X136305577Y-96318812D01*
X136305572Y-96318808D01*
X136107580Y-96211661D01*
X136107577Y-96211659D01*
X136107574Y-96211658D01*
X136107571Y-96211657D01*
X136107569Y-96211656D01*
X135894637Y-96138556D01*
X135672569Y-96101500D01*
X135447431Y-96101500D01*
X135225362Y-96138556D01*
X135012430Y-96211656D01*
X135012419Y-96211661D01*
X134814427Y-96318808D01*
X134814422Y-96318812D01*
X134636761Y-96457092D01*
X134636756Y-96457097D01*
X134484284Y-96622723D01*
X134484276Y-96622734D01*
X134393808Y-96761206D01*
X134340662Y-96806562D01*
X134271431Y-96815986D01*
X134208095Y-96786484D01*
X134186192Y-96761206D01*
X134095723Y-96622734D01*
X134095715Y-96622723D01*
X133943243Y-96457097D01*
X133943238Y-96457092D01*
X133765577Y-96318812D01*
X133765572Y-96318808D01*
X133567580Y-96211661D01*
X133567577Y-96211659D01*
X133567574Y-96211658D01*
X133567571Y-96211657D01*
X133567569Y-96211656D01*
X133354637Y-96138556D01*
X133132569Y-96101500D01*
X132907431Y-96101500D01*
X132685362Y-96138556D01*
X132472430Y-96211656D01*
X132472419Y-96211661D01*
X132274427Y-96318808D01*
X132274422Y-96318812D01*
X132096761Y-96457092D01*
X132096756Y-96457097D01*
X131944284Y-96622723D01*
X131944276Y-96622734D01*
X131853808Y-96761206D01*
X131800662Y-96806562D01*
X131731431Y-96815986D01*
X131668095Y-96786484D01*
X131646192Y-96761206D01*
X131555723Y-96622734D01*
X131555715Y-96622723D01*
X131403243Y-96457097D01*
X131403238Y-96457092D01*
X131225577Y-96318812D01*
X131225572Y-96318808D01*
X131027580Y-96211661D01*
X131027577Y-96211659D01*
X131027574Y-96211658D01*
X131027571Y-96211657D01*
X131027569Y-96211656D01*
X130814637Y-96138556D01*
X130592569Y-96101500D01*
X130367431Y-96101500D01*
X130145362Y-96138556D01*
X129932430Y-96211656D01*
X129932419Y-96211661D01*
X129734427Y-96318808D01*
X129734422Y-96318812D01*
X129556761Y-96457092D01*
X129493548Y-96525760D01*
X129433661Y-96561750D01*
X129363823Y-96559649D01*
X129306207Y-96520124D01*
X129286138Y-96485110D01*
X129240889Y-96363796D01*
X129207214Y-96318812D01*
X129153261Y-96246739D01*
X129036204Y-96159111D01*
X129035172Y-96158726D01*
X128899203Y-96108011D01*
X128838654Y-96101500D01*
X128838638Y-96101500D01*
X127041362Y-96101500D01*
X127041345Y-96101500D01*
X126980797Y-96108011D01*
X126980795Y-96108011D01*
X126843795Y-96159111D01*
X126726739Y-96246739D01*
X126639111Y-96363795D01*
X126588011Y-96500795D01*
X126588011Y-96500797D01*
X126581500Y-96561345D01*
X126581500Y-98358654D01*
X100075500Y-98358654D01*
X100075500Y-93198654D01*
X105841500Y-93198654D01*
X105848011Y-93259202D01*
X105848011Y-93259204D01*
X105885048Y-93358500D01*
X105899111Y-93396204D01*
X105986739Y-93513261D01*
X106103796Y-93600889D01*
X106240799Y-93651989D01*
X106268050Y-93654918D01*
X106301345Y-93658499D01*
X106301362Y-93658500D01*
X108098638Y-93658500D01*
X108098654Y-93658499D01*
X108125692Y-93655591D01*
X108159201Y-93651989D01*
X108296204Y-93600889D01*
X108413261Y-93513261D01*
X108500889Y-93396204D01*
X108551989Y-93259201D01*
X108556928Y-93213260D01*
X108558499Y-93198654D01*
X108558500Y-93198637D01*
X108558500Y-93148654D01*
X110141500Y-93148654D01*
X110148011Y-93209202D01*
X110148011Y-93209204D01*
X110182209Y-93300889D01*
X110199111Y-93346204D01*
X110286739Y-93463261D01*
X110403796Y-93550889D01*
X110540799Y-93601989D01*
X110568050Y-93604918D01*
X110601345Y-93608499D01*
X110601362Y-93608500D01*
X112398638Y-93608500D01*
X112398654Y-93608499D01*
X112425692Y-93605591D01*
X112459201Y-93601989D01*
X112596204Y-93550889D01*
X112713261Y-93463261D01*
X112800889Y-93346204D01*
X112851989Y-93209201D01*
X112855591Y-93175692D01*
X112858499Y-93148654D01*
X112858500Y-93148637D01*
X112858500Y-92898654D01*
X119141500Y-92898654D01*
X119148011Y-92959202D01*
X119148011Y-92959204D01*
X119199111Y-93096204D01*
X119286739Y-93213261D01*
X119403796Y-93300889D01*
X119540799Y-93351989D01*
X119568050Y-93354918D01*
X119601345Y-93358499D01*
X119601362Y-93358500D01*
X121398638Y-93358500D01*
X121398654Y-93358499D01*
X121425692Y-93355591D01*
X121459201Y-93351989D01*
X121596204Y-93300889D01*
X121713261Y-93213261D01*
X121800889Y-93096204D01*
X121851989Y-92959201D01*
X121855591Y-92925692D01*
X121858499Y-92898654D01*
X123891500Y-92898654D01*
X123898011Y-92959202D01*
X123898011Y-92959204D01*
X123949111Y-93096204D01*
X124036739Y-93213261D01*
X124153796Y-93300889D01*
X124290799Y-93351989D01*
X124318050Y-93354918D01*
X124351345Y-93358499D01*
X124351362Y-93358500D01*
X126148638Y-93358500D01*
X126148654Y-93358499D01*
X126175692Y-93355591D01*
X126209201Y-93351989D01*
X126346204Y-93300889D01*
X126463261Y-93213261D01*
X126550889Y-93096204D01*
X126601989Y-92959201D01*
X126605591Y-92925692D01*
X126608499Y-92898654D01*
X126608500Y-92898637D01*
X126608500Y-91101362D01*
X126608499Y-91101345D01*
X126605157Y-91070270D01*
X126601989Y-91040799D01*
X126586772Y-91000001D01*
X129856502Y-91000001D01*
X129876456Y-91228081D01*
X129876457Y-91228089D01*
X129935714Y-91449238D01*
X129935718Y-91449249D01*
X130032475Y-91656745D01*
X130032477Y-91656749D01*
X130163802Y-91844300D01*
X130325700Y-92006198D01*
X130513251Y-92137523D01*
X130638091Y-92195736D01*
X130720750Y-92234281D01*
X130720752Y-92234281D01*
X130720757Y-92234284D01*
X130941913Y-92293543D01*
X131104832Y-92307796D01*
X131169998Y-92313498D01*
X131170000Y-92313498D01*
X131170002Y-92313498D01*
X131227021Y-92308509D01*
X131398087Y-92293543D01*
X131619243Y-92234284D01*
X131826749Y-92137523D01*
X132014300Y-92006198D01*
X132176198Y-91844300D01*
X132307523Y-91656749D01*
X132404284Y-91449243D01*
X132463543Y-91228087D01*
X132483498Y-91000001D01*
X140016502Y-91000001D01*
X140036456Y-91228081D01*
X140036457Y-91228089D01*
X140095714Y-91449238D01*
X140095718Y-91449249D01*
X140192475Y-91656745D01*
X140192477Y-91656749D01*
X140323802Y-91844300D01*
X140485700Y-92006198D01*
X140673251Y-92137523D01*
X140798091Y-92195736D01*
X140880750Y-92234281D01*
X140880752Y-92234281D01*
X140880757Y-92234284D01*
X141101913Y-92293543D01*
X141264832Y-92307796D01*
X141329998Y-92313498D01*
X141330000Y-92313498D01*
X141330002Y-92313498D01*
X141387021Y-92308509D01*
X141558087Y-92293543D01*
X141779243Y-92234284D01*
X141986749Y-92137523D01*
X142174300Y-92006198D01*
X142336198Y-91844300D01*
X142467523Y-91656749D01*
X142564284Y-91449243D01*
X142623543Y-91228087D01*
X142643498Y-91000000D01*
X142625883Y-90798654D01*
X162041500Y-90798654D01*
X162048011Y-90859202D01*
X162048011Y-90859204D01*
X162081546Y-90949111D01*
X162099111Y-90996204D01*
X162186739Y-91113261D01*
X162303796Y-91200889D01*
X162440799Y-91251989D01*
X162468050Y-91254918D01*
X162501345Y-91258499D01*
X162501362Y-91258500D01*
X164298638Y-91258500D01*
X164298654Y-91258499D01*
X164325692Y-91255591D01*
X164359201Y-91251989D01*
X164496204Y-91200889D01*
X164613261Y-91113261D01*
X164700889Y-90996204D01*
X164751989Y-90859201D01*
X164755591Y-90825692D01*
X164758499Y-90798654D01*
X164758500Y-90798637D01*
X164758500Y-89001362D01*
X164758499Y-89001345D01*
X164755157Y-88970270D01*
X164751989Y-88940799D01*
X164740203Y-88909201D01*
X164717614Y-88848638D01*
X164700889Y-88803796D01*
X164613261Y-88686739D01*
X164496204Y-88599111D01*
X164359203Y-88548011D01*
X164298654Y-88541500D01*
X164298638Y-88541500D01*
X162501362Y-88541500D01*
X162501345Y-88541500D01*
X162440797Y-88548011D01*
X162440795Y-88548011D01*
X162303795Y-88599111D01*
X162186739Y-88686739D01*
X162099111Y-88803795D01*
X162048011Y-88940795D01*
X162048011Y-88940797D01*
X162041500Y-89001345D01*
X162041500Y-90798654D01*
X142625883Y-90798654D01*
X142623543Y-90771913D01*
X142564284Y-90550757D01*
X142467523Y-90343251D01*
X142336198Y-90155700D01*
X142174300Y-89993802D01*
X141986749Y-89862477D01*
X141986745Y-89862475D01*
X141779249Y-89765718D01*
X141779238Y-89765714D01*
X141558089Y-89706457D01*
X141558081Y-89706456D01*
X141330002Y-89686502D01*
X141329998Y-89686502D01*
X141101918Y-89706456D01*
X141101910Y-89706457D01*
X140880761Y-89765714D01*
X140880750Y-89765718D01*
X140673254Y-89862475D01*
X140673252Y-89862476D01*
X140673251Y-89862477D01*
X140485700Y-89993802D01*
X140485698Y-89993803D01*
X140485695Y-89993806D01*
X140323806Y-90155695D01*
X140192476Y-90343252D01*
X140192475Y-90343254D01*
X140095718Y-90550750D01*
X140095714Y-90550761D01*
X140036457Y-90771910D01*
X140036456Y-90771918D01*
X140016502Y-90999998D01*
X140016502Y-91000001D01*
X132483498Y-91000001D01*
X132483498Y-91000000D01*
X132463543Y-90771913D01*
X132404284Y-90550757D01*
X132307523Y-90343251D01*
X132176198Y-90155700D01*
X132014300Y-89993802D01*
X131826749Y-89862477D01*
X131826745Y-89862475D01*
X131619249Y-89765718D01*
X131619238Y-89765714D01*
X131398089Y-89706457D01*
X131398081Y-89706456D01*
X131170002Y-89686502D01*
X131169998Y-89686502D01*
X130941918Y-89706456D01*
X130941910Y-89706457D01*
X130720761Y-89765714D01*
X130720750Y-89765718D01*
X130513254Y-89862475D01*
X130513252Y-89862476D01*
X130513251Y-89862477D01*
X130325700Y-89993802D01*
X130325698Y-89993803D01*
X130325695Y-89993806D01*
X130163806Y-90155695D01*
X130032476Y-90343252D01*
X130032475Y-90343254D01*
X129935718Y-90550750D01*
X129935714Y-90550761D01*
X129876457Y-90771910D01*
X129876456Y-90771918D01*
X129856502Y-90999998D01*
X129856502Y-91000001D01*
X126586772Y-91000001D01*
X126550889Y-90903796D01*
X126463261Y-90786739D01*
X126346204Y-90699111D01*
X126209203Y-90648011D01*
X126148654Y-90641500D01*
X126148638Y-90641500D01*
X124351362Y-90641500D01*
X124351345Y-90641500D01*
X124290797Y-90648011D01*
X124290795Y-90648011D01*
X124153795Y-90699111D01*
X124036739Y-90786739D01*
X123949111Y-90903795D01*
X123898011Y-91040795D01*
X123898011Y-91040797D01*
X123891500Y-91101345D01*
X123891500Y-92898654D01*
X121858499Y-92898654D01*
X121858500Y-92898637D01*
X121858500Y-91101362D01*
X121858499Y-91101345D01*
X121855157Y-91070270D01*
X121851989Y-91040799D01*
X121800889Y-90903796D01*
X121713261Y-90786739D01*
X121596204Y-90699111D01*
X121459203Y-90648011D01*
X121398654Y-90641500D01*
X121398638Y-90641500D01*
X119601362Y-90641500D01*
X119601345Y-90641500D01*
X119540797Y-90648011D01*
X119540795Y-90648011D01*
X119403795Y-90699111D01*
X119286739Y-90786739D01*
X119199111Y-90903795D01*
X119148011Y-91040795D01*
X119148011Y-91040797D01*
X119141500Y-91101345D01*
X119141500Y-92898654D01*
X112858500Y-92898654D01*
X112858500Y-91351362D01*
X112858499Y-91351345D01*
X112855157Y-91320270D01*
X112851989Y-91290799D01*
X112837513Y-91251989D01*
X112818454Y-91200889D01*
X112800889Y-91153796D01*
X112713261Y-91036739D01*
X112596204Y-90949111D01*
X112593255Y-90948011D01*
X112459203Y-90898011D01*
X112398654Y-90891500D01*
X112398638Y-90891500D01*
X110601362Y-90891500D01*
X110601345Y-90891500D01*
X110540797Y-90898011D01*
X110540795Y-90898011D01*
X110403795Y-90949111D01*
X110286739Y-91036739D01*
X110199111Y-91153795D01*
X110148011Y-91290795D01*
X110148011Y-91290797D01*
X110141500Y-91351345D01*
X110141500Y-93148654D01*
X108558500Y-93148654D01*
X108558500Y-91401362D01*
X108558499Y-91401345D01*
X108555157Y-91370270D01*
X108551989Y-91340799D01*
X108500889Y-91203796D01*
X108413261Y-91086739D01*
X108296204Y-90999111D01*
X108288410Y-90996204D01*
X108159203Y-90948011D01*
X108098654Y-90941500D01*
X108098638Y-90941500D01*
X106301362Y-90941500D01*
X106301345Y-90941500D01*
X106240797Y-90948011D01*
X106240795Y-90948011D01*
X106103795Y-90999111D01*
X105986739Y-91086739D01*
X105899111Y-91203795D01*
X105848011Y-91340795D01*
X105848011Y-91340797D01*
X105841500Y-91401345D01*
X105841500Y-93198654D01*
X100075500Y-93198654D01*
X100075500Y-88848654D01*
X146491500Y-88848654D01*
X146498011Y-88909202D01*
X146498011Y-88909204D01*
X146534189Y-89006198D01*
X146549111Y-89046204D01*
X146636739Y-89163261D01*
X146753796Y-89250889D01*
X146890799Y-89301989D01*
X146918050Y-89304918D01*
X146951345Y-89308499D01*
X146951362Y-89308500D01*
X148648638Y-89308500D01*
X148648654Y-89308499D01*
X148675692Y-89305591D01*
X148709201Y-89301989D01*
X148846204Y-89250889D01*
X148963261Y-89163261D01*
X149050889Y-89046204D01*
X149068888Y-88997946D01*
X149104300Y-88903007D01*
X149146171Y-88847073D01*
X149211636Y-88822657D01*
X149279909Y-88837509D01*
X149308162Y-88858660D01*
X149455700Y-89006198D01*
X149643251Y-89137523D01*
X149698445Y-89163260D01*
X149850750Y-89234281D01*
X149850752Y-89234281D01*
X149850757Y-89234284D01*
X150071913Y-89293543D01*
X150234832Y-89307796D01*
X150299998Y-89313498D01*
X150300000Y-89313498D01*
X150300002Y-89313498D01*
X150357139Y-89308499D01*
X150528087Y-89293543D01*
X150749243Y-89234284D01*
X150956749Y-89137523D01*
X151144300Y-89006198D01*
X151306198Y-88844300D01*
X151437523Y-88656749D01*
X151534284Y-88449243D01*
X151593543Y-88228087D01*
X151613498Y-88000000D01*
X151593543Y-87771913D01*
X151534284Y-87550757D01*
X151437523Y-87343251D01*
X151306198Y-87155700D01*
X151144300Y-86993802D01*
X150956749Y-86862477D01*
X150917777Y-86844304D01*
X150749249Y-86765718D01*
X150749238Y-86765714D01*
X150528089Y-86706457D01*
X150528081Y-86706456D01*
X150300002Y-86686502D01*
X150299998Y-86686502D01*
X150071918Y-86706456D01*
X150071910Y-86706457D01*
X149850761Y-86765714D01*
X149850750Y-86765718D01*
X149643254Y-86862475D01*
X149643252Y-86862476D01*
X149607480Y-86887524D01*
X149456135Y-86993498D01*
X149455699Y-86993803D01*
X149308162Y-87141340D01*
X149246839Y-87174824D01*
X149177147Y-87169840D01*
X149121214Y-87127968D01*
X149104300Y-87096993D01*
X149065811Y-86993803D01*
X149050889Y-86953796D01*
X148963261Y-86836739D01*
X148846204Y-86749111D01*
X148709203Y-86698011D01*
X148648654Y-86691500D01*
X148648638Y-86691500D01*
X146951362Y-86691500D01*
X146951345Y-86691500D01*
X146890797Y-86698011D01*
X146890795Y-86698011D01*
X146753795Y-86749111D01*
X146636739Y-86836739D01*
X146549111Y-86953795D01*
X146498011Y-87090795D01*
X146498011Y-87090797D01*
X146491500Y-87151345D01*
X146491500Y-88848654D01*
X100075500Y-88848654D01*
X100075500Y-85680001D01*
X101386502Y-85680001D01*
X101406456Y-85908081D01*
X101406457Y-85908089D01*
X101465714Y-86129238D01*
X101465718Y-86129249D01*
X101511807Y-86228087D01*
X101562477Y-86336749D01*
X101693802Y-86524300D01*
X101855700Y-86686198D01*
X102043251Y-86817523D01*
X102139652Y-86862475D01*
X102250750Y-86914281D01*
X102250752Y-86914281D01*
X102250757Y-86914284D01*
X102471913Y-86973543D01*
X102634832Y-86987796D01*
X102699998Y-86993498D01*
X102700000Y-86993498D01*
X102700002Y-86993498D01*
X102757021Y-86988509D01*
X102928087Y-86973543D01*
X103149243Y-86914284D01*
X103356749Y-86817523D01*
X103544300Y-86686198D01*
X103706198Y-86524300D01*
X103837523Y-86336749D01*
X103934284Y-86129243D01*
X103993543Y-85908087D01*
X104004749Y-85780001D01*
X105886502Y-85780001D01*
X105906456Y-86008081D01*
X105906457Y-86008089D01*
X105965714Y-86229238D01*
X105965718Y-86229249D01*
X106048486Y-86406745D01*
X106062477Y-86436749D01*
X106193802Y-86624300D01*
X106355700Y-86786198D01*
X106543251Y-86917523D01*
X106663385Y-86973542D01*
X106750750Y-87014281D01*
X106750752Y-87014281D01*
X106750757Y-87014284D01*
X106971913Y-87073543D01*
X107134832Y-87087796D01*
X107199998Y-87093498D01*
X107200000Y-87093498D01*
X107200002Y-87093498D01*
X107257021Y-87088509D01*
X107428087Y-87073543D01*
X107649243Y-87014284D01*
X107856749Y-86917523D01*
X108044300Y-86786198D01*
X108206198Y-86624300D01*
X108337523Y-86436749D01*
X108434284Y-86229243D01*
X108493543Y-86008087D01*
X108513498Y-85780000D01*
X108512790Y-85771913D01*
X108504749Y-85680001D01*
X109986502Y-85680001D01*
X110006456Y-85908081D01*
X110006457Y-85908089D01*
X110065714Y-86129238D01*
X110065718Y-86129249D01*
X110111807Y-86228087D01*
X110162477Y-86336749D01*
X110293802Y-86524300D01*
X110455700Y-86686198D01*
X110643251Y-86817523D01*
X110739652Y-86862475D01*
X110850750Y-86914281D01*
X110850752Y-86914281D01*
X110850757Y-86914284D01*
X111071913Y-86973543D01*
X111234832Y-86987796D01*
X111299998Y-86993498D01*
X111300000Y-86993498D01*
X111300002Y-86993498D01*
X111357021Y-86988509D01*
X111528087Y-86973543D01*
X111749243Y-86914284D01*
X111956749Y-86817523D01*
X112144300Y-86686198D01*
X112306198Y-86524300D01*
X112437523Y-86336749D01*
X112534284Y-86129243D01*
X112593543Y-85908087D01*
X112607374Y-85750001D01*
X115356502Y-85750001D01*
X115376456Y-85978081D01*
X115376457Y-85978089D01*
X115435714Y-86199238D01*
X115435718Y-86199249D01*
X115532475Y-86406745D01*
X115532477Y-86406749D01*
X115663802Y-86594300D01*
X115825700Y-86756198D01*
X116013251Y-86887523D01*
X116070641Y-86914284D01*
X116220750Y-86984281D01*
X116220752Y-86984281D01*
X116220757Y-86984284D01*
X116441913Y-87043543D01*
X116604832Y-87057796D01*
X116669998Y-87063498D01*
X116670000Y-87063498D01*
X116670002Y-87063498D01*
X116727021Y-87058509D01*
X116898087Y-87043543D01*
X117119243Y-86984284D01*
X117326749Y-86887523D01*
X117514300Y-86756198D01*
X117676198Y-86594300D01*
X117807523Y-86406749D01*
X117904284Y-86199243D01*
X117963543Y-85978087D01*
X117983498Y-85750001D01*
X125516502Y-85750001D01*
X125536456Y-85978081D01*
X125536457Y-85978089D01*
X125595714Y-86199238D01*
X125595718Y-86199249D01*
X125692475Y-86406745D01*
X125692477Y-86406749D01*
X125823802Y-86594300D01*
X125985700Y-86756198D01*
X126173251Y-86887523D01*
X126230641Y-86914284D01*
X126380750Y-86984281D01*
X126380752Y-86984281D01*
X126380757Y-86984284D01*
X126601913Y-87043543D01*
X126764832Y-87057796D01*
X126829998Y-87063498D01*
X126830000Y-87063498D01*
X126830002Y-87063498D01*
X126887021Y-87058509D01*
X127058087Y-87043543D01*
X127279243Y-86984284D01*
X127486749Y-86887523D01*
X127674300Y-86756198D01*
X127836198Y-86594300D01*
X127967523Y-86406749D01*
X128064284Y-86199243D01*
X128117671Y-86000001D01*
X130106502Y-86000001D01*
X130126456Y-86228081D01*
X130126457Y-86228089D01*
X130185714Y-86449238D01*
X130185718Y-86449249D01*
X130267346Y-86624300D01*
X130282477Y-86656749D01*
X130413802Y-86844300D01*
X130575700Y-87006198D01*
X130763251Y-87137523D01*
X130843244Y-87174824D01*
X130970750Y-87234281D01*
X130970752Y-87234281D01*
X130970757Y-87234284D01*
X131191913Y-87293543D01*
X131354832Y-87307796D01*
X131419998Y-87313498D01*
X131420000Y-87313498D01*
X131420002Y-87313498D01*
X131477021Y-87308509D01*
X131648087Y-87293543D01*
X131869243Y-87234284D01*
X132076749Y-87137523D01*
X132264300Y-87006198D01*
X132426198Y-86844300D01*
X132557523Y-86656749D01*
X132654284Y-86449243D01*
X132713543Y-86228087D01*
X132732790Y-86008089D01*
X132733498Y-86000001D01*
X140266502Y-86000001D01*
X140286456Y-86228081D01*
X140286457Y-86228089D01*
X140345714Y-86449238D01*
X140345718Y-86449249D01*
X140427346Y-86624300D01*
X140442477Y-86656749D01*
X140573802Y-86844300D01*
X140735700Y-87006198D01*
X140923251Y-87137523D01*
X141003244Y-87174824D01*
X141130750Y-87234281D01*
X141130752Y-87234281D01*
X141130757Y-87234284D01*
X141351913Y-87293543D01*
X141514832Y-87307796D01*
X141579998Y-87313498D01*
X141580000Y-87313498D01*
X141580002Y-87313498D01*
X141637021Y-87308509D01*
X141808087Y-87293543D01*
X142029243Y-87234284D01*
X142236749Y-87137523D01*
X142424300Y-87006198D01*
X142586198Y-86844300D01*
X142717523Y-86656749D01*
X142814284Y-86449243D01*
X142873543Y-86228087D01*
X142892790Y-86008089D01*
X142893498Y-86000001D01*
X142893498Y-85999998D01*
X142885456Y-85908081D01*
X142873543Y-85771913D01*
X142814284Y-85550757D01*
X142717523Y-85343251D01*
X142586198Y-85155700D01*
X142424300Y-84993802D01*
X142236749Y-84862477D01*
X142236745Y-84862475D01*
X142029249Y-84765718D01*
X142029238Y-84765714D01*
X141808089Y-84706457D01*
X141808081Y-84706456D01*
X141580002Y-84686502D01*
X141579998Y-84686502D01*
X141351918Y-84706456D01*
X141351910Y-84706457D01*
X141130761Y-84765714D01*
X141130750Y-84765718D01*
X140923254Y-84862475D01*
X140923252Y-84862476D01*
X140861529Y-84905695D01*
X140735700Y-84993802D01*
X140735698Y-84993803D01*
X140735695Y-84993806D01*
X140573806Y-85155695D01*
X140573803Y-85155698D01*
X140573802Y-85155700D01*
X140521244Y-85230761D01*
X140442476Y-85343252D01*
X140442475Y-85343254D01*
X140345718Y-85550750D01*
X140345714Y-85550761D01*
X140286457Y-85771910D01*
X140286456Y-85771918D01*
X140266502Y-85999998D01*
X140266502Y-86000001D01*
X132733498Y-86000001D01*
X132733498Y-85999998D01*
X132725456Y-85908081D01*
X132713543Y-85771913D01*
X132654284Y-85550757D01*
X132557523Y-85343251D01*
X132426198Y-85155700D01*
X132264300Y-84993802D01*
X132076749Y-84862477D01*
X132076745Y-84862475D01*
X131869249Y-84765718D01*
X131869238Y-84765714D01*
X131648089Y-84706457D01*
X131648081Y-84706456D01*
X131420002Y-84686502D01*
X131419998Y-84686502D01*
X131191918Y-84706456D01*
X131191910Y-84706457D01*
X130970761Y-84765714D01*
X130970750Y-84765718D01*
X130763254Y-84862475D01*
X130763252Y-84862476D01*
X130701529Y-84905695D01*
X130575700Y-84993802D01*
X130575698Y-84993803D01*
X130575695Y-84993806D01*
X130413806Y-85155695D01*
X130413803Y-85155698D01*
X130413802Y-85155700D01*
X130361244Y-85230761D01*
X130282476Y-85343252D01*
X130282475Y-85343254D01*
X130185718Y-85550750D01*
X130185714Y-85550761D01*
X130126457Y-85771910D01*
X130126456Y-85771918D01*
X130106502Y-85999998D01*
X130106502Y-86000001D01*
X128117671Y-86000001D01*
X128123543Y-85978087D01*
X128143498Y-85750000D01*
X128123543Y-85521913D01*
X128064284Y-85300757D01*
X127967523Y-85093251D01*
X127836198Y-84905700D01*
X127674300Y-84743802D01*
X127486749Y-84612477D01*
X127486745Y-84612475D01*
X127279249Y-84515718D01*
X127279238Y-84515714D01*
X127058089Y-84456457D01*
X127058081Y-84456456D01*
X126830002Y-84436502D01*
X126829998Y-84436502D01*
X126601918Y-84456456D01*
X126601910Y-84456457D01*
X126380761Y-84515714D01*
X126380750Y-84515718D01*
X126173254Y-84612475D01*
X126173252Y-84612476D01*
X126130408Y-84642476D01*
X125985700Y-84743802D01*
X125985698Y-84743803D01*
X125985695Y-84743806D01*
X125823806Y-84905695D01*
X125823803Y-84905698D01*
X125823802Y-84905700D01*
X125802796Y-84935700D01*
X125692476Y-85093252D01*
X125692475Y-85093254D01*
X125595718Y-85300750D01*
X125595714Y-85300761D01*
X125536457Y-85521910D01*
X125536456Y-85521918D01*
X125516502Y-85749998D01*
X125516502Y-85750001D01*
X117983498Y-85750001D01*
X117983498Y-85750000D01*
X117963543Y-85521913D01*
X117904284Y-85300757D01*
X117807523Y-85093251D01*
X117676198Y-84905700D01*
X117514300Y-84743802D01*
X117326749Y-84612477D01*
X117326745Y-84612475D01*
X117119249Y-84515718D01*
X117119238Y-84515714D01*
X116898089Y-84456457D01*
X116898081Y-84456456D01*
X116670002Y-84436502D01*
X116669998Y-84436502D01*
X116441918Y-84456456D01*
X116441910Y-84456457D01*
X116220761Y-84515714D01*
X116220750Y-84515718D01*
X116013254Y-84612475D01*
X116013252Y-84612476D01*
X115970408Y-84642476D01*
X115825700Y-84743802D01*
X115825698Y-84743803D01*
X115825695Y-84743806D01*
X115663806Y-84905695D01*
X115663803Y-84905698D01*
X115663802Y-84905700D01*
X115642796Y-84935700D01*
X115532476Y-85093252D01*
X115532475Y-85093254D01*
X115435718Y-85300750D01*
X115435714Y-85300761D01*
X115376457Y-85521910D01*
X115376456Y-85521918D01*
X115356502Y-85749998D01*
X115356502Y-85750001D01*
X112607374Y-85750001D01*
X112613498Y-85680000D01*
X112593543Y-85451913D01*
X112534284Y-85230757D01*
X112437523Y-85023251D01*
X112306198Y-84835700D01*
X112144300Y-84673802D01*
X111956749Y-84542477D01*
X111899364Y-84515718D01*
X111749249Y-84445718D01*
X111749238Y-84445714D01*
X111528089Y-84386457D01*
X111528081Y-84386456D01*
X111300002Y-84366502D01*
X111299998Y-84366502D01*
X111071918Y-84386456D01*
X111071910Y-84386457D01*
X110850761Y-84445714D01*
X110850750Y-84445718D01*
X110643254Y-84542475D01*
X110643252Y-84542476D01*
X110643251Y-84542477D01*
X110455700Y-84673802D01*
X110455698Y-84673803D01*
X110455695Y-84673806D01*
X110293806Y-84835695D01*
X110293803Y-84835698D01*
X110293802Y-84835700D01*
X110223785Y-84935695D01*
X110162476Y-85023252D01*
X110162475Y-85023254D01*
X110065718Y-85230750D01*
X110065714Y-85230761D01*
X110006457Y-85451910D01*
X110006456Y-85451918D01*
X109986502Y-85679998D01*
X109986502Y-85680001D01*
X108504749Y-85680001D01*
X108493543Y-85551918D01*
X108493543Y-85551913D01*
X108434284Y-85330757D01*
X108337523Y-85123251D01*
X108206198Y-84935700D01*
X108044300Y-84773802D01*
X107856749Y-84642477D01*
X107856745Y-84642475D01*
X107649249Y-84545718D01*
X107649238Y-84545714D01*
X107428089Y-84486457D01*
X107428081Y-84486456D01*
X107200002Y-84466502D01*
X107199998Y-84466502D01*
X106971918Y-84486456D01*
X106971910Y-84486457D01*
X106750761Y-84545714D01*
X106750750Y-84545718D01*
X106543254Y-84642475D01*
X106543252Y-84642476D01*
X106498726Y-84673654D01*
X106355700Y-84773802D01*
X106355698Y-84773803D01*
X106355695Y-84773806D01*
X106193806Y-84935695D01*
X106193803Y-84935698D01*
X106193802Y-84935700D01*
X106153116Y-84993806D01*
X106062476Y-85123252D01*
X106062475Y-85123254D01*
X105965718Y-85330750D01*
X105965714Y-85330761D01*
X105906457Y-85551910D01*
X105906456Y-85551918D01*
X105886502Y-85779998D01*
X105886502Y-85780001D01*
X104004749Y-85780001D01*
X104013498Y-85680000D01*
X103993543Y-85451913D01*
X103934284Y-85230757D01*
X103837523Y-85023251D01*
X103706198Y-84835700D01*
X103544300Y-84673802D01*
X103356749Y-84542477D01*
X103299364Y-84515718D01*
X103149249Y-84445718D01*
X103149238Y-84445714D01*
X102928089Y-84386457D01*
X102928081Y-84386456D01*
X102700002Y-84366502D01*
X102699998Y-84366502D01*
X102471918Y-84386456D01*
X102471910Y-84386457D01*
X102250761Y-84445714D01*
X102250750Y-84445718D01*
X102043254Y-84542475D01*
X102043252Y-84542476D01*
X102043251Y-84542477D01*
X101855700Y-84673802D01*
X101855698Y-84673803D01*
X101855695Y-84673806D01*
X101693806Y-84835695D01*
X101693803Y-84835698D01*
X101693802Y-84835700D01*
X101623785Y-84935695D01*
X101562476Y-85023252D01*
X101562475Y-85023254D01*
X101465718Y-85230750D01*
X101465714Y-85230761D01*
X101406457Y-85451910D01*
X101406456Y-85451918D01*
X101386502Y-85679998D01*
X101386502Y-85680001D01*
X100075500Y-85680001D01*
X100075500Y-81398654D01*
X131141500Y-81398654D01*
X131148011Y-81459202D01*
X131148011Y-81459204D01*
X131184189Y-81556198D01*
X131199111Y-81596204D01*
X131286739Y-81713261D01*
X131403796Y-81800889D01*
X131540799Y-81851989D01*
X131568050Y-81854918D01*
X131601345Y-81858499D01*
X131601362Y-81858500D01*
X133298638Y-81858500D01*
X133298654Y-81858499D01*
X133325692Y-81855591D01*
X133359201Y-81851989D01*
X133496204Y-81800889D01*
X133613261Y-81713261D01*
X133700889Y-81596204D01*
X133751989Y-81459201D01*
X133753569Y-81444500D01*
X133780304Y-81379952D01*
X133837695Y-81340102D01*
X133907521Y-81337606D01*
X133967611Y-81373257D01*
X133978428Y-81386626D01*
X133983802Y-81394300D01*
X134145700Y-81556198D01*
X134333251Y-81687523D01*
X134388445Y-81713260D01*
X134540750Y-81784281D01*
X134540752Y-81784281D01*
X134540757Y-81784284D01*
X134761913Y-81843543D01*
X134924832Y-81857796D01*
X134989998Y-81863498D01*
X134990000Y-81863498D01*
X134990002Y-81863498D01*
X135047139Y-81858499D01*
X135218087Y-81843543D01*
X135439243Y-81784284D01*
X135646749Y-81687523D01*
X135834300Y-81556198D01*
X135996198Y-81394300D01*
X136127523Y-81206749D01*
X136147618Y-81163655D01*
X136193790Y-81111215D01*
X136260983Y-81092063D01*
X136327864Y-81112278D01*
X136372382Y-81163655D01*
X136392477Y-81206749D01*
X136523802Y-81394300D01*
X136685700Y-81556198D01*
X136873251Y-81687523D01*
X136928445Y-81713260D01*
X137080750Y-81784281D01*
X137080752Y-81784281D01*
X137080757Y-81784284D01*
X137301913Y-81843543D01*
X137464832Y-81857796D01*
X137529998Y-81863498D01*
X137530000Y-81863498D01*
X137530002Y-81863498D01*
X137587139Y-81858499D01*
X137758087Y-81843543D01*
X137979243Y-81784284D01*
X138186749Y-81687523D01*
X138374300Y-81556198D01*
X138536198Y-81394300D01*
X138667523Y-81206749D01*
X138687618Y-81163655D01*
X138733790Y-81111215D01*
X138800983Y-81092063D01*
X138867864Y-81112278D01*
X138912382Y-81163655D01*
X138932477Y-81206749D01*
X139063802Y-81394300D01*
X139225700Y-81556198D01*
X139413251Y-81687523D01*
X139468445Y-81713260D01*
X139620750Y-81784281D01*
X139620752Y-81784281D01*
X139620757Y-81784284D01*
X139841913Y-81843543D01*
X140004832Y-81857796D01*
X140069998Y-81863498D01*
X140070000Y-81863498D01*
X140070002Y-81863498D01*
X140127139Y-81858499D01*
X140298087Y-81843543D01*
X140519243Y-81784284D01*
X140726749Y-81687523D01*
X140914300Y-81556198D01*
X141076198Y-81394300D01*
X141187738Y-81235005D01*
X155736844Y-81235005D01*
X155755434Y-81459359D01*
X155755436Y-81459371D01*
X155810703Y-81677614D01*
X155901140Y-81883792D01*
X156024276Y-82072265D01*
X156024284Y-82072276D01*
X156169489Y-82230008D01*
X156200412Y-82292662D01*
X156192552Y-82362088D01*
X156148405Y-82416244D01*
X156121596Y-82430172D01*
X156003794Y-82474111D01*
X155886739Y-82561739D01*
X155799111Y-82678795D01*
X155748011Y-82815795D01*
X155748011Y-82815797D01*
X155741500Y-82876345D01*
X155741500Y-84673654D01*
X155748011Y-84734202D01*
X155748011Y-84734204D01*
X155795855Y-84862475D01*
X155799111Y-84871204D01*
X155886739Y-84988261D01*
X156003796Y-85075889D01*
X156140799Y-85126989D01*
X156168050Y-85129918D01*
X156201345Y-85133499D01*
X156201362Y-85133500D01*
X157998638Y-85133500D01*
X157998654Y-85133499D01*
X158025692Y-85130591D01*
X158059201Y-85126989D01*
X158196204Y-85075889D01*
X158313261Y-84988261D01*
X158400889Y-84871204D01*
X158446555Y-84748768D01*
X158451988Y-84734204D01*
X158451988Y-84734203D01*
X158451989Y-84734201D01*
X158457117Y-84686502D01*
X158458499Y-84673654D01*
X158458500Y-84673637D01*
X158458500Y-82876362D01*
X158458499Y-82876345D01*
X158455157Y-82845270D01*
X158451989Y-82815799D01*
X158400889Y-82678796D01*
X158313261Y-82561739D01*
X158196204Y-82474111D01*
X158078404Y-82430172D01*
X158022471Y-82388300D01*
X157998055Y-82322835D01*
X158012908Y-82254562D01*
X158030504Y-82230014D01*
X158175722Y-82072268D01*
X158298860Y-81883791D01*
X158389296Y-81677616D01*
X158444564Y-81459368D01*
X158444565Y-81459359D01*
X158463156Y-81235005D01*
X158463156Y-81234994D01*
X158444565Y-81010640D01*
X158444563Y-81010628D01*
X158413389Y-80887524D01*
X158389296Y-80792384D01*
X158298860Y-80586209D01*
X158175722Y-80397732D01*
X158175719Y-80397729D01*
X158175715Y-80397723D01*
X158023243Y-80232097D01*
X158023238Y-80232092D01*
X157854491Y-80100750D01*
X157845577Y-80093811D01*
X157802303Y-80070393D01*
X157752713Y-80021173D01*
X157737605Y-79952957D01*
X157761775Y-79887401D01*
X157790198Y-79859763D01*
X157971079Y-79733108D01*
X158138105Y-79566082D01*
X158273600Y-79372578D01*
X158373429Y-79158492D01*
X158373432Y-79158486D01*
X158430636Y-78945000D01*
X157533012Y-78945000D01*
X157565925Y-78887993D01*
X157600000Y-78760826D01*
X157600000Y-78629174D01*
X157565925Y-78502007D01*
X157533012Y-78445000D01*
X158430636Y-78445000D01*
X158430635Y-78444999D01*
X158373432Y-78231513D01*
X158373429Y-78231507D01*
X158273600Y-78017422D01*
X158273599Y-78017420D01*
X158138113Y-77823926D01*
X158138108Y-77823920D01*
X157971082Y-77656894D01*
X157777578Y-77521399D01*
X157563492Y-77421570D01*
X157563486Y-77421567D01*
X157350000Y-77364364D01*
X157350000Y-78261988D01*
X157292993Y-78229075D01*
X157165826Y-78195000D01*
X157034174Y-78195000D01*
X156907007Y-78229075D01*
X156850000Y-78261988D01*
X156850000Y-77364364D01*
X156849999Y-77364364D01*
X156636513Y-77421567D01*
X156636507Y-77421570D01*
X156422422Y-77521399D01*
X156422420Y-77521400D01*
X156228926Y-77656886D01*
X156228920Y-77656891D01*
X156061891Y-77823920D01*
X156061886Y-77823926D01*
X155926400Y-78017420D01*
X155926399Y-78017422D01*
X155826570Y-78231507D01*
X155826567Y-78231513D01*
X155769364Y-78444999D01*
X155769364Y-78445000D01*
X156666988Y-78445000D01*
X156634075Y-78502007D01*
X156600000Y-78629174D01*
X156600000Y-78760826D01*
X156634075Y-78887993D01*
X156666988Y-78945000D01*
X155769364Y-78945000D01*
X155826567Y-79158486D01*
X155826570Y-79158492D01*
X155926399Y-79372578D01*
X156061894Y-79566082D01*
X156228917Y-79733105D01*
X156409802Y-79859763D01*
X156453427Y-79914340D01*
X156460619Y-79983839D01*
X156429097Y-80046193D01*
X156397697Y-80070392D01*
X156354427Y-80093809D01*
X156354422Y-80093812D01*
X156176761Y-80232092D01*
X156176756Y-80232097D01*
X156024284Y-80397723D01*
X156024276Y-80397734D01*
X155901140Y-80586207D01*
X155810703Y-80792385D01*
X155755436Y-81010628D01*
X155755434Y-81010640D01*
X155736844Y-81234994D01*
X155736844Y-81235005D01*
X141187738Y-81235005D01*
X141207523Y-81206749D01*
X141304284Y-80999243D01*
X141363543Y-80778087D01*
X141383498Y-80550000D01*
X141363543Y-80321913D01*
X141304284Y-80100757D01*
X141207523Y-79893251D01*
X141076198Y-79705700D01*
X140914300Y-79543802D01*
X140726749Y-79412477D01*
X140726745Y-79412475D01*
X140519249Y-79315718D01*
X140519238Y-79315714D01*
X140298089Y-79256457D01*
X140298081Y-79256456D01*
X140224299Y-79250001D01*
X145186502Y-79250001D01*
X145206456Y-79478081D01*
X145206457Y-79478089D01*
X145265714Y-79699238D01*
X145265718Y-79699249D01*
X145295998Y-79764184D01*
X145362477Y-79906749D01*
X145493802Y-80094300D01*
X145655700Y-80256198D01*
X145843251Y-80387523D01*
X145884482Y-80406749D01*
X146050750Y-80484281D01*
X146050752Y-80484281D01*
X146050757Y-80484284D01*
X146271913Y-80543543D01*
X146434832Y-80557796D01*
X146499998Y-80563498D01*
X146500000Y-80563498D01*
X146500002Y-80563498D01*
X146557021Y-80558509D01*
X146728087Y-80543543D01*
X146949243Y-80484284D01*
X147156749Y-80387523D01*
X147344300Y-80256198D01*
X147506198Y-80094300D01*
X147637523Y-79906749D01*
X147734284Y-79699243D01*
X147793543Y-79478087D01*
X147813498Y-79250000D01*
X147793543Y-79021913D01*
X147734284Y-78800757D01*
X147707727Y-78743806D01*
X147646488Y-78612477D01*
X147637523Y-78593251D01*
X147506198Y-78405700D01*
X147344300Y-78243802D01*
X147156749Y-78112477D01*
X147156745Y-78112475D01*
X146949249Y-78015718D01*
X146949238Y-78015714D01*
X146728089Y-77956457D01*
X146728081Y-77956456D01*
X146500002Y-77936502D01*
X146499998Y-77936502D01*
X146271918Y-77956456D01*
X146271910Y-77956457D01*
X146050761Y-78015714D01*
X146050750Y-78015718D01*
X145843254Y-78112475D01*
X145843252Y-78112476D01*
X145843251Y-78112477D01*
X145655700Y-78243802D01*
X145655698Y-78243803D01*
X145655695Y-78243806D01*
X145493806Y-78405695D01*
X145493803Y-78405698D01*
X145493802Y-78405700D01*
X145426367Y-78502007D01*
X145362476Y-78593252D01*
X145362475Y-78593254D01*
X145265718Y-78800750D01*
X145265714Y-78800761D01*
X145206457Y-79021910D01*
X145206456Y-79021918D01*
X145186502Y-79249998D01*
X145186502Y-79250001D01*
X140224299Y-79250001D01*
X140070002Y-79236502D01*
X140069998Y-79236502D01*
X139841918Y-79256456D01*
X139841910Y-79256457D01*
X139620761Y-79315714D01*
X139620750Y-79315718D01*
X139413254Y-79412475D01*
X139413252Y-79412476D01*
X139413251Y-79412477D01*
X139225700Y-79543802D01*
X139225698Y-79543803D01*
X139225695Y-79543806D01*
X139063806Y-79705695D01*
X138932476Y-79893251D01*
X138912382Y-79936345D01*
X138866209Y-79988784D01*
X138799016Y-80007936D01*
X138732135Y-79987720D01*
X138687618Y-79936345D01*
X138667523Y-79893251D01*
X138644074Y-79859763D01*
X138536198Y-79705700D01*
X138374300Y-79543802D01*
X138186749Y-79412477D01*
X138186745Y-79412475D01*
X137979249Y-79315718D01*
X137979238Y-79315714D01*
X137758089Y-79256457D01*
X137758081Y-79256456D01*
X137530002Y-79236502D01*
X137529998Y-79236502D01*
X137301918Y-79256456D01*
X137301910Y-79256457D01*
X137080761Y-79315714D01*
X137080750Y-79315718D01*
X136873254Y-79412475D01*
X136873252Y-79412476D01*
X136873251Y-79412477D01*
X136685700Y-79543802D01*
X136685698Y-79543803D01*
X136685695Y-79543806D01*
X136523806Y-79705695D01*
X136392476Y-79893251D01*
X136372382Y-79936345D01*
X136326209Y-79988784D01*
X136259016Y-80007936D01*
X136192135Y-79987720D01*
X136147618Y-79936345D01*
X136127523Y-79893251D01*
X136104074Y-79859763D01*
X135996198Y-79705700D01*
X135834300Y-79543802D01*
X135646749Y-79412477D01*
X135646745Y-79412475D01*
X135439249Y-79315718D01*
X135439238Y-79315714D01*
X135218089Y-79256457D01*
X135218081Y-79256456D01*
X134990002Y-79236502D01*
X134989998Y-79236502D01*
X134761918Y-79256456D01*
X134761910Y-79256457D01*
X134540761Y-79315714D01*
X134540750Y-79315718D01*
X134333254Y-79412475D01*
X134333252Y-79412476D01*
X134333251Y-79412477D01*
X134145700Y-79543802D01*
X134145698Y-79543803D01*
X134145695Y-79543806D01*
X133983805Y-79705696D01*
X133978429Y-79713374D01*
X133923849Y-79756995D01*
X133854350Y-79764184D01*
X133791997Y-79732658D01*
X133756587Y-79672426D01*
X133753570Y-79655510D01*
X133751989Y-79640799D01*
X133700889Y-79503796D01*
X133613261Y-79386739D01*
X133496204Y-79299111D01*
X133359203Y-79248011D01*
X133298654Y-79241500D01*
X133298638Y-79241500D01*
X131601362Y-79241500D01*
X131601345Y-79241500D01*
X131540797Y-79248011D01*
X131540795Y-79248011D01*
X131403795Y-79299111D01*
X131286739Y-79386739D01*
X131199111Y-79503795D01*
X131148011Y-79640795D01*
X131148011Y-79640797D01*
X131141500Y-79701345D01*
X131141500Y-81398654D01*
X100075500Y-81398654D01*
X100075500Y-79750001D01*
X125686502Y-79750001D01*
X125706456Y-79978081D01*
X125706457Y-79978089D01*
X125765714Y-80199238D01*
X125765718Y-80199249D01*
X125822920Y-80321918D01*
X125862477Y-80406749D01*
X125993802Y-80594300D01*
X126155700Y-80756198D01*
X126343251Y-80887523D01*
X126468091Y-80945736D01*
X126550750Y-80984281D01*
X126550752Y-80984281D01*
X126550757Y-80984284D01*
X126771913Y-81043543D01*
X126934832Y-81057796D01*
X126999998Y-81063498D01*
X127000000Y-81063498D01*
X127000002Y-81063498D01*
X127057021Y-81058509D01*
X127228087Y-81043543D01*
X127449243Y-80984284D01*
X127656749Y-80887523D01*
X127844300Y-80756198D01*
X128006198Y-80594300D01*
X128137523Y-80406749D01*
X128234284Y-80199243D01*
X128293543Y-79978087D01*
X128313498Y-79750000D01*
X128293543Y-79521913D01*
X128234284Y-79300757D01*
X128233516Y-79299111D01*
X128167942Y-79158486D01*
X128137523Y-79093251D01*
X128006198Y-78905700D01*
X127844300Y-78743802D01*
X127656749Y-78612477D01*
X127615521Y-78593252D01*
X127449249Y-78515718D01*
X127449238Y-78515714D01*
X127228089Y-78456457D01*
X127228081Y-78456456D01*
X127000002Y-78436502D01*
X126999998Y-78436502D01*
X126771918Y-78456456D01*
X126771910Y-78456457D01*
X126550761Y-78515714D01*
X126550750Y-78515718D01*
X126343254Y-78612475D01*
X126343252Y-78612476D01*
X126343251Y-78612477D01*
X126155700Y-78743802D01*
X126155698Y-78743803D01*
X126155695Y-78743806D01*
X125993806Y-78905695D01*
X125862476Y-79093252D01*
X125862475Y-79093254D01*
X125765718Y-79300750D01*
X125765714Y-79300761D01*
X125706457Y-79521910D01*
X125706456Y-79521918D01*
X125686502Y-79749998D01*
X125686502Y-79750001D01*
X100075500Y-79750001D01*
X100075500Y-75520001D01*
X101386502Y-75520001D01*
X101406456Y-75748081D01*
X101406457Y-75748089D01*
X101465714Y-75969238D01*
X101465718Y-75969249D01*
X101551979Y-76154236D01*
X101562477Y-76176749D01*
X101693802Y-76364300D01*
X101855700Y-76526198D01*
X102043251Y-76657523D01*
X102168091Y-76715736D01*
X102250750Y-76754281D01*
X102250752Y-76754281D01*
X102250757Y-76754284D01*
X102471913Y-76813543D01*
X102634832Y-76827796D01*
X102699998Y-76833498D01*
X102700000Y-76833498D01*
X102700002Y-76833498D01*
X102757021Y-76828509D01*
X102928087Y-76813543D01*
X103149243Y-76754284D01*
X103356749Y-76657523D01*
X103544300Y-76526198D01*
X103706198Y-76364300D01*
X103837523Y-76176749D01*
X103934284Y-75969243D01*
X103993543Y-75748087D01*
X104004749Y-75620001D01*
X105886502Y-75620001D01*
X105906456Y-75848081D01*
X105906457Y-75848089D01*
X105965714Y-76069238D01*
X105965718Y-76069249D01*
X106062475Y-76276745D01*
X106062477Y-76276749D01*
X106193802Y-76464300D01*
X106355700Y-76626198D01*
X106543251Y-76757523D01*
X106663385Y-76813542D01*
X106750750Y-76854281D01*
X106750752Y-76854281D01*
X106750757Y-76854284D01*
X106971913Y-76913543D01*
X107134832Y-76927796D01*
X107199998Y-76933498D01*
X107200000Y-76933498D01*
X107200002Y-76933498D01*
X107257021Y-76928509D01*
X107428087Y-76913543D01*
X107649243Y-76854284D01*
X107856749Y-76757523D01*
X108044300Y-76626198D01*
X108206198Y-76464300D01*
X108337523Y-76276749D01*
X108434284Y-76069243D01*
X108493543Y-75848087D01*
X108513498Y-75620000D01*
X108510396Y-75584549D01*
X108504749Y-75520001D01*
X109986502Y-75520001D01*
X110006456Y-75748081D01*
X110006457Y-75748089D01*
X110065714Y-75969238D01*
X110065718Y-75969249D01*
X110151979Y-76154236D01*
X110162477Y-76176749D01*
X110293802Y-76364300D01*
X110455700Y-76526198D01*
X110643251Y-76657523D01*
X110768091Y-76715736D01*
X110850750Y-76754281D01*
X110850752Y-76754281D01*
X110850757Y-76754284D01*
X111071913Y-76813543D01*
X111234832Y-76827796D01*
X111299998Y-76833498D01*
X111300000Y-76833498D01*
X111300002Y-76833498D01*
X111357021Y-76828509D01*
X111528087Y-76813543D01*
X111749243Y-76754284D01*
X111956749Y-76657523D01*
X112144300Y-76526198D01*
X112288174Y-76382324D01*
X117686502Y-76382324D01*
X117706456Y-76610404D01*
X117706457Y-76610412D01*
X117765714Y-76831561D01*
X117765718Y-76831572D01*
X117803942Y-76913543D01*
X117862477Y-77039072D01*
X117993802Y-77226623D01*
X118155700Y-77388521D01*
X118343251Y-77519846D01*
X118346584Y-77521400D01*
X118550750Y-77616604D01*
X118550752Y-77616604D01*
X118550757Y-77616607D01*
X118771913Y-77675866D01*
X118934832Y-77690119D01*
X118999998Y-77695821D01*
X119000000Y-77695821D01*
X119000002Y-77695821D01*
X119057021Y-77690832D01*
X119228087Y-77675866D01*
X119449243Y-77616607D01*
X119656749Y-77519846D01*
X119844300Y-77388521D01*
X120006198Y-77226623D01*
X120137523Y-77039072D01*
X120234284Y-76831566D01*
X120293543Y-76610410D01*
X120313498Y-76382323D01*
X120293543Y-76154236D01*
X120234284Y-75933080D01*
X120137523Y-75725574D01*
X120137520Y-75725570D01*
X120132586Y-75718523D01*
X120110260Y-75652316D01*
X120127273Y-75584549D01*
X120159857Y-75548131D01*
X120163261Y-75545584D01*
X120250889Y-75428527D01*
X120301989Y-75291524D01*
X120305787Y-75256193D01*
X120308499Y-75230977D01*
X120308500Y-75230960D01*
X120308500Y-74750001D01*
X125686502Y-74750001D01*
X125706456Y-74978081D01*
X125706457Y-74978089D01*
X125765714Y-75199238D01*
X125765718Y-75199249D01*
X125855559Y-75391913D01*
X125862477Y-75406749D01*
X125993802Y-75594300D01*
X126155700Y-75756198D01*
X126343251Y-75887523D01*
X126440934Y-75933073D01*
X126550750Y-75984281D01*
X126550752Y-75984281D01*
X126550757Y-75984284D01*
X126771913Y-76043543D01*
X126934832Y-76057796D01*
X126999998Y-76063498D01*
X127000000Y-76063498D01*
X127000002Y-76063498D01*
X127057021Y-76058509D01*
X127228087Y-76043543D01*
X127449243Y-75984284D01*
X127656749Y-75887523D01*
X127844300Y-75756198D01*
X128006198Y-75594300D01*
X128137523Y-75406749D01*
X128234284Y-75199243D01*
X128293543Y-74978087D01*
X128313498Y-74750000D01*
X128293543Y-74521913D01*
X128234284Y-74300757D01*
X128227270Y-74285716D01*
X128210616Y-74250001D01*
X145186502Y-74250001D01*
X145206456Y-74478081D01*
X145206457Y-74478089D01*
X145265714Y-74699238D01*
X145265718Y-74699249D01*
X145342194Y-74863252D01*
X145362477Y-74906749D01*
X145493802Y-75094300D01*
X145655700Y-75256198D01*
X145843251Y-75387523D01*
X145884482Y-75406749D01*
X146050750Y-75484281D01*
X146050752Y-75484281D01*
X146050757Y-75484284D01*
X146271913Y-75543543D01*
X146434832Y-75557796D01*
X146499998Y-75563498D01*
X146500000Y-75563498D01*
X146500002Y-75563498D01*
X146557021Y-75558509D01*
X146728087Y-75543543D01*
X146949243Y-75484284D01*
X147156749Y-75387523D01*
X147344300Y-75256198D01*
X147506198Y-75094300D01*
X147637523Y-74906749D01*
X147734284Y-74699243D01*
X147793543Y-74478087D01*
X147813498Y-74250000D01*
X147793543Y-74021913D01*
X147734284Y-73800757D01*
X147707727Y-73743806D01*
X147646488Y-73612477D01*
X147637523Y-73593251D01*
X147506198Y-73405700D01*
X147344300Y-73243802D01*
X147156749Y-73112477D01*
X147156745Y-73112475D01*
X146949249Y-73015718D01*
X146949238Y-73015714D01*
X146728089Y-72956457D01*
X146728081Y-72956456D01*
X146500002Y-72936502D01*
X146499998Y-72936502D01*
X146271918Y-72956456D01*
X146271910Y-72956457D01*
X146050761Y-73015714D01*
X146050750Y-73015718D01*
X145843254Y-73112475D01*
X145843252Y-73112476D01*
X145778122Y-73158081D01*
X145655700Y-73243802D01*
X145655698Y-73243803D01*
X145655695Y-73243806D01*
X145493806Y-73405695D01*
X145493803Y-73405698D01*
X145493802Y-73405700D01*
X145440965Y-73481159D01*
X145362476Y-73593252D01*
X145362475Y-73593254D01*
X145265718Y-73800750D01*
X145265714Y-73800761D01*
X145206457Y-74021910D01*
X145206456Y-74021918D01*
X145186502Y-74249998D01*
X145186502Y-74250001D01*
X128210616Y-74250001D01*
X128170646Y-74164284D01*
X128137523Y-74093251D01*
X128006198Y-73905700D01*
X127844300Y-73743802D01*
X127656749Y-73612477D01*
X127615521Y-73593252D01*
X127449249Y-73515718D01*
X127449238Y-73515714D01*
X127228089Y-73456457D01*
X127228081Y-73456456D01*
X127000002Y-73436502D01*
X126999998Y-73436502D01*
X126771918Y-73456456D01*
X126771910Y-73456457D01*
X126550761Y-73515714D01*
X126550750Y-73515718D01*
X126343254Y-73612475D01*
X126343252Y-73612476D01*
X126343251Y-73612477D01*
X126155700Y-73743802D01*
X126155698Y-73743803D01*
X126155695Y-73743806D01*
X125993806Y-73905695D01*
X125862476Y-74093252D01*
X125862475Y-74093254D01*
X125765718Y-74300750D01*
X125765714Y-74300761D01*
X125706457Y-74521910D01*
X125706456Y-74521918D01*
X125686502Y-74749998D01*
X125686502Y-74750001D01*
X120308500Y-74750001D01*
X120308500Y-73533685D01*
X120308499Y-73533668D01*
X120302853Y-73481160D01*
X120301989Y-73473122D01*
X120297843Y-73462007D01*
X120266976Y-73379249D01*
X120250889Y-73336119D01*
X120163261Y-73219062D01*
X120046204Y-73131434D01*
X119909203Y-73080334D01*
X119848654Y-73073823D01*
X119848638Y-73073823D01*
X118151362Y-73073823D01*
X118151345Y-73073823D01*
X118090797Y-73080334D01*
X118090795Y-73080334D01*
X117953795Y-73131434D01*
X117836739Y-73219062D01*
X117749111Y-73336118D01*
X117698011Y-73473118D01*
X117698011Y-73473120D01*
X117691500Y-73533668D01*
X117691500Y-75230977D01*
X117698011Y-75291525D01*
X117698011Y-75291527D01*
X117740987Y-75406747D01*
X117749111Y-75428527D01*
X117836739Y-75545584D01*
X117840146Y-75548135D01*
X117842698Y-75551543D01*
X117843010Y-75551855D01*
X117842965Y-75551899D01*
X117882018Y-75604067D01*
X117887004Y-75673759D01*
X117867417Y-75718518D01*
X117862479Y-75725570D01*
X117862474Y-75725579D01*
X117765718Y-75933073D01*
X117765714Y-75933084D01*
X117706457Y-76154233D01*
X117706456Y-76154241D01*
X117686502Y-76382321D01*
X117686502Y-76382324D01*
X112288174Y-76382324D01*
X112306198Y-76364300D01*
X112437523Y-76176749D01*
X112534284Y-75969243D01*
X112593543Y-75748087D01*
X112613498Y-75520000D01*
X112593543Y-75291913D01*
X112534284Y-75070757D01*
X112437523Y-74863251D01*
X112306198Y-74675700D01*
X112144300Y-74513802D01*
X111956749Y-74382477D01*
X111956745Y-74382475D01*
X111749249Y-74285718D01*
X111749238Y-74285714D01*
X111528089Y-74226457D01*
X111528081Y-74226456D01*
X111300002Y-74206502D01*
X111299998Y-74206502D01*
X111071918Y-74226456D01*
X111071910Y-74226457D01*
X110850761Y-74285714D01*
X110850750Y-74285718D01*
X110643254Y-74382475D01*
X110643252Y-74382476D01*
X110643251Y-74382477D01*
X110455700Y-74513802D01*
X110455698Y-74513803D01*
X110455695Y-74513806D01*
X110293806Y-74675695D01*
X110293803Y-74675698D01*
X110293802Y-74675700D01*
X110241776Y-74750001D01*
X110162476Y-74863252D01*
X110162475Y-74863254D01*
X110065718Y-75070750D01*
X110065714Y-75070761D01*
X110006457Y-75291910D01*
X110006456Y-75291918D01*
X109986502Y-75519998D01*
X109986502Y-75520001D01*
X108504749Y-75520001D01*
X108494841Y-75406749D01*
X108493543Y-75391913D01*
X108434284Y-75170757D01*
X108337523Y-74963251D01*
X108206198Y-74775700D01*
X108044300Y-74613802D01*
X107856749Y-74482477D01*
X107847322Y-74478081D01*
X107649249Y-74385718D01*
X107649238Y-74385714D01*
X107428089Y-74326457D01*
X107428081Y-74326456D01*
X107200002Y-74306502D01*
X107199998Y-74306502D01*
X106971918Y-74326456D01*
X106971910Y-74326457D01*
X106750761Y-74385714D01*
X106750750Y-74385718D01*
X106543254Y-74482475D01*
X106543252Y-74482476D01*
X106472856Y-74531767D01*
X106355700Y-74613802D01*
X106355698Y-74613803D01*
X106355695Y-74613806D01*
X106193806Y-74775695D01*
X106062476Y-74963252D01*
X106062475Y-74963254D01*
X105965718Y-75170750D01*
X105965714Y-75170761D01*
X105906457Y-75391910D01*
X105906456Y-75391918D01*
X105886502Y-75619998D01*
X105886502Y-75620001D01*
X104004749Y-75620001D01*
X104013498Y-75520000D01*
X103993543Y-75291913D01*
X103934284Y-75070757D01*
X103837523Y-74863251D01*
X103706198Y-74675700D01*
X103544300Y-74513802D01*
X103356749Y-74382477D01*
X103356745Y-74382475D01*
X103149249Y-74285718D01*
X103149238Y-74285714D01*
X102928089Y-74226457D01*
X102928081Y-74226456D01*
X102700002Y-74206502D01*
X102699998Y-74206502D01*
X102471918Y-74226456D01*
X102471910Y-74226457D01*
X102250761Y-74285714D01*
X102250750Y-74285718D01*
X102043254Y-74382475D01*
X102043252Y-74382476D01*
X102043251Y-74382477D01*
X101855700Y-74513802D01*
X101855698Y-74513803D01*
X101855695Y-74513806D01*
X101693806Y-74675695D01*
X101693803Y-74675698D01*
X101693802Y-74675700D01*
X101641776Y-74750001D01*
X101562476Y-74863252D01*
X101562475Y-74863254D01*
X101465718Y-75070750D01*
X101465714Y-75070761D01*
X101406457Y-75291910D01*
X101406456Y-75291918D01*
X101386502Y-75519998D01*
X101386502Y-75520001D01*
X100075500Y-75520001D01*
X100075500Y-72930001D01*
X131136502Y-72930001D01*
X131156456Y-73158081D01*
X131156457Y-73158089D01*
X131215714Y-73379238D01*
X131215718Y-73379249D01*
X131279353Y-73515714D01*
X131312477Y-73586749D01*
X131443802Y-73774300D01*
X131605700Y-73936198D01*
X131793251Y-74067523D01*
X131848432Y-74093254D01*
X132000750Y-74164281D01*
X132000752Y-74164281D01*
X132000757Y-74164284D01*
X132221913Y-74223543D01*
X132384832Y-74237796D01*
X132449998Y-74243498D01*
X132450000Y-74243498D01*
X132450002Y-74243498D01*
X132507021Y-74238509D01*
X132678087Y-74223543D01*
X132899243Y-74164284D01*
X133106749Y-74067523D01*
X133294300Y-73936198D01*
X133456198Y-73774300D01*
X133587523Y-73586749D01*
X133612307Y-73533598D01*
X133658479Y-73481159D01*
X133725672Y-73462007D01*
X133792553Y-73482222D01*
X133837071Y-73533599D01*
X133859864Y-73582479D01*
X133859865Y-73582481D01*
X133990342Y-73768820D01*
X134151179Y-73929657D01*
X134337517Y-74060134D01*
X134543673Y-74156265D01*
X134543682Y-74156269D01*
X134739999Y-74208872D01*
X134740000Y-74208871D01*
X134740000Y-73245686D01*
X134744394Y-73250080D01*
X134835606Y-73302741D01*
X134937339Y-73330000D01*
X135042661Y-73330000D01*
X135144394Y-73302741D01*
X135235606Y-73250080D01*
X135240000Y-73245686D01*
X135240000Y-74208872D01*
X135436317Y-74156269D01*
X135436326Y-74156265D01*
X135642482Y-74060134D01*
X135828820Y-73929657D01*
X135989657Y-73768820D01*
X136120133Y-73582483D01*
X136142927Y-73533600D01*
X136189098Y-73481160D01*
X136256292Y-73462007D01*
X136323173Y-73482221D01*
X136367691Y-73533596D01*
X136392477Y-73586749D01*
X136523802Y-73774300D01*
X136685700Y-73936198D01*
X136873251Y-74067523D01*
X136928432Y-74093254D01*
X137080750Y-74164281D01*
X137080752Y-74164281D01*
X137080757Y-74164284D01*
X137301913Y-74223543D01*
X137464832Y-74237796D01*
X137529998Y-74243498D01*
X137530000Y-74243498D01*
X137530002Y-74243498D01*
X137587021Y-74238509D01*
X137758087Y-74223543D01*
X137979243Y-74164284D01*
X138186749Y-74067523D01*
X138374300Y-73936198D01*
X138536198Y-73774300D01*
X138667523Y-73586749D01*
X138687618Y-73543655D01*
X138733790Y-73491215D01*
X138800983Y-73472063D01*
X138867864Y-73492278D01*
X138912382Y-73543655D01*
X138932477Y-73586749D01*
X139063802Y-73774300D01*
X139225700Y-73936198D01*
X139413251Y-74067523D01*
X139468432Y-74093254D01*
X139620750Y-74164281D01*
X139620752Y-74164281D01*
X139620757Y-74164284D01*
X139841913Y-74223543D01*
X140004832Y-74237796D01*
X140069998Y-74243498D01*
X140070000Y-74243498D01*
X140070002Y-74243498D01*
X140127021Y-74238509D01*
X140298087Y-74223543D01*
X140519243Y-74164284D01*
X140726749Y-74067523D01*
X140914300Y-73936198D01*
X141076198Y-73774300D01*
X141207523Y-73586749D01*
X141304284Y-73379243D01*
X141363543Y-73158087D01*
X141383498Y-72930000D01*
X141380756Y-72898654D01*
X161141500Y-72898654D01*
X161148011Y-72959202D01*
X161148011Y-72959204D01*
X161190763Y-73073823D01*
X161199111Y-73096204D01*
X161286739Y-73213261D01*
X161403796Y-73300889D01*
X161540799Y-73351989D01*
X161568050Y-73354918D01*
X161601345Y-73358499D01*
X161601362Y-73358500D01*
X163398638Y-73358500D01*
X163398654Y-73358499D01*
X163425692Y-73355591D01*
X163459201Y-73351989D01*
X163596204Y-73300889D01*
X163713261Y-73213261D01*
X163800889Y-73096204D01*
X163851989Y-72959201D01*
X163855591Y-72925692D01*
X163858499Y-72898654D01*
X163858500Y-72898637D01*
X163858500Y-71101362D01*
X163858499Y-71101345D01*
X163855157Y-71070270D01*
X163851989Y-71040799D01*
X163800889Y-70903796D01*
X163713261Y-70786739D01*
X163596204Y-70699111D01*
X163459203Y-70648011D01*
X163398654Y-70641500D01*
X163398638Y-70641500D01*
X161601362Y-70641500D01*
X161601345Y-70641500D01*
X161540797Y-70648011D01*
X161540795Y-70648011D01*
X161403795Y-70699111D01*
X161286739Y-70786739D01*
X161199111Y-70903795D01*
X161148011Y-71040795D01*
X161148011Y-71040797D01*
X161141500Y-71101345D01*
X161141500Y-72898654D01*
X141380756Y-72898654D01*
X141363543Y-72701913D01*
X141304284Y-72480757D01*
X141207523Y-72273251D01*
X141076198Y-72085700D01*
X140914300Y-71923802D01*
X140726749Y-71792477D01*
X140726745Y-71792475D01*
X140519249Y-71695718D01*
X140519238Y-71695714D01*
X140298089Y-71636457D01*
X140298081Y-71636456D01*
X140070002Y-71616502D01*
X140069998Y-71616502D01*
X139841918Y-71636456D01*
X139841910Y-71636457D01*
X139620761Y-71695714D01*
X139620750Y-71695718D01*
X139413254Y-71792475D01*
X139413252Y-71792476D01*
X139413251Y-71792477D01*
X139225700Y-71923802D01*
X139225698Y-71923803D01*
X139225695Y-71923806D01*
X139063806Y-72085695D01*
X139063803Y-72085698D01*
X139063802Y-72085700D01*
X139059966Y-72091179D01*
X138932476Y-72273251D01*
X138912382Y-72316345D01*
X138866209Y-72368784D01*
X138799016Y-72387936D01*
X138732135Y-72367720D01*
X138687618Y-72316345D01*
X138667523Y-72273251D01*
X138628502Y-72217524D01*
X138536198Y-72085700D01*
X138374300Y-71923802D01*
X138186749Y-71792477D01*
X138186745Y-71792475D01*
X137979249Y-71695718D01*
X137979238Y-71695714D01*
X137758089Y-71636457D01*
X137758081Y-71636456D01*
X137530002Y-71616502D01*
X137529998Y-71616502D01*
X137301918Y-71636456D01*
X137301910Y-71636457D01*
X137080761Y-71695714D01*
X137080750Y-71695718D01*
X136873254Y-71792475D01*
X136873252Y-71792476D01*
X136873251Y-71792477D01*
X136685700Y-71923802D01*
X136685698Y-71923803D01*
X136685695Y-71923806D01*
X136523806Y-72085695D01*
X136523803Y-72085698D01*
X136523802Y-72085700D01*
X136519966Y-72091179D01*
X136392476Y-72273252D01*
X136392474Y-72273256D01*
X136367691Y-72326402D01*
X136321518Y-72378841D01*
X136254324Y-72397992D01*
X136187444Y-72377775D01*
X136142927Y-72326399D01*
X136120133Y-72277517D01*
X135989657Y-72091179D01*
X135828820Y-71930342D01*
X135642482Y-71799865D01*
X135436328Y-71703734D01*
X135240000Y-71651127D01*
X135240000Y-72614314D01*
X135235606Y-72609920D01*
X135144394Y-72557259D01*
X135042661Y-72530000D01*
X134937339Y-72530000D01*
X134835606Y-72557259D01*
X134744394Y-72609920D01*
X134740000Y-72614314D01*
X134740000Y-71651127D01*
X134543671Y-71703734D01*
X134337517Y-71799865D01*
X134151179Y-71930342D01*
X133990342Y-72091179D01*
X133859865Y-72277517D01*
X133837071Y-72326401D01*
X133790898Y-72378840D01*
X133723705Y-72397992D01*
X133656824Y-72377776D01*
X133612307Y-72326401D01*
X133587523Y-72273251D01*
X133548502Y-72217524D01*
X133456198Y-72085700D01*
X133294300Y-71923802D01*
X133106749Y-71792477D01*
X133106745Y-71792475D01*
X132899249Y-71695718D01*
X132899238Y-71695714D01*
X132678089Y-71636457D01*
X132678081Y-71636456D01*
X132450002Y-71616502D01*
X132449998Y-71616502D01*
X132221918Y-71636456D01*
X132221910Y-71636457D01*
X132000761Y-71695714D01*
X132000750Y-71695718D01*
X131793254Y-71792475D01*
X131793252Y-71792476D01*
X131793251Y-71792477D01*
X131605700Y-71923802D01*
X131605698Y-71923803D01*
X131605695Y-71923806D01*
X131443806Y-72085695D01*
X131443803Y-72085698D01*
X131443802Y-72085700D01*
X131439966Y-72091179D01*
X131312476Y-72273252D01*
X131312475Y-72273254D01*
X131215718Y-72480750D01*
X131215714Y-72480761D01*
X131156457Y-72701910D01*
X131156456Y-72701918D01*
X131136502Y-72929998D01*
X131136502Y-72930001D01*
X100075500Y-72930001D01*
X100075500Y-71080001D01*
X125686502Y-71080001D01*
X125706456Y-71308081D01*
X125706457Y-71308089D01*
X125765714Y-71529238D01*
X125765718Y-71529249D01*
X125815710Y-71636457D01*
X125862477Y-71736749D01*
X125993802Y-71924300D01*
X126155700Y-72086198D01*
X126343251Y-72217523D01*
X126462761Y-72273251D01*
X126550750Y-72314281D01*
X126550752Y-72314281D01*
X126550757Y-72314284D01*
X126771913Y-72373543D01*
X126934832Y-72387796D01*
X126999998Y-72393498D01*
X127000000Y-72393498D01*
X127000002Y-72393498D01*
X127063574Y-72387936D01*
X127228087Y-72373543D01*
X127449243Y-72314284D01*
X127656749Y-72217523D01*
X127844300Y-72086198D01*
X128006198Y-71924300D01*
X128137523Y-71736749D01*
X128234284Y-71529243D01*
X128293543Y-71308087D01*
X128313498Y-71080000D01*
X128293543Y-70851913D01*
X128234284Y-70630757D01*
X128210616Y-70580001D01*
X145186502Y-70580001D01*
X145206456Y-70808081D01*
X145206457Y-70808089D01*
X145265714Y-71029238D01*
X145265718Y-71029249D01*
X145299337Y-71101345D01*
X145362477Y-71236749D01*
X145493802Y-71424300D01*
X145655700Y-71586198D01*
X145843251Y-71717523D01*
X145884482Y-71736749D01*
X146050750Y-71814281D01*
X146050752Y-71814281D01*
X146050757Y-71814284D01*
X146271913Y-71873543D01*
X146434832Y-71887796D01*
X146499998Y-71893498D01*
X146500000Y-71893498D01*
X146500002Y-71893498D01*
X146557021Y-71888509D01*
X146728087Y-71873543D01*
X146949243Y-71814284D01*
X147156749Y-71717523D01*
X147344300Y-71586198D01*
X147506198Y-71424300D01*
X147637523Y-71236749D01*
X147734284Y-71029243D01*
X147793543Y-70808087D01*
X147813498Y-70580001D01*
X153686502Y-70580001D01*
X153706456Y-70808081D01*
X153706457Y-70808089D01*
X153765714Y-71029238D01*
X153765718Y-71029249D01*
X153799337Y-71101345D01*
X153862477Y-71236749D01*
X153993802Y-71424300D01*
X154155700Y-71586198D01*
X154343251Y-71717523D01*
X154384482Y-71736749D01*
X154550750Y-71814281D01*
X154550752Y-71814281D01*
X154550757Y-71814284D01*
X154771913Y-71873543D01*
X154934832Y-71887796D01*
X154999998Y-71893498D01*
X155000000Y-71893498D01*
X155000002Y-71893498D01*
X155057021Y-71888509D01*
X155228087Y-71873543D01*
X155449243Y-71814284D01*
X155656749Y-71717523D01*
X155844300Y-71586198D01*
X156006198Y-71424300D01*
X156137523Y-71236749D01*
X156234284Y-71029243D01*
X156293543Y-70808087D01*
X156313498Y-70580000D01*
X156293543Y-70351913D01*
X156234284Y-70130757D01*
X156207727Y-70073806D01*
X156154287Y-69959202D01*
X156137523Y-69923251D01*
X156006198Y-69735700D01*
X155844300Y-69573802D01*
X155656749Y-69442477D01*
X155656745Y-69442475D01*
X155449249Y-69345718D01*
X155449238Y-69345714D01*
X155228089Y-69286457D01*
X155228081Y-69286456D01*
X155000002Y-69266502D01*
X154999998Y-69266502D01*
X154771918Y-69286456D01*
X154771910Y-69286457D01*
X154550761Y-69345714D01*
X154550750Y-69345718D01*
X154343254Y-69442475D01*
X154343252Y-69442476D01*
X154343251Y-69442477D01*
X154155700Y-69573802D01*
X154155698Y-69573803D01*
X154155695Y-69573806D01*
X153993806Y-69735695D01*
X153993803Y-69735698D01*
X153993802Y-69735700D01*
X153920699Y-69840102D01*
X153862476Y-69923252D01*
X153862475Y-69923254D01*
X153765718Y-70130750D01*
X153765714Y-70130761D01*
X153706457Y-70351910D01*
X153706456Y-70351918D01*
X153686502Y-70579998D01*
X153686502Y-70580001D01*
X147813498Y-70580001D01*
X147813498Y-70580000D01*
X147793543Y-70351913D01*
X147734284Y-70130757D01*
X147707727Y-70073806D01*
X147654287Y-69959202D01*
X147637523Y-69923251D01*
X147506198Y-69735700D01*
X147344300Y-69573802D01*
X147156749Y-69442477D01*
X147156745Y-69442475D01*
X146949249Y-69345718D01*
X146949238Y-69345714D01*
X146728089Y-69286457D01*
X146728081Y-69286456D01*
X146500002Y-69266502D01*
X146499998Y-69266502D01*
X146271918Y-69286456D01*
X146271910Y-69286457D01*
X146050761Y-69345714D01*
X146050750Y-69345718D01*
X145843254Y-69442475D01*
X145843252Y-69442476D01*
X145843251Y-69442477D01*
X145655700Y-69573802D01*
X145655698Y-69573803D01*
X145655695Y-69573806D01*
X145493806Y-69735695D01*
X145493803Y-69735698D01*
X145493802Y-69735700D01*
X145420699Y-69840102D01*
X145362476Y-69923252D01*
X145362475Y-69923254D01*
X145265718Y-70130750D01*
X145265714Y-70130761D01*
X145206457Y-70351910D01*
X145206456Y-70351918D01*
X145186502Y-70579998D01*
X145186502Y-70580001D01*
X128210616Y-70580001D01*
X128137523Y-70423251D01*
X128006198Y-70235700D01*
X127844300Y-70073802D01*
X127656749Y-69942477D01*
X127615521Y-69923252D01*
X127562770Y-69898654D01*
X131141500Y-69898654D01*
X131148011Y-69959202D01*
X131148011Y-69959204D01*
X131184189Y-70056198D01*
X131199111Y-70096204D01*
X131286739Y-70213261D01*
X131403796Y-70300889D01*
X131518152Y-70343542D01*
X131540608Y-70351918D01*
X131540799Y-70351989D01*
X131568050Y-70354918D01*
X131601345Y-70358499D01*
X131601362Y-70358500D01*
X133298638Y-70358500D01*
X133298654Y-70358499D01*
X133325692Y-70355591D01*
X133359201Y-70351989D01*
X133359392Y-70351918D01*
X133381848Y-70343542D01*
X133496204Y-70300889D01*
X133613261Y-70213261D01*
X133700889Y-70096204D01*
X133751989Y-69959201D01*
X133753569Y-69944500D01*
X133780304Y-69879952D01*
X133837695Y-69840102D01*
X133907521Y-69837606D01*
X133967611Y-69873257D01*
X133978428Y-69886626D01*
X133983802Y-69894300D01*
X134145700Y-70056198D01*
X134333251Y-70187523D01*
X134388445Y-70213260D01*
X134540750Y-70284281D01*
X134540752Y-70284281D01*
X134540757Y-70284284D01*
X134761913Y-70343543D01*
X134924832Y-70357796D01*
X134989998Y-70363498D01*
X134990000Y-70363498D01*
X134990002Y-70363498D01*
X135047139Y-70358499D01*
X135218087Y-70343543D01*
X135439243Y-70284284D01*
X135646749Y-70187523D01*
X135834300Y-70056198D01*
X135996198Y-69894300D01*
X136127523Y-69706749D01*
X136147618Y-69663655D01*
X136193790Y-69611215D01*
X136260983Y-69592063D01*
X136327864Y-69612278D01*
X136372382Y-69663655D01*
X136392477Y-69706749D01*
X136523802Y-69894300D01*
X136685700Y-70056198D01*
X136873251Y-70187523D01*
X136928445Y-70213260D01*
X137080750Y-70284281D01*
X137080752Y-70284281D01*
X137080757Y-70284284D01*
X137301913Y-70343543D01*
X137464832Y-70357796D01*
X137529998Y-70363498D01*
X137530000Y-70363498D01*
X137530002Y-70363498D01*
X137587139Y-70358499D01*
X137758087Y-70343543D01*
X137979243Y-70284284D01*
X138186749Y-70187523D01*
X138374300Y-70056198D01*
X138536198Y-69894300D01*
X138667523Y-69706749D01*
X138687618Y-69663655D01*
X138733790Y-69611215D01*
X138800983Y-69592063D01*
X138867864Y-69612278D01*
X138912382Y-69663655D01*
X138932477Y-69706749D01*
X139063802Y-69894300D01*
X139225700Y-70056198D01*
X139413251Y-70187523D01*
X139468445Y-70213260D01*
X139620750Y-70284281D01*
X139620752Y-70284281D01*
X139620757Y-70284284D01*
X139841913Y-70343543D01*
X140004832Y-70357796D01*
X140069998Y-70363498D01*
X140070000Y-70363498D01*
X140070002Y-70363498D01*
X140127139Y-70358499D01*
X140298087Y-70343543D01*
X140519243Y-70284284D01*
X140726749Y-70187523D01*
X140914300Y-70056198D01*
X141076198Y-69894300D01*
X141207523Y-69706749D01*
X141304284Y-69499243D01*
X141363543Y-69278087D01*
X141383498Y-69050000D01*
X141363543Y-68821913D01*
X141304284Y-68600757D01*
X141207523Y-68393251D01*
X141076198Y-68205700D01*
X140914300Y-68043802D01*
X140726749Y-67912477D01*
X140726745Y-67912475D01*
X140519249Y-67815718D01*
X140519238Y-67815714D01*
X140298089Y-67756457D01*
X140298081Y-67756456D01*
X140070002Y-67736502D01*
X140069998Y-67736502D01*
X139841918Y-67756456D01*
X139841910Y-67756457D01*
X139620761Y-67815714D01*
X139620750Y-67815718D01*
X139413254Y-67912475D01*
X139413252Y-67912476D01*
X139413251Y-67912477D01*
X139225700Y-68043802D01*
X139225698Y-68043803D01*
X139225695Y-68043806D01*
X139063806Y-68205695D01*
X138932476Y-68393251D01*
X138912382Y-68436345D01*
X138866209Y-68488784D01*
X138799016Y-68507936D01*
X138732135Y-68487720D01*
X138687618Y-68436345D01*
X138667523Y-68393251D01*
X138536198Y-68205700D01*
X138374300Y-68043802D01*
X138186749Y-67912477D01*
X138186745Y-67912475D01*
X137979249Y-67815718D01*
X137979238Y-67815714D01*
X137758089Y-67756457D01*
X137758081Y-67756456D01*
X137530002Y-67736502D01*
X137529998Y-67736502D01*
X137301918Y-67756456D01*
X137301910Y-67756457D01*
X137080761Y-67815714D01*
X137080750Y-67815718D01*
X136873254Y-67912475D01*
X136873252Y-67912476D01*
X136873251Y-67912477D01*
X136685700Y-68043802D01*
X136685698Y-68043803D01*
X136685695Y-68043806D01*
X136523806Y-68205695D01*
X136392476Y-68393251D01*
X136372382Y-68436345D01*
X136326209Y-68488784D01*
X136259016Y-68507936D01*
X136192135Y-68487720D01*
X136147618Y-68436345D01*
X136127523Y-68393251D01*
X135996198Y-68205700D01*
X135834300Y-68043802D01*
X135646749Y-67912477D01*
X135646745Y-67912475D01*
X135439249Y-67815718D01*
X135439238Y-67815714D01*
X135218089Y-67756457D01*
X135218081Y-67756456D01*
X134990002Y-67736502D01*
X134989998Y-67736502D01*
X134761918Y-67756456D01*
X134761910Y-67756457D01*
X134540761Y-67815714D01*
X134540750Y-67815718D01*
X134333254Y-67912475D01*
X134333252Y-67912476D01*
X134333251Y-67912477D01*
X134145700Y-68043802D01*
X134145698Y-68043803D01*
X134145695Y-68043806D01*
X133983805Y-68205696D01*
X133978429Y-68213374D01*
X133923849Y-68256995D01*
X133854350Y-68264184D01*
X133791997Y-68232658D01*
X133756587Y-68172426D01*
X133753570Y-68155510D01*
X133751989Y-68140799D01*
X133700889Y-68003796D01*
X133613261Y-67886739D01*
X133496204Y-67799111D01*
X133474707Y-67791093D01*
X133359203Y-67748011D01*
X133298654Y-67741500D01*
X133298638Y-67741500D01*
X131601362Y-67741500D01*
X131601345Y-67741500D01*
X131540797Y-67748011D01*
X131540795Y-67748011D01*
X131403795Y-67799111D01*
X131286739Y-67886739D01*
X131199111Y-68003795D01*
X131148011Y-68140795D01*
X131148011Y-68140797D01*
X131141500Y-68201345D01*
X131141500Y-69898654D01*
X127562770Y-69898654D01*
X127449249Y-69845718D01*
X127449238Y-69845714D01*
X127228089Y-69786457D01*
X127228081Y-69786456D01*
X127000002Y-69766502D01*
X126999998Y-69766502D01*
X126771918Y-69786456D01*
X126771910Y-69786457D01*
X126550761Y-69845714D01*
X126550750Y-69845718D01*
X126343254Y-69942475D01*
X126343252Y-69942476D01*
X126272856Y-69991767D01*
X126155700Y-70073802D01*
X126155698Y-70073803D01*
X126155695Y-70073806D01*
X125993806Y-70235695D01*
X125993803Y-70235698D01*
X125993802Y-70235700D01*
X125948157Y-70300888D01*
X125862476Y-70423252D01*
X125862475Y-70423254D01*
X125765718Y-70630750D01*
X125765714Y-70630761D01*
X125706457Y-70851910D01*
X125706456Y-70851918D01*
X125686502Y-71079998D01*
X125686502Y-71080001D01*
X100075500Y-71080001D01*
X100075500Y-69198654D01*
X100551500Y-69198654D01*
X100558011Y-69259202D01*
X100558011Y-69259204D01*
X100609111Y-69396204D01*
X100696739Y-69513261D01*
X100813796Y-69600889D01*
X100950799Y-69651989D01*
X100978050Y-69654918D01*
X101011345Y-69658499D01*
X101011362Y-69658500D01*
X102908638Y-69658500D01*
X102908654Y-69658499D01*
X102935692Y-69655591D01*
X102969201Y-69651989D01*
X103106204Y-69600889D01*
X103223261Y-69513261D01*
X103310889Y-69396204D01*
X103335397Y-69330495D01*
X103377268Y-69274563D01*
X103442733Y-69250147D01*
X103511005Y-69264999D01*
X103538724Y-69286656D01*
X103539010Y-69286347D01*
X103542774Y-69289811D01*
X103542780Y-69289818D01*
X103726983Y-69433190D01*
X103726985Y-69433191D01*
X103726988Y-69433193D01*
X103755558Y-69448654D01*
X103932273Y-69544287D01*
X104046914Y-69583643D01*
X104153045Y-69620079D01*
X104153047Y-69620079D01*
X104153049Y-69620080D01*
X104383288Y-69658500D01*
X104383289Y-69658500D01*
X104616711Y-69658500D01*
X104616712Y-69658500D01*
X104846951Y-69620080D01*
X105067727Y-69544287D01*
X105244442Y-69448654D01*
X109551500Y-69448654D01*
X109558011Y-69509202D01*
X109558011Y-69509204D01*
X109596457Y-69612278D01*
X109609111Y-69646204D01*
X109696739Y-69763261D01*
X109813796Y-69850889D01*
X109909618Y-69886629D01*
X109941857Y-69898654D01*
X109950799Y-69901989D01*
X109978050Y-69904918D01*
X110011345Y-69908499D01*
X110011362Y-69908500D01*
X111908638Y-69908500D01*
X111908654Y-69908499D01*
X111935692Y-69905591D01*
X111969201Y-69901989D01*
X111978143Y-69898654D01*
X112010382Y-69886629D01*
X112106204Y-69850889D01*
X112223261Y-69763261D01*
X112310889Y-69646204D01*
X112335397Y-69580495D01*
X112377268Y-69524563D01*
X112442733Y-69500147D01*
X112511005Y-69514999D01*
X112538724Y-69536656D01*
X112539010Y-69536347D01*
X112542774Y-69539811D01*
X112542780Y-69539818D01*
X112726983Y-69683190D01*
X112726985Y-69683191D01*
X112726988Y-69683193D01*
X112770516Y-69706749D01*
X112932273Y-69794287D01*
X113046914Y-69833643D01*
X113153045Y-69870079D01*
X113153047Y-69870079D01*
X113153049Y-69870080D01*
X113383288Y-69908500D01*
X113383289Y-69908500D01*
X113616711Y-69908500D01*
X113616712Y-69908500D01*
X113846951Y-69870080D01*
X114067727Y-69794287D01*
X114273017Y-69683190D01*
X114457220Y-69539818D01*
X114615314Y-69368083D01*
X114742984Y-69172669D01*
X114836749Y-68958907D01*
X114894051Y-68732626D01*
X114905473Y-68594786D01*
X114913327Y-68500005D01*
X114913327Y-68499994D01*
X114894051Y-68267377D01*
X114894051Y-68267374D01*
X114836749Y-68041093D01*
X114742984Y-67827331D01*
X114615314Y-67631917D01*
X114615313Y-67631915D01*
X114457223Y-67460185D01*
X114457222Y-67460184D01*
X114457220Y-67460182D01*
X114273017Y-67316810D01*
X114273015Y-67316809D01*
X114273014Y-67316808D01*
X114273011Y-67316806D01*
X114067733Y-67205716D01*
X114067730Y-67205715D01*
X114067727Y-67205713D01*
X114067721Y-67205711D01*
X114067719Y-67205710D01*
X113846954Y-67129920D01*
X113655730Y-67098011D01*
X113616712Y-67091500D01*
X113383288Y-67091500D01*
X113344270Y-67098011D01*
X113153045Y-67129920D01*
X112932280Y-67205710D01*
X112932266Y-67205716D01*
X112726988Y-67316806D01*
X112726985Y-67316808D01*
X112542781Y-67460181D01*
X112539010Y-67463653D01*
X112538290Y-67462871D01*
X112482899Y-67496147D01*
X112413061Y-67494034D01*
X112355452Y-67454500D01*
X112335397Y-67419503D01*
X112327371Y-67397987D01*
X112310889Y-67353796D01*
X112223261Y-67236739D01*
X112106204Y-67149111D01*
X111969203Y-67098011D01*
X111908654Y-67091500D01*
X111908638Y-67091500D01*
X110011362Y-67091500D01*
X110011345Y-67091500D01*
X109950797Y-67098011D01*
X109950795Y-67098011D01*
X109813795Y-67149111D01*
X109696739Y-67236739D01*
X109609111Y-67353795D01*
X109558011Y-67490795D01*
X109558011Y-67490797D01*
X109551500Y-67551345D01*
X109551500Y-69448654D01*
X105244442Y-69448654D01*
X105273017Y-69433190D01*
X105457220Y-69289818D01*
X105615314Y-69118083D01*
X105742984Y-68922669D01*
X105836749Y-68708907D01*
X105894051Y-68482626D01*
X105911887Y-68267377D01*
X105913327Y-68250005D01*
X105913327Y-68249994D01*
X105894051Y-68017377D01*
X105894051Y-68017374D01*
X105836749Y-67791093D01*
X105742984Y-67577331D01*
X105689944Y-67496147D01*
X105615313Y-67381915D01*
X105457223Y-67210185D01*
X105457222Y-67210184D01*
X105457220Y-67210182D01*
X105273017Y-67066810D01*
X105273015Y-67066809D01*
X105273014Y-67066808D01*
X105273011Y-67066806D01*
X105067733Y-66955716D01*
X105067730Y-66955715D01*
X105067727Y-66955713D01*
X105067721Y-66955711D01*
X105067719Y-66955710D01*
X104846954Y-66879920D01*
X104655730Y-66848011D01*
X104616712Y-66841500D01*
X104383288Y-66841500D01*
X104344270Y-66848011D01*
X104153045Y-66879920D01*
X103932280Y-66955710D01*
X103932266Y-66955716D01*
X103726988Y-67066806D01*
X103726985Y-67066808D01*
X103542781Y-67210181D01*
X103539010Y-67213653D01*
X103538290Y-67212871D01*
X103482899Y-67246147D01*
X103413061Y-67244034D01*
X103355452Y-67204500D01*
X103335397Y-67169503D01*
X103320633Y-67129920D01*
X103310889Y-67103796D01*
X103223261Y-66986739D01*
X103106204Y-66899111D01*
X102969203Y-66848011D01*
X102908654Y-66841500D01*
X102908638Y-66841500D01*
X101011362Y-66841500D01*
X101011345Y-66841500D01*
X100950797Y-66848011D01*
X100950795Y-66848011D01*
X100813795Y-66899111D01*
X100696739Y-66986739D01*
X100609111Y-67103795D01*
X100558011Y-67240795D01*
X100558011Y-67240797D01*
X100551500Y-67301345D01*
X100551500Y-69198654D01*
X100075500Y-69198654D01*
X100075500Y-64980001D01*
X117786502Y-64980001D01*
X117806456Y-65208081D01*
X117806457Y-65208089D01*
X117865714Y-65429238D01*
X117865718Y-65429249D01*
X117962475Y-65636745D01*
X117962477Y-65636749D01*
X118093802Y-65824300D01*
X118255700Y-65986198D01*
X118443251Y-66117523D01*
X118568091Y-66175736D01*
X118650750Y-66214281D01*
X118650752Y-66214281D01*
X118650757Y-66214284D01*
X118871913Y-66273543D01*
X119034832Y-66287796D01*
X119099998Y-66293498D01*
X119100000Y-66293498D01*
X119100002Y-66293498D01*
X119157021Y-66288509D01*
X119328087Y-66273543D01*
X119549243Y-66214284D01*
X119756749Y-66117523D01*
X119944300Y-65986198D01*
X120106198Y-65824300D01*
X120237523Y-65636749D01*
X120334284Y-65429243D01*
X120393543Y-65208087D01*
X120413498Y-64980000D01*
X120393543Y-64751913D01*
X120334284Y-64530757D01*
X120237523Y-64323251D01*
X120106198Y-64135700D01*
X119970499Y-64000001D01*
X159804179Y-64000001D01*
X159824133Y-64228081D01*
X159824134Y-64228089D01*
X159883391Y-64449238D01*
X159883395Y-64449249D01*
X159980152Y-64656745D01*
X159980154Y-64656749D01*
X160111479Y-64844300D01*
X160273377Y-65006198D01*
X160460928Y-65137523D01*
X160516122Y-65163260D01*
X160668427Y-65234281D01*
X160668429Y-65234281D01*
X160668434Y-65234284D01*
X160889590Y-65293543D01*
X161052509Y-65307796D01*
X161117675Y-65313498D01*
X161117677Y-65313498D01*
X161117679Y-65313498D01*
X161174816Y-65308499D01*
X161345764Y-65293543D01*
X161566920Y-65234284D01*
X161774426Y-65137523D01*
X161961977Y-65006198D01*
X162109517Y-64858657D01*
X162170837Y-64825175D01*
X162240528Y-64830159D01*
X162296462Y-64872030D01*
X162313376Y-64903006D01*
X162351866Y-65006198D01*
X162366788Y-65046204D01*
X162454416Y-65163261D01*
X162571473Y-65250889D01*
X162708476Y-65301989D01*
X162735727Y-65304918D01*
X162769022Y-65308499D01*
X162769039Y-65308500D01*
X164466315Y-65308500D01*
X164466331Y-65308499D01*
X164493369Y-65305591D01*
X164526878Y-65301989D01*
X164663881Y-65250889D01*
X164780938Y-65163261D01*
X164868566Y-65046204D01*
X164919666Y-64909201D01*
X164925100Y-64858660D01*
X164926176Y-64848654D01*
X164926177Y-64848637D01*
X164926177Y-63151362D01*
X164926176Y-63151345D01*
X164922834Y-63120270D01*
X164919666Y-63090799D01*
X164868566Y-62953796D01*
X164780938Y-62836739D01*
X164663881Y-62749111D01*
X164648832Y-62743498D01*
X164526880Y-62698011D01*
X164466331Y-62691500D01*
X164466315Y-62691500D01*
X162769039Y-62691500D01*
X162769022Y-62691500D01*
X162708474Y-62698011D01*
X162708472Y-62698011D01*
X162571472Y-62749111D01*
X162454416Y-62836739D01*
X162366788Y-62953795D01*
X162313376Y-63096993D01*
X162271504Y-63152926D01*
X162206039Y-63177342D01*
X162137767Y-63162489D01*
X162109514Y-63141339D01*
X161961981Y-62993806D01*
X161961977Y-62993802D01*
X161774426Y-62862477D01*
X161774422Y-62862475D01*
X161566926Y-62765718D01*
X161566915Y-62765714D01*
X161345766Y-62706457D01*
X161345758Y-62706456D01*
X161117679Y-62686502D01*
X161117675Y-62686502D01*
X160889595Y-62706456D01*
X160889587Y-62706457D01*
X160668438Y-62765714D01*
X160668427Y-62765718D01*
X160460931Y-62862475D01*
X160460929Y-62862476D01*
X160460928Y-62862477D01*
X160273377Y-62993802D01*
X160273375Y-62993803D01*
X160273372Y-62993806D01*
X160111483Y-63155695D01*
X160111480Y-63155698D01*
X160111479Y-63155700D01*
X160096325Y-63177342D01*
X159980153Y-63343252D01*
X159980152Y-63343254D01*
X159883395Y-63550750D01*
X159883391Y-63550761D01*
X159824134Y-63771910D01*
X159824133Y-63771918D01*
X159804179Y-63999998D01*
X159804179Y-64000001D01*
X119970499Y-64000001D01*
X119944300Y-63973802D01*
X119756749Y-63842477D01*
X119756745Y-63842475D01*
X119549249Y-63745718D01*
X119549238Y-63745714D01*
X119328089Y-63686457D01*
X119328081Y-63686456D01*
X119100002Y-63666502D01*
X119099998Y-63666502D01*
X118871918Y-63686456D01*
X118871910Y-63686457D01*
X118650761Y-63745714D01*
X118650750Y-63745718D01*
X118443254Y-63842475D01*
X118443252Y-63842476D01*
X118443251Y-63842477D01*
X118255700Y-63973802D01*
X118255698Y-63973803D01*
X118255695Y-63973806D01*
X118093806Y-64135695D01*
X117962476Y-64323252D01*
X117962475Y-64323254D01*
X117865718Y-64530750D01*
X117865714Y-64530761D01*
X117806457Y-64751910D01*
X117806456Y-64751918D01*
X117786502Y-64979998D01*
X117786502Y-64980001D01*
X100075500Y-64980001D01*
X100075500Y-60448654D01*
X100841500Y-60448654D01*
X100848011Y-60509202D01*
X100848011Y-60509204D01*
X100899111Y-60646204D01*
X100986739Y-60763261D01*
X101103796Y-60850889D01*
X101240799Y-60901989D01*
X101268050Y-60904918D01*
X101301345Y-60908499D01*
X101301362Y-60908500D01*
X103198638Y-60908500D01*
X103198654Y-60908499D01*
X103225692Y-60905591D01*
X103259201Y-60901989D01*
X103396204Y-60850889D01*
X103513261Y-60763261D01*
X103600889Y-60646204D01*
X103625397Y-60580495D01*
X103667268Y-60524563D01*
X103732733Y-60500147D01*
X103801005Y-60514999D01*
X103828724Y-60536656D01*
X103829010Y-60536347D01*
X103832774Y-60539811D01*
X103832780Y-60539818D01*
X104016983Y-60683190D01*
X104016985Y-60683191D01*
X104016988Y-60683193D01*
X104045558Y-60698654D01*
X104222273Y-60794287D01*
X104315817Y-60826401D01*
X104443045Y-60870079D01*
X104443047Y-60870079D01*
X104443049Y-60870080D01*
X104673288Y-60908500D01*
X104673289Y-60908500D01*
X104906711Y-60908500D01*
X104906712Y-60908500D01*
X105136951Y-60870080D01*
X105139410Y-60869236D01*
X105192855Y-60850888D01*
X105357727Y-60794287D01*
X105534442Y-60698654D01*
X109591500Y-60698654D01*
X109598011Y-60759202D01*
X109598011Y-60759204D01*
X109642634Y-60878840D01*
X109649111Y-60896204D01*
X109736739Y-61013261D01*
X109853796Y-61100889D01*
X109990799Y-61151989D01*
X110018050Y-61154918D01*
X110051345Y-61158499D01*
X110051362Y-61158500D01*
X111948638Y-61158500D01*
X111948654Y-61158499D01*
X111975692Y-61155591D01*
X112009201Y-61151989D01*
X112146204Y-61100889D01*
X112263261Y-61013261D01*
X112350889Y-60896204D01*
X112401989Y-60759201D01*
X112405591Y-60725692D01*
X112408499Y-60698654D01*
X112408500Y-60698637D01*
X112408500Y-60579308D01*
X112428185Y-60512269D01*
X112444819Y-60491627D01*
X113097861Y-59838584D01*
X113120667Y-59923694D01*
X113179910Y-60026306D01*
X113263694Y-60110090D01*
X113366306Y-60169333D01*
X113451414Y-60192138D01*
X112741201Y-60902351D01*
X112771649Y-60926050D01*
X112975697Y-61036476D01*
X112975706Y-61036479D01*
X113195139Y-61111811D01*
X113423993Y-61150000D01*
X113656007Y-61150000D01*
X113884860Y-61111811D01*
X114104293Y-61036479D01*
X114104301Y-61036476D01*
X114308355Y-60926047D01*
X114316121Y-60920002D01*
X125695034Y-60920002D01*
X125714858Y-61146599D01*
X125714860Y-61146610D01*
X125773730Y-61366317D01*
X125773735Y-61366331D01*
X125869863Y-61572478D01*
X125920974Y-61645472D01*
X126600000Y-60966446D01*
X126600000Y-60972661D01*
X126627259Y-61074394D01*
X126679920Y-61165606D01*
X126754394Y-61240080D01*
X126845606Y-61292741D01*
X126947339Y-61320000D01*
X126953553Y-61320000D01*
X126274526Y-61999025D01*
X126347513Y-62050132D01*
X126347521Y-62050136D01*
X126553668Y-62146264D01*
X126553682Y-62146269D01*
X126773389Y-62205139D01*
X126773400Y-62205141D01*
X126999998Y-62224966D01*
X127000002Y-62224966D01*
X127226599Y-62205141D01*
X127226610Y-62205139D01*
X127446317Y-62146269D01*
X127446331Y-62146264D01*
X127652478Y-62050136D01*
X127725471Y-61999024D01*
X127046447Y-61320000D01*
X127052661Y-61320000D01*
X127154394Y-61292741D01*
X127245606Y-61240080D01*
X127320080Y-61165606D01*
X127372741Y-61074394D01*
X127400000Y-60972661D01*
X127400000Y-60966447D01*
X128079024Y-61645471D01*
X128130136Y-61572478D01*
X128196574Y-61430001D01*
X131136502Y-61430001D01*
X131156456Y-61658081D01*
X131156457Y-61658089D01*
X131215714Y-61879238D01*
X131215718Y-61879249D01*
X131287692Y-62033597D01*
X131312477Y-62086749D01*
X131443802Y-62274300D01*
X131605700Y-62436198D01*
X131793251Y-62567523D01*
X131918091Y-62625736D01*
X132000750Y-62664281D01*
X132000752Y-62664281D01*
X132000757Y-62664284D01*
X132221913Y-62723543D01*
X132384832Y-62737796D01*
X132449998Y-62743498D01*
X132450000Y-62743498D01*
X132450002Y-62743498D01*
X132507021Y-62738509D01*
X132678087Y-62723543D01*
X132899243Y-62664284D01*
X133106749Y-62567523D01*
X133294300Y-62436198D01*
X133456198Y-62274300D01*
X133587523Y-62086749D01*
X133612307Y-62033598D01*
X133658479Y-61981159D01*
X133725672Y-61962007D01*
X133792553Y-61982222D01*
X133837071Y-62033599D01*
X133859864Y-62082479D01*
X133859865Y-62082481D01*
X133990342Y-62268820D01*
X134151179Y-62429657D01*
X134337517Y-62560134D01*
X134543673Y-62656265D01*
X134543682Y-62656269D01*
X134739999Y-62708872D01*
X134740000Y-62708871D01*
X134740000Y-61745686D01*
X134744394Y-61750080D01*
X134835606Y-61802741D01*
X134937339Y-61830000D01*
X135042661Y-61830000D01*
X135144394Y-61802741D01*
X135235606Y-61750080D01*
X135240000Y-61745686D01*
X135240000Y-62708872D01*
X135436317Y-62656269D01*
X135436326Y-62656265D01*
X135642482Y-62560134D01*
X135828820Y-62429657D01*
X135989657Y-62268820D01*
X136120133Y-62082483D01*
X136142927Y-62033600D01*
X136189098Y-61981160D01*
X136256292Y-61962007D01*
X136323173Y-61982221D01*
X136367691Y-62033596D01*
X136392477Y-62086749D01*
X136523802Y-62274300D01*
X136685700Y-62436198D01*
X136873251Y-62567523D01*
X136998091Y-62625736D01*
X137080750Y-62664281D01*
X137080752Y-62664281D01*
X137080757Y-62664284D01*
X137301913Y-62723543D01*
X137464832Y-62737796D01*
X137529998Y-62743498D01*
X137530000Y-62743498D01*
X137530002Y-62743498D01*
X137587021Y-62738509D01*
X137758087Y-62723543D01*
X137979243Y-62664284D01*
X138186749Y-62567523D01*
X138374300Y-62436198D01*
X138536198Y-62274300D01*
X138667523Y-62086749D01*
X138687618Y-62043655D01*
X138733790Y-61991215D01*
X138800983Y-61972063D01*
X138867864Y-61992278D01*
X138912382Y-62043655D01*
X138932477Y-62086749D01*
X139063802Y-62274300D01*
X139225700Y-62436198D01*
X139413251Y-62567523D01*
X139538091Y-62625736D01*
X139620750Y-62664281D01*
X139620752Y-62664281D01*
X139620757Y-62664284D01*
X139841913Y-62723543D01*
X140004832Y-62737796D01*
X140069998Y-62743498D01*
X140070000Y-62743498D01*
X140070002Y-62743498D01*
X140127021Y-62738509D01*
X140298087Y-62723543D01*
X140519243Y-62664284D01*
X140726749Y-62567523D01*
X140914300Y-62436198D01*
X141076198Y-62274300D01*
X141207523Y-62086749D01*
X141304284Y-61879243D01*
X141363543Y-61658087D01*
X141383498Y-61430000D01*
X141383165Y-61426198D01*
X141369990Y-61275606D01*
X141363543Y-61201913D01*
X141304284Y-60980757D01*
X141278772Y-60926047D01*
X141252287Y-60869249D01*
X141207523Y-60773251D01*
X141076198Y-60585700D01*
X140914300Y-60423802D01*
X140908872Y-60420001D01*
X145186502Y-60420001D01*
X145206456Y-60648081D01*
X145206457Y-60648089D01*
X145265714Y-60869236D01*
X145265718Y-60869249D01*
X145343699Y-61036479D01*
X145362477Y-61076749D01*
X145493802Y-61264300D01*
X145655700Y-61426198D01*
X145843251Y-61557523D01*
X145968091Y-61615736D01*
X146050750Y-61654281D01*
X146050752Y-61654281D01*
X146050757Y-61654284D01*
X146271913Y-61713543D01*
X146434832Y-61727796D01*
X146499998Y-61733498D01*
X146500000Y-61733498D01*
X146500002Y-61733498D01*
X146557021Y-61728509D01*
X146728087Y-61713543D01*
X146949243Y-61654284D01*
X147156749Y-61557523D01*
X147344300Y-61426198D01*
X147506198Y-61264300D01*
X147637523Y-61076749D01*
X147734284Y-60869243D01*
X147793543Y-60648087D01*
X147813498Y-60420001D01*
X153686502Y-60420001D01*
X153706456Y-60648081D01*
X153706457Y-60648089D01*
X153765714Y-60869236D01*
X153765718Y-60869249D01*
X153843699Y-61036479D01*
X153862477Y-61076749D01*
X153993802Y-61264300D01*
X154155700Y-61426198D01*
X154343251Y-61557523D01*
X154468091Y-61615736D01*
X154550750Y-61654281D01*
X154550752Y-61654281D01*
X154550757Y-61654284D01*
X154771913Y-61713543D01*
X154934832Y-61727796D01*
X154999998Y-61733498D01*
X155000000Y-61733498D01*
X155000002Y-61733498D01*
X155057021Y-61728509D01*
X155228087Y-61713543D01*
X155449243Y-61654284D01*
X155656749Y-61557523D01*
X155844300Y-61426198D01*
X156006198Y-61264300D01*
X156137523Y-61076749D01*
X156234284Y-60869243D01*
X156293543Y-60648087D01*
X156313498Y-60420000D01*
X156313376Y-60418611D01*
X156306788Y-60343308D01*
X156293543Y-60191913D01*
X156234284Y-59970757D01*
X156228758Y-59958907D01*
X156195736Y-59888091D01*
X156137523Y-59763251D01*
X156006198Y-59575700D01*
X155844300Y-59413802D01*
X155656749Y-59282477D01*
X155624367Y-59267377D01*
X155449249Y-59185718D01*
X155449238Y-59185714D01*
X155228089Y-59126457D01*
X155228081Y-59126456D01*
X155000002Y-59106502D01*
X154999998Y-59106502D01*
X154771918Y-59126456D01*
X154771910Y-59126457D01*
X154550761Y-59185714D01*
X154550750Y-59185718D01*
X154343254Y-59282475D01*
X154343252Y-59282476D01*
X154277201Y-59328726D01*
X154155700Y-59413802D01*
X154155698Y-59413803D01*
X154155695Y-59413806D01*
X153993806Y-59575695D01*
X153862476Y-59763252D01*
X153862475Y-59763254D01*
X153765718Y-59970750D01*
X153765714Y-59970761D01*
X153706457Y-60191910D01*
X153706456Y-60191918D01*
X153686502Y-60419998D01*
X153686502Y-60420001D01*
X147813498Y-60420001D01*
X147813498Y-60420000D01*
X147813376Y-60418611D01*
X147806788Y-60343308D01*
X147793543Y-60191913D01*
X147734284Y-59970757D01*
X147728758Y-59958907D01*
X147695736Y-59888091D01*
X147637523Y-59763251D01*
X147506198Y-59575700D01*
X147344300Y-59413802D01*
X147156749Y-59282477D01*
X147124367Y-59267377D01*
X146949249Y-59185718D01*
X146949238Y-59185714D01*
X146728089Y-59126457D01*
X146728081Y-59126456D01*
X146500002Y-59106502D01*
X146499998Y-59106502D01*
X146271918Y-59126456D01*
X146271910Y-59126457D01*
X146050761Y-59185714D01*
X146050750Y-59185718D01*
X145843254Y-59282475D01*
X145843252Y-59282476D01*
X145777201Y-59328726D01*
X145655700Y-59413802D01*
X145655698Y-59413803D01*
X145655695Y-59413806D01*
X145493806Y-59575695D01*
X145362476Y-59763252D01*
X145362475Y-59763254D01*
X145265718Y-59970750D01*
X145265714Y-59970761D01*
X145206457Y-60191910D01*
X145206456Y-60191918D01*
X145186502Y-60419998D01*
X145186502Y-60420001D01*
X140908872Y-60420001D01*
X140726749Y-60292477D01*
X140726745Y-60292475D01*
X140519249Y-60195718D01*
X140519238Y-60195714D01*
X140298089Y-60136457D01*
X140298081Y-60136456D01*
X140070002Y-60116502D01*
X140069998Y-60116502D01*
X139841918Y-60136456D01*
X139841910Y-60136457D01*
X139620761Y-60195714D01*
X139620750Y-60195718D01*
X139413254Y-60292475D01*
X139413252Y-60292476D01*
X139413251Y-60292477D01*
X139225700Y-60423802D01*
X139225698Y-60423803D01*
X139225695Y-60423806D01*
X139063806Y-60585695D01*
X138932476Y-60773251D01*
X138912382Y-60816345D01*
X138866209Y-60868784D01*
X138799016Y-60887936D01*
X138732135Y-60867720D01*
X138687618Y-60816345D01*
X138667523Y-60773251D01*
X138615278Y-60698638D01*
X138536198Y-60585700D01*
X138374300Y-60423802D01*
X138186749Y-60292477D01*
X138186745Y-60292475D01*
X137979249Y-60195718D01*
X137979238Y-60195714D01*
X137758089Y-60136457D01*
X137758081Y-60136456D01*
X137530002Y-60116502D01*
X137529998Y-60116502D01*
X137301918Y-60136456D01*
X137301910Y-60136457D01*
X137080761Y-60195714D01*
X137080750Y-60195718D01*
X136873254Y-60292475D01*
X136873252Y-60292476D01*
X136873251Y-60292477D01*
X136685700Y-60423802D01*
X136685698Y-60423803D01*
X136685695Y-60423806D01*
X136523806Y-60585695D01*
X136523803Y-60585698D01*
X136523802Y-60585700D01*
X136448397Y-60693389D01*
X136392476Y-60773252D01*
X136392474Y-60773256D01*
X136367691Y-60826402D01*
X136321518Y-60878841D01*
X136254324Y-60897992D01*
X136187444Y-60877775D01*
X136142927Y-60826399D01*
X136120133Y-60777517D01*
X135989657Y-60591179D01*
X135828820Y-60430342D01*
X135642482Y-60299865D01*
X135436328Y-60203734D01*
X135240000Y-60151127D01*
X135240000Y-61114314D01*
X135235606Y-61109920D01*
X135144394Y-61057259D01*
X135042661Y-61030000D01*
X134937339Y-61030000D01*
X134835606Y-61057259D01*
X134744394Y-61109920D01*
X134740000Y-61114314D01*
X134740000Y-60151127D01*
X134543671Y-60203734D01*
X134337517Y-60299865D01*
X134151179Y-60430342D01*
X133990342Y-60591179D01*
X133859865Y-60777517D01*
X133837071Y-60826401D01*
X133790898Y-60878840D01*
X133723705Y-60897992D01*
X133656824Y-60877776D01*
X133612307Y-60826401D01*
X133587523Y-60773251D01*
X133535278Y-60698638D01*
X133456198Y-60585700D01*
X133294300Y-60423802D01*
X133106749Y-60292477D01*
X133106745Y-60292475D01*
X132899249Y-60195718D01*
X132899238Y-60195714D01*
X132678089Y-60136457D01*
X132678081Y-60136456D01*
X132450002Y-60116502D01*
X132449998Y-60116502D01*
X132221918Y-60136456D01*
X132221910Y-60136457D01*
X132000761Y-60195714D01*
X132000750Y-60195718D01*
X131793254Y-60292475D01*
X131793252Y-60292476D01*
X131793251Y-60292477D01*
X131605700Y-60423802D01*
X131605698Y-60423803D01*
X131605695Y-60423806D01*
X131443806Y-60585695D01*
X131443803Y-60585698D01*
X131443802Y-60585700D01*
X131368397Y-60693389D01*
X131312476Y-60773252D01*
X131312475Y-60773254D01*
X131215718Y-60980750D01*
X131215714Y-60980761D01*
X131156457Y-61201910D01*
X131156456Y-61201918D01*
X131136502Y-61429998D01*
X131136502Y-61430001D01*
X128196574Y-61430001D01*
X128226264Y-61366331D01*
X128226269Y-61366317D01*
X128285139Y-61146610D01*
X128285141Y-61146599D01*
X128304966Y-60920002D01*
X128304966Y-60919997D01*
X128285141Y-60693400D01*
X128285139Y-60693389D01*
X128226269Y-60473682D01*
X128226264Y-60473668D01*
X128130136Y-60267521D01*
X128130132Y-60267513D01*
X128079025Y-60194526D01*
X127400000Y-60873551D01*
X127400000Y-60867339D01*
X127372741Y-60765606D01*
X127320080Y-60674394D01*
X127245606Y-60599920D01*
X127154394Y-60547259D01*
X127052661Y-60520000D01*
X127046448Y-60520000D01*
X127725472Y-59840974D01*
X127652478Y-59789863D01*
X127446331Y-59693735D01*
X127446317Y-59693730D01*
X127226610Y-59634860D01*
X127226599Y-59634858D01*
X127000002Y-59615034D01*
X126999998Y-59615034D01*
X126773400Y-59634858D01*
X126773389Y-59634860D01*
X126553682Y-59693730D01*
X126553673Y-59693734D01*
X126347516Y-59789866D01*
X126347512Y-59789868D01*
X126274526Y-59840973D01*
X126274526Y-59840974D01*
X126953553Y-60520000D01*
X126947339Y-60520000D01*
X126845606Y-60547259D01*
X126754394Y-60599920D01*
X126679920Y-60674394D01*
X126627259Y-60765606D01*
X126600000Y-60867339D01*
X126600000Y-60873552D01*
X125920974Y-60194526D01*
X125920973Y-60194526D01*
X125869868Y-60267512D01*
X125869866Y-60267516D01*
X125773734Y-60473673D01*
X125773730Y-60473682D01*
X125714860Y-60693389D01*
X125714858Y-60693400D01*
X125695034Y-60919997D01*
X125695034Y-60920002D01*
X114316121Y-60920002D01*
X114338797Y-60902351D01*
X114338798Y-60902350D01*
X113628585Y-60192137D01*
X113713694Y-60169333D01*
X113816306Y-60110090D01*
X113900090Y-60026306D01*
X113959333Y-59923694D01*
X113982138Y-59838585D01*
X114691186Y-60547633D01*
X114775482Y-60418611D01*
X114868682Y-60206135D01*
X114925638Y-59981218D01*
X114944798Y-59750005D01*
X114944798Y-59749994D01*
X114925638Y-59518781D01*
X114868682Y-59293864D01*
X114775484Y-59081393D01*
X114691186Y-58952365D01*
X113982137Y-59661414D01*
X113959333Y-59576306D01*
X113900090Y-59473694D01*
X113816306Y-59389910D01*
X113713694Y-59330667D01*
X113628584Y-59307861D01*
X114338797Y-58597647D01*
X114338797Y-58597645D01*
X114308360Y-58573955D01*
X114308354Y-58573951D01*
X114104302Y-58463523D01*
X114104293Y-58463520D01*
X113884860Y-58388188D01*
X113656007Y-58350000D01*
X113423993Y-58350000D01*
X113195139Y-58388188D01*
X112975706Y-58463520D01*
X112975697Y-58463523D01*
X112771650Y-58573949D01*
X112741200Y-58597647D01*
X113451415Y-59307861D01*
X113366306Y-59330667D01*
X113263694Y-59389910D01*
X113179910Y-59473694D01*
X113120667Y-59576306D01*
X113097861Y-59661414D01*
X112444819Y-59008372D01*
X112411334Y-58947049D01*
X112408500Y-58920691D01*
X112408500Y-58801362D01*
X112408499Y-58801345D01*
X112405157Y-58770270D01*
X112401989Y-58740799D01*
X112350889Y-58603796D01*
X112263261Y-58486739D01*
X112146204Y-58399111D01*
X112116919Y-58388188D01*
X112009203Y-58348011D01*
X111948654Y-58341500D01*
X111948638Y-58341500D01*
X110051362Y-58341500D01*
X110051345Y-58341500D01*
X109990797Y-58348011D01*
X109990795Y-58348011D01*
X109853795Y-58399111D01*
X109736739Y-58486739D01*
X109649111Y-58603795D01*
X109598011Y-58740795D01*
X109598011Y-58740797D01*
X109591500Y-58801345D01*
X109591500Y-60698654D01*
X105534442Y-60698654D01*
X105563017Y-60683190D01*
X105747220Y-60539818D01*
X105905314Y-60368083D01*
X106032984Y-60172669D01*
X106126749Y-59958907D01*
X106184051Y-59732626D01*
X106203327Y-59500000D01*
X106201147Y-59473694D01*
X106184051Y-59267377D01*
X106184051Y-59267374D01*
X106126749Y-59041093D01*
X106032984Y-58827331D01*
X105905314Y-58631917D01*
X105905313Y-58631915D01*
X105747223Y-58460185D01*
X105747222Y-58460184D01*
X105747220Y-58460182D01*
X105563017Y-58316810D01*
X105563015Y-58316809D01*
X105563014Y-58316808D01*
X105563011Y-58316806D01*
X105357733Y-58205716D01*
X105357730Y-58205715D01*
X105357727Y-58205713D01*
X105357721Y-58205711D01*
X105357719Y-58205710D01*
X105136954Y-58129920D01*
X104945730Y-58098011D01*
X104906712Y-58091500D01*
X104673288Y-58091500D01*
X104634270Y-58098011D01*
X104443045Y-58129920D01*
X104222280Y-58205710D01*
X104222266Y-58205716D01*
X104016988Y-58316806D01*
X104016985Y-58316808D01*
X103832781Y-58460181D01*
X103829010Y-58463653D01*
X103828290Y-58462871D01*
X103772899Y-58496147D01*
X103703061Y-58494034D01*
X103645452Y-58454500D01*
X103625397Y-58419503D01*
X103613717Y-58388188D01*
X103600889Y-58353796D01*
X103513261Y-58236739D01*
X103396204Y-58149111D01*
X103259203Y-58098011D01*
X103198654Y-58091500D01*
X103198638Y-58091500D01*
X101301362Y-58091500D01*
X101301345Y-58091500D01*
X101240797Y-58098011D01*
X101240795Y-58098011D01*
X101103795Y-58149111D01*
X100986739Y-58236739D01*
X100899111Y-58353795D01*
X100848011Y-58490795D01*
X100848011Y-58490797D01*
X100841500Y-58551345D01*
X100841500Y-60448654D01*
X100075500Y-60448654D01*
X100075500Y-53500000D01*
X100986835Y-53500000D01*
X101005465Y-53736714D01*
X101060895Y-53967595D01*
X101060895Y-53967597D01*
X101151757Y-54186959D01*
X101151759Y-54186962D01*
X101275820Y-54389410D01*
X101275821Y-54389413D01*
X101289732Y-54405700D01*
X101430031Y-54569969D01*
X101530403Y-54655695D01*
X101610586Y-54724178D01*
X101610588Y-54724178D01*
X101766954Y-54820000D01*
X101813037Y-54848240D01*
X101813040Y-54848242D01*
X102032403Y-54939104D01*
X102032404Y-54939104D01*
X102032406Y-54939105D01*
X102263289Y-54994535D01*
X102500000Y-55013165D01*
X102736711Y-54994535D01*
X102967594Y-54939105D01*
X102967596Y-54939104D01*
X102967597Y-54939104D01*
X103186959Y-54848242D01*
X103186960Y-54848241D01*
X103186963Y-54848240D01*
X103389416Y-54724176D01*
X103569969Y-54569969D01*
X103724176Y-54389416D01*
X103848240Y-54186963D01*
X103858062Y-54163252D01*
X103939104Y-53967597D01*
X103939104Y-53967596D01*
X103939105Y-53967594D01*
X103994535Y-53736711D01*
X104013165Y-53500000D01*
X107486835Y-53500000D01*
X107505465Y-53736714D01*
X107560895Y-53967595D01*
X107560895Y-53967597D01*
X107651757Y-54186959D01*
X107651759Y-54186962D01*
X107775820Y-54389410D01*
X107775821Y-54389413D01*
X107789732Y-54405700D01*
X107930031Y-54569969D01*
X108030403Y-54655695D01*
X108110586Y-54724178D01*
X108110588Y-54724178D01*
X108266954Y-54820000D01*
X108313037Y-54848240D01*
X108313040Y-54848242D01*
X108532403Y-54939104D01*
X108532404Y-54939104D01*
X108532406Y-54939105D01*
X108763289Y-54994535D01*
X109000000Y-55013165D01*
X109236711Y-54994535D01*
X109467594Y-54939105D01*
X109467596Y-54939104D01*
X109467597Y-54939104D01*
X109686959Y-54848242D01*
X109686960Y-54848241D01*
X109686963Y-54848240D01*
X109733045Y-54820001D01*
X117786502Y-54820001D01*
X117806456Y-55048081D01*
X117806457Y-55048089D01*
X117865714Y-55269238D01*
X117865718Y-55269249D01*
X117866963Y-55271918D01*
X117962477Y-55476749D01*
X118093802Y-55664300D01*
X118255700Y-55826198D01*
X118443251Y-55957523D01*
X118568091Y-56015736D01*
X118650750Y-56054281D01*
X118650752Y-56054281D01*
X118650757Y-56054284D01*
X118871913Y-56113543D01*
X119034832Y-56127796D01*
X119099998Y-56133498D01*
X119100000Y-56133498D01*
X119100002Y-56133498D01*
X119157021Y-56128509D01*
X119328087Y-56113543D01*
X119549243Y-56054284D01*
X119756749Y-55957523D01*
X119944300Y-55826198D01*
X120106198Y-55664300D01*
X120221242Y-55500001D01*
X121936502Y-55500001D01*
X121956456Y-55728081D01*
X121956457Y-55728089D01*
X122015714Y-55949238D01*
X122015718Y-55949249D01*
X122092329Y-56113542D01*
X122112477Y-56156749D01*
X122243802Y-56344300D01*
X122405700Y-56506198D01*
X122593251Y-56637523D01*
X122718091Y-56695736D01*
X122800750Y-56734281D01*
X122800752Y-56734281D01*
X122800757Y-56734284D01*
X123021913Y-56793543D01*
X123184832Y-56807796D01*
X123249998Y-56813498D01*
X123250000Y-56813498D01*
X123250002Y-56813498D01*
X123307021Y-56808509D01*
X123478087Y-56793543D01*
X123699243Y-56734284D01*
X123906749Y-56637523D01*
X124094300Y-56506198D01*
X124256198Y-56344300D01*
X124387523Y-56156749D01*
X124484284Y-55949243D01*
X124543543Y-55728087D01*
X124563498Y-55500001D01*
X126936502Y-55500001D01*
X126956456Y-55728081D01*
X126956457Y-55728089D01*
X127015714Y-55949238D01*
X127015718Y-55949249D01*
X127092329Y-56113542D01*
X127112477Y-56156749D01*
X127243802Y-56344300D01*
X127405700Y-56506198D01*
X127593251Y-56637523D01*
X127718091Y-56695736D01*
X127800750Y-56734281D01*
X127800752Y-56734281D01*
X127800757Y-56734284D01*
X128021913Y-56793543D01*
X128184832Y-56807796D01*
X128249998Y-56813498D01*
X128250000Y-56813498D01*
X128250002Y-56813498D01*
X128307021Y-56808509D01*
X128478087Y-56793543D01*
X128699243Y-56734284D01*
X128906749Y-56637523D01*
X129094300Y-56506198D01*
X129201844Y-56398654D01*
X133891500Y-56398654D01*
X133898011Y-56459202D01*
X133898011Y-56459204D01*
X133929469Y-56543543D01*
X133949111Y-56596204D01*
X134036739Y-56713261D01*
X134153796Y-56800889D01*
X134290799Y-56851989D01*
X134318050Y-56854918D01*
X134351345Y-56858499D01*
X134351362Y-56858500D01*
X136148638Y-56858500D01*
X136148654Y-56858499D01*
X136175692Y-56855591D01*
X136209201Y-56851989D01*
X136346204Y-56800889D01*
X136463261Y-56713261D01*
X136550889Y-56596204D01*
X136601989Y-56459201D01*
X136605591Y-56425692D01*
X136608499Y-56398654D01*
X136608500Y-56398637D01*
X136608500Y-55250001D01*
X140106502Y-55250001D01*
X140126456Y-55478081D01*
X140126457Y-55478089D01*
X140185714Y-55699238D01*
X140185718Y-55699249D01*
X140282475Y-55906745D01*
X140282477Y-55906749D01*
X140413802Y-56094300D01*
X140575700Y-56256198D01*
X140763251Y-56387523D01*
X140787122Y-56398654D01*
X140970750Y-56484281D01*
X140970752Y-56484281D01*
X140970757Y-56484284D01*
X141191913Y-56543543D01*
X141354832Y-56557796D01*
X141419998Y-56563498D01*
X141420000Y-56563498D01*
X141420002Y-56563498D01*
X141477021Y-56558509D01*
X141648087Y-56543543D01*
X141869243Y-56484284D01*
X142076749Y-56387523D01*
X142264300Y-56256198D01*
X142426198Y-56094300D01*
X142557523Y-55906749D01*
X142654284Y-55699243D01*
X142713543Y-55478087D01*
X142733498Y-55250001D01*
X150266502Y-55250001D01*
X150286456Y-55478081D01*
X150286457Y-55478089D01*
X150345714Y-55699238D01*
X150345718Y-55699249D01*
X150442475Y-55906745D01*
X150442477Y-55906749D01*
X150573802Y-56094300D01*
X150735700Y-56256198D01*
X150923251Y-56387523D01*
X150947122Y-56398654D01*
X151130750Y-56484281D01*
X151130752Y-56484281D01*
X151130757Y-56484284D01*
X151351913Y-56543543D01*
X151514832Y-56557796D01*
X151579998Y-56563498D01*
X151580000Y-56563498D01*
X151580002Y-56563498D01*
X151637021Y-56558509D01*
X151808087Y-56543543D01*
X152029243Y-56484284D01*
X152236749Y-56387523D01*
X152424300Y-56256198D01*
X152586198Y-56094300D01*
X152717523Y-55906749D01*
X152814284Y-55699243D01*
X152873543Y-55478087D01*
X152893498Y-55250000D01*
X152873543Y-55021913D01*
X152814284Y-54800757D01*
X152717523Y-54593251D01*
X152586198Y-54405700D01*
X152424300Y-54243802D01*
X152236749Y-54112477D01*
X152236745Y-54112475D01*
X152029249Y-54015718D01*
X152029238Y-54015714D01*
X151808089Y-53956457D01*
X151808081Y-53956456D01*
X151580002Y-53936502D01*
X151579998Y-53936502D01*
X151351918Y-53956456D01*
X151351910Y-53956457D01*
X151130761Y-54015714D01*
X151130750Y-54015718D01*
X150923254Y-54112475D01*
X150923252Y-54112476D01*
X150923251Y-54112477D01*
X150735700Y-54243802D01*
X150735698Y-54243803D01*
X150735695Y-54243806D01*
X150573806Y-54405695D01*
X150442476Y-54593252D01*
X150442475Y-54593254D01*
X150345718Y-54800750D01*
X150345714Y-54800761D01*
X150286457Y-55021910D01*
X150286456Y-55021918D01*
X150266502Y-55249998D01*
X150266502Y-55250001D01*
X142733498Y-55250001D01*
X142733498Y-55250000D01*
X142713543Y-55021913D01*
X142654284Y-54800757D01*
X142557523Y-54593251D01*
X142426198Y-54405700D01*
X142264300Y-54243802D01*
X142076749Y-54112477D01*
X142076745Y-54112475D01*
X141869249Y-54015718D01*
X141869238Y-54015714D01*
X141648089Y-53956457D01*
X141648081Y-53956456D01*
X141420002Y-53936502D01*
X141419998Y-53936502D01*
X141191918Y-53956456D01*
X141191910Y-53956457D01*
X140970761Y-54015714D01*
X140970750Y-54015718D01*
X140763254Y-54112475D01*
X140763252Y-54112476D01*
X140763251Y-54112477D01*
X140575700Y-54243802D01*
X140575698Y-54243803D01*
X140575695Y-54243806D01*
X140413806Y-54405695D01*
X140282476Y-54593252D01*
X140282475Y-54593254D01*
X140185718Y-54800750D01*
X140185714Y-54800761D01*
X140126457Y-55021910D01*
X140126456Y-55021918D01*
X140106502Y-55249998D01*
X140106502Y-55250001D01*
X136608500Y-55250001D01*
X136608500Y-54601362D01*
X136608499Y-54601345D01*
X136605125Y-54569968D01*
X136601989Y-54540799D01*
X136550889Y-54403796D01*
X136463261Y-54286739D01*
X136346204Y-54199111D01*
X136209203Y-54148011D01*
X136148654Y-54141500D01*
X136148638Y-54141500D01*
X134351362Y-54141500D01*
X134351345Y-54141500D01*
X134290797Y-54148011D01*
X134290795Y-54148011D01*
X134153795Y-54199111D01*
X134036739Y-54286739D01*
X133949111Y-54403795D01*
X133898011Y-54540795D01*
X133898011Y-54540797D01*
X133891500Y-54601345D01*
X133891500Y-56398654D01*
X129201844Y-56398654D01*
X129256198Y-56344300D01*
X129387523Y-56156749D01*
X129484284Y-55949243D01*
X129543543Y-55728087D01*
X129563498Y-55500000D01*
X129561463Y-55476745D01*
X129543543Y-55271918D01*
X129543543Y-55271913D01*
X129484284Y-55050757D01*
X129458067Y-54994535D01*
X129387524Y-54843254D01*
X129387523Y-54843252D01*
X129387523Y-54843251D01*
X129256198Y-54655700D01*
X129094300Y-54493802D01*
X128906749Y-54362477D01*
X128906745Y-54362475D01*
X128699249Y-54265718D01*
X128699238Y-54265714D01*
X128478089Y-54206457D01*
X128478081Y-54206456D01*
X128250002Y-54186502D01*
X128249998Y-54186502D01*
X128021918Y-54206456D01*
X128021910Y-54206457D01*
X127800761Y-54265714D01*
X127800750Y-54265718D01*
X127593254Y-54362475D01*
X127593252Y-54362476D01*
X127531529Y-54405695D01*
X127405700Y-54493802D01*
X127405698Y-54493803D01*
X127405695Y-54493806D01*
X127243806Y-54655695D01*
X127243803Y-54655698D01*
X127243802Y-54655700D01*
X127161767Y-54772856D01*
X127112476Y-54843252D01*
X127112475Y-54843254D01*
X127015718Y-55050750D01*
X127015714Y-55050761D01*
X126956457Y-55271910D01*
X126956456Y-55271918D01*
X126936502Y-55499998D01*
X126936502Y-55500001D01*
X124563498Y-55500001D01*
X124563498Y-55500000D01*
X124561463Y-55476745D01*
X124543543Y-55271918D01*
X124543543Y-55271913D01*
X124484284Y-55050757D01*
X124458067Y-54994535D01*
X124387524Y-54843254D01*
X124387523Y-54843252D01*
X124387523Y-54843251D01*
X124256198Y-54655700D01*
X124094300Y-54493802D01*
X123906749Y-54362477D01*
X123906745Y-54362475D01*
X123699249Y-54265718D01*
X123699238Y-54265714D01*
X123478089Y-54206457D01*
X123478081Y-54206456D01*
X123250002Y-54186502D01*
X123249998Y-54186502D01*
X123021918Y-54206456D01*
X123021910Y-54206457D01*
X122800761Y-54265714D01*
X122800750Y-54265718D01*
X122593254Y-54362475D01*
X122593252Y-54362476D01*
X122531529Y-54405695D01*
X122405700Y-54493802D01*
X122405698Y-54493803D01*
X122405695Y-54493806D01*
X122243806Y-54655695D01*
X122243803Y-54655698D01*
X122243802Y-54655700D01*
X122161767Y-54772856D01*
X122112476Y-54843252D01*
X122112475Y-54843254D01*
X122015718Y-55050750D01*
X122015714Y-55050761D01*
X121956457Y-55271910D01*
X121956456Y-55271918D01*
X121936502Y-55499998D01*
X121936502Y-55500001D01*
X120221242Y-55500001D01*
X120237523Y-55476749D01*
X120334284Y-55269243D01*
X120393543Y-55048087D01*
X120413498Y-54820000D01*
X120411814Y-54800757D01*
X120405114Y-54724176D01*
X120393543Y-54591913D01*
X120334284Y-54370757D01*
X120237523Y-54163251D01*
X120106198Y-53975700D01*
X119944300Y-53813802D01*
X119756749Y-53682477D01*
X119756745Y-53682475D01*
X119549249Y-53585718D01*
X119549238Y-53585714D01*
X119328089Y-53526457D01*
X119328081Y-53526456D01*
X119100002Y-53506502D01*
X119099998Y-53506502D01*
X118871918Y-53526456D01*
X118871910Y-53526457D01*
X118650761Y-53585714D01*
X118650750Y-53585718D01*
X118443254Y-53682475D01*
X118443252Y-53682476D01*
X118443251Y-53682477D01*
X118255700Y-53813802D01*
X118255698Y-53813803D01*
X118255695Y-53813806D01*
X118093806Y-53975695D01*
X118093803Y-53975698D01*
X118093802Y-53975700D01*
X118065781Y-54015718D01*
X117962476Y-54163252D01*
X117962475Y-54163254D01*
X117865718Y-54370750D01*
X117865714Y-54370761D01*
X117806457Y-54591910D01*
X117806456Y-54591918D01*
X117786502Y-54819998D01*
X117786502Y-54820001D01*
X109733045Y-54820001D01*
X109889416Y-54724176D01*
X110069969Y-54569969D01*
X110224176Y-54389416D01*
X110348240Y-54186963D01*
X110358062Y-54163252D01*
X110439104Y-53967597D01*
X110439104Y-53967596D01*
X110439105Y-53967594D01*
X110494535Y-53736711D01*
X110513165Y-53500000D01*
X110494535Y-53263289D01*
X110439105Y-53032406D01*
X110439104Y-53032403D01*
X110439104Y-53032402D01*
X110348242Y-52813040D01*
X110348240Y-52813037D01*
X110224179Y-52610589D01*
X110224178Y-52610586D01*
X110189340Y-52569797D01*
X110069969Y-52430031D01*
X109950596Y-52328076D01*
X109889413Y-52275821D01*
X109889410Y-52275820D01*
X109686962Y-52151759D01*
X109686959Y-52151757D01*
X109467596Y-52060895D01*
X109236714Y-52005465D01*
X109000000Y-51986835D01*
X108763285Y-52005465D01*
X108532404Y-52060895D01*
X108532402Y-52060895D01*
X108313040Y-52151757D01*
X108313037Y-52151759D01*
X108110589Y-52275820D01*
X108110586Y-52275821D01*
X107930031Y-52430031D01*
X107775821Y-52610586D01*
X107775820Y-52610589D01*
X107651759Y-52813037D01*
X107651757Y-52813040D01*
X107560895Y-53032402D01*
X107560895Y-53032404D01*
X107505465Y-53263285D01*
X107486835Y-53500000D01*
X104013165Y-53500000D01*
X103994535Y-53263289D01*
X103939105Y-53032406D01*
X103939104Y-53032403D01*
X103939104Y-53032402D01*
X103848242Y-52813040D01*
X103848240Y-52813037D01*
X103724179Y-52610589D01*
X103724178Y-52610586D01*
X103689340Y-52569797D01*
X103569969Y-52430031D01*
X103450596Y-52328076D01*
X103389413Y-52275821D01*
X103389410Y-52275820D01*
X103186962Y-52151759D01*
X103186959Y-52151757D01*
X102967596Y-52060895D01*
X102736714Y-52005465D01*
X102500000Y-51986835D01*
X102263285Y-52005465D01*
X102032404Y-52060895D01*
X102032402Y-52060895D01*
X101813040Y-52151757D01*
X101813037Y-52151759D01*
X101610589Y-52275820D01*
X101610586Y-52275821D01*
X101430031Y-52430031D01*
X101275821Y-52610586D01*
X101275820Y-52610589D01*
X101151759Y-52813037D01*
X101151757Y-52813040D01*
X101060895Y-53032402D01*
X101060895Y-53032404D01*
X101005465Y-53263285D01*
X100986835Y-53500000D01*
X100075500Y-53500000D01*
X100075500Y-49000000D01*
X100986835Y-49000000D01*
X101005465Y-49236714D01*
X101060895Y-49467595D01*
X101060895Y-49467597D01*
X101151757Y-49686959D01*
X101151759Y-49686962D01*
X101275820Y-49889410D01*
X101275821Y-49889413D01*
X101328076Y-49950596D01*
X101430031Y-50069969D01*
X101569797Y-50189340D01*
X101610586Y-50224178D01*
X101610589Y-50224179D01*
X101813037Y-50348240D01*
X101813040Y-50348242D01*
X102032403Y-50439104D01*
X102032404Y-50439104D01*
X102032406Y-50439105D01*
X102263289Y-50494535D01*
X102500000Y-50513165D01*
X102736711Y-50494535D01*
X102967594Y-50439105D01*
X102967596Y-50439104D01*
X102967597Y-50439104D01*
X103186959Y-50348242D01*
X103186960Y-50348241D01*
X103186963Y-50348240D01*
X103389416Y-50224176D01*
X103569969Y-50069969D01*
X103724176Y-49889416D01*
X103848240Y-49686963D01*
X103939105Y-49467594D01*
X103994535Y-49236711D01*
X104013165Y-49000000D01*
X107486835Y-49000000D01*
X107505465Y-49236714D01*
X107560895Y-49467595D01*
X107560895Y-49467597D01*
X107651757Y-49686959D01*
X107651759Y-49686962D01*
X107775820Y-49889410D01*
X107775821Y-49889413D01*
X107828076Y-49950596D01*
X107930031Y-50069969D01*
X108069797Y-50189340D01*
X108110586Y-50224178D01*
X108110589Y-50224179D01*
X108313037Y-50348240D01*
X108313040Y-50348242D01*
X108532403Y-50439104D01*
X108532404Y-50439104D01*
X108532406Y-50439105D01*
X108763289Y-50494535D01*
X109000000Y-50513165D01*
X109236711Y-50494535D01*
X109467594Y-50439105D01*
X109467596Y-50439104D01*
X109467597Y-50439104D01*
X109686959Y-50348242D01*
X109686960Y-50348241D01*
X109686963Y-50348240D01*
X109889416Y-50224176D01*
X110036383Y-50098654D01*
X117437500Y-50098654D01*
X117444011Y-50159202D01*
X117444011Y-50159204D01*
X117495111Y-50296204D01*
X117582739Y-50413261D01*
X117699796Y-50500889D01*
X117836799Y-50551989D01*
X117864050Y-50554918D01*
X117897345Y-50558499D01*
X117897362Y-50558500D01*
X119694638Y-50558500D01*
X119694654Y-50558499D01*
X119721692Y-50555591D01*
X119755201Y-50551989D01*
X119892204Y-50500889D01*
X120009261Y-50413261D01*
X120096889Y-50296204D01*
X120142138Y-50174887D01*
X120184009Y-50118956D01*
X120249474Y-50094539D01*
X120317746Y-50109391D01*
X120349545Y-50134236D01*
X120412760Y-50202906D01*
X120590424Y-50341189D01*
X120590425Y-50341189D01*
X120590427Y-50341191D01*
X120717135Y-50409761D01*
X120788426Y-50448342D01*
X121001365Y-50521444D01*
X121223431Y-50558500D01*
X121448569Y-50558500D01*
X121670635Y-50521444D01*
X121883574Y-50448342D01*
X122081576Y-50341189D01*
X122259240Y-50202906D01*
X122411722Y-50037268D01*
X122502193Y-49898790D01*
X122555338Y-49853437D01*
X122624569Y-49844013D01*
X122687905Y-49873515D01*
X122709804Y-49898787D01*
X122800278Y-50037268D01*
X122800283Y-50037273D01*
X122800284Y-50037276D01*
X122926968Y-50174889D01*
X122952760Y-50202906D01*
X123130424Y-50341189D01*
X123130425Y-50341189D01*
X123130427Y-50341191D01*
X123257135Y-50409761D01*
X123328426Y-50448342D01*
X123541365Y-50521444D01*
X123763431Y-50558500D01*
X123988569Y-50558500D01*
X124210635Y-50521444D01*
X124423574Y-50448342D01*
X124621576Y-50341189D01*
X124799240Y-50202906D01*
X124951722Y-50037268D01*
X125042193Y-49898790D01*
X125095338Y-49853437D01*
X125164569Y-49844013D01*
X125227905Y-49873515D01*
X125249804Y-49898787D01*
X125340278Y-50037268D01*
X125340283Y-50037273D01*
X125340284Y-50037276D01*
X125466968Y-50174889D01*
X125492760Y-50202906D01*
X125670424Y-50341189D01*
X125670425Y-50341189D01*
X125670427Y-50341191D01*
X125797135Y-50409761D01*
X125868426Y-50448342D01*
X126081365Y-50521444D01*
X126303431Y-50558500D01*
X126528569Y-50558500D01*
X126750635Y-50521444D01*
X126963574Y-50448342D01*
X127161576Y-50341189D01*
X127339240Y-50202906D01*
X127491722Y-50037268D01*
X127582193Y-49898790D01*
X127635338Y-49853437D01*
X127704569Y-49844013D01*
X127767905Y-49873515D01*
X127789804Y-49898787D01*
X127880278Y-50037268D01*
X127880283Y-50037273D01*
X127880284Y-50037276D01*
X128006968Y-50174889D01*
X128032760Y-50202906D01*
X128210424Y-50341189D01*
X128210425Y-50341189D01*
X128210427Y-50341191D01*
X128337135Y-50409761D01*
X128408426Y-50448342D01*
X128621365Y-50521444D01*
X128843431Y-50558500D01*
X129068569Y-50558500D01*
X129290635Y-50521444D01*
X129503574Y-50448342D01*
X129701576Y-50341189D01*
X129879240Y-50202906D01*
X130031722Y-50037268D01*
X130122193Y-49898790D01*
X130175338Y-49853437D01*
X130244569Y-49844013D01*
X130307905Y-49873515D01*
X130329804Y-49898787D01*
X130420278Y-50037268D01*
X130420283Y-50037273D01*
X130420284Y-50037276D01*
X130546968Y-50174889D01*
X130572760Y-50202906D01*
X130750424Y-50341189D01*
X130750425Y-50341189D01*
X130750427Y-50341191D01*
X130877135Y-50409761D01*
X130948426Y-50448342D01*
X131161365Y-50521444D01*
X131383431Y-50558500D01*
X131608569Y-50558500D01*
X131830635Y-50521444D01*
X132043574Y-50448342D01*
X132241576Y-50341189D01*
X132419240Y-50202906D01*
X132571722Y-50037268D01*
X132662193Y-49898790D01*
X132715338Y-49853437D01*
X132784569Y-49844013D01*
X132847905Y-49873515D01*
X132869804Y-49898787D01*
X132960278Y-50037268D01*
X132960283Y-50037273D01*
X132960284Y-50037276D01*
X133086968Y-50174889D01*
X133112760Y-50202906D01*
X133290424Y-50341189D01*
X133290425Y-50341189D01*
X133290427Y-50341191D01*
X133417135Y-50409761D01*
X133488426Y-50448342D01*
X133701365Y-50521444D01*
X133923431Y-50558500D01*
X134148569Y-50558500D01*
X134370635Y-50521444D01*
X134583574Y-50448342D01*
X134781576Y-50341189D01*
X134959240Y-50202906D01*
X135111722Y-50037268D01*
X135202193Y-49898790D01*
X135255338Y-49853437D01*
X135324569Y-49844013D01*
X135387905Y-49873515D01*
X135409804Y-49898787D01*
X135500278Y-50037268D01*
X135500283Y-50037273D01*
X135500284Y-50037276D01*
X135626968Y-50174889D01*
X135652760Y-50202906D01*
X135830424Y-50341189D01*
X135830425Y-50341189D01*
X135830427Y-50341191D01*
X135957135Y-50409761D01*
X136028426Y-50448342D01*
X136241365Y-50521444D01*
X136463431Y-50558500D01*
X136688569Y-50558500D01*
X136910635Y-50521444D01*
X137123574Y-50448342D01*
X137321576Y-50341189D01*
X137499240Y-50202906D01*
X137651722Y-50037268D01*
X137742193Y-49898790D01*
X137795338Y-49853437D01*
X137864569Y-49844013D01*
X137927905Y-49873515D01*
X137949804Y-49898787D01*
X138040278Y-50037268D01*
X138040283Y-50037273D01*
X138040284Y-50037276D01*
X138166968Y-50174889D01*
X138192760Y-50202906D01*
X138370424Y-50341189D01*
X138370425Y-50341189D01*
X138370427Y-50341191D01*
X138497135Y-50409761D01*
X138568426Y-50448342D01*
X138781365Y-50521444D01*
X139003431Y-50558500D01*
X139228569Y-50558500D01*
X139450635Y-50521444D01*
X139663574Y-50448342D01*
X139861576Y-50341189D01*
X140039240Y-50202906D01*
X140191722Y-50037268D01*
X140282193Y-49898790D01*
X140335338Y-49853437D01*
X140404569Y-49844013D01*
X140467905Y-49873515D01*
X140489804Y-49898787D01*
X140580278Y-50037268D01*
X140580283Y-50037273D01*
X140580284Y-50037276D01*
X140706968Y-50174889D01*
X140732760Y-50202906D01*
X140910424Y-50341189D01*
X140910425Y-50341189D01*
X140910427Y-50341191D01*
X141037135Y-50409761D01*
X141108426Y-50448342D01*
X141321365Y-50521444D01*
X141543431Y-50558500D01*
X141768569Y-50558500D01*
X141990635Y-50521444D01*
X142203574Y-50448342D01*
X142401576Y-50341189D01*
X142579240Y-50202906D01*
X142675212Y-50098654D01*
X144361500Y-50098654D01*
X144368011Y-50159202D01*
X144368011Y-50159204D01*
X144419111Y-50296204D01*
X144506739Y-50413261D01*
X144623796Y-50500889D01*
X144760799Y-50551989D01*
X144788050Y-50554918D01*
X144821345Y-50558499D01*
X144821362Y-50558500D01*
X146618638Y-50558500D01*
X146618654Y-50558499D01*
X146645692Y-50555591D01*
X146679201Y-50551989D01*
X146816204Y-50500889D01*
X146933261Y-50413261D01*
X147020889Y-50296204D01*
X147066138Y-50174887D01*
X147108009Y-50118956D01*
X147173474Y-50094539D01*
X147241746Y-50109391D01*
X147273545Y-50134236D01*
X147336760Y-50202906D01*
X147514424Y-50341189D01*
X147514425Y-50341189D01*
X147514427Y-50341191D01*
X147641135Y-50409761D01*
X147712426Y-50448342D01*
X147925365Y-50521444D01*
X148147431Y-50558500D01*
X148372569Y-50558500D01*
X148594635Y-50521444D01*
X148807574Y-50448342D01*
X149005576Y-50341189D01*
X149183240Y-50202906D01*
X149335722Y-50037268D01*
X149426193Y-49898790D01*
X149479338Y-49853437D01*
X149548569Y-49844013D01*
X149611905Y-49873515D01*
X149633804Y-49898787D01*
X149724278Y-50037268D01*
X149724283Y-50037273D01*
X149724284Y-50037276D01*
X149850968Y-50174889D01*
X149876760Y-50202906D01*
X150054424Y-50341189D01*
X150054425Y-50341189D01*
X150054427Y-50341191D01*
X150181135Y-50409761D01*
X150252426Y-50448342D01*
X150465365Y-50521444D01*
X150687431Y-50558500D01*
X150912569Y-50558500D01*
X151134635Y-50521444D01*
X151347574Y-50448342D01*
X151545576Y-50341189D01*
X151723240Y-50202906D01*
X151875722Y-50037268D01*
X151966193Y-49898790D01*
X152019338Y-49853437D01*
X152088569Y-49844013D01*
X152151905Y-49873515D01*
X152173804Y-49898787D01*
X152264278Y-50037268D01*
X152264283Y-50037273D01*
X152264284Y-50037276D01*
X152390968Y-50174889D01*
X152416760Y-50202906D01*
X152594424Y-50341189D01*
X152594425Y-50341189D01*
X152594427Y-50341191D01*
X152721135Y-50409761D01*
X152792426Y-50448342D01*
X153005365Y-50521444D01*
X153227431Y-50558500D01*
X153452569Y-50558500D01*
X153674635Y-50521444D01*
X153887574Y-50448342D01*
X154085576Y-50341189D01*
X154263240Y-50202906D01*
X154415722Y-50037268D01*
X154506193Y-49898790D01*
X154559338Y-49853437D01*
X154628569Y-49844013D01*
X154691905Y-49873515D01*
X154713804Y-49898787D01*
X154804278Y-50037268D01*
X154804283Y-50037273D01*
X154804284Y-50037276D01*
X154930968Y-50174889D01*
X154956760Y-50202906D01*
X155134424Y-50341189D01*
X155134425Y-50341189D01*
X155134427Y-50341191D01*
X155261135Y-50409761D01*
X155332426Y-50448342D01*
X155545365Y-50521444D01*
X155767431Y-50558500D01*
X155992569Y-50558500D01*
X156214635Y-50521444D01*
X156427574Y-50448342D01*
X156625576Y-50341189D01*
X156803240Y-50202906D01*
X156955722Y-50037268D01*
X157046193Y-49898790D01*
X157099338Y-49853437D01*
X157168569Y-49844013D01*
X157231905Y-49873515D01*
X157253804Y-49898787D01*
X157344278Y-50037268D01*
X157344283Y-50037273D01*
X157344284Y-50037276D01*
X157470968Y-50174889D01*
X157496760Y-50202906D01*
X157674424Y-50341189D01*
X157674425Y-50341189D01*
X157674427Y-50341191D01*
X157801135Y-50409761D01*
X157872426Y-50448342D01*
X158085365Y-50521444D01*
X158307431Y-50558500D01*
X158532569Y-50558500D01*
X158754635Y-50521444D01*
X158967574Y-50448342D01*
X159165576Y-50341189D01*
X159343240Y-50202906D01*
X159495722Y-50037268D01*
X159586193Y-49898790D01*
X159639338Y-49853437D01*
X159708569Y-49844013D01*
X159771905Y-49873515D01*
X159793804Y-49898787D01*
X159884278Y-50037268D01*
X159884283Y-50037273D01*
X159884284Y-50037276D01*
X160010968Y-50174889D01*
X160036760Y-50202906D01*
X160214424Y-50341189D01*
X160214425Y-50341189D01*
X160214427Y-50341191D01*
X160341135Y-50409761D01*
X160412426Y-50448342D01*
X160625365Y-50521444D01*
X160847431Y-50558500D01*
X161072569Y-50558500D01*
X161294635Y-50521444D01*
X161507574Y-50448342D01*
X161705576Y-50341189D01*
X161883240Y-50202906D01*
X162035722Y-50037268D01*
X162126193Y-49898790D01*
X162179338Y-49853437D01*
X162248569Y-49844013D01*
X162311905Y-49873515D01*
X162333804Y-49898787D01*
X162424278Y-50037268D01*
X162424283Y-50037273D01*
X162424284Y-50037276D01*
X162550968Y-50174889D01*
X162576760Y-50202906D01*
X162754424Y-50341189D01*
X162754425Y-50341189D01*
X162754427Y-50341191D01*
X162881135Y-50409761D01*
X162952426Y-50448342D01*
X163165365Y-50521444D01*
X163387431Y-50558500D01*
X163612569Y-50558500D01*
X163834635Y-50521444D01*
X164047574Y-50448342D01*
X164245576Y-50341189D01*
X164423240Y-50202906D01*
X164575722Y-50037268D01*
X164698860Y-49848791D01*
X164789296Y-49642616D01*
X164844564Y-49424368D01*
X164863156Y-49200000D01*
X164859612Y-49157233D01*
X164844565Y-48975640D01*
X164844563Y-48975628D01*
X164789296Y-48757385D01*
X164698859Y-48551207D01*
X164575723Y-48362734D01*
X164575715Y-48362723D01*
X164423243Y-48197097D01*
X164423238Y-48197092D01*
X164245577Y-48058812D01*
X164245572Y-48058808D01*
X164047580Y-47951661D01*
X164047577Y-47951659D01*
X164047574Y-47951658D01*
X164047571Y-47951657D01*
X164047569Y-47951656D01*
X163834637Y-47878556D01*
X163612569Y-47841500D01*
X163387431Y-47841500D01*
X163165362Y-47878556D01*
X162952430Y-47951656D01*
X162952419Y-47951661D01*
X162754427Y-48058808D01*
X162754422Y-48058812D01*
X162576761Y-48197092D01*
X162576756Y-48197097D01*
X162424284Y-48362723D01*
X162424276Y-48362734D01*
X162333808Y-48501206D01*
X162280662Y-48546562D01*
X162211431Y-48555986D01*
X162148095Y-48526484D01*
X162126192Y-48501206D01*
X162035723Y-48362734D01*
X162035715Y-48362723D01*
X161883243Y-48197097D01*
X161883238Y-48197092D01*
X161705577Y-48058812D01*
X161705572Y-48058808D01*
X161507580Y-47951661D01*
X161507577Y-47951659D01*
X161507574Y-47951658D01*
X161507571Y-47951657D01*
X161507569Y-47951656D01*
X161294637Y-47878556D01*
X161072569Y-47841500D01*
X160847431Y-47841500D01*
X160625362Y-47878556D01*
X160412430Y-47951656D01*
X160412419Y-47951661D01*
X160214427Y-48058808D01*
X160214422Y-48058812D01*
X160036761Y-48197092D01*
X160036756Y-48197097D01*
X159884284Y-48362723D01*
X159884276Y-48362734D01*
X159793808Y-48501206D01*
X159740662Y-48546562D01*
X159671431Y-48555986D01*
X159608095Y-48526484D01*
X159586192Y-48501206D01*
X159495723Y-48362734D01*
X159495715Y-48362723D01*
X159343243Y-48197097D01*
X159343238Y-48197092D01*
X159165577Y-48058812D01*
X159165572Y-48058808D01*
X158967580Y-47951661D01*
X158967577Y-47951659D01*
X158967574Y-47951658D01*
X158967571Y-47951657D01*
X158967569Y-47951656D01*
X158754637Y-47878556D01*
X158532569Y-47841500D01*
X158307431Y-47841500D01*
X158085362Y-47878556D01*
X157872430Y-47951656D01*
X157872419Y-47951661D01*
X157674427Y-48058808D01*
X157674422Y-48058812D01*
X157496761Y-48197092D01*
X157496756Y-48197097D01*
X157344284Y-48362723D01*
X157344276Y-48362734D01*
X157253808Y-48501206D01*
X157200662Y-48546562D01*
X157131431Y-48555986D01*
X157068095Y-48526484D01*
X157046192Y-48501206D01*
X156955723Y-48362734D01*
X156955715Y-48362723D01*
X156803243Y-48197097D01*
X156803238Y-48197092D01*
X156625577Y-48058812D01*
X156625572Y-48058808D01*
X156427580Y-47951661D01*
X156427577Y-47951659D01*
X156427574Y-47951658D01*
X156427571Y-47951657D01*
X156427569Y-47951656D01*
X156214637Y-47878556D01*
X155992569Y-47841500D01*
X155767431Y-47841500D01*
X155545362Y-47878556D01*
X155332430Y-47951656D01*
X155332419Y-47951661D01*
X155134427Y-48058808D01*
X155134422Y-48058812D01*
X154956761Y-48197092D01*
X154956756Y-48197097D01*
X154804284Y-48362723D01*
X154804276Y-48362734D01*
X154713808Y-48501206D01*
X154660662Y-48546562D01*
X154591431Y-48555986D01*
X154528095Y-48526484D01*
X154506192Y-48501206D01*
X154415723Y-48362734D01*
X154415715Y-48362723D01*
X154263243Y-48197097D01*
X154263238Y-48197092D01*
X154085577Y-48058812D01*
X154085572Y-48058808D01*
X153887580Y-47951661D01*
X153887577Y-47951659D01*
X153887574Y-47951658D01*
X153887571Y-47951657D01*
X153887569Y-47951656D01*
X153674637Y-47878556D01*
X153452569Y-47841500D01*
X153227431Y-47841500D01*
X153005362Y-47878556D01*
X152792430Y-47951656D01*
X152792419Y-47951661D01*
X152594427Y-48058808D01*
X152594422Y-48058812D01*
X152416761Y-48197092D01*
X152416756Y-48197097D01*
X152264284Y-48362723D01*
X152264276Y-48362734D01*
X152173808Y-48501206D01*
X152120662Y-48546562D01*
X152051431Y-48555986D01*
X151988095Y-48526484D01*
X151966192Y-48501206D01*
X151875723Y-48362734D01*
X151875715Y-48362723D01*
X151723243Y-48197097D01*
X151723238Y-48197092D01*
X151545577Y-48058812D01*
X151545572Y-48058808D01*
X151347580Y-47951661D01*
X151347577Y-47951659D01*
X151347574Y-47951658D01*
X151347571Y-47951657D01*
X151347569Y-47951656D01*
X151134637Y-47878556D01*
X150912569Y-47841500D01*
X150687431Y-47841500D01*
X150465362Y-47878556D01*
X150252430Y-47951656D01*
X150252419Y-47951661D01*
X150054427Y-48058808D01*
X150054422Y-48058812D01*
X149876761Y-48197092D01*
X149876756Y-48197097D01*
X149724284Y-48362723D01*
X149724276Y-48362734D01*
X149633808Y-48501206D01*
X149580662Y-48546562D01*
X149511431Y-48555986D01*
X149448095Y-48526484D01*
X149426192Y-48501206D01*
X149335723Y-48362734D01*
X149335715Y-48362723D01*
X149183243Y-48197097D01*
X149183238Y-48197092D01*
X149005577Y-48058812D01*
X149005572Y-48058808D01*
X148807580Y-47951661D01*
X148807577Y-47951659D01*
X148807574Y-47951658D01*
X148807571Y-47951657D01*
X148807569Y-47951656D01*
X148594637Y-47878556D01*
X148372569Y-47841500D01*
X148147431Y-47841500D01*
X147925362Y-47878556D01*
X147712430Y-47951656D01*
X147712419Y-47951661D01*
X147514427Y-48058808D01*
X147514422Y-48058812D01*
X147336761Y-48197092D01*
X147273548Y-48265760D01*
X147213661Y-48301750D01*
X147143823Y-48299649D01*
X147086207Y-48260124D01*
X147066138Y-48225110D01*
X147020889Y-48103796D01*
X146987214Y-48058812D01*
X146933261Y-47986739D01*
X146816204Y-47899111D01*
X146679203Y-47848011D01*
X146618654Y-47841500D01*
X146618638Y-47841500D01*
X144821362Y-47841500D01*
X144821345Y-47841500D01*
X144760797Y-47848011D01*
X144760795Y-47848011D01*
X144623795Y-47899111D01*
X144506739Y-47986739D01*
X144419111Y-48103795D01*
X144368011Y-48240795D01*
X144368011Y-48240797D01*
X144361500Y-48301345D01*
X144361500Y-50098654D01*
X142675212Y-50098654D01*
X142731722Y-50037268D01*
X142854860Y-49848791D01*
X142945296Y-49642616D01*
X143000564Y-49424368D01*
X143019156Y-49200000D01*
X143015612Y-49157233D01*
X143000565Y-48975640D01*
X143000563Y-48975628D01*
X142945296Y-48757385D01*
X142854859Y-48551207D01*
X142731723Y-48362734D01*
X142731715Y-48362723D01*
X142579243Y-48197097D01*
X142579238Y-48197092D01*
X142401577Y-48058812D01*
X142401572Y-48058808D01*
X142203580Y-47951661D01*
X142203577Y-47951659D01*
X142203574Y-47951658D01*
X142203571Y-47951657D01*
X142203569Y-47951656D01*
X141990637Y-47878556D01*
X141768569Y-47841500D01*
X141543431Y-47841500D01*
X141321362Y-47878556D01*
X141108430Y-47951656D01*
X141108419Y-47951661D01*
X140910427Y-48058808D01*
X140910422Y-48058812D01*
X140732761Y-48197092D01*
X140732756Y-48197097D01*
X140580284Y-48362723D01*
X140580276Y-48362734D01*
X140489808Y-48501206D01*
X140436662Y-48546562D01*
X140367431Y-48555986D01*
X140304095Y-48526484D01*
X140282192Y-48501206D01*
X140191723Y-48362734D01*
X140191715Y-48362723D01*
X140039243Y-48197097D01*
X140039238Y-48197092D01*
X139861577Y-48058812D01*
X139861572Y-48058808D01*
X139663580Y-47951661D01*
X139663577Y-47951659D01*
X139663574Y-47951658D01*
X139663571Y-47951657D01*
X139663569Y-47951656D01*
X139450637Y-47878556D01*
X139228569Y-47841500D01*
X139003431Y-47841500D01*
X138781362Y-47878556D01*
X138568430Y-47951656D01*
X138568419Y-47951661D01*
X138370427Y-48058808D01*
X138370422Y-48058812D01*
X138192761Y-48197092D01*
X138192756Y-48197097D01*
X138040284Y-48362723D01*
X138040276Y-48362734D01*
X137949808Y-48501206D01*
X137896662Y-48546562D01*
X137827431Y-48555986D01*
X137764095Y-48526484D01*
X137742192Y-48501206D01*
X137651723Y-48362734D01*
X137651715Y-48362723D01*
X137499243Y-48197097D01*
X137499238Y-48197092D01*
X137321577Y-48058812D01*
X137321572Y-48058808D01*
X137123580Y-47951661D01*
X137123577Y-47951659D01*
X137123574Y-47951658D01*
X137123571Y-47951657D01*
X137123569Y-47951656D01*
X136910637Y-47878556D01*
X136688569Y-47841500D01*
X136463431Y-47841500D01*
X136241362Y-47878556D01*
X136028430Y-47951656D01*
X136028419Y-47951661D01*
X135830427Y-48058808D01*
X135830422Y-48058812D01*
X135652761Y-48197092D01*
X135652756Y-48197097D01*
X135500284Y-48362723D01*
X135500276Y-48362734D01*
X135409808Y-48501206D01*
X135356662Y-48546562D01*
X135287431Y-48555986D01*
X135224095Y-48526484D01*
X135202192Y-48501206D01*
X135111723Y-48362734D01*
X135111715Y-48362723D01*
X134959243Y-48197097D01*
X134959238Y-48197092D01*
X134781577Y-48058812D01*
X134781572Y-48058808D01*
X134583580Y-47951661D01*
X134583577Y-47951659D01*
X134583574Y-47951658D01*
X134583571Y-47951657D01*
X134583569Y-47951656D01*
X134370637Y-47878556D01*
X134148569Y-47841500D01*
X133923431Y-47841500D01*
X133701362Y-47878556D01*
X133488430Y-47951656D01*
X133488419Y-47951661D01*
X133290427Y-48058808D01*
X133290422Y-48058812D01*
X133112761Y-48197092D01*
X133112756Y-48197097D01*
X132960284Y-48362723D01*
X132960276Y-48362734D01*
X132869808Y-48501206D01*
X132816662Y-48546562D01*
X132747431Y-48555986D01*
X132684095Y-48526484D01*
X132662192Y-48501206D01*
X132571723Y-48362734D01*
X132571715Y-48362723D01*
X132419243Y-48197097D01*
X132419238Y-48197092D01*
X132241577Y-48058812D01*
X132241572Y-48058808D01*
X132043580Y-47951661D01*
X132043577Y-47951659D01*
X132043574Y-47951658D01*
X132043571Y-47951657D01*
X132043569Y-47951656D01*
X131830637Y-47878556D01*
X131608569Y-47841500D01*
X131383431Y-47841500D01*
X131161362Y-47878556D01*
X130948430Y-47951656D01*
X130948419Y-47951661D01*
X130750427Y-48058808D01*
X130750422Y-48058812D01*
X130572761Y-48197092D01*
X130572756Y-48197097D01*
X130420284Y-48362723D01*
X130420276Y-48362734D01*
X130329808Y-48501206D01*
X130276662Y-48546562D01*
X130207431Y-48555986D01*
X130144095Y-48526484D01*
X130122192Y-48501206D01*
X130031723Y-48362734D01*
X130031715Y-48362723D01*
X129879243Y-48197097D01*
X129879238Y-48197092D01*
X129701577Y-48058812D01*
X129701572Y-48058808D01*
X129503580Y-47951661D01*
X129503577Y-47951659D01*
X129503574Y-47951658D01*
X129503571Y-47951657D01*
X129503569Y-47951656D01*
X129290637Y-47878556D01*
X129068569Y-47841500D01*
X128843431Y-47841500D01*
X128621362Y-47878556D01*
X128408430Y-47951656D01*
X128408419Y-47951661D01*
X128210427Y-48058808D01*
X128210422Y-48058812D01*
X128032761Y-48197092D01*
X128032756Y-48197097D01*
X127880284Y-48362723D01*
X127880276Y-48362734D01*
X127789808Y-48501206D01*
X127736662Y-48546562D01*
X127667431Y-48555986D01*
X127604095Y-48526484D01*
X127582192Y-48501206D01*
X127491723Y-48362734D01*
X127491715Y-48362723D01*
X127339243Y-48197097D01*
X127339238Y-48197092D01*
X127161577Y-48058812D01*
X127161572Y-48058808D01*
X126963580Y-47951661D01*
X126963577Y-47951659D01*
X126963574Y-47951658D01*
X126963571Y-47951657D01*
X126963569Y-47951656D01*
X126750637Y-47878556D01*
X126528569Y-47841500D01*
X126303431Y-47841500D01*
X126081362Y-47878556D01*
X125868430Y-47951656D01*
X125868419Y-47951661D01*
X125670427Y-48058808D01*
X125670422Y-48058812D01*
X125492761Y-48197092D01*
X125492756Y-48197097D01*
X125340284Y-48362723D01*
X125340276Y-48362734D01*
X125249808Y-48501206D01*
X125196662Y-48546562D01*
X125127431Y-48555986D01*
X125064095Y-48526484D01*
X125042192Y-48501206D01*
X124951723Y-48362734D01*
X124951715Y-48362723D01*
X124799243Y-48197097D01*
X124799238Y-48197092D01*
X124621577Y-48058812D01*
X124621572Y-48058808D01*
X124423580Y-47951661D01*
X124423577Y-47951659D01*
X124423574Y-47951658D01*
X124423571Y-47951657D01*
X124423569Y-47951656D01*
X124210637Y-47878556D01*
X123988569Y-47841500D01*
X123763431Y-47841500D01*
X123541362Y-47878556D01*
X123328430Y-47951656D01*
X123328419Y-47951661D01*
X123130427Y-48058808D01*
X123130422Y-48058812D01*
X122952761Y-48197092D01*
X122952756Y-48197097D01*
X122800284Y-48362723D01*
X122800276Y-48362734D01*
X122709808Y-48501206D01*
X122656662Y-48546562D01*
X122587431Y-48555986D01*
X122524095Y-48526484D01*
X122502192Y-48501206D01*
X122411723Y-48362734D01*
X122411715Y-48362723D01*
X122259243Y-48197097D01*
X122259238Y-48197092D01*
X122081577Y-48058812D01*
X122081572Y-48058808D01*
X121883580Y-47951661D01*
X121883577Y-47951659D01*
X121883574Y-47951658D01*
X121883571Y-47951657D01*
X121883569Y-47951656D01*
X121670637Y-47878556D01*
X121448569Y-47841500D01*
X121223431Y-47841500D01*
X121001362Y-47878556D01*
X120788430Y-47951656D01*
X120788419Y-47951661D01*
X120590427Y-48058808D01*
X120590422Y-48058812D01*
X120412761Y-48197092D01*
X120349548Y-48265760D01*
X120289661Y-48301750D01*
X120219823Y-48299649D01*
X120162207Y-48260124D01*
X120142138Y-48225110D01*
X120096889Y-48103796D01*
X120063214Y-48058812D01*
X120009261Y-47986739D01*
X119892204Y-47899111D01*
X119755203Y-47848011D01*
X119694654Y-47841500D01*
X119694638Y-47841500D01*
X117897362Y-47841500D01*
X117897345Y-47841500D01*
X117836797Y-47848011D01*
X117836795Y-47848011D01*
X117699795Y-47899111D01*
X117582739Y-47986739D01*
X117495111Y-48103795D01*
X117444011Y-48240795D01*
X117444011Y-48240797D01*
X117437500Y-48301345D01*
X117437500Y-50098654D01*
X110036383Y-50098654D01*
X110069969Y-50069969D01*
X110224176Y-49889416D01*
X110348240Y-49686963D01*
X110439105Y-49467594D01*
X110494535Y-49236711D01*
X110513165Y-49000000D01*
X110494535Y-48763289D01*
X110439105Y-48532406D01*
X110439104Y-48532403D01*
X110439104Y-48532402D01*
X110348242Y-48313040D01*
X110348240Y-48313037D01*
X110294358Y-48225110D01*
X110224178Y-48110588D01*
X110224178Y-48110586D01*
X110118402Y-47986739D01*
X110069969Y-47930031D01*
X109950596Y-47828076D01*
X109889413Y-47775821D01*
X109889410Y-47775820D01*
X109686962Y-47651759D01*
X109686959Y-47651757D01*
X109467596Y-47560895D01*
X109236714Y-47505465D01*
X109000000Y-47486835D01*
X108763285Y-47505465D01*
X108532404Y-47560895D01*
X108532402Y-47560895D01*
X108313040Y-47651757D01*
X108313037Y-47651759D01*
X108110589Y-47775820D01*
X108110586Y-47775821D01*
X107930031Y-47930031D01*
X107775821Y-48110586D01*
X107775820Y-48110589D01*
X107651759Y-48313037D01*
X107651757Y-48313040D01*
X107560895Y-48532402D01*
X107560895Y-48532404D01*
X107505465Y-48763285D01*
X107486835Y-49000000D01*
X104013165Y-49000000D01*
X103994535Y-48763289D01*
X103939105Y-48532406D01*
X103939104Y-48532403D01*
X103939104Y-48532402D01*
X103848242Y-48313040D01*
X103848240Y-48313037D01*
X103794358Y-48225110D01*
X103724178Y-48110588D01*
X103724178Y-48110586D01*
X103618402Y-47986739D01*
X103569969Y-47930031D01*
X103450596Y-47828076D01*
X103389413Y-47775821D01*
X103389410Y-47775820D01*
X103186962Y-47651759D01*
X103186959Y-47651757D01*
X102967596Y-47560895D01*
X102736714Y-47505465D01*
X102500000Y-47486835D01*
X102263285Y-47505465D01*
X102032404Y-47560895D01*
X102032402Y-47560895D01*
X101813040Y-47651757D01*
X101813037Y-47651759D01*
X101610589Y-47775820D01*
X101610586Y-47775821D01*
X101430031Y-47930031D01*
X101275821Y-48110586D01*
X101275820Y-48110589D01*
X101151759Y-48313037D01*
X101151757Y-48313040D01*
X101060895Y-48532402D01*
X101060895Y-48532404D01*
X101005465Y-48763285D01*
X100986835Y-49000000D01*
X100075500Y-49000000D01*
X100075500Y-47428092D01*
X100076097Y-47415938D01*
X100087494Y-47300222D01*
X100092234Y-47276389D01*
X100124216Y-47170959D01*
X100133508Y-47148526D01*
X100185442Y-47051365D01*
X100198938Y-47031166D01*
X100268827Y-46946006D01*
X100286006Y-46928827D01*
X100371166Y-46858938D01*
X100391365Y-46845442D01*
X100488526Y-46793508D01*
X100510959Y-46784216D01*
X100616389Y-46752234D01*
X100640220Y-46747494D01*
X100755939Y-46736097D01*
X100768093Y-46735500D01*
X100786531Y-46735500D01*
X163417365Y-46735500D01*
X163484404Y-46755185D01*
G37*
%TD.AperFunction*%
%TD*%
M02*
