M48
; DRILL file {KiCad 8.0.1} date 2024-05-23T19:57:14+0200
; FORMAT={-:-/ absolute / inch / decimal}
; #@! TF.CreationDate,2024-05-23T19:57:14+02:00
; #@! TF.GenerationSoftware,Kicad,Pcbnew,8.0.1
; #@! TF.FileFunction,Plated,1,4,PTH
FMAT,2
INCH
; #@! TA.AperFunction,Plated,PTH,ComponentDrill
T1C0.0315
; #@! TA.AperFunction,Plated,PTH,ComponentDrill
T2C0.0354
; #@! TA.AperFunction,Plated,PTH,ComponentDrill
T3C0.0394
; #@! TA.AperFunction,Plated,PTH,ComponentDrill
T4C0.0433
%
G90
G05
T1
X4.0433Y-2.9732
X4.0433Y-3.3732
X4.2205Y-2.9772
X4.2205Y-3.3772
X4.3819Y-2.9732
X4.3819Y-3.3732
X4.5933Y-3.376
X4.685Y-2.9284
X4.685Y-3.0072
X4.689Y-2.1583
X4.689Y-2.5583
X4.8524Y-2.185
X4.9933Y-3.376
X5.0Y-2.3984
X5.0Y-2.7984
X5.0Y-2.9429
X5.0Y-3.1398
X5.0492Y-2.185
X5.1642Y-3.5827
X5.174Y-3.3858
X5.2146Y-2.4185
X5.2146Y-2.7185
X5.2146Y-2.8713
X5.2146Y-3.1713
X5.3146Y-2.4185
X5.3146Y-2.7185
X5.3146Y-2.8713
X5.3146Y-3.1713
X5.4146Y-2.4185
X5.4146Y-2.7185
X5.4146Y-2.8713
X5.4146Y-3.1713
X5.5146Y-2.4185
X5.5146Y-2.7185
X5.5146Y-2.8713
X5.5146Y-3.1713
X5.5642Y-3.5827
X5.5677Y-2.1752
X5.574Y-3.3858
X5.7677Y-2.3787
X5.7677Y-2.7787
X5.7677Y-2.9232
X5.7677Y-3.1201
X5.8189Y-3.4646
X5.9173Y-3.4646
X5.9677Y-2.1752
X6.1024Y-2.3787
X6.1024Y-2.7787
X6.3432Y-2.5197
X6.4416Y-2.5197
T2
X4.0142Y-2.687
X4.0256Y-2.3425
X4.1142Y-2.687
X4.1256Y-2.3425
X4.3685Y-2.6969
X4.3701Y-2.3524
X4.4685Y-2.6969
X4.4701Y-2.3524
T3
X4.2205Y-3.6339
X4.3898Y-3.6319
X4.677Y-1.937
X4.7441Y-3.622
X4.777Y-1.937
X4.877Y-1.937
X4.9311Y-3.622
X4.977Y-1.937
X5.037Y-3.837
X5.077Y-1.937
X5.137Y-3.837
X5.177Y-1.937
X5.237Y-3.837
X5.277Y-1.937
X5.3248Y-2.185
X5.337Y-3.837
X5.377Y-1.937
X5.437Y-3.837
X5.477Y-1.937
X5.537Y-3.837
X5.577Y-1.937
X5.637Y-3.837
X5.737Y-1.937
X5.737Y-3.837
X5.837Y-1.937
X5.937Y-1.937
X5.937Y-3.837
X6.037Y-1.937
X6.037Y-3.837
X6.137Y-1.937
X6.137Y-3.837
X6.185Y-3.0982
X6.185Y-3.1982
X6.185Y-3.2982
X6.237Y-1.937
X6.237Y-3.837
X6.337Y-1.937
X6.337Y-3.837
X6.3976Y-2.8346
X6.4331Y-3.5394
X6.437Y-1.937
X6.437Y-3.837
T4
X4.0354Y-1.9291
X4.0354Y-2.1063
X4.2913Y-1.9291
X4.2913Y-2.1063
M30
